%TF.FileFunction,Copper,L2,Bot*%
%TF.FilePolarity,Positive*%
%FSLAX46Y46*%
G04 Gerber Fmt 4.6, Leading zero omitted, Abs format (unit mm)*
%MOMM*%
%LPD*%
G01*
%ADD10C,0.100*%
%ADD11C,1.000*%
D10*
G36*
X8800000Y6000000D02*
X8692820Y6400000D01*
X8400000Y6692820D01*
X8000000Y6800000D01*
X7600000Y6692820D01*
X7307180Y6400000D01*
X7200000Y6000000D01*
X7307180Y5600000D01*
X7600000Y5307180D01*
X8000000Y5200000D01*
X8400000Y5307180D01*
X8692820Y5600000D01*
X8800000Y6000000D01*
G37*
G36*
X25800000Y6000000D02*
X25692820Y6400000D01*
X25400000Y6692820D01*
X25000000Y6800000D01*
X24600000Y6692820D01*
X24307180Y6400000D01*
X24200000Y6000000D01*
X24307180Y5600000D01*
X24600000Y5307180D01*
X25000000Y5200000D01*
X25400000Y5307180D01*
X25692820Y5600000D01*
X25800000Y6000000D01*
G37*
G36*
X42800000Y6000000D02*
X42692820Y6400000D01*
X42400000Y6692820D01*
X42000000Y6800000D01*
X41600000Y6692820D01*
X41307180Y6400000D01*
X41200000Y6000000D01*
X41307180Y5600000D01*
X41600000Y5307180D01*
X42000000Y5200000D01*
X42400000Y5307180D01*
X42692820Y5600000D01*
X42800000Y6000000D01*
G37*
G36*
X8800000Y15000000D02*
X8692820Y15400000D01*
X8400000Y15692820D01*
X8000000Y15800000D01*
X7600000Y15692820D01*
X7307180Y15400000D01*
X7200000Y15000000D01*
X7307180Y14600000D01*
X7600000Y14307180D01*
X8000000Y14200000D01*
X8400000Y14307180D01*
X8692820Y14600000D01*
X8800000Y15000000D01*
G37*
G36*
X25800000Y15000000D02*
X25692820Y15400000D01*
X25400000Y15692820D01*
X25000000Y15800000D01*
X24600000Y15692820D01*
X24307180Y15400000D01*
X24200000Y15000000D01*
X24307180Y14600000D01*
X24600000Y14307180D01*
X25000000Y14200000D01*
X25400000Y14307180D01*
X25692820Y14600000D01*
X25800000Y15000000D01*
G37*
G36*
X42800000Y15000000D02*
X42692820Y15400000D01*
X42400000Y15692820D01*
X42000000Y15800000D01*
X41600000Y15692820D01*
X41307180Y15400000D01*
X41200000Y15000000D01*
X41307180Y14600000D01*
X41600000Y14307180D01*
X42000000Y14200000D01*
X42400000Y14307180D01*
X42692820Y14600000D01*
X42800000Y15000000D01*
G37*
G36*
X8800000Y25000000D02*
X8692820Y25400000D01*
X8400000Y25692820D01*
X8000000Y25800000D01*
X7600000Y25692820D01*
X7307180Y25400000D01*
X7200000Y25000000D01*
X7307180Y24600000D01*
X7600000Y24307180D01*
X8000000Y24200000D01*
X8400000Y24307180D01*
X8692820Y24600000D01*
X8800000Y25000000D01*
G37*
G36*
X25800000Y25000000D02*
X25692820Y25400000D01*
X25400000Y25692820D01*
X25000000Y25800000D01*
X24600000Y25692820D01*
X24307180Y25400000D01*
X24200000Y25000000D01*
X24307180Y24600000D01*
X24600000Y24307180D01*
X25000000Y24200000D01*
X25400000Y24307180D01*
X25692820Y24600000D01*
X25800000Y25000000D01*
G37*
G36*
X42800000Y25000000D02*
X42692820Y25400000D01*
X42400000Y25692820D01*
X42000000Y25800000D01*
X41600000Y25692820D01*
X41307180Y25400000D01*
X41200000Y25000000D01*
X41307180Y24600000D01*
X41600000Y24307180D01*
X42000000Y24200000D01*
X42400000Y24307180D01*
X42692820Y24600000D01*
X42800000Y25000000D01*
G37*
G36*
X8800000Y34000000D02*
X8692820Y34400000D01*
X8400000Y34692820D01*
X8000000Y34800000D01*
X7600000Y34692820D01*
X7307180Y34400000D01*
X7200000Y34000000D01*
X7307180Y33600000D01*
X7600000Y33307180D01*
X8000000Y33200000D01*
X8400000Y33307180D01*
X8692820Y33600000D01*
X8800000Y34000000D01*
G37*
G36*
X25800000Y34000000D02*
X25692820Y34400000D01*
X25400000Y34692820D01*
X25000000Y34800000D01*
X24600000Y34692820D01*
X24307180Y34400000D01*
X24200000Y34000000D01*
X24307180Y33600000D01*
X24600000Y33307180D01*
X25000000Y33200000D01*
X25400000Y33307180D01*
X25692820Y33600000D01*
X25800000Y34000000D01*
G37*
G36*
X42800000Y34000000D02*
X42692820Y34400000D01*
X42400000Y34692820D01*
X42000000Y34800000D01*
X41600000Y34692820D01*
X41307180Y34400000D01*
X41200000Y34000000D01*
X41307180Y33600000D01*
X41600000Y33307180D01*
X42000000Y33200000D01*
X42400000Y33307180D01*
X42692820Y33600000D01*
X42800000Y34000000D01*
G37*
D11*
X8000000Y6000000D02*
X11400000Y9000000D01*
X14800000Y3000000D01*
X18200000Y9000000D01*
X21600000Y3000000D01*
X25000000Y6000000D01*
X28400000Y9000000D01*
X31800000Y3000000D01*
X35200000Y9000000D01*
X38600000Y3000000D01*
X42000000Y6000000D01*
X8000000Y25000000D02*
X11400000Y28000000D01*
X14800000Y22000000D01*
X18200000Y28000000D01*
X21600000Y22000000D01*
X25000000Y25000000D01*
X28400000Y28000000D01*
X31800000Y22000000D01*
X35200000Y28000000D01*
X38600000Y22000000D01*
X42000000Y25000000D01*
M02*
