%TF.FileFunction,Copper,L2,Bot*%
%TF.FilePolarity,Positive*%
%FSLAX46Y46*%
G04 Gerber Fmt 4.6, Leading zero omitted, Abs format (unit mm)*
%MOMM*%
%LPD*%
G01*
%ADD10C,0.100*%
D10*
G36*
X3000000Y3000000D02*
X77000000Y3000000D01*
X77000000Y5000000D01*
X3000000Y5000000D01*
X3000000Y3000000D01*
G37*
G36*
X3000000Y55000000D02*
X77000000Y55000000D01*
X77000000Y57000000D01*
X3000000Y57000000D01*
X3000000Y55000000D01*
G37*
G36*
X3000000Y3000000D02*
X5000000Y3000000D01*
X5000000Y57000000D01*
X3000000Y57000000D01*
X3000000Y3000000D01*
G37*
G36*
X75000000Y3000000D02*
X77000000Y3000000D01*
X77000000Y57000000D01*
X75000000Y57000000D01*
X75000000Y3000000D01*
G37*
G36*
X10000000Y29000000D02*
X70000000Y29000000D01*
X70000000Y31000000D01*
X10000000Y31000000D01*
X10000000Y29000000D01*
G37*
G36*
X39000000Y10000000D02*
X41000000Y10000000D01*
X41000000Y50000000D01*
X39000000Y50000000D01*
X39000000Y10000000D01*
G37*
G36*
X22000000Y15000000D02*
X21847759Y15765367D01*
X21414214Y16414214D01*
X20765367Y16847759D01*
X20000000Y17000000D01*
X19234633Y16847759D01*
X18585786Y16414214D01*
X18152241Y15765367D01*
X18000000Y15000000D01*
X18152241Y14234633D01*
X18585786Y13585786D01*
X19234633Y13152241D01*
X20000000Y13000000D01*
X20765367Y13152241D01*
X21414214Y13585786D01*
X21847759Y14234633D01*
X22000000Y15000000D01*
G37*
G36*
X42000000Y15000000D02*
X41847759Y15765367D01*
X41414214Y16414214D01*
X40765367Y16847759D01*
X40000000Y17000000D01*
X39234633Y16847759D01*
X38585786Y16414214D01*
X38152241Y15765367D01*
X38000000Y15000000D01*
X38152241Y14234633D01*
X38585786Y13585786D01*
X39234633Y13152241D01*
X40000000Y13000000D01*
X40765367Y13152241D01*
X41414214Y13585786D01*
X41847759Y14234633D01*
X42000000Y15000000D01*
G37*
G36*
X62000000Y15000000D02*
X61847759Y15765367D01*
X61414214Y16414214D01*
X60765367Y16847759D01*
X60000000Y17000000D01*
X59234633Y16847759D01*
X58585786Y16414214D01*
X58152241Y15765367D01*
X58000000Y15000000D01*
X58152241Y14234633D01*
X58585786Y13585786D01*
X59234633Y13152241D01*
X60000000Y13000000D01*
X60765367Y13152241D01*
X61414214Y13585786D01*
X61847759Y14234633D01*
X62000000Y15000000D01*
G37*
G36*
X22000000Y45000000D02*
X21847759Y45765367D01*
X21414214Y46414214D01*
X20765367Y46847759D01*
X20000000Y47000000D01*
X19234633Y46847759D01*
X18585786Y46414214D01*
X18152241Y45765367D01*
X18000000Y45000000D01*
X18152241Y44234633D01*
X18585786Y43585786D01*
X19234633Y43152241D01*
X20000000Y43000000D01*
X20765367Y43152241D01*
X21414214Y43585786D01*
X21847759Y44234633D01*
X22000000Y45000000D01*
G37*
G36*
X42000000Y45000000D02*
X41847759Y45765367D01*
X41414214Y46414214D01*
X40765367Y46847759D01*
X40000000Y47000000D01*
X39234633Y46847759D01*
X38585786Y46414214D01*
X38152241Y45765367D01*
X38000000Y45000000D01*
X38152241Y44234633D01*
X38585786Y43585786D01*
X39234633Y43152241D01*
X40000000Y43000000D01*
X40765367Y43152241D01*
X41414214Y43585786D01*
X41847759Y44234633D01*
X42000000Y45000000D01*
G37*
G36*
X62000000Y45000000D02*
X61847759Y45765367D01*
X61414214Y46414214D01*
X60765367Y46847759D01*
X60000000Y47000000D01*
X59234633Y46847759D01*
X58585786Y46414214D01*
X58152241Y45765367D01*
X58000000Y45000000D01*
X58152241Y44234633D01*
X58585786Y43585786D01*
X59234633Y43152241D01*
X60000000Y43000000D01*
X60765367Y43152241D01*
X61414214Y43585786D01*
X61847759Y44234633D01*
X62000000Y45000000D01*
G37*
M02*
