%TF.GenerationSoftware,KiCad,Pcbnew,9.0.4*%
%TF.CreationDate,2026-06-11T08:54:31+02:00*%
%TF.ProjectId,buck,6275636b-2e6b-4696-9361-645f70636258,rev?*%
%TF.SameCoordinates,Original*%
%TF.FileFunction,Copper,L2,Bot*%
%TF.FilePolarity,Positive*%
%FSLAX46Y46*%
G04 Gerber Fmt 4.6, Leading zero omitted, Abs format (unit mm)*
G04 Created by KiCad (PCBNEW 9.0.4) date 2026-06-11 08:54:31*
%MOMM*%
%LPD*%
G01*
G04 APERTURE LIST*
G04 Aperture macros list*
%AMRoundRect*
0 Rectangle with rounded corners*
0 $1 Rounding radius*
0 $2 $3 $4 $5 $6 $7 $8 $9 X,Y pos of 4 corners*
0 Add a 4 corners polygon primitive as box body*
4,1,4,$2,$3,$4,$5,$6,$7,$8,$9,$2,$3,0*
0 Add four circle primitives for the rounded corners*
1,1,$1+$1,$2,$3*
1,1,$1+$1,$4,$5*
1,1,$1+$1,$6,$7*
1,1,$1+$1,$8,$9*
0 Add four rect primitives between the rounded corners*
20,1,$1+$1,$2,$3,$4,$5,0*
20,1,$1+$1,$4,$5,$6,$7,0*
20,1,$1+$1,$6,$7,$8,$9,0*
20,1,$1+$1,$8,$9,$2,$3,0*%
G04 Aperture macros list end*
%TA.AperFunction,ComponentPad*%
%ADD10R,3.000000X3.000000*%
%TD*%
%TA.AperFunction,ComponentPad*%
%ADD11C,3.000000*%
%TD*%
%TA.AperFunction,ComponentPad*%
%ADD12R,1.700000X1.700000*%
%TD*%
%TA.AperFunction,ComponentPad*%
%ADD13C,1.700000*%
%TD*%
%TA.AperFunction,ComponentPad*%
%ADD14C,1.600000*%
%TD*%
%TA.AperFunction,ComponentPad*%
%ADD15RoundRect,0.250000X-0.550000X-0.550000X0.550000X-0.550000X0.550000X0.550000X-0.550000X0.550000X0*%
%TD*%
%TA.AperFunction,ComponentPad*%
%ADD16RoundRect,0.250000X-0.950000X-0.550000X0.950000X-0.550000X0.950000X0.550000X-0.950000X0.550000X0*%
%TD*%
%TA.AperFunction,ComponentPad*%
%ADD17O,2.400000X1.600000*%
%TD*%
%TA.AperFunction,ComponentPad*%
%ADD18C,4.000000*%
%TD*%
%TA.AperFunction,ComponentPad*%
%ADD19RoundRect,0.249999X-0.850001X-0.850001X0.850001X-0.850001X0.850001X0.850001X-0.850001X0.850001X0*%
%TD*%
%TA.AperFunction,ComponentPad*%
%ADD20C,2.200000*%
%TD*%
%TA.AperFunction,ComponentPad*%
%ADD21R,1.700000X2.000000*%
%TD*%
%TA.AperFunction,ComponentPad*%
%ADD22O,1.700000X2.000000*%
%TD*%
%TA.AperFunction,Conductor*%
%ADD23C,1.000000*%
%TD*%
G04 APERTURE END LIST*
D10*
%TO.P,J1,1*%
%TO.N,/VIN_15V*%
X32560000Y-47162500D03*
D11*
%TO.P,J1,2*%
%TO.N,/GND*%
X27480000Y-47162500D03*
%TD*%
D12*
%TO.P,J3,1*%
%TO.N,PWM*%
X30020000Y-60487500D03*
D13*
%TO.P,J3,2*%
%TO.N,GND_MCU*%
X30020000Y-57947500D03*
%TD*%
D14*
%TO.P,R1,1*%
%TO.N,PWM*%
X46595000Y-99337500D03*
%TO.P,R1,2*%
%TO.N,Net-(R1-Pad2)*%
X54215000Y-99337500D03*
%TD*%
D15*
%TO.P,C1,1*%
%TO.N,/VOUT_5V*%
X63809700Y-90537500D03*
D14*
%TO.P,C1,2*%
%TO.N,/GND*%
X67309700Y-90537500D03*
%TD*%
D16*
%TO.P,U1,1*%
%TO.N,Net-(R1-Pad2)*%
X46995000Y-87997500D03*
D17*
%TO.P,U1,2*%
%TO.N,GND_MCU*%
X46995000Y-90537500D03*
%TO.P,U1,3*%
%TO.N,N/C*%
X46995000Y-93077500D03*
%TO.P,U1,4*%
%TO.N,GATE*%
X54615000Y-93077500D03*
%TO.P,U1,5*%
%TO.N,+12V_SW*%
X54615000Y-90537500D03*
%TO.P,U1,6*%
%TO.N,N/C*%
X54615000Y-87997500D03*
%TD*%
D18*
%TO.P,L1,1*%
%TO.N,/SW*%
X66855000Y-65962500D03*
%TO.P,L1,2*%
%TO.N,/VOUT_5V*%
X95055000Y-65962500D03*
%TD*%
D12*
%TO.P,J4,1*%
%TO.N,+12V_SW*%
X113980000Y-57937500D03*
D13*
%TO.P,J4,2*%
%TO.N,/SW*%
X113980000Y-60477500D03*
%TD*%
D14*
%TO.P,R2,1*%
%TO.N,GATE*%
X61365000Y-99337500D03*
%TO.P,R2,2*%
%TO.N,/SW*%
X68985000Y-99337500D03*
%TD*%
D19*
%TO.P,D1,1*%
%TO.N,/SW*%
X46895000Y-65962500D03*
D20*
%TO.P,D1,2*%
%TO.N,/GND*%
X57055000Y-65962500D03*
%TD*%
D10*
%TO.P,J2,1*%
%TO.N,/VOUT_5V*%
X111440000Y-47162500D03*
D11*
%TO.P,J2,2*%
%TO.N,/GND*%
X116520000Y-47162500D03*
%TD*%
D21*
%TO.P,M1,1*%
%TO.N,GATE*%
X77569700Y-91487500D03*
D22*
%TO.P,M1,2*%
%TO.N,/VIN_15V*%
X80109700Y-91487500D03*
%TO.P,M1,3*%
%TO.N,/SW*%
X82649700Y-91487500D03*
%TD*%
D23*
%TO.N,+12V_SW*%
X59446900Y-90537500D02*
X54615000Y-90537500D01*
X78884000Y-71100400D02*
X59446900Y-90537500D01*
X113980000Y-57937500D02*
X116131700Y-57937500D01*
X116131700Y-61380400D02*
X106411700Y-71100400D01*
X116131700Y-57937500D02*
X116131700Y-61380400D01*
X106411700Y-71100400D02*
X78884000Y-71100400D01*
%TO.N,/GND*%
X98464500Y-84143600D02*
X73703600Y-84143600D01*
X116520000Y-47162500D02*
X119779400Y-50421900D01*
X57055000Y-65962500D02*
X78656700Y-44360800D01*
X45000700Y-53908200D02*
X34225700Y-53908200D01*
X119779400Y-50421900D02*
X119779400Y-62828700D01*
X57055000Y-65962500D02*
X45000700Y-53908200D01*
X73703600Y-84143600D02*
X67309700Y-90537500D01*
X119779400Y-62828700D02*
X98464500Y-84143600D01*
X34225700Y-53908200D02*
X27480000Y-47162500D01*
X78656700Y-44360800D02*
X113718300Y-44360800D01*
X113718300Y-44360800D02*
X116520000Y-47162500D01*
%TO.N,/SW*%
X52101800Y-68408800D02*
X49341300Y-68408800D01*
X59566000Y-101467700D02*
X52101800Y-94003500D01*
X75452800Y-99337500D02*
X68985000Y-99337500D01*
X113980000Y-60477500D02*
X105188000Y-69269500D01*
X49341300Y-68408800D02*
X46895000Y-65962500D01*
X66854800Y-101467700D02*
X59566000Y-101467700D01*
X70162000Y-69269500D02*
X66855000Y-65962500D01*
X52101800Y-94003500D02*
X52101800Y-68408800D01*
X82649700Y-91487500D02*
X82649700Y-92140600D01*
X82649700Y-92140600D02*
X75452800Y-99337500D01*
X105188000Y-69269500D02*
X70162000Y-69269500D01*
X68985000Y-99337500D02*
X66854800Y-101467700D01*
X66855000Y-65962500D02*
X64408700Y-68408800D01*
X64408700Y-68408800D02*
X52101800Y-68408800D01*
%TO.N,/VIN_15V*%
X84846400Y-92562000D02*
X84846400Y-90455900D01*
X24644500Y-45972900D02*
X24644500Y-80423300D01*
X26256600Y-44360800D02*
X24644500Y-45972900D01*
X32560000Y-47162500D02*
X29758300Y-44360800D01*
X80109700Y-91487500D02*
X80109700Y-89185800D01*
X84846400Y-90455900D02*
X83576300Y-89185800D01*
X29758300Y-44360800D02*
X26256600Y-44360800D01*
X83576300Y-89185800D02*
X80109700Y-89185800D01*
X74139000Y-103269400D02*
X84846400Y-92562000D01*
X47490600Y-103269400D02*
X74139000Y-103269400D01*
X24644500Y-80423300D02*
X47490600Y-103269400D01*
%TO.N,/VOUT_5V*%
X117973000Y-56497200D02*
X117973000Y-62087100D01*
X107158000Y-72902100D02*
X81445100Y-72902100D01*
X117973000Y-62087100D02*
X107158000Y-72902100D01*
X111053300Y-49964200D02*
X111440000Y-49964200D01*
X111440000Y-49964200D02*
X117973000Y-56497200D01*
X111440000Y-47162500D02*
X111440000Y-49964200D01*
X81445100Y-72902100D02*
X63809700Y-90537500D01*
X95055000Y-65962500D02*
X111053300Y-49964200D01*
%TO.N,GATE*%
X61365000Y-99337500D02*
X61365000Y-97325800D01*
X75418000Y-91487500D02*
X69749300Y-91487500D01*
X61365000Y-97325800D02*
X57116700Y-93077500D01*
X69749300Y-91487500D02*
X63911000Y-97325800D01*
X54615000Y-93077500D02*
X57116700Y-93077500D01*
X77569700Y-91487500D02*
X75418000Y-91487500D01*
X63911000Y-97325800D02*
X61365000Y-97325800D01*
%TO.N,GND_MCU*%
X32627800Y-59554400D02*
X31020900Y-57947500D01*
X31020900Y-57947500D02*
X30020000Y-57947500D01*
X46995000Y-90537500D02*
X44493300Y-90537500D01*
X32627800Y-78672000D02*
X32627800Y-59554400D01*
X44493300Y-90537500D02*
X32627800Y-78672000D01*
%TO.N,Net-(R1-Pad2)*%
X46995000Y-87997500D02*
X47902500Y-87997500D01*
X49600300Y-94722800D02*
X54215000Y-99337500D01*
X47902500Y-87997500D02*
X49600300Y-89695300D01*
X49600300Y-89695300D02*
X49600300Y-94722800D01*
%TO.N,PWM*%
X30020000Y-82762500D02*
X30020000Y-60487500D01*
X46595000Y-99337500D02*
X30020000Y-82762500D01*
%TD*%
%TA.AperFunction,NonConductor*%
G36*
X123442539Y-20520185D02*
G01*
X123488294Y-20572989D01*
X123499500Y-20624500D01*
X123499500Y-123375500D01*
X123479815Y-123442539D01*
X123427011Y-123488294D01*
X123375500Y-123499500D01*
X20624500Y-123499500D01*
X20557461Y-123479815D01*
X20511706Y-123427011D01*
X20500500Y-123375500D01*
X20500500Y-45870548D01*
X23344000Y-45870548D01*
X23344000Y-80525651D01*
X23376022Y-80727834D01*
X23439281Y-80922523D01*
X23485746Y-81013714D01*
X23532213Y-81104911D01*
X23652534Y-81270519D01*
X23652536Y-81270521D01*
X46643386Y-104261371D01*
X46798349Y-104373956D01*
X46808990Y-104381687D01*
X46900185Y-104428153D01*
X46991376Y-104474618D01*
X46991378Y-104474618D01*
X46991381Y-104474620D01*
X47088722Y-104506248D01*
X47186065Y-104537877D01*
X47287157Y-104553888D01*
X47388248Y-104569900D01*
X47388249Y-104569900D01*
X74241351Y-104569900D01*
X74241352Y-104569900D01*
X74443535Y-104537877D01*
X74540876Y-104506248D01*
X74638219Y-104474620D01*
X74729414Y-104428153D01*
X74820611Y-104381687D01*
X74986219Y-104261366D01*
X85838366Y-93409219D01*
X85958687Y-93243611D01*
X86023037Y-93117316D01*
X86051620Y-93061219D01*
X86105163Y-92896431D01*
X86114877Y-92866535D01*
X86146900Y-92664352D01*
X86146900Y-92459649D01*
X86146900Y-90353548D01*
X86114877Y-90151366D01*
X86114876Y-90151362D01*
X86114876Y-90151361D01*
X86078134Y-90038282D01*
X86078134Y-90038281D01*
X86051623Y-89956687D01*
X86051621Y-89956681D01*
X86001179Y-89857684D01*
X85958687Y-89774290D01*
X85924794Y-89727640D01*
X85881446Y-89667976D01*
X85838371Y-89608687D01*
X85838368Y-89608684D01*
X85838366Y-89608681D01*
X85693619Y-89463934D01*
X85693618Y-89463933D01*
X85690507Y-89460822D01*
X85690492Y-89460808D01*
X84423521Y-88193836D01*
X84423520Y-88193835D01*
X84423519Y-88193834D01*
X84257911Y-88073513D01*
X84166714Y-88027046D01*
X84075523Y-87980581D01*
X84028815Y-87965404D01*
X83978176Y-87948951D01*
X83954303Y-87941194D01*
X83880835Y-87917322D01*
X83706295Y-87889678D01*
X83678652Y-87885300D01*
X80212052Y-87885300D01*
X80007348Y-87885300D01*
X79983029Y-87889151D01*
X79805165Y-87917322D01*
X79610476Y-87980581D01*
X79428086Y-88073515D01*
X79262486Y-88193828D01*
X79117728Y-88338586D01*
X78997415Y-88504186D01*
X78904481Y-88686576D01*
X78841222Y-88881265D01*
X78809200Y-89083448D01*
X78809200Y-89600937D01*
X78789515Y-89667976D01*
X78736711Y-89713731D01*
X78667553Y-89723675D01*
X78644247Y-89717979D01*
X78598960Y-89702133D01*
X78598949Y-89702130D01*
X78464660Y-89687000D01*
X78464654Y-89687000D01*
X76674746Y-89687000D01*
X76674739Y-89687000D01*
X76540450Y-89702130D01*
X76540445Y-89702131D01*
X76370176Y-89761711D01*
X76217437Y-89857684D01*
X76089884Y-89985237D01*
X75999570Y-90128972D01*
X75947235Y-90175263D01*
X75894576Y-90187000D01*
X69798746Y-90187000D01*
X69731707Y-90167315D01*
X69685952Y-90114511D01*
X69676008Y-90045353D01*
X69705033Y-89981797D01*
X69711065Y-89975319D01*
X74205966Y-85480419D01*
X74267289Y-85446934D01*
X74293647Y-85444100D01*
X98566851Y-85444100D01*
X98566852Y-85444100D01*
X98769035Y-85412077D01*
X98866376Y-85380448D01*
X98963719Y-85348820D01*
X99054914Y-85302353D01*
X99146111Y-85255887D01*
X99311719Y-85135566D01*
X120619550Y-63827732D01*
X120619557Y-63827727D01*
X120626617Y-63820667D01*
X120626619Y-63820666D01*
X120771366Y-63675919D01*
X120771368Y-63675915D01*
X120771371Y-63675913D01*
X120824132Y-63603290D01*
X120891687Y-63510310D01*
X120954211Y-63387600D01*
X120984621Y-63327918D01*
X121047877Y-63133234D01*
X121079900Y-62931052D01*
X121079900Y-50319548D01*
X121047877Y-50117366D01*
X121042744Y-50101568D01*
X121031371Y-50066564D01*
X121031365Y-50066549D01*
X120984623Y-49922687D01*
X120984621Y-49922681D01*
X120952438Y-49859520D01*
X120891687Y-49740290D01*
X120844020Y-49674681D01*
X120771372Y-49574688D01*
X120771368Y-49574684D01*
X120771366Y-49574681D01*
X120626619Y-49429934D01*
X120626618Y-49429933D01*
X120623507Y-49426822D01*
X120623492Y-49426808D01*
X118827612Y-47630928D01*
X118794127Y-47569605D01*
X118792354Y-47527066D01*
X118820500Y-47313283D01*
X118820500Y-47011717D01*
X118781138Y-46712732D01*
X118703087Y-46421442D01*
X118587683Y-46142832D01*
X118436900Y-45881668D01*
X118428367Y-45870548D01*
X118253320Y-45642421D01*
X118253314Y-45642414D01*
X118040085Y-45429185D01*
X118040078Y-45429179D01*
X117800831Y-45245599D01*
X117539671Y-45094818D01*
X117539661Y-45094814D01*
X117261060Y-44979413D01*
X116969766Y-44901361D01*
X116670793Y-44862001D01*
X116670788Y-44862000D01*
X116670783Y-44862000D01*
X116369217Y-44862000D01*
X116369211Y-44862000D01*
X116369206Y-44862001D01*
X116155437Y-44890144D01*
X116086402Y-44879378D01*
X116051571Y-44854886D01*
X114565521Y-43368836D01*
X114565519Y-43368834D01*
X114399911Y-43248513D01*
X114308714Y-43202046D01*
X114308712Y-43202045D01*
X114217523Y-43155581D01*
X114170815Y-43140404D01*
X114120176Y-43123951D01*
X114096303Y-43116194D01*
X114022835Y-43092322D01*
X113848295Y-43064678D01*
X113820652Y-43060300D01*
X78759052Y-43060300D01*
X78554348Y-43060300D01*
X78486953Y-43070974D01*
X78352163Y-43092323D01*
X78254823Y-43123950D01*
X78254823Y-43123951D01*
X78202052Y-43141097D01*
X78157474Y-43155582D01*
X78066284Y-43202045D01*
X78066285Y-43202046D01*
X77975088Y-43248513D01*
X77809478Y-43368836D01*
X57152634Y-64025681D01*
X57125706Y-64040384D01*
X57099888Y-64056977D01*
X57093687Y-64057868D01*
X57091311Y-64059166D01*
X57064953Y-64062000D01*
X57045046Y-64062000D01*
X56978007Y-64042315D01*
X56957365Y-64025681D01*
X45847921Y-52916236D01*
X45847920Y-52916235D01*
X45847919Y-52916234D01*
X45682311Y-52795913D01*
X45591114Y-52749446D01*
X45499923Y-52702981D01*
X45453215Y-52687804D01*
X45402576Y-52671351D01*
X45378703Y-52663594D01*
X45305235Y-52639722D01*
X45130695Y-52612078D01*
X45103052Y-52607700D01*
X45103051Y-52607700D01*
X34815747Y-52607700D01*
X34748708Y-52588015D01*
X34728066Y-52571381D01*
X31831366Y-49674681D01*
X31797881Y-49613358D01*
X31802865Y-49543666D01*
X31844737Y-49487733D01*
X31910201Y-49463316D01*
X31919047Y-49463000D01*
X34104957Y-49463000D01*
X34104958Y-49462999D01*
X34172104Y-49455434D01*
X34239249Y-49447869D01*
X34239252Y-49447868D01*
X34239255Y-49447868D01*
X34409522Y-49388289D01*
X34562262Y-49292316D01*
X34689816Y-49164762D01*
X34785789Y-49012022D01*
X34845368Y-48841755D01*
X34860500Y-48707454D01*
X34860500Y-45617546D01*
X34845368Y-45483245D01*
X34785789Y-45312978D01*
X34689816Y-45160238D01*
X34562262Y-45032684D01*
X34477482Y-44979413D01*
X34409523Y-44936711D01*
X34239254Y-44877131D01*
X34239249Y-44877130D01*
X34104960Y-44862000D01*
X34104954Y-44862000D01*
X32150047Y-44862000D01*
X32083008Y-44842315D01*
X32062366Y-44825681D01*
X30605521Y-43368836D01*
X30605519Y-43368834D01*
X30439911Y-43248513D01*
X30348714Y-43202046D01*
X30348712Y-43202045D01*
X30257523Y-43155581D01*
X30210815Y-43140404D01*
X30160176Y-43123951D01*
X30136303Y-43116194D01*
X30062835Y-43092322D01*
X29888295Y-43064678D01*
X29860652Y-43060300D01*
X26154248Y-43060300D01*
X26086854Y-43070974D01*
X25952064Y-43092323D01*
X25757384Y-43155577D01*
X25757381Y-43155578D01*
X25574986Y-43248515D01*
X25409386Y-43368828D01*
X23652536Y-45125678D01*
X23532216Y-45291284D01*
X23532213Y-45291288D01*
X23521161Y-45312980D01*
X23439281Y-45473676D01*
X23419544Y-45534421D01*
X23409277Y-45566020D01*
X23409277Y-45566021D01*
X23409276Y-45566020D01*
X23385698Y-45638588D01*
X23385102Y-45640425D01*
X23380731Y-45653875D01*
X23376022Y-45668368D01*
X23344000Y-45870548D01*
X20500500Y-45870548D01*
X20500500Y-20624500D01*
X20520185Y-20557461D01*
X20572989Y-20511706D01*
X20624500Y-20500500D01*
X123375500Y-20500500D01*
X123442539Y-20520185D01*
G37*
%TD.AperFunction*%
%TA.AperFunction,NonConductor*%
G36*
X29840908Y-46292237D02*
G01*
X29874408Y-46316093D01*
X30223181Y-46664866D01*
X30256666Y-46726189D01*
X30259500Y-46752547D01*
X30259500Y-47803453D01*
X30239815Y-47870492D01*
X30187011Y-47916247D01*
X30117853Y-47926191D01*
X30054297Y-47897166D01*
X30047819Y-47891134D01*
X29787612Y-47630927D01*
X29754127Y-47569604D01*
X29752354Y-47527065D01*
X29780500Y-47313283D01*
X29780500Y-47011717D01*
X29741138Y-46712732D01*
X29666952Y-46435866D01*
X29668615Y-46366018D01*
X29707777Y-46308155D01*
X29772006Y-46280651D01*
X29840908Y-46292237D01*
G37*
%TD.AperFunction*%
%TA.AperFunction,NonConductor*%
G36*
X113945703Y-46427834D02*
G01*
X113952181Y-46433866D01*
X114212386Y-46694071D01*
X114245871Y-46755394D01*
X114247644Y-46797937D01*
X114219501Y-47011706D01*
X114219500Y-47011723D01*
X114219500Y-47313276D01*
X114219501Y-47313293D01*
X114258861Y-47612266D01*
X114336913Y-47903560D01*
X114452314Y-48182161D01*
X114452318Y-48182171D01*
X114603099Y-48443331D01*
X114786679Y-48682578D01*
X114786685Y-48682585D01*
X114999914Y-48895814D01*
X114999921Y-48895820D01*
X115239168Y-49079400D01*
X115500328Y-49230181D01*
X115500329Y-49230181D01*
X115500332Y-49230183D01*
X115686072Y-49307119D01*
X115778939Y-49345586D01*
X115778940Y-49345586D01*
X115778942Y-49345587D01*
X116070232Y-49423638D01*
X116369217Y-49463000D01*
X116369224Y-49463000D01*
X116670776Y-49463000D01*
X116670783Y-49463000D01*
X116884564Y-49434854D01*
X116953596Y-49445619D01*
X116988428Y-49470112D01*
X118442581Y-50924265D01*
X118476066Y-50985588D01*
X118478900Y-51011946D01*
X118478900Y-54864553D01*
X118459215Y-54931592D01*
X118406411Y-54977347D01*
X118337253Y-54987291D01*
X118273697Y-54958266D01*
X118267219Y-54952234D01*
X112981015Y-49666030D01*
X112947530Y-49604707D01*
X112952514Y-49535015D01*
X112994386Y-49479082D01*
X113054813Y-49455129D01*
X113119250Y-49447869D01*
X113119253Y-49447868D01*
X113119255Y-49447868D01*
X113289522Y-49388289D01*
X113442262Y-49292316D01*
X113569816Y-49164762D01*
X113665789Y-49012022D01*
X113725368Y-48841755D01*
X113740500Y-48707454D01*
X113740500Y-46521547D01*
X113760185Y-46454508D01*
X113812989Y-46408753D01*
X113882147Y-46398809D01*
X113945703Y-46427834D01*
G37*
%TD.AperFunction*%
%TA.AperFunction,NonConductor*%
G36*
X111289983Y-51669214D02*
G01*
X111334330Y-51697715D01*
X116061934Y-56425319D01*
X116095419Y-56486642D01*
X116090435Y-56556334D01*
X116048563Y-56612267D01*
X115983099Y-56636684D01*
X115974253Y-56637000D01*
X115560810Y-56637000D01*
X115493771Y-56617315D01*
X115463865Y-56590315D01*
X115459816Y-56585238D01*
X115332262Y-56457684D01*
X115179523Y-56361711D01*
X115009254Y-56302131D01*
X115009249Y-56302130D01*
X114874960Y-56287000D01*
X114874954Y-56287000D01*
X113085046Y-56287000D01*
X113085039Y-56287000D01*
X112950750Y-56302130D01*
X112950745Y-56302131D01*
X112780476Y-56361711D01*
X112627737Y-56457684D01*
X112500184Y-56585237D01*
X112404211Y-56737976D01*
X112344631Y-56908245D01*
X112344630Y-56908250D01*
X112329500Y-57042539D01*
X112329500Y-58832460D01*
X112344630Y-58966749D01*
X112344631Y-58966754D01*
X112404211Y-59137023D01*
X112500184Y-59289762D01*
X112600576Y-59390154D01*
X112634061Y-59451477D01*
X112629077Y-59521169D01*
X112613214Y-59550719D01*
X112568367Y-59612446D01*
X112450422Y-59843925D01*
X112370139Y-60091009D01*
X112346864Y-60237959D01*
X112316934Y-60301093D01*
X112312072Y-60306241D01*
X104685634Y-67932681D01*
X104624311Y-67966166D01*
X104597953Y-67969000D01*
X97294332Y-67969000D01*
X97227293Y-67949315D01*
X97181538Y-67896511D01*
X97171594Y-67827353D01*
X97197385Y-67767687D01*
X97342577Y-67585623D01*
X97509926Y-67319289D01*
X97646402Y-67035894D01*
X97750289Y-66739000D01*
X97820282Y-66432340D01*
X97855500Y-66119773D01*
X97855500Y-65805227D01*
X97820282Y-65492660D01*
X97810212Y-65448541D01*
X97750746Y-65188000D01*
X97755019Y-65118261D01*
X97783954Y-65072729D01*
X111158968Y-51697714D01*
X111220291Y-51664230D01*
X111289983Y-51669214D01*
G37*
%TD.AperFunction*%
%TA.AperFunction,NonConductor*%
G36*
X109082539Y-45680985D02*
G01*
X109128294Y-45733789D01*
X109139500Y-45785300D01*
X109139500Y-48707460D01*
X109154630Y-48841749D01*
X109154631Y-48841754D01*
X109214211Y-49012023D01*
X109249873Y-49068778D01*
X109310184Y-49164762D01*
X109437738Y-49292316D01*
X109502321Y-49332896D01*
X109581366Y-49382564D01*
X109627657Y-49434899D01*
X109638305Y-49503953D01*
X109609930Y-49567801D01*
X109603075Y-49575239D01*
X95944770Y-63233543D01*
X95883447Y-63267028D01*
X95829497Y-63266753D01*
X95524843Y-63197218D01*
X95524827Y-63197216D01*
X95212277Y-63162000D01*
X95212273Y-63162000D01*
X94897727Y-63162000D01*
X94897722Y-63162000D01*
X94585172Y-63197216D01*
X94585156Y-63197218D01*
X94278500Y-63267210D01*
X94278498Y-63267211D01*
X93981604Y-63371098D01*
X93698213Y-63507572D01*
X93431878Y-63674922D01*
X93185956Y-63871038D01*
X92963538Y-64093456D01*
X92767422Y-64339378D01*
X92600072Y-64605713D01*
X92463598Y-64889104D01*
X92359711Y-65185998D01*
X92359710Y-65186000D01*
X92289718Y-65492656D01*
X92289716Y-65492672D01*
X92254500Y-65805222D01*
X92254500Y-66119777D01*
X92289716Y-66432327D01*
X92289718Y-66432343D01*
X92359710Y-66738999D01*
X92359711Y-66739001D01*
X92463598Y-67035895D01*
X92600072Y-67319286D01*
X92600074Y-67319289D01*
X92767423Y-67585623D01*
X92850809Y-67690185D01*
X92912615Y-67767687D01*
X92939023Y-67832374D01*
X92926268Y-67901069D01*
X92878397Y-67951963D01*
X92815668Y-67969000D01*
X70752047Y-67969000D01*
X70685008Y-67949315D01*
X70664366Y-67932681D01*
X69583956Y-66852271D01*
X69550471Y-66790948D01*
X69550746Y-66736997D01*
X69620282Y-66432340D01*
X69655500Y-66119773D01*
X69655500Y-65805227D01*
X69620282Y-65492660D01*
X69550289Y-65186000D01*
X69446402Y-64889106D01*
X69309926Y-64605711D01*
X69142577Y-64339377D01*
X68946461Y-64093456D01*
X68724044Y-63871039D01*
X68478123Y-63674923D01*
X68211789Y-63507574D01*
X68211786Y-63507572D01*
X67928395Y-63371098D01*
X67631501Y-63267211D01*
X67631499Y-63267210D01*
X67324843Y-63197218D01*
X67324827Y-63197216D01*
X67012277Y-63162000D01*
X67012273Y-63162000D01*
X66697727Y-63162000D01*
X66697722Y-63162000D01*
X66385172Y-63197216D01*
X66385156Y-63197218D01*
X66078500Y-63267210D01*
X66078498Y-63267211D01*
X65781604Y-63371098D01*
X65498213Y-63507572D01*
X65231878Y-63674922D01*
X64985956Y-63871038D01*
X64763538Y-64093456D01*
X64567422Y-64339378D01*
X64400072Y-64605713D01*
X64263598Y-64889104D01*
X64159711Y-65185998D01*
X64159710Y-65186000D01*
X64089718Y-65492656D01*
X64089716Y-65492672D01*
X64054500Y-65805222D01*
X64054500Y-66119777D01*
X64089716Y-66432327D01*
X64089718Y-66432343D01*
X64159253Y-66736997D01*
X64154980Y-66806736D01*
X64126043Y-66852270D01*
X63906332Y-67071982D01*
X63845012Y-67105466D01*
X63818653Y-67108300D01*
X58802755Y-67108300D01*
X58735716Y-67088615D01*
X58689961Y-67035811D01*
X58680017Y-66966653D01*
X58695368Y-66922300D01*
X58763162Y-66804876D01*
X58763164Y-66804873D01*
X58858502Y-66574707D01*
X58922982Y-66334065D01*
X58955500Y-66087065D01*
X58955500Y-65952546D01*
X58975185Y-65885508D01*
X58991819Y-65864866D01*
X79159066Y-45697619D01*
X79220389Y-45664134D01*
X79246747Y-45661300D01*
X109015500Y-45661300D01*
X109082539Y-45680985D01*
G37*
%TD.AperFunction*%
%TA.AperFunction,NonConductor*%
G36*
X106333992Y-74222285D02*
G01*
X106379747Y-74275089D01*
X106389691Y-74344247D01*
X106360666Y-74407803D01*
X106354634Y-74414281D01*
X97962134Y-82806781D01*
X97900811Y-82840266D01*
X97874453Y-82843100D01*
X73642645Y-82843100D01*
X73575606Y-82823415D01*
X73529851Y-82770611D01*
X73519907Y-82701453D01*
X73548932Y-82637897D01*
X73554964Y-82631419D01*
X81947465Y-74238919D01*
X82008788Y-74205434D01*
X82035146Y-74202600D01*
X106266953Y-74202600D01*
X106333992Y-74222285D01*
G37*
%TD.AperFunction*%
%TA.AperFunction,NonConductor*%
G36*
X79874793Y-72420585D02*
G01*
X79920548Y-72473389D01*
X79930492Y-72542547D01*
X79901467Y-72606103D01*
X79895435Y-72612580D01*
X71585496Y-80922519D01*
X63607334Y-88900681D01*
X63546011Y-88934166D01*
X63519653Y-88937000D01*
X63208092Y-88937000D01*
X63204107Y-88937392D01*
X63196343Y-88938157D01*
X63127697Y-88925137D01*
X63076987Y-88877071D01*
X63060315Y-88809220D01*
X63082972Y-88743126D01*
X63096504Y-88727079D01*
X79386366Y-72437219D01*
X79447689Y-72403734D01*
X79474047Y-72400900D01*
X79807754Y-72400900D01*
X79874793Y-72420585D01*
G37*
%TD.AperFunction*%
%TA.AperFunction,NonConductor*%
G36*
X26144484Y-49037439D02*
G01*
X26199168Y-49079400D01*
X26199172Y-49079402D01*
X26199173Y-49079403D01*
X26460328Y-49230181D01*
X26460329Y-49230181D01*
X26460332Y-49230183D01*
X26646072Y-49307119D01*
X26738939Y-49345586D01*
X26738940Y-49345586D01*
X26738942Y-49345587D01*
X27030232Y-49423638D01*
X27329217Y-49463000D01*
X27329224Y-49463000D01*
X27630776Y-49463000D01*
X27630783Y-49463000D01*
X27844563Y-49434854D01*
X27913595Y-49445619D01*
X27948427Y-49470112D01*
X33378486Y-54900171D01*
X33458449Y-54958266D01*
X33544090Y-55020487D01*
X33660307Y-55079703D01*
X33726476Y-55113418D01*
X33726478Y-55113418D01*
X33726481Y-55113420D01*
X33830837Y-55147327D01*
X33921165Y-55176677D01*
X34022257Y-55192688D01*
X34123348Y-55208700D01*
X34328051Y-55208700D01*
X44410653Y-55208700D01*
X44477692Y-55228385D01*
X44498334Y-55245019D01*
X55118181Y-65864865D01*
X55151666Y-65926188D01*
X55154500Y-65952546D01*
X55154500Y-66087058D01*
X55154501Y-66087075D01*
X55187017Y-66334061D01*
X55251498Y-66574707D01*
X55346830Y-66804861D01*
X55346837Y-66804876D01*
X55414632Y-66922300D01*
X55431105Y-66990201D01*
X55408252Y-67056227D01*
X55353331Y-67099418D01*
X55307245Y-67108300D01*
X49931346Y-67108300D01*
X49864307Y-67088615D01*
X49843665Y-67071981D01*
X48831818Y-66060133D01*
X48798333Y-65998810D01*
X48795499Y-65972452D01*
X48795499Y-65060895D01*
X48780300Y-64906567D01*
X48780300Y-64906566D01*
X48780300Y-64906565D01*
X48720232Y-64708545D01*
X48622685Y-64526049D01*
X48622682Y-64526045D01*
X48491410Y-64366089D01*
X48331454Y-64234817D01*
X48331452Y-64234816D01*
X48331451Y-64234815D01*
X48148955Y-64137268D01*
X47950935Y-64077200D01*
X47950933Y-64077199D01*
X47950935Y-64077199D01*
X47840222Y-64066295D01*
X47796609Y-64062000D01*
X47796605Y-64062000D01*
X45993395Y-64062000D01*
X45839067Y-64077199D01*
X45641042Y-64137269D01*
X45458545Y-64234817D01*
X45298589Y-64366089D01*
X45167317Y-64526045D01*
X45069769Y-64708542D01*
X45009699Y-64906566D01*
X44994500Y-65060894D01*
X44994500Y-66864104D01*
X45009699Y-67018432D01*
X45009700Y-67018435D01*
X45069768Y-67216455D01*
X45124734Y-67319289D01*
X45167317Y-67398954D01*
X45298589Y-67558910D01*
X45458545Y-67690182D01*
X45458549Y-67690185D01*
X45641045Y-67787732D01*
X45839065Y-67847800D01*
X45839064Y-67847800D01*
X45849968Y-67848873D01*
X45993391Y-67863000D01*
X46904952Y-67862999D01*
X46971991Y-67882683D01*
X46992633Y-67899318D01*
X48346208Y-69252892D01*
X48346222Y-69252907D01*
X48349333Y-69256018D01*
X48349334Y-69256019D01*
X48494081Y-69400766D01*
X48494084Y-69400768D01*
X48494088Y-69400772D01*
X48644268Y-69509882D01*
X48659690Y-69521087D01*
X48746535Y-69565337D01*
X48842081Y-69614021D01*
X48842084Y-69614022D01*
X48939421Y-69645648D01*
X49036766Y-69677277D01*
X49238948Y-69709300D01*
X49238949Y-69709300D01*
X49443652Y-69709300D01*
X50677300Y-69709300D01*
X50744339Y-69728985D01*
X50790094Y-69781789D01*
X50801300Y-69833300D01*
X50801300Y-88757752D01*
X50795061Y-88778997D01*
X50793482Y-88801085D01*
X50785409Y-88811868D01*
X50781615Y-88824791D01*
X50764883Y-88839289D01*
X50751611Y-88857019D01*
X50738988Y-88861726D01*
X50728811Y-88870546D01*
X50706895Y-88873697D01*
X50686147Y-88881436D01*
X50672985Y-88878573D01*
X50659653Y-88880490D01*
X50639511Y-88871291D01*
X50617874Y-88866585D01*
X50600147Y-88853314D01*
X50596097Y-88851465D01*
X50589619Y-88845434D01*
X50553405Y-88809220D01*
X50447519Y-88703334D01*
X50447515Y-88703331D01*
X48999889Y-87255704D01*
X48968910Y-87204020D01*
X48920232Y-87043546D01*
X48822685Y-86861050D01*
X48753462Y-86776701D01*
X48691410Y-86701089D01*
X48531452Y-86569817D01*
X48531453Y-86569817D01*
X48531450Y-86569815D01*
X48348954Y-86472268D01*
X48150934Y-86412200D01*
X48150932Y-86412199D01*
X48150934Y-86412199D01*
X48031805Y-86400466D01*
X47996608Y-86397000D01*
X45993392Y-86397000D01*
X45955298Y-86400751D01*
X45839067Y-86412199D01*
X45641043Y-86472269D01*
X45562487Y-86514259D01*
X45458550Y-86569815D01*
X45458548Y-86569816D01*
X45458547Y-86569817D01*
X45298589Y-86701089D01*
X45167317Y-86861047D01*
X45069769Y-87043543D01*
X45009699Y-87241567D01*
X44998251Y-87357798D01*
X44994500Y-87395892D01*
X44994500Y-88599108D01*
X44999502Y-88649898D01*
X45009699Y-88753432D01*
X45037608Y-88845434D01*
X45065734Y-88938157D01*
X45066856Y-88941853D01*
X45067479Y-89011720D01*
X45030231Y-89070833D01*
X44966936Y-89100424D01*
X44897692Y-89091097D01*
X44860514Y-89065529D01*
X33964619Y-78169634D01*
X33931134Y-78108311D01*
X33928300Y-78081953D01*
X33928300Y-59452048D01*
X33918497Y-59390154D01*
X33896277Y-59249866D01*
X33875851Y-59187000D01*
X33859613Y-59137023D01*
X33833023Y-59055186D01*
X33808819Y-59007684D01*
X33740087Y-58872790D01*
X33696321Y-58812551D01*
X33673423Y-58781034D01*
X33619771Y-58707187D01*
X33619768Y-58707184D01*
X33619766Y-58707181D01*
X33475019Y-58562434D01*
X33475018Y-58562433D01*
X33471907Y-58559322D01*
X33471892Y-58559308D01*
X31868121Y-56955536D01*
X31868120Y-56955535D01*
X31868119Y-56955534D01*
X31702511Y-56835213D01*
X31611314Y-56788746D01*
X31520119Y-56742280D01*
X31462238Y-56723473D01*
X31354816Y-56688569D01*
X31354814Y-56688569D01*
X31325435Y-56679023D01*
X31325433Y-56679022D01*
X31325428Y-56679021D01*
X31153757Y-56651831D01*
X31123252Y-56647000D01*
X31123251Y-56647000D01*
X31078304Y-56647000D01*
X31011265Y-56627315D01*
X31005419Y-56623318D01*
X30885054Y-56535868D01*
X30885053Y-56535867D01*
X30885051Y-56535866D01*
X30788444Y-56486642D01*
X30653576Y-56417922D01*
X30406493Y-56337640D01*
X30149902Y-56297000D01*
X30149897Y-56297000D01*
X29890103Y-56297000D01*
X29890098Y-56297000D01*
X29633506Y-56337640D01*
X29386423Y-56417922D01*
X29154945Y-56535868D01*
X28944774Y-56688566D01*
X28944771Y-56688569D01*
X28761071Y-56872268D01*
X28761066Y-56872274D01*
X28608368Y-57082445D01*
X28490422Y-57313923D01*
X28410140Y-57561006D01*
X28369500Y-57817597D01*
X28369500Y-58077402D01*
X28410140Y-58333993D01*
X28490422Y-58581076D01*
X28554677Y-58707181D01*
X28608365Y-58812550D01*
X28608368Y-58812554D01*
X28653213Y-58874279D01*
X28676693Y-58940085D01*
X28660867Y-59008139D01*
X28640577Y-59034845D01*
X28540183Y-59135239D01*
X28444211Y-59287976D01*
X28384631Y-59458245D01*
X28384630Y-59458250D01*
X28369500Y-59592539D01*
X28369500Y-61382460D01*
X28384630Y-61516749D01*
X28384631Y-61516754D01*
X28444211Y-61687023D01*
X28540184Y-61839762D01*
X28667738Y-61967316D01*
X28667742Y-61967319D01*
X28672809Y-61971359D01*
X28712952Y-62028546D01*
X28719500Y-62068309D01*
X28719500Y-82359753D01*
X28699815Y-82426792D01*
X28647011Y-82472547D01*
X28577853Y-82482491D01*
X28514297Y-82453466D01*
X28507819Y-82447434D01*
X25981319Y-79920934D01*
X25947834Y-79859611D01*
X25945000Y-79833253D01*
X25945000Y-49135817D01*
X25964685Y-49068778D01*
X26017489Y-49023023D01*
X26086647Y-49013079D01*
X26144484Y-49037439D01*
G37*
%TD.AperFunction*%
%TA.AperFunction,NonConductor*%
G36*
X66080500Y-68658246D02*
G01*
X66341041Y-68717712D01*
X66385160Y-68727782D01*
X66697723Y-68762999D01*
X66697724Y-68763000D01*
X66697727Y-68763000D01*
X67012276Y-68763000D01*
X67012276Y-68762999D01*
X67324840Y-68727782D01*
X67629497Y-68658246D01*
X67699236Y-68662519D01*
X67744771Y-68691456D01*
X69314781Y-70261466D01*
X69480389Y-70381787D01*
X69553010Y-70418789D01*
X69662781Y-70474720D01*
X69760123Y-70506348D01*
X69765156Y-70507983D01*
X69765160Y-70507985D01*
X69789288Y-70515824D01*
X69857465Y-70537977D01*
X70059648Y-70570000D01*
X77275853Y-70570000D01*
X77342892Y-70589685D01*
X77388647Y-70642489D01*
X77398591Y-70711647D01*
X77369566Y-70775203D01*
X77363534Y-70781681D01*
X58944534Y-89200681D01*
X58883211Y-89234166D01*
X58856853Y-89237000D01*
X56336142Y-89237000D01*
X56269103Y-89217315D01*
X56223348Y-89164511D01*
X56213404Y-89095353D01*
X56235824Y-89040115D01*
X56337127Y-88900681D01*
X56383870Y-88836345D01*
X56498241Y-88611879D01*
X56576090Y-88372285D01*
X56615500Y-88123462D01*
X56615500Y-87871538D01*
X56576090Y-87622715D01*
X56498241Y-87383121D01*
X56498239Y-87383118D01*
X56498239Y-87383116D01*
X56433319Y-87255704D01*
X56383870Y-87158655D01*
X56300239Y-87043546D01*
X56235798Y-86954850D01*
X56235794Y-86954845D01*
X56057654Y-86776705D01*
X56057649Y-86776701D01*
X55853848Y-86628632D01*
X55853847Y-86628631D01*
X55853845Y-86628630D01*
X55738418Y-86569817D01*
X55629383Y-86514260D01*
X55389785Y-86436410D01*
X55140962Y-86397000D01*
X54089038Y-86397000D01*
X53993076Y-86412199D01*
X53840214Y-86436410D01*
X53729856Y-86472268D01*
X53600621Y-86514259D01*
X53600618Y-86514260D01*
X53600616Y-86514261D01*
X53582593Y-86523444D01*
X53513923Y-86536339D01*
X53449183Y-86510061D01*
X53408927Y-86452954D01*
X53402300Y-86412958D01*
X53402300Y-69833300D01*
X53421985Y-69766261D01*
X53474789Y-69720506D01*
X53526300Y-69709300D01*
X64511051Y-69709300D01*
X64511052Y-69709300D01*
X64713235Y-69677277D01*
X64810576Y-69645648D01*
X64907919Y-69614020D01*
X64999114Y-69567553D01*
X65090311Y-69521087D01*
X65255919Y-69400766D01*
X65965229Y-68691454D01*
X66026550Y-68657971D01*
X66080500Y-68658246D01*
G37*
%TD.AperFunction*%
%TA.AperFunction,NonConductor*%
G36*
X62088547Y-89792824D02*
G01*
X62116544Y-89791573D01*
X62122925Y-89795282D01*
X62130287Y-89795809D01*
X62152721Y-89812603D01*
X62176949Y-89826687D01*
X62180311Y-89833257D01*
X62186221Y-89837681D01*
X62196014Y-89863938D01*
X62208782Y-89888884D01*
X62209253Y-89899432D01*
X62210638Y-89903145D01*
X62210357Y-89924143D01*
X62209200Y-89935892D01*
X62209200Y-91139108D01*
X62214202Y-91189898D01*
X62224399Y-91293432D01*
X62224400Y-91293434D01*
X62284468Y-91491454D01*
X62382015Y-91673950D01*
X62382017Y-91673952D01*
X62513289Y-91833910D01*
X62560044Y-91872280D01*
X62673250Y-91965185D01*
X62855746Y-92062732D01*
X63053766Y-92122800D01*
X63053765Y-92122800D01*
X63092347Y-92126600D01*
X63208092Y-92138000D01*
X63208095Y-92138000D01*
X64411305Y-92138000D01*
X64411308Y-92138000D01*
X64565634Y-92122800D01*
X64763654Y-92062732D01*
X64946150Y-91965185D01*
X65106110Y-91833910D01*
X65237385Y-91673950D01*
X65334932Y-91491454D01*
X65395000Y-91293434D01*
X65410200Y-91139108D01*
X65410200Y-90827546D01*
X65418843Y-90798109D01*
X65425367Y-90768120D01*
X65429122Y-90763102D01*
X65429885Y-90760507D01*
X65446513Y-90739870D01*
X65511649Y-90674734D01*
X65572968Y-90641252D01*
X65642660Y-90646236D01*
X65698594Y-90688107D01*
X65721800Y-90743020D01*
X65748609Y-90912285D01*
X65826460Y-91151883D01*
X65940832Y-91376348D01*
X66088901Y-91580149D01*
X66088905Y-91580154D01*
X66267045Y-91758294D01*
X66267050Y-91758298D01*
X66423934Y-91872280D01*
X66470855Y-91906370D01*
X66586286Y-91965185D01*
X66695316Y-92020739D01*
X66695318Y-92020739D01*
X66695321Y-92020741D01*
X66738852Y-92034885D01*
X66934914Y-92098590D01*
X67008873Y-92110304D01*
X67072008Y-92140233D01*
X67108939Y-92199545D01*
X67107941Y-92269407D01*
X67077156Y-92320458D01*
X63408634Y-95988981D01*
X63347311Y-96022466D01*
X63320953Y-96025300D01*
X61955047Y-96025300D01*
X61888008Y-96005615D01*
X61867366Y-95988981D01*
X57963921Y-92085536D01*
X57963915Y-92085531D01*
X57931965Y-92062318D01*
X57889299Y-92006988D01*
X57883320Y-91937375D01*
X57915926Y-91875580D01*
X57976764Y-91841223D01*
X58004850Y-91838000D01*
X59549251Y-91838000D01*
X59549252Y-91838000D01*
X59751435Y-91805977D01*
X59904016Y-91756400D01*
X59946119Y-91742720D01*
X60081088Y-91673950D01*
X60128511Y-91649787D01*
X60294119Y-91529466D01*
X61999275Y-89824308D01*
X62023868Y-89810879D01*
X62046744Y-89794692D01*
X62054117Y-89794362D01*
X62060596Y-89790825D01*
X62088547Y-89792824D01*
G37*
%TD.AperFunction*%
%TA.AperFunction,NonConductor*%
G36*
X56593692Y-94397685D02*
G01*
X56614334Y-94414319D01*
X60028181Y-97828166D01*
X60061666Y-97889489D01*
X60064500Y-97915847D01*
X60064500Y-98364261D01*
X60044815Y-98431300D01*
X60040818Y-98437146D01*
X59996132Y-98498651D01*
X59881760Y-98723116D01*
X59803910Y-98962714D01*
X59764500Y-99211538D01*
X59764500Y-99463462D01*
X59764499Y-99463462D01*
X59773217Y-99518501D01*
X59764262Y-99587794D01*
X59719266Y-99641246D01*
X59652514Y-99661885D01*
X59585200Y-99643160D01*
X59563063Y-99625579D01*
X54827166Y-94889681D01*
X54793681Y-94828358D01*
X54798665Y-94758666D01*
X54840537Y-94702733D01*
X54906001Y-94678316D01*
X54914847Y-94678000D01*
X55140961Y-94678000D01*
X55140962Y-94678000D01*
X55389785Y-94638590D01*
X55629379Y-94560741D01*
X55853845Y-94446370D01*
X55915353Y-94401681D01*
X55981158Y-94378202D01*
X55988238Y-94378000D01*
X56526653Y-94378000D01*
X56593692Y-94397685D01*
G37*
%TD.AperFunction*%
%TA.AperFunction,NonConductor*%
G36*
X75903872Y-92790729D02*
G01*
X75913474Y-92789449D01*
X75936846Y-92800412D01*
X75961615Y-92807685D01*
X75969644Y-92815796D01*
X75976730Y-92819120D01*
X75999569Y-92846027D01*
X76089884Y-92989762D01*
X76217438Y-93117316D01*
X76370178Y-93213289D01*
X76456845Y-93243615D01*
X76540445Y-93272868D01*
X76540450Y-93272869D01*
X76630946Y-93283065D01*
X76674740Y-93287999D01*
X76674743Y-93288000D01*
X76674746Y-93288000D01*
X78464657Y-93288000D01*
X78464658Y-93287999D01*
X78531804Y-93280434D01*
X78598949Y-93272869D01*
X78598952Y-93272868D01*
X78598955Y-93272868D01*
X78769222Y-93213289D01*
X78921962Y-93117316D01*
X79022355Y-93016923D01*
X79083678Y-92983438D01*
X79153370Y-92988422D01*
X79182918Y-93004283D01*
X79244649Y-93049134D01*
X79476128Y-93167079D01*
X79476130Y-93167080D01*
X79516078Y-93180060D01*
X79573753Y-93219497D01*
X79600952Y-93283856D01*
X79589038Y-93352702D01*
X79565441Y-93385672D01*
X74950434Y-98000681D01*
X74889111Y-98034166D01*
X74862753Y-98037000D01*
X69958238Y-98037000D01*
X69891199Y-98017315D01*
X69885362Y-98013324D01*
X69823845Y-97968630D01*
X69599383Y-97854260D01*
X69359785Y-97776410D01*
X69359779Y-97776409D01*
X69110962Y-97737000D01*
X68859038Y-97737000D01*
X68734626Y-97756705D01*
X68610214Y-97776410D01*
X68370616Y-97854260D01*
X68146151Y-97968632D01*
X67942350Y-98116701D01*
X67942345Y-98116705D01*
X67764205Y-98294845D01*
X67764201Y-98294850D01*
X67616132Y-98498651D01*
X67501760Y-98723118D01*
X67423909Y-98962716D01*
X67412015Y-99037810D01*
X67382085Y-99100944D01*
X67377223Y-99106091D01*
X66352434Y-100130881D01*
X66291111Y-100164366D01*
X66264753Y-100167200D01*
X62940880Y-100167200D01*
X62873841Y-100147515D01*
X62828086Y-100094711D01*
X62818142Y-100025553D01*
X62830395Y-99986906D01*
X62848238Y-99951886D01*
X62848240Y-99951881D01*
X62848241Y-99951879D01*
X62926090Y-99712285D01*
X62965500Y-99463462D01*
X62965500Y-99211538D01*
X62948799Y-99106091D01*
X62926090Y-98962714D01*
X62907086Y-98904229D01*
X62869521Y-98788616D01*
X62867527Y-98718778D01*
X62903607Y-98658945D01*
X62966308Y-98628116D01*
X62987453Y-98626300D01*
X64013351Y-98626300D01*
X64013352Y-98626300D01*
X64215535Y-98594277D01*
X64335102Y-98555427D01*
X64410219Y-98531020D01*
X64501414Y-98484553D01*
X64592611Y-98438087D01*
X64758219Y-98317766D01*
X70251666Y-92824319D01*
X70312989Y-92790834D01*
X70339347Y-92788000D01*
X75315648Y-92788000D01*
X75894576Y-92788000D01*
X75903872Y-92790729D01*
G37*
%TD.AperFunction*%
%TA.AperFunction,NonConductor*%
G36*
X74698892Y-100657685D02*
G01*
X74744647Y-100710489D01*
X74754591Y-100779647D01*
X74725566Y-100843203D01*
X74719534Y-100849681D01*
X73636634Y-101932581D01*
X73575311Y-101966066D01*
X73548953Y-101968900D01*
X68492147Y-101968900D01*
X68425108Y-101949215D01*
X68379353Y-101896411D01*
X68369409Y-101827253D01*
X68398434Y-101763697D01*
X68404466Y-101757219D01*
X68628776Y-101532908D01*
X69216409Y-100945273D01*
X69277730Y-100911790D01*
X69284649Y-100910489D01*
X69359785Y-100898590D01*
X69599379Y-100820741D01*
X69823845Y-100706370D01*
X69885353Y-100661681D01*
X69951158Y-100638202D01*
X69958238Y-100638000D01*
X74631853Y-100638000D01*
X74698892Y-100657685D01*
G37*
%TD.AperFunction*%
%TA.AperFunction,NonConductor*%
G36*
X31525703Y-79373118D02*
G01*
X31544818Y-79393946D01*
X31635834Y-79519219D01*
X43646081Y-91529466D01*
X43811689Y-91649787D01*
X43859112Y-91673950D01*
X43994081Y-91742720D01*
X44036184Y-91756400D01*
X44188765Y-91805977D01*
X44390948Y-91838000D01*
X44595652Y-91838000D01*
X45273858Y-91838000D01*
X45340897Y-91857685D01*
X45386652Y-91910489D01*
X45396596Y-91979647D01*
X45374176Y-92034885D01*
X45226132Y-92238651D01*
X45111760Y-92463116D01*
X45033910Y-92702714D01*
X45019970Y-92790729D01*
X44994500Y-92951538D01*
X44994500Y-93203462D01*
X45023359Y-93385672D01*
X45033910Y-93452285D01*
X45111760Y-93691883D01*
X45226132Y-93916348D01*
X45374201Y-94120149D01*
X45374205Y-94120154D01*
X45552345Y-94298294D01*
X45552350Y-94298298D01*
X45690200Y-94398451D01*
X45756155Y-94446370D01*
X45870495Y-94504629D01*
X45980616Y-94560739D01*
X45980618Y-94560739D01*
X45980621Y-94560741D01*
X46220215Y-94638590D01*
X46469038Y-94678000D01*
X46469039Y-94678000D01*
X47520961Y-94678000D01*
X47520962Y-94678000D01*
X47769785Y-94638590D01*
X48009379Y-94560741D01*
X48119505Y-94504628D01*
X48188174Y-94491733D01*
X48252915Y-94518009D01*
X48293172Y-94575116D01*
X48299800Y-94615114D01*
X48299800Y-94825157D01*
X48326775Y-94995466D01*
X48331821Y-95027326D01*
X48331822Y-95027331D01*
X48331823Y-95027334D01*
X48395080Y-95222019D01*
X48441546Y-95313214D01*
X48488013Y-95404411D01*
X48608334Y-95570019D01*
X48608336Y-95570021D01*
X52607223Y-99568908D01*
X52640708Y-99630231D01*
X52642015Y-99637189D01*
X52653909Y-99712283D01*
X52653910Y-99712285D01*
X52731759Y-99951879D01*
X52841470Y-100167200D01*
X52846132Y-100176348D01*
X52994201Y-100380149D01*
X52994205Y-100380154D01*
X53172345Y-100558294D01*
X53172350Y-100558298D01*
X53314647Y-100661682D01*
X53376155Y-100706370D01*
X53519184Y-100779247D01*
X53600616Y-100820739D01*
X53600618Y-100820739D01*
X53600621Y-100820741D01*
X53840215Y-100898590D01*
X54089038Y-100938000D01*
X54089039Y-100938000D01*
X54340961Y-100938000D01*
X54340962Y-100938000D01*
X54589785Y-100898590D01*
X54829379Y-100820741D01*
X55053845Y-100706370D01*
X55257656Y-100558293D01*
X55435793Y-100380156D01*
X55583870Y-100176345D01*
X55698241Y-99951879D01*
X55761458Y-99757318D01*
X55800896Y-99699642D01*
X55865254Y-99672444D01*
X55934101Y-99684359D01*
X55967070Y-99707955D01*
X58016335Y-101757219D01*
X58049820Y-101818542D01*
X58044836Y-101888234D01*
X58002964Y-101944167D01*
X57937500Y-101968584D01*
X57928654Y-101968900D01*
X48080647Y-101968900D01*
X48013608Y-101949215D01*
X47992966Y-101932581D01*
X47104708Y-101044323D01*
X47071223Y-100983000D01*
X47076207Y-100913308D01*
X47118079Y-100857375D01*
X47154067Y-100838712D01*
X47209379Y-100820741D01*
X47433845Y-100706370D01*
X47637656Y-100558293D01*
X47815793Y-100380156D01*
X47963870Y-100176345D01*
X48078241Y-99951879D01*
X48156090Y-99712285D01*
X48195500Y-99463462D01*
X48195500Y-99211538D01*
X48156090Y-98962715D01*
X48078241Y-98723121D01*
X48078239Y-98723118D01*
X48078239Y-98723116D01*
X48028908Y-98626300D01*
X47963870Y-98498655D01*
X47895500Y-98404551D01*
X47815798Y-98294850D01*
X47815794Y-98294845D01*
X47637654Y-98116705D01*
X47637649Y-98116701D01*
X47433848Y-97968632D01*
X47433847Y-97968631D01*
X47433845Y-97968630D01*
X47209379Y-97854259D01*
X46969785Y-97776410D01*
X46969783Y-97776409D01*
X46894689Y-97764515D01*
X46831554Y-97734585D01*
X46826407Y-97729723D01*
X31356819Y-82260134D01*
X31323334Y-82198811D01*
X31320500Y-82172453D01*
X31320500Y-79466831D01*
X31340185Y-79399792D01*
X31392989Y-79354037D01*
X31462147Y-79344093D01*
X31525703Y-79373118D01*
G37*
%TD.AperFunction*%
M02*
