%TF.GenerationSoftware,KiCad,Pcbnew,9.0.4*%
%TF.CreationDate,2026-06-11T08:54:31+02:00*%
%TF.ProjectId,buck,6275636b-2e6b-4696-9361-645f70636258,rev?*%
%TF.SameCoordinates,Original*%
%TF.FileFunction,Copper,L1,Top*%
%TF.FilePolarity,Positive*%
%FSLAX46Y46*%
G04 Gerber Fmt 4.6, Leading zero omitted, Abs format (unit mm)*
G04 Created by KiCad (PCBNEW 9.0.4) date 2026-06-11 08:54:31*
%MOMM*%
%LPD*%
G01*
G04 APERTURE LIST*
G04 Aperture macros list*
%AMRoundRect*
0 Rectangle with rounded corners*
0 $1 Rounding radius*
0 $2 $3 $4 $5 $6 $7 $8 $9 X,Y pos of 4 corners*
0 Add a 4 corners polygon primitive as box body*
4,1,4,$2,$3,$4,$5,$6,$7,$8,$9,$2,$3,0*
0 Add four circle primitives for the rounded corners*
1,1,$1+$1,$2,$3*
1,1,$1+$1,$4,$5*
1,1,$1+$1,$6,$7*
1,1,$1+$1,$8,$9*
0 Add four rect primitives between the rounded corners*
20,1,$1+$1,$2,$3,$4,$5,0*
20,1,$1+$1,$4,$5,$6,$7,0*
20,1,$1+$1,$6,$7,$8,$9,0*
20,1,$1+$1,$8,$9,$2,$3,0*%
G04 Aperture macros list end*
%ADD10C,0.300000*%
%TA.AperFunction,NonConductor*%
%ADD11C,0.300000*%
%TD*%
%TA.AperFunction,ComponentPad*%
%ADD12R,3.000000X3.000000*%
%TD*%
%TA.AperFunction,ComponentPad*%
%ADD13C,3.000000*%
%TD*%
%TA.AperFunction,ComponentPad*%
%ADD14R,1.700000X1.700000*%
%TD*%
%TA.AperFunction,ComponentPad*%
%ADD15C,1.700000*%
%TD*%
%TA.AperFunction,ComponentPad*%
%ADD16C,1.600000*%
%TD*%
%TA.AperFunction,ComponentPad*%
%ADD17RoundRect,0.250000X-0.550000X-0.550000X0.550000X-0.550000X0.550000X0.550000X-0.550000X0.550000X0*%
%TD*%
%TA.AperFunction,ComponentPad*%
%ADD18RoundRect,0.250000X-0.950000X-0.550000X0.950000X-0.550000X0.950000X0.550000X-0.950000X0.550000X0*%
%TD*%
%TA.AperFunction,ComponentPad*%
%ADD19O,2.400000X1.600000*%
%TD*%
%TA.AperFunction,ComponentPad*%
%ADD20C,4.000000*%
%TD*%
%TA.AperFunction,ComponentPad*%
%ADD21RoundRect,0.249999X-0.850001X-0.850001X0.850001X-0.850001X0.850001X0.850001X-0.850001X0.850001X0*%
%TD*%
%TA.AperFunction,ComponentPad*%
%ADD22C,2.200000*%
%TD*%
%TA.AperFunction,ComponentPad*%
%ADD23R,1.700000X2.000000*%
%TD*%
%TA.AperFunction,ComponentPad*%
%ADD24O,1.700000X2.000000*%
%TD*%
G04 APERTURE END LIST*
D10*
D11*
X80705000Y-47640828D02*
X79990714Y-47640828D01*
X79990714Y-47640828D02*
X79990714Y-46140828D01*
X81990715Y-47640828D02*
X81133572Y-47640828D01*
X81562143Y-47640828D02*
X81562143Y-46140828D01*
X81562143Y-46140828D02*
X81419286Y-46355114D01*
X81419286Y-46355114D02*
X81276429Y-46497971D01*
X81276429Y-46497971D02*
X81133572Y-46569400D01*
D10*
D11*
X50867857Y-63315828D02*
X50867857Y-61815828D01*
X50867857Y-61815828D02*
X51225000Y-61815828D01*
X51225000Y-61815828D02*
X51439286Y-61887257D01*
X51439286Y-61887257D02*
X51582143Y-62030114D01*
X51582143Y-62030114D02*
X51653572Y-62172971D01*
X51653572Y-62172971D02*
X51725000Y-62458685D01*
X51725000Y-62458685D02*
X51725000Y-62672971D01*
X51725000Y-62672971D02*
X51653572Y-62958685D01*
X51653572Y-62958685D02*
X51582143Y-63101542D01*
X51582143Y-63101542D02*
X51439286Y-63244400D01*
X51439286Y-63244400D02*
X51225000Y-63315828D01*
X51225000Y-63315828D02*
X50867857Y-63315828D01*
X53153572Y-63315828D02*
X52296429Y-63315828D01*
X52725000Y-63315828D02*
X52725000Y-61815828D01*
X52725000Y-61815828D02*
X52582143Y-62030114D01*
X52582143Y-62030114D02*
X52439286Y-62172971D01*
X52439286Y-62172971D02*
X52296429Y-62244400D01*
D10*
D11*
X29520000Y-40615828D02*
X29520000Y-41687257D01*
X29520000Y-41687257D02*
X29448571Y-41901542D01*
X29448571Y-41901542D02*
X29305714Y-42044400D01*
X29305714Y-42044400D02*
X29091428Y-42115828D01*
X29091428Y-42115828D02*
X28948571Y-42115828D01*
X31020000Y-42115828D02*
X30162857Y-42115828D01*
X30591428Y-42115828D02*
X30591428Y-40615828D01*
X30591428Y-40615828D02*
X30448571Y-40830114D01*
X30448571Y-40830114D02*
X30305714Y-40972971D01*
X30305714Y-40972971D02*
X30162857Y-41044400D01*
D10*
D11*
X78895414Y-87040828D02*
X78895414Y-85540828D01*
X78895414Y-85540828D02*
X79395414Y-86612257D01*
X79395414Y-86612257D02*
X79895414Y-85540828D01*
X79895414Y-85540828D02*
X79895414Y-87040828D01*
X81395415Y-87040828D02*
X80538272Y-87040828D01*
X80966843Y-87040828D02*
X80966843Y-85540828D01*
X80966843Y-85540828D02*
X80823986Y-85755114D01*
X80823986Y-85755114D02*
X80681129Y-85897971D01*
X80681129Y-85897971D02*
X80538272Y-85969400D01*
D10*
D11*
X49662142Y-82430828D02*
X49662142Y-83645114D01*
X49662142Y-83645114D02*
X49733571Y-83787971D01*
X49733571Y-83787971D02*
X49805000Y-83859400D01*
X49805000Y-83859400D02*
X49947857Y-83930828D01*
X49947857Y-83930828D02*
X50233571Y-83930828D01*
X50233571Y-83930828D02*
X50376428Y-83859400D01*
X50376428Y-83859400D02*
X50447857Y-83787971D01*
X50447857Y-83787971D02*
X50519285Y-83645114D01*
X50519285Y-83645114D02*
X50519285Y-82430828D01*
X52019286Y-83930828D02*
X51162143Y-83930828D01*
X51590714Y-83930828D02*
X51590714Y-82430828D01*
X51590714Y-82430828D02*
X51447857Y-82645114D01*
X51447857Y-82645114D02*
X51305000Y-82787971D01*
X51305000Y-82787971D02*
X51162143Y-82859400D01*
D10*
D11*
X65212351Y-85097971D02*
X65140923Y-85169400D01*
X65140923Y-85169400D02*
X64926637Y-85240828D01*
X64926637Y-85240828D02*
X64783780Y-85240828D01*
X64783780Y-85240828D02*
X64569494Y-85169400D01*
X64569494Y-85169400D02*
X64426637Y-85026542D01*
X64426637Y-85026542D02*
X64355208Y-84883685D01*
X64355208Y-84883685D02*
X64283780Y-84597971D01*
X64283780Y-84597971D02*
X64283780Y-84383685D01*
X64283780Y-84383685D02*
X64355208Y-84097971D01*
X64355208Y-84097971D02*
X64426637Y-83955114D01*
X64426637Y-83955114D02*
X64569494Y-83812257D01*
X64569494Y-83812257D02*
X64783780Y-83740828D01*
X64783780Y-83740828D02*
X64926637Y-83740828D01*
X64926637Y-83740828D02*
X65140923Y-83812257D01*
X65140923Y-83812257D02*
X65212351Y-83883685D01*
X66640923Y-85240828D02*
X65783780Y-85240828D01*
X66212351Y-85240828D02*
X66212351Y-83740828D01*
X66212351Y-83740828D02*
X66069494Y-83955114D01*
X66069494Y-83955114D02*
X65926637Y-84097971D01*
X65926637Y-84097971D02*
X65783780Y-84169400D01*
D10*
D11*
X64925000Y-96790828D02*
X64425000Y-96076542D01*
X64067857Y-96790828D02*
X64067857Y-95290828D01*
X64067857Y-95290828D02*
X64639286Y-95290828D01*
X64639286Y-95290828D02*
X64782143Y-95362257D01*
X64782143Y-95362257D02*
X64853572Y-95433685D01*
X64853572Y-95433685D02*
X64925000Y-95576542D01*
X64925000Y-95576542D02*
X64925000Y-95790828D01*
X64925000Y-95790828D02*
X64853572Y-95933685D01*
X64853572Y-95933685D02*
X64782143Y-96005114D01*
X64782143Y-96005114D02*
X64639286Y-96076542D01*
X64639286Y-96076542D02*
X64067857Y-96076542D01*
X65496429Y-95433685D02*
X65567857Y-95362257D01*
X65567857Y-95362257D02*
X65710715Y-95290828D01*
X65710715Y-95290828D02*
X66067857Y-95290828D01*
X66067857Y-95290828D02*
X66210715Y-95362257D01*
X66210715Y-95362257D02*
X66282143Y-95433685D01*
X66282143Y-95433685D02*
X66353572Y-95576542D01*
X66353572Y-95576542D02*
X66353572Y-95719400D01*
X66353572Y-95719400D02*
X66282143Y-95933685D01*
X66282143Y-95933685D02*
X65425000Y-96790828D01*
X65425000Y-96790828D02*
X66353572Y-96790828D01*
D10*
D11*
X50155000Y-103240828D02*
X49655000Y-102526542D01*
X49297857Y-103240828D02*
X49297857Y-101740828D01*
X49297857Y-101740828D02*
X49869286Y-101740828D01*
X49869286Y-101740828D02*
X50012143Y-101812257D01*
X50012143Y-101812257D02*
X50083572Y-101883685D01*
X50083572Y-101883685D02*
X50155000Y-102026542D01*
X50155000Y-102026542D02*
X50155000Y-102240828D01*
X50155000Y-102240828D02*
X50083572Y-102383685D01*
X50083572Y-102383685D02*
X50012143Y-102455114D01*
X50012143Y-102455114D02*
X49869286Y-102526542D01*
X49869286Y-102526542D02*
X49297857Y-102526542D01*
X51583572Y-103240828D02*
X50726429Y-103240828D01*
X51155000Y-103240828D02*
X51155000Y-101740828D01*
X51155000Y-101740828D02*
X51012143Y-101955114D01*
X51012143Y-101955114D02*
X50869286Y-102097971D01*
X50869286Y-102097971D02*
X50726429Y-102169400D01*
D10*
D11*
X113480000Y-53620828D02*
X113480000Y-54692257D01*
X113480000Y-54692257D02*
X113408571Y-54906542D01*
X113408571Y-54906542D02*
X113265714Y-55049400D01*
X113265714Y-55049400D02*
X113051428Y-55120828D01*
X113051428Y-55120828D02*
X112908571Y-55120828D01*
X114837143Y-54120828D02*
X114837143Y-55120828D01*
X114480000Y-53549400D02*
X114122857Y-54620828D01*
X114122857Y-54620828D02*
X115051428Y-54620828D01*
D10*
D11*
X29520000Y-53620828D02*
X29520000Y-54692257D01*
X29520000Y-54692257D02*
X29448571Y-54906542D01*
X29448571Y-54906542D02*
X29305714Y-55049400D01*
X29305714Y-55049400D02*
X29091428Y-55120828D01*
X29091428Y-55120828D02*
X28948571Y-55120828D01*
X30091428Y-53620828D02*
X31020000Y-53620828D01*
X31020000Y-53620828D02*
X30520000Y-54192257D01*
X30520000Y-54192257D02*
X30734285Y-54192257D01*
X30734285Y-54192257D02*
X30877143Y-54263685D01*
X30877143Y-54263685D02*
X30948571Y-54335114D01*
X30948571Y-54335114D02*
X31020000Y-54477971D01*
X31020000Y-54477971D02*
X31020000Y-54835114D01*
X31020000Y-54835114D02*
X30948571Y-54977971D01*
X30948571Y-54977971D02*
X30877143Y-55049400D01*
X30877143Y-55049400D02*
X30734285Y-55120828D01*
X30734285Y-55120828D02*
X30305714Y-55120828D01*
X30305714Y-55120828D02*
X30162857Y-55049400D01*
X30162857Y-55049400D02*
X30091428Y-54977971D01*
D10*
D11*
X113480000Y-40615828D02*
X113480000Y-41687257D01*
X113480000Y-41687257D02*
X113408571Y-41901542D01*
X113408571Y-41901542D02*
X113265714Y-42044400D01*
X113265714Y-42044400D02*
X113051428Y-42115828D01*
X113051428Y-42115828D02*
X112908571Y-42115828D01*
X114122857Y-40758685D02*
X114194285Y-40687257D01*
X114194285Y-40687257D02*
X114337143Y-40615828D01*
X114337143Y-40615828D02*
X114694285Y-40615828D01*
X114694285Y-40615828D02*
X114837143Y-40687257D01*
X114837143Y-40687257D02*
X114908571Y-40758685D01*
X114908571Y-40758685D02*
X114980000Y-40901542D01*
X114980000Y-40901542D02*
X114980000Y-41044400D01*
X114980000Y-41044400D02*
X114908571Y-41258685D01*
X114908571Y-41258685D02*
X114051428Y-42115828D01*
X114051428Y-42115828D02*
X114980000Y-42115828D01*
D12*
%TO.P,J1,1*%
%TO.N,/VIN_15V*%
X32560000Y-47162500D03*
D13*
%TO.P,J1,2*%
%TO.N,/GND*%
X27480000Y-47162500D03*
%TD*%
D14*
%TO.P,J3,1*%
%TO.N,PWM*%
X30020000Y-60487500D03*
D15*
%TO.P,J3,2*%
%TO.N,GND_MCU*%
X30020000Y-57947500D03*
%TD*%
D16*
%TO.P,R1,1*%
%TO.N,PWM*%
X46595000Y-99337500D03*
%TO.P,R1,2*%
%TO.N,Net-(R1-Pad2)*%
X54215000Y-99337500D03*
%TD*%
D17*
%TO.P,C1,1*%
%TO.N,/VOUT_5V*%
X63809700Y-90537500D03*
D16*
%TO.P,C1,2*%
%TO.N,/GND*%
X67309700Y-90537500D03*
%TD*%
D18*
%TO.P,U1,1*%
%TO.N,Net-(R1-Pad2)*%
X46995000Y-87997500D03*
D19*
%TO.P,U1,2*%
%TO.N,GND_MCU*%
X46995000Y-90537500D03*
%TO.P,U1,3*%
%TO.N,N/C*%
X46995000Y-93077500D03*
%TO.P,U1,4*%
%TO.N,GATE*%
X54615000Y-93077500D03*
%TO.P,U1,5*%
%TO.N,+12V_SW*%
X54615000Y-90537500D03*
%TO.P,U1,6*%
%TO.N,N/C*%
X54615000Y-87997500D03*
%TD*%
D20*
%TO.P,L1,1*%
%TO.N,/SW*%
X66855000Y-65962500D03*
%TO.P,L1,2*%
%TO.N,/VOUT_5V*%
X95055000Y-65962500D03*
%TD*%
D14*
%TO.P,J4,1*%
%TO.N,+12V_SW*%
X113980000Y-57937500D03*
D15*
%TO.P,J4,2*%
%TO.N,/SW*%
X113980000Y-60477500D03*
%TD*%
D16*
%TO.P,R2,1*%
%TO.N,GATE*%
X61365000Y-99337500D03*
%TO.P,R2,2*%
%TO.N,/SW*%
X68985000Y-99337500D03*
%TD*%
D21*
%TO.P,D1,1*%
%TO.N,/SW*%
X46895000Y-65962500D03*
D22*
%TO.P,D1,2*%
%TO.N,/GND*%
X57055000Y-65962500D03*
%TD*%
D12*
%TO.P,J2,1*%
%TO.N,/VOUT_5V*%
X111440000Y-47162500D03*
D13*
%TO.P,J2,2*%
%TO.N,/GND*%
X116520000Y-47162500D03*
%TD*%
D23*
%TO.P,M1,1*%
%TO.N,GATE*%
X77569700Y-91487500D03*
D24*
%TO.P,M1,2*%
%TO.N,/VIN_15V*%
X80109700Y-91487500D03*
%TO.P,M1,3*%
%TO.N,/SW*%
X82649700Y-91487500D03*
%TD*%
%TA.AperFunction,NonConductor*%
G36*
X123442539Y-20520185D02*
G01*
X123488294Y-20572989D01*
X123499500Y-20624500D01*
X123499500Y-123375500D01*
X123479815Y-123442539D01*
X123427011Y-123488294D01*
X123375500Y-123499500D01*
X20624500Y-123499500D01*
X20557461Y-123479815D01*
X20511706Y-123427011D01*
X20500500Y-123375500D01*
X20500500Y-104199155D01*
X48342357Y-104199155D01*
X52539072Y-104199155D01*
X52539072Y-100782484D01*
X48342357Y-100782484D01*
X48342357Y-104199155D01*
X20500500Y-104199155D01*
X20500500Y-99211538D01*
X44994500Y-99211538D01*
X44994500Y-99463461D01*
X45033910Y-99712285D01*
X45111760Y-99951883D01*
X45226132Y-100176348D01*
X45374201Y-100380149D01*
X45374205Y-100380154D01*
X45552345Y-100558294D01*
X45552350Y-100558298D01*
X45652147Y-100630804D01*
X45756155Y-100706370D01*
X45899184Y-100779247D01*
X45980616Y-100820739D01*
X45980618Y-100820739D01*
X45980621Y-100820741D01*
X46220215Y-100898590D01*
X46469038Y-100938000D01*
X46469039Y-100938000D01*
X46720961Y-100938000D01*
X46720962Y-100938000D01*
X46969785Y-100898590D01*
X47209379Y-100820741D01*
X47433845Y-100706370D01*
X47487213Y-100667595D01*
X47537854Y-100630804D01*
X47637649Y-100558298D01*
X47637647Y-100558298D01*
X47637656Y-100558293D01*
X47815793Y-100380156D01*
X47963870Y-100176345D01*
X48078241Y-99951879D01*
X48156090Y-99712285D01*
X48195500Y-99463462D01*
X48195500Y-99211538D01*
X52614500Y-99211538D01*
X52614500Y-99463461D01*
X52653910Y-99712285D01*
X52731760Y-99951883D01*
X52846132Y-100176348D01*
X52994201Y-100380149D01*
X52994205Y-100380154D01*
X53172345Y-100558294D01*
X53172350Y-100558298D01*
X53272147Y-100630804D01*
X53376155Y-100706370D01*
X53519184Y-100779247D01*
X53600616Y-100820739D01*
X53600618Y-100820739D01*
X53600621Y-100820741D01*
X53840215Y-100898590D01*
X54089038Y-100938000D01*
X54089039Y-100938000D01*
X54340961Y-100938000D01*
X54340962Y-100938000D01*
X54589785Y-100898590D01*
X54829379Y-100820741D01*
X55053845Y-100706370D01*
X55257656Y-100558293D01*
X55435793Y-100380156D01*
X55583870Y-100176345D01*
X55698241Y-99951879D01*
X55776090Y-99712285D01*
X55815500Y-99463462D01*
X55815500Y-99211538D01*
X59764500Y-99211538D01*
X59764500Y-99463461D01*
X59803910Y-99712285D01*
X59881760Y-99951883D01*
X59996132Y-100176348D01*
X60144201Y-100380149D01*
X60144205Y-100380154D01*
X60322345Y-100558294D01*
X60322350Y-100558298D01*
X60422147Y-100630804D01*
X60526155Y-100706370D01*
X60669184Y-100779247D01*
X60750616Y-100820739D01*
X60750618Y-100820739D01*
X60750621Y-100820741D01*
X60990215Y-100898590D01*
X61239038Y-100938000D01*
X61239039Y-100938000D01*
X61490961Y-100938000D01*
X61490962Y-100938000D01*
X61739785Y-100898590D01*
X61979379Y-100820741D01*
X62203845Y-100706370D01*
X62407656Y-100558293D01*
X62585793Y-100380156D01*
X62733870Y-100176345D01*
X62848241Y-99951879D01*
X62926090Y-99712285D01*
X62965500Y-99463462D01*
X62965500Y-99211538D01*
X67384500Y-99211538D01*
X67384500Y-99463461D01*
X67423910Y-99712285D01*
X67501760Y-99951883D01*
X67616132Y-100176348D01*
X67764201Y-100380149D01*
X67764205Y-100380154D01*
X67942345Y-100558294D01*
X67942350Y-100558298D01*
X68042147Y-100630804D01*
X68146155Y-100706370D01*
X68289184Y-100779247D01*
X68370616Y-100820739D01*
X68370618Y-100820739D01*
X68370621Y-100820741D01*
X68610215Y-100898590D01*
X68859038Y-100938000D01*
X68859039Y-100938000D01*
X69110961Y-100938000D01*
X69110962Y-100938000D01*
X69359785Y-100898590D01*
X69599379Y-100820741D01*
X69823845Y-100706370D01*
X70027656Y-100558293D01*
X70205793Y-100380156D01*
X70353870Y-100176345D01*
X70468241Y-99951879D01*
X70546090Y-99712285D01*
X70585500Y-99463462D01*
X70585500Y-99211538D01*
X70546090Y-98962715D01*
X70468241Y-98723121D01*
X70468239Y-98723118D01*
X70468239Y-98723116D01*
X70426747Y-98641684D01*
X70353870Y-98498655D01*
X70334952Y-98472617D01*
X70205798Y-98294850D01*
X70205794Y-98294845D01*
X70027654Y-98116705D01*
X70027649Y-98116701D01*
X69823848Y-97968632D01*
X69823847Y-97968631D01*
X69823845Y-97968630D01*
X69753747Y-97932913D01*
X69599383Y-97854260D01*
X69359785Y-97776410D01*
X69110962Y-97737000D01*
X68859038Y-97737000D01*
X68782295Y-97749155D01*
X68610214Y-97776410D01*
X68370616Y-97854260D01*
X68146151Y-97968632D01*
X67942350Y-98116701D01*
X67942345Y-98116705D01*
X67764205Y-98294845D01*
X67764201Y-98294850D01*
X67616132Y-98498651D01*
X67501760Y-98723116D01*
X67423910Y-98962714D01*
X67384500Y-99211538D01*
X62965500Y-99211538D01*
X62926090Y-98962715D01*
X62848241Y-98723121D01*
X62848239Y-98723118D01*
X62848239Y-98723116D01*
X62806747Y-98641684D01*
X62733870Y-98498655D01*
X62714952Y-98472617D01*
X62585798Y-98294850D01*
X62585794Y-98294845D01*
X62407654Y-98116705D01*
X62407649Y-98116701D01*
X62203848Y-97968632D01*
X62203847Y-97968631D01*
X62203845Y-97968630D01*
X62133747Y-97932913D01*
X61979383Y-97854260D01*
X61739785Y-97776410D01*
X61567705Y-97749155D01*
X63112357Y-97749155D01*
X67310797Y-97749155D01*
X67310797Y-94333603D01*
X63112357Y-94333603D01*
X63112357Y-97749155D01*
X61567705Y-97749155D01*
X61490962Y-97737000D01*
X61239038Y-97737000D01*
X61162295Y-97749155D01*
X60990214Y-97776410D01*
X60750616Y-97854260D01*
X60526151Y-97968632D01*
X60322350Y-98116701D01*
X60322345Y-98116705D01*
X60144205Y-98294845D01*
X60144201Y-98294850D01*
X59996132Y-98498651D01*
X59881760Y-98723116D01*
X59803910Y-98962714D01*
X59764500Y-99211538D01*
X55815500Y-99211538D01*
X55776090Y-98962715D01*
X55698241Y-98723121D01*
X55698239Y-98723118D01*
X55698239Y-98723116D01*
X55656747Y-98641684D01*
X55583870Y-98498655D01*
X55564952Y-98472617D01*
X55435798Y-98294850D01*
X55435794Y-98294845D01*
X55257654Y-98116705D01*
X55257649Y-98116701D01*
X55053848Y-97968632D01*
X55053847Y-97968631D01*
X55053845Y-97968630D01*
X54983747Y-97932913D01*
X54829383Y-97854260D01*
X54589785Y-97776410D01*
X54340962Y-97737000D01*
X54089038Y-97737000D01*
X54012295Y-97749155D01*
X53840214Y-97776410D01*
X53600616Y-97854260D01*
X53376151Y-97968632D01*
X53172350Y-98116701D01*
X53172345Y-98116705D01*
X52994205Y-98294845D01*
X52994201Y-98294850D01*
X52846132Y-98498651D01*
X52731760Y-98723116D01*
X52653910Y-98962714D01*
X52614500Y-99211538D01*
X48195500Y-99211538D01*
X48156090Y-98962715D01*
X48078241Y-98723121D01*
X48078239Y-98723118D01*
X48078239Y-98723116D01*
X48036747Y-98641684D01*
X47963870Y-98498655D01*
X47944952Y-98472617D01*
X47815798Y-98294850D01*
X47815794Y-98294845D01*
X47637654Y-98116705D01*
X47637649Y-98116701D01*
X47433848Y-97968632D01*
X47433847Y-97968631D01*
X47433845Y-97968630D01*
X47363747Y-97932913D01*
X47209383Y-97854260D01*
X46969785Y-97776410D01*
X46720962Y-97737000D01*
X46469038Y-97737000D01*
X46392295Y-97749155D01*
X46220214Y-97776410D01*
X45980616Y-97854260D01*
X45756151Y-97968632D01*
X45552350Y-98116701D01*
X45552345Y-98116705D01*
X45374205Y-98294845D01*
X45374201Y-98294850D01*
X45226132Y-98498651D01*
X45111760Y-98723116D01*
X45033910Y-98962714D01*
X44994500Y-99211538D01*
X20500500Y-99211538D01*
X20500500Y-87395892D01*
X44994500Y-87395892D01*
X44994500Y-88599108D01*
X44999502Y-88649898D01*
X45009699Y-88753432D01*
X45009700Y-88753434D01*
X45069768Y-88951454D01*
X45167315Y-89133950D01*
X45236533Y-89218293D01*
X45298590Y-89293910D01*
X45347049Y-89333680D01*
X45386383Y-89391426D01*
X45388254Y-89461270D01*
X45368703Y-89502418D01*
X45226129Y-89698655D01*
X45111760Y-89923116D01*
X45033910Y-90162714D01*
X45033910Y-90162715D01*
X44994500Y-90411538D01*
X44994500Y-90663462D01*
X45000909Y-90703928D01*
X45033910Y-90912285D01*
X45111760Y-91151883D01*
X45226132Y-91376348D01*
X45374201Y-91580149D01*
X45374205Y-91580154D01*
X45513870Y-91719819D01*
X45547355Y-91781142D01*
X45542371Y-91850834D01*
X45513870Y-91895181D01*
X45374205Y-92034845D01*
X45374201Y-92034850D01*
X45226132Y-92238651D01*
X45111760Y-92463116D01*
X45033910Y-92702714D01*
X45003229Y-92896428D01*
X44994500Y-92951538D01*
X44994500Y-93203462D01*
X45007890Y-93288000D01*
X45033910Y-93452285D01*
X45111760Y-93691883D01*
X45226132Y-93916348D01*
X45374201Y-94120149D01*
X45374205Y-94120154D01*
X45552345Y-94298294D01*
X45552350Y-94298298D01*
X45600944Y-94333603D01*
X45756155Y-94446370D01*
X45899184Y-94519247D01*
X45980616Y-94560739D01*
X45980618Y-94560739D01*
X45980621Y-94560741D01*
X46220215Y-94638590D01*
X46469038Y-94678000D01*
X46469039Y-94678000D01*
X47520961Y-94678000D01*
X47520962Y-94678000D01*
X47769785Y-94638590D01*
X48009379Y-94560741D01*
X48233845Y-94446370D01*
X48437656Y-94298293D01*
X48615793Y-94120156D01*
X48763870Y-93916345D01*
X48878241Y-93691879D01*
X48956090Y-93452285D01*
X48995500Y-93203462D01*
X48995500Y-92951538D01*
X48956090Y-92702715D01*
X48878241Y-92463121D01*
X48878239Y-92463118D01*
X48878239Y-92463116D01*
X48780387Y-92271072D01*
X48763870Y-92238655D01*
X48662107Y-92098590D01*
X48615798Y-92034850D01*
X48615794Y-92034845D01*
X48476130Y-91895181D01*
X48442645Y-91833858D01*
X48447629Y-91764166D01*
X48476130Y-91719819D01*
X48521999Y-91673950D01*
X48615793Y-91580156D01*
X48763870Y-91376345D01*
X48878241Y-91151879D01*
X48956090Y-90912285D01*
X48995500Y-90663462D01*
X48995500Y-90411538D01*
X48956090Y-90162715D01*
X48878241Y-89923121D01*
X48878239Y-89923118D01*
X48878239Y-89923116D01*
X48819544Y-89807921D01*
X48763870Y-89698655D01*
X48680239Y-89583546D01*
X48621296Y-89502418D01*
X48597816Y-89436612D01*
X48613641Y-89368558D01*
X48642948Y-89333681D01*
X48691410Y-89293910D01*
X48822685Y-89133950D01*
X48920232Y-88951454D01*
X48980300Y-88753434D01*
X48995500Y-88599108D01*
X48995500Y-87871538D01*
X52614500Y-87871538D01*
X52614500Y-88123461D01*
X52653910Y-88372285D01*
X52731760Y-88611883D01*
X52846132Y-88836348D01*
X52994201Y-89040149D01*
X52994205Y-89040154D01*
X53133870Y-89179819D01*
X53167355Y-89241142D01*
X53162371Y-89310834D01*
X53133870Y-89355181D01*
X52994205Y-89494845D01*
X52994201Y-89494850D01*
X52846132Y-89698651D01*
X52731760Y-89923116D01*
X52653910Y-90162714D01*
X52653910Y-90162715D01*
X52614500Y-90411538D01*
X52614500Y-90663462D01*
X52620909Y-90703928D01*
X52653910Y-90912285D01*
X52731760Y-91151883D01*
X52846132Y-91376348D01*
X52994201Y-91580149D01*
X52994205Y-91580154D01*
X53133870Y-91719819D01*
X53167355Y-91781142D01*
X53162371Y-91850834D01*
X53133870Y-91895181D01*
X52994205Y-92034845D01*
X52994201Y-92034850D01*
X52846132Y-92238651D01*
X52731760Y-92463116D01*
X52653910Y-92702714D01*
X52623229Y-92896428D01*
X52614500Y-92951538D01*
X52614500Y-93203462D01*
X52627890Y-93288000D01*
X52653910Y-93452285D01*
X52731760Y-93691883D01*
X52846132Y-93916348D01*
X52994201Y-94120149D01*
X52994205Y-94120154D01*
X53172345Y-94298294D01*
X53172350Y-94298298D01*
X53220944Y-94333603D01*
X53376155Y-94446370D01*
X53519184Y-94519247D01*
X53600616Y-94560739D01*
X53600618Y-94560739D01*
X53600621Y-94560741D01*
X53840215Y-94638590D01*
X54089038Y-94678000D01*
X54089039Y-94678000D01*
X55140961Y-94678000D01*
X55140962Y-94678000D01*
X55389785Y-94638590D01*
X55629379Y-94560741D01*
X55853845Y-94446370D01*
X56057656Y-94298293D01*
X56235793Y-94120156D01*
X56383870Y-93916345D01*
X56498241Y-93691879D01*
X56576090Y-93452285D01*
X56615500Y-93203462D01*
X56615500Y-92951538D01*
X56576090Y-92702715D01*
X56498241Y-92463121D01*
X56498239Y-92463118D01*
X56498239Y-92463116D01*
X56400387Y-92271072D01*
X56383870Y-92238655D01*
X56282107Y-92098590D01*
X56235798Y-92034850D01*
X56235794Y-92034845D01*
X56096130Y-91895181D01*
X56062645Y-91833858D01*
X56067629Y-91764166D01*
X56096130Y-91719819D01*
X56141999Y-91673950D01*
X56235793Y-91580156D01*
X56383870Y-91376345D01*
X56498241Y-91151879D01*
X56576090Y-90912285D01*
X56615500Y-90663462D01*
X56615500Y-90411538D01*
X56576090Y-90162715D01*
X56576089Y-90162711D01*
X56576089Y-90162710D01*
X56513852Y-89971166D01*
X56508513Y-89954737D01*
X56502390Y-89935892D01*
X62209200Y-89935892D01*
X62209200Y-91139108D01*
X62214202Y-91189898D01*
X62224399Y-91293432D01*
X62224400Y-91293434D01*
X62284468Y-91491454D01*
X62382015Y-91673950D01*
X62382017Y-91673952D01*
X62513289Y-91833910D01*
X62541068Y-91856707D01*
X62673250Y-91965185D01*
X62855746Y-92062732D01*
X63053766Y-92122800D01*
X63053765Y-92122800D01*
X63092347Y-92126600D01*
X63208092Y-92138000D01*
X63208095Y-92138000D01*
X64411305Y-92138000D01*
X64411308Y-92138000D01*
X64565634Y-92122800D01*
X64763654Y-92062732D01*
X64946150Y-91965185D01*
X65106110Y-91833910D01*
X65237385Y-91673950D01*
X65334932Y-91491454D01*
X65395000Y-91293434D01*
X65410200Y-91139108D01*
X65410200Y-90411538D01*
X65709200Y-90411538D01*
X65709200Y-90663462D01*
X65715609Y-90703928D01*
X65748610Y-90912285D01*
X65826460Y-91151883D01*
X65940832Y-91376348D01*
X66088901Y-91580149D01*
X66088905Y-91580154D01*
X66267045Y-91758294D01*
X66267050Y-91758298D01*
X66444817Y-91887452D01*
X66470855Y-91906370D01*
X66586286Y-91965185D01*
X66695316Y-92020739D01*
X66695318Y-92020739D01*
X66695321Y-92020741D01*
X66934915Y-92098590D01*
X67183738Y-92138000D01*
X67183739Y-92138000D01*
X67435661Y-92138000D01*
X67435662Y-92138000D01*
X67684485Y-92098590D01*
X67924079Y-92020741D01*
X68148545Y-91906370D01*
X68352356Y-91758293D01*
X68530493Y-91580156D01*
X68678570Y-91376345D01*
X68792941Y-91151879D01*
X68870790Y-90912285D01*
X68910200Y-90663462D01*
X68910200Y-90442539D01*
X75919200Y-90442539D01*
X75919200Y-92532460D01*
X75934330Y-92666749D01*
X75934331Y-92666754D01*
X75993911Y-92837023D01*
X76031238Y-92896428D01*
X76089884Y-92989762D01*
X76217438Y-93117316D01*
X76370178Y-93213289D01*
X76540445Y-93272868D01*
X76540450Y-93272869D01*
X76630946Y-93283065D01*
X76674740Y-93287999D01*
X76674743Y-93288000D01*
X76674746Y-93288000D01*
X78464657Y-93288000D01*
X78464658Y-93287999D01*
X78531804Y-93280434D01*
X78598949Y-93272869D01*
X78598952Y-93272868D01*
X78598955Y-93272868D01*
X78769222Y-93213289D01*
X78921962Y-93117316D01*
X79022355Y-93016923D01*
X79083678Y-92983438D01*
X79153370Y-92988422D01*
X79182918Y-93004283D01*
X79244649Y-93049134D01*
X79354012Y-93104857D01*
X79476123Y-93167077D01*
X79476125Y-93167077D01*
X79476128Y-93167079D01*
X79723207Y-93247360D01*
X79855406Y-93268297D01*
X79979798Y-93288000D01*
X79979803Y-93288000D01*
X80239602Y-93288000D01*
X80352998Y-93270039D01*
X80496193Y-93247360D01*
X80743272Y-93167079D01*
X80974751Y-93049134D01*
X81184929Y-92896431D01*
X81292019Y-92789341D01*
X81353342Y-92755856D01*
X81423034Y-92760840D01*
X81467381Y-92789341D01*
X81574471Y-92896431D01*
X81784649Y-93049134D01*
X81918461Y-93117315D01*
X82016123Y-93167077D01*
X82016125Y-93167077D01*
X82016128Y-93167079D01*
X82263207Y-93247360D01*
X82395406Y-93268297D01*
X82519798Y-93288000D01*
X82519803Y-93288000D01*
X82779602Y-93288000D01*
X82892998Y-93270039D01*
X83036193Y-93247360D01*
X83283272Y-93167079D01*
X83514751Y-93049134D01*
X83724929Y-92896431D01*
X83908631Y-92712729D01*
X84061334Y-92502551D01*
X84179279Y-92271072D01*
X84259560Y-92023993D01*
X84289674Y-91833858D01*
X84300200Y-91767402D01*
X84300200Y-91207597D01*
X84278647Y-91071521D01*
X84259560Y-90951007D01*
X84179279Y-90703928D01*
X84179277Y-90703925D01*
X84179277Y-90703923D01*
X84136487Y-90619945D01*
X84061334Y-90472449D01*
X83908631Y-90262271D01*
X83724929Y-90078569D01*
X83596470Y-89985238D01*
X83514754Y-89925868D01*
X83514753Y-89925867D01*
X83514751Y-89925866D01*
X83442464Y-89889034D01*
X83283276Y-89807922D01*
X83036193Y-89727640D01*
X82779602Y-89687000D01*
X82779597Y-89687000D01*
X82519803Y-89687000D01*
X82519798Y-89687000D01*
X82263206Y-89727640D01*
X82016123Y-89807922D01*
X81784645Y-89925868D01*
X81574474Y-90078566D01*
X81574468Y-90078571D01*
X81467381Y-90185659D01*
X81406058Y-90219144D01*
X81336366Y-90214160D01*
X81292019Y-90185659D01*
X81184931Y-90078571D01*
X81184925Y-90078566D01*
X80974754Y-89925868D01*
X80974753Y-89925867D01*
X80974751Y-89925866D01*
X80902464Y-89889034D01*
X80743276Y-89807922D01*
X80496193Y-89727640D01*
X80239602Y-89687000D01*
X80239597Y-89687000D01*
X79979803Y-89687000D01*
X79979798Y-89687000D01*
X79723206Y-89727640D01*
X79476123Y-89807922D01*
X79244646Y-89925867D01*
X79182919Y-89970714D01*
X79117113Y-89994193D01*
X79049059Y-89978367D01*
X79022354Y-89958076D01*
X78921962Y-89857684D01*
X78769223Y-89761711D01*
X78598954Y-89702131D01*
X78598949Y-89702130D01*
X78464660Y-89687000D01*
X78464654Y-89687000D01*
X76674746Y-89687000D01*
X76674739Y-89687000D01*
X76540450Y-89702130D01*
X76540445Y-89702131D01*
X76370176Y-89761711D01*
X76217437Y-89857684D01*
X76089884Y-89985237D01*
X75993911Y-90137976D01*
X75934331Y-90308245D01*
X75934330Y-90308250D01*
X75919200Y-90442539D01*
X68910200Y-90442539D01*
X68910200Y-90411538D01*
X68870790Y-90162715D01*
X68792941Y-89923121D01*
X68792939Y-89923118D01*
X68792939Y-89923116D01*
X68734244Y-89807921D01*
X68678570Y-89698655D01*
X68594939Y-89583546D01*
X68530498Y-89494850D01*
X68530494Y-89494845D01*
X68352354Y-89316705D01*
X68352349Y-89316701D01*
X68148548Y-89168632D01*
X68148547Y-89168631D01*
X68148545Y-89168630D01*
X68033118Y-89109817D01*
X67924083Y-89054260D01*
X67684485Y-88976410D01*
X67531630Y-88952200D01*
X67435662Y-88937000D01*
X67183738Y-88937000D01*
X67092480Y-88951454D01*
X66934914Y-88976410D01*
X66695316Y-89054260D01*
X66470851Y-89168632D01*
X66267050Y-89316701D01*
X66267045Y-89316705D01*
X66088905Y-89494845D01*
X66088901Y-89494850D01*
X65940832Y-89698651D01*
X65826460Y-89923116D01*
X65748610Y-90162714D01*
X65748610Y-90162715D01*
X65709200Y-90411538D01*
X65410200Y-90411538D01*
X65410200Y-89935892D01*
X65395000Y-89781566D01*
X65334932Y-89583546D01*
X65237385Y-89401050D01*
X65149458Y-89293910D01*
X65106110Y-89241089D01*
X64946152Y-89109817D01*
X64946153Y-89109817D01*
X64946150Y-89109815D01*
X64763654Y-89012268D01*
X64565634Y-88952200D01*
X64565632Y-88952199D01*
X64565634Y-88952199D01*
X64446505Y-88940466D01*
X64411308Y-88937000D01*
X63208092Y-88937000D01*
X63169998Y-88940751D01*
X63053767Y-88952199D01*
X62855743Y-89012269D01*
X62777187Y-89054259D01*
X62673250Y-89109815D01*
X62673248Y-89109816D01*
X62673247Y-89109817D01*
X62513289Y-89241089D01*
X62419658Y-89355181D01*
X62382015Y-89401050D01*
X62343343Y-89473398D01*
X62284469Y-89583543D01*
X62224399Y-89781567D01*
X62216903Y-89857684D01*
X62209200Y-89935892D01*
X56502390Y-89935892D01*
X56498241Y-89923121D01*
X56498239Y-89923118D01*
X56498239Y-89923116D01*
X56439544Y-89807921D01*
X56383870Y-89698655D01*
X56300239Y-89583546D01*
X56235798Y-89494850D01*
X56235794Y-89494845D01*
X56096130Y-89355181D01*
X56062645Y-89293858D01*
X56067629Y-89224166D01*
X56096130Y-89179819D01*
X56141999Y-89133950D01*
X56235793Y-89040156D01*
X56383870Y-88836345D01*
X56498241Y-88611879D01*
X56576090Y-88372285D01*
X56615500Y-88123462D01*
X56615500Y-87996328D01*
X77938753Y-87996328D01*
X82350915Y-87996328D01*
X82350915Y-84582484D01*
X77938753Y-84582484D01*
X77938753Y-87996328D01*
X56615500Y-87996328D01*
X56615500Y-87871538D01*
X56576090Y-87622715D01*
X56498241Y-87383121D01*
X56498239Y-87383118D01*
X56498239Y-87383116D01*
X56456747Y-87301684D01*
X56383870Y-87158655D01*
X56300239Y-87043546D01*
X56235798Y-86954850D01*
X56235794Y-86954845D01*
X56057654Y-86776705D01*
X56057649Y-86776701D01*
X55853848Y-86628632D01*
X55853847Y-86628631D01*
X55853845Y-86628630D01*
X55738418Y-86569817D01*
X55629383Y-86514260D01*
X55389785Y-86436410D01*
X55236930Y-86412200D01*
X55140962Y-86397000D01*
X54089038Y-86397000D01*
X53993076Y-86412199D01*
X53840214Y-86436410D01*
X53600616Y-86514260D01*
X53376151Y-86628632D01*
X53172350Y-86776701D01*
X53172345Y-86776705D01*
X52994205Y-86954845D01*
X52994201Y-86954850D01*
X52846132Y-87158651D01*
X52731760Y-87383116D01*
X52653910Y-87622714D01*
X52614500Y-87871538D01*
X48995500Y-87871538D01*
X48995500Y-87395892D01*
X48980300Y-87241566D01*
X48920232Y-87043546D01*
X48822685Y-86861050D01*
X48753462Y-86776701D01*
X48691410Y-86701089D01*
X48531452Y-86569817D01*
X48531453Y-86569817D01*
X48531450Y-86569815D01*
X48348954Y-86472268D01*
X48150934Y-86412200D01*
X48150932Y-86412199D01*
X48150934Y-86412199D01*
X48031805Y-86400466D01*
X47996608Y-86397000D01*
X45993392Y-86397000D01*
X45955298Y-86400751D01*
X45839067Y-86412199D01*
X45641043Y-86472269D01*
X45562487Y-86514259D01*
X45458550Y-86569815D01*
X45458548Y-86569816D01*
X45458547Y-86569817D01*
X45298589Y-86701089D01*
X45167317Y-86861047D01*
X45069769Y-87043543D01*
X45009699Y-87241567D01*
X44998251Y-87357798D01*
X44994500Y-87395892D01*
X20500500Y-87395892D01*
X20500500Y-86198053D01*
X63325576Y-86198053D01*
X67596423Y-86198053D01*
X67596423Y-82782484D01*
X63325576Y-82782484D01*
X63325576Y-86198053D01*
X20500500Y-86198053D01*
X20500500Y-84888053D01*
X48704917Y-84888053D01*
X52974786Y-84888053D01*
X52974786Y-81472484D01*
X48704917Y-81472484D01*
X48704917Y-84888053D01*
X20500500Y-84888053D01*
X20500500Y-65060894D01*
X44994500Y-65060894D01*
X44994500Y-66864104D01*
X45009699Y-67018432D01*
X45009700Y-67018435D01*
X45069768Y-67216455D01*
X45164903Y-67394439D01*
X45167317Y-67398954D01*
X45298589Y-67558910D01*
X45458545Y-67690182D01*
X45458549Y-67690185D01*
X45641045Y-67787732D01*
X45839065Y-67847800D01*
X45839064Y-67847800D01*
X45849968Y-67848873D01*
X45993391Y-67863000D01*
X47796608Y-67862999D01*
X47950935Y-67847800D01*
X48148955Y-67787732D01*
X48331451Y-67690185D01*
X48491410Y-67558910D01*
X48622685Y-67398951D01*
X48720232Y-67216455D01*
X48780300Y-67018435D01*
X48795500Y-66864109D01*
X48795499Y-65837941D01*
X55154500Y-65837941D01*
X55154500Y-66087058D01*
X55154501Y-66087075D01*
X55187017Y-66334061D01*
X55251498Y-66574707D01*
X55346830Y-66804861D01*
X55346837Y-66804876D01*
X55471400Y-67020626D01*
X55623060Y-67218274D01*
X55623066Y-67218281D01*
X55799218Y-67394433D01*
X55799225Y-67394439D01*
X55996873Y-67546099D01*
X56212623Y-67670662D01*
X56212638Y-67670669D01*
X56311825Y-67711753D01*
X56442793Y-67766002D01*
X56683435Y-67830482D01*
X56930435Y-67863000D01*
X56930442Y-67863000D01*
X57179558Y-67863000D01*
X57179565Y-67863000D01*
X57426565Y-67830482D01*
X57667207Y-67766002D01*
X57897373Y-67670664D01*
X58113127Y-67546099D01*
X58310776Y-67394438D01*
X58486938Y-67218276D01*
X58638599Y-67020627D01*
X58763164Y-66804873D01*
X58858502Y-66574707D01*
X58922982Y-66334065D01*
X58955500Y-66087065D01*
X58955500Y-65837935D01*
X58951193Y-65805222D01*
X64054500Y-65805222D01*
X64054500Y-66119777D01*
X64089716Y-66432327D01*
X64089718Y-66432343D01*
X64159710Y-66738999D01*
X64159711Y-66739001D01*
X64263598Y-67035895D01*
X64400072Y-67319286D01*
X64400074Y-67319289D01*
X64567423Y-67585623D01*
X64763539Y-67831544D01*
X64985956Y-68053961D01*
X65231877Y-68250077D01*
X65498211Y-68417426D01*
X65781606Y-68553902D01*
X66078500Y-68657789D01*
X66385160Y-68727782D01*
X66697723Y-68762999D01*
X66697724Y-68763000D01*
X66697727Y-68763000D01*
X67012276Y-68763000D01*
X67012276Y-68762999D01*
X67324840Y-68727782D01*
X67631500Y-68657789D01*
X67928394Y-68553902D01*
X68211789Y-68417426D01*
X68478123Y-68250077D01*
X68724044Y-68053961D01*
X68946461Y-67831544D01*
X69142577Y-67585623D01*
X69309926Y-67319289D01*
X69446402Y-67035894D01*
X69550289Y-66739000D01*
X69620282Y-66432340D01*
X69655500Y-66119773D01*
X69655500Y-65805227D01*
X69655499Y-65805222D01*
X92254500Y-65805222D01*
X92254500Y-66119777D01*
X92289716Y-66432327D01*
X92289718Y-66432343D01*
X92359710Y-66738999D01*
X92359711Y-66739001D01*
X92463598Y-67035895D01*
X92600072Y-67319286D01*
X92600074Y-67319289D01*
X92767423Y-67585623D01*
X92963539Y-67831544D01*
X93185956Y-68053961D01*
X93431877Y-68250077D01*
X93698211Y-68417426D01*
X93981606Y-68553902D01*
X94278500Y-68657789D01*
X94585160Y-68727782D01*
X94897723Y-68762999D01*
X94897724Y-68763000D01*
X94897727Y-68763000D01*
X95212276Y-68763000D01*
X95212276Y-68762999D01*
X95524840Y-68727782D01*
X95831500Y-68657789D01*
X96128394Y-68553902D01*
X96411789Y-68417426D01*
X96678123Y-68250077D01*
X96924044Y-68053961D01*
X97146461Y-67831544D01*
X97342577Y-67585623D01*
X97509926Y-67319289D01*
X97646402Y-67035894D01*
X97750289Y-66739000D01*
X97820282Y-66432340D01*
X97855500Y-66119773D01*
X97855500Y-65805227D01*
X97820282Y-65492660D01*
X97750289Y-65186000D01*
X97646402Y-64889106D01*
X97509926Y-64605711D01*
X97342577Y-64339377D01*
X97146461Y-64093456D01*
X96924044Y-63871039D01*
X96678123Y-63674923D01*
X96411789Y-63507574D01*
X96411786Y-63507572D01*
X96128395Y-63371098D01*
X95831501Y-63267211D01*
X95831499Y-63267210D01*
X95524843Y-63197218D01*
X95524827Y-63197216D01*
X95212277Y-63162000D01*
X95212273Y-63162000D01*
X94897727Y-63162000D01*
X94897722Y-63162000D01*
X94585172Y-63197216D01*
X94585156Y-63197218D01*
X94278500Y-63267210D01*
X94278498Y-63267211D01*
X93981604Y-63371098D01*
X93698213Y-63507572D01*
X93431878Y-63674922D01*
X93185956Y-63871038D01*
X92963538Y-64093456D01*
X92767422Y-64339378D01*
X92600072Y-64605713D01*
X92463598Y-64889104D01*
X92359711Y-65185998D01*
X92359710Y-65186000D01*
X92289718Y-65492656D01*
X92289716Y-65492672D01*
X92254500Y-65805222D01*
X69655499Y-65805222D01*
X69620282Y-65492660D01*
X69550289Y-65186000D01*
X69446402Y-64889106D01*
X69309926Y-64605711D01*
X69142577Y-64339377D01*
X68946461Y-64093456D01*
X68724044Y-63871039D01*
X68478123Y-63674923D01*
X68211789Y-63507574D01*
X68211786Y-63507572D01*
X67928395Y-63371098D01*
X67631501Y-63267211D01*
X67631499Y-63267210D01*
X67324843Y-63197218D01*
X67324827Y-63197216D01*
X67012277Y-63162000D01*
X67012273Y-63162000D01*
X66697727Y-63162000D01*
X66697722Y-63162000D01*
X66385172Y-63197216D01*
X66385156Y-63197218D01*
X66078500Y-63267210D01*
X66078498Y-63267211D01*
X65781604Y-63371098D01*
X65498213Y-63507572D01*
X65231878Y-63674922D01*
X64985956Y-63871038D01*
X64763538Y-64093456D01*
X64567422Y-64339378D01*
X64400072Y-64605713D01*
X64263598Y-64889104D01*
X64159711Y-65185998D01*
X64159710Y-65186000D01*
X64089718Y-65492656D01*
X64089716Y-65492672D01*
X64054500Y-65805222D01*
X58951193Y-65805222D01*
X58922982Y-65590938D01*
X58922982Y-65590935D01*
X58858502Y-65350293D01*
X58763164Y-65120127D01*
X58638599Y-64904373D01*
X58626883Y-64889104D01*
X58486939Y-64706725D01*
X58486933Y-64706718D01*
X58310781Y-64530566D01*
X58310774Y-64530560D01*
X58113126Y-64378900D01*
X57897376Y-64254337D01*
X57897361Y-64254330D01*
X57667207Y-64158998D01*
X57426561Y-64094517D01*
X57179575Y-64062001D01*
X57179570Y-64062000D01*
X57179565Y-64062000D01*
X56930435Y-64062000D01*
X56930429Y-64062000D01*
X56930424Y-64062001D01*
X56683438Y-64094517D01*
X56442792Y-64158998D01*
X56212638Y-64254330D01*
X56212623Y-64254337D01*
X55996873Y-64378900D01*
X55799225Y-64530560D01*
X55799218Y-64530566D01*
X55623066Y-64706718D01*
X55623060Y-64706725D01*
X55471400Y-64904373D01*
X55346837Y-65120123D01*
X55346830Y-65120138D01*
X55251498Y-65350292D01*
X55187017Y-65590938D01*
X55154501Y-65837924D01*
X55154500Y-65837941D01*
X48795499Y-65837941D01*
X48795499Y-65060892D01*
X48780300Y-64906565D01*
X48720232Y-64708545D01*
X48622685Y-64526049D01*
X48501924Y-64378901D01*
X48491410Y-64366089D01*
X48378045Y-64273053D01*
X49912357Y-64273053D01*
X54109072Y-64273053D01*
X54109072Y-60857484D01*
X49912357Y-60857484D01*
X49912357Y-64273053D01*
X48378045Y-64273053D01*
X48331454Y-64234817D01*
X48331452Y-64234816D01*
X48331451Y-64234815D01*
X48148955Y-64137268D01*
X47950935Y-64077200D01*
X47950933Y-64077199D01*
X47950935Y-64077199D01*
X47840222Y-64066295D01*
X47796609Y-64062000D01*
X47796605Y-64062000D01*
X45993395Y-64062000D01*
X45839067Y-64077199D01*
X45641042Y-64137269D01*
X45458545Y-64234817D01*
X45298589Y-64366089D01*
X45167317Y-64526045D01*
X45069769Y-64708542D01*
X45009699Y-64906566D01*
X44994500Y-65060894D01*
X20500500Y-65060894D01*
X20500500Y-56078053D01*
X27993071Y-56078053D01*
X29696907Y-56078053D01*
X29763946Y-56097738D01*
X29809701Y-56150542D01*
X29819645Y-56219700D01*
X29790620Y-56283256D01*
X29731842Y-56321030D01*
X29716305Y-56324526D01*
X29633506Y-56337640D01*
X29386423Y-56417922D01*
X29154945Y-56535868D01*
X28944774Y-56688566D01*
X28944768Y-56688571D01*
X28761071Y-56872268D01*
X28761066Y-56872274D01*
X28608368Y-57082445D01*
X28490422Y-57313923D01*
X28410140Y-57561006D01*
X28369500Y-57817597D01*
X28369500Y-58077402D01*
X28410140Y-58333993D01*
X28490422Y-58581076D01*
X28608368Y-58812554D01*
X28653213Y-58874279D01*
X28676693Y-58940085D01*
X28660867Y-59008139D01*
X28640577Y-59034845D01*
X28540183Y-59135239D01*
X28444211Y-59287976D01*
X28384631Y-59458245D01*
X28384630Y-59458250D01*
X28369500Y-59592539D01*
X28369500Y-61382460D01*
X28384630Y-61516749D01*
X28384631Y-61516754D01*
X28444211Y-61687023D01*
X28475258Y-61736433D01*
X28540184Y-61839762D01*
X28667738Y-61967316D01*
X28820478Y-62063289D01*
X28889269Y-62087360D01*
X28990745Y-62122868D01*
X28990750Y-62122869D01*
X29081246Y-62133065D01*
X29125040Y-62137999D01*
X29125043Y-62138000D01*
X29125046Y-62138000D01*
X30914957Y-62138000D01*
X30914958Y-62137999D01*
X30982104Y-62130434D01*
X31049249Y-62122869D01*
X31049252Y-62122868D01*
X31049255Y-62122868D01*
X31219522Y-62063289D01*
X31372262Y-61967316D01*
X31499816Y-61839762D01*
X31595789Y-61687022D01*
X31655368Y-61516755D01*
X31670500Y-61382454D01*
X31670500Y-59592546D01*
X31655368Y-59458245D01*
X31595789Y-59287978D01*
X31499816Y-59135238D01*
X31399423Y-59034845D01*
X31365938Y-58973522D01*
X31370922Y-58903830D01*
X31386784Y-58874280D01*
X31431634Y-58812551D01*
X31549579Y-58581072D01*
X31629860Y-58333993D01*
X31652539Y-58190798D01*
X31670500Y-58077402D01*
X31670500Y-57817597D01*
X31648947Y-57681521D01*
X31629860Y-57561007D01*
X31549579Y-57313928D01*
X31549577Y-57313925D01*
X31549577Y-57313923D01*
X31506787Y-57229945D01*
X31431634Y-57082449D01*
X31278931Y-56872271D01*
X31095229Y-56688569D01*
X30953006Y-56585238D01*
X30885054Y-56535868D01*
X30885053Y-56535867D01*
X30885051Y-56535866D01*
X30812764Y-56499034D01*
X30653576Y-56417922D01*
X30406493Y-56337640D01*
X30323695Y-56324526D01*
X30260560Y-56294597D01*
X30223629Y-56235285D01*
X30224627Y-56165423D01*
X30263237Y-56107190D01*
X30327200Y-56079076D01*
X30343093Y-56078053D01*
X31977225Y-56078053D01*
X111953071Y-56078053D01*
X112861313Y-56078053D01*
X112928352Y-56097738D01*
X112974107Y-56150542D01*
X112984051Y-56219700D01*
X112955026Y-56283256D01*
X112902267Y-56319095D01*
X112780478Y-56361710D01*
X112627737Y-56457684D01*
X112500184Y-56585237D01*
X112404211Y-56737976D01*
X112344631Y-56908245D01*
X112344630Y-56908250D01*
X112329500Y-57042539D01*
X112329500Y-58832460D01*
X112344630Y-58966749D01*
X112344631Y-58966754D01*
X112404211Y-59137023D01*
X112500184Y-59289762D01*
X112600576Y-59390154D01*
X112634061Y-59451477D01*
X112629077Y-59521169D01*
X112613214Y-59550719D01*
X112568367Y-59612446D01*
X112450422Y-59843923D01*
X112370140Y-60091006D01*
X112329500Y-60347597D01*
X112329500Y-60607402D01*
X112370140Y-60863993D01*
X112450422Y-61111076D01*
X112568368Y-61342554D01*
X112694928Y-61516749D01*
X112721069Y-61552729D01*
X112904771Y-61736431D01*
X113114949Y-61889134D01*
X113262445Y-61964287D01*
X113346423Y-62007077D01*
X113346425Y-62007077D01*
X113346428Y-62007079D01*
X113593507Y-62087360D01*
X113725706Y-62108297D01*
X113850098Y-62128000D01*
X113850103Y-62128000D01*
X114109902Y-62128000D01*
X114223298Y-62110039D01*
X114366493Y-62087360D01*
X114613572Y-62007079D01*
X114845051Y-61889134D01*
X115055229Y-61736431D01*
X115238931Y-61552729D01*
X115391634Y-61342551D01*
X115509579Y-61111072D01*
X115589860Y-60863993D01*
X115612539Y-60720798D01*
X115630500Y-60607402D01*
X115630500Y-60347597D01*
X115608947Y-60211521D01*
X115589860Y-60091007D01*
X115509579Y-59843928D01*
X115509577Y-59843925D01*
X115509577Y-59843923D01*
X115391633Y-59612448D01*
X115391632Y-59612446D01*
X115346785Y-59550719D01*
X115323306Y-59484916D01*
X115339131Y-59416862D01*
X115359423Y-59390155D01*
X115359424Y-59390154D01*
X115459816Y-59289762D01*
X115555789Y-59137022D01*
X115615368Y-58966755D01*
X115630500Y-58832454D01*
X115630500Y-57042546D01*
X115615368Y-56908245D01*
X115555789Y-56737978D01*
X115524744Y-56688571D01*
X115459815Y-56585237D01*
X115332262Y-56457684D01*
X115179521Y-56361710D01*
X115057733Y-56319095D01*
X115000956Y-56278373D01*
X114975209Y-56213420D01*
X114988665Y-56144859D01*
X115037052Y-56094456D01*
X115098687Y-56078053D01*
X116006928Y-56078053D01*
X116006928Y-52592176D01*
X111953071Y-52592176D01*
X111953071Y-56078053D01*
X31977225Y-56078053D01*
X31977225Y-52663687D01*
X27993071Y-52663687D01*
X27993071Y-56078053D01*
X20500500Y-56078053D01*
X20500500Y-47011723D01*
X25179500Y-47011723D01*
X25179500Y-47313276D01*
X25179501Y-47313293D01*
X25218861Y-47612266D01*
X25296913Y-47903560D01*
X25412314Y-48182161D01*
X25412318Y-48182171D01*
X25563099Y-48443331D01*
X25746679Y-48682578D01*
X25746685Y-48682585D01*
X25959914Y-48895814D01*
X25959921Y-48895820D01*
X26199168Y-49079400D01*
X26460328Y-49230181D01*
X26460329Y-49230181D01*
X26460332Y-49230183D01*
X26646072Y-49307119D01*
X26738939Y-49345586D01*
X26738940Y-49345586D01*
X26738942Y-49345587D01*
X27030232Y-49423638D01*
X27329217Y-49463000D01*
X27329224Y-49463000D01*
X27630776Y-49463000D01*
X27630783Y-49463000D01*
X27929768Y-49423638D01*
X28221058Y-49345587D01*
X28499668Y-49230183D01*
X28760832Y-49079400D01*
X29000080Y-48895819D01*
X29213319Y-48682580D01*
X29396900Y-48443332D01*
X29547683Y-48182168D01*
X29663087Y-47903558D01*
X29741138Y-47612268D01*
X29780500Y-47313283D01*
X29780500Y-47011717D01*
X29741138Y-46712732D01*
X29663087Y-46421442D01*
X29547683Y-46142832D01*
X29396900Y-45881668D01*
X29249486Y-45689553D01*
X29213320Y-45642421D01*
X29213314Y-45642414D01*
X29188439Y-45617539D01*
X30259500Y-45617539D01*
X30259500Y-48707460D01*
X30274630Y-48841749D01*
X30274631Y-48841754D01*
X30334211Y-49012023D01*
X30376547Y-49079400D01*
X30430184Y-49164762D01*
X30557738Y-49292316D01*
X30710478Y-49388289D01*
X30811500Y-49423638D01*
X30880745Y-49447868D01*
X30880750Y-49447869D01*
X30971246Y-49458065D01*
X31015040Y-49462999D01*
X31015043Y-49463000D01*
X31015046Y-49463000D01*
X34104957Y-49463000D01*
X34104958Y-49462999D01*
X34172104Y-49455434D01*
X34239249Y-49447869D01*
X34239252Y-49447868D01*
X34239255Y-49447868D01*
X34409522Y-49388289D01*
X34562262Y-49292316D01*
X34689816Y-49164762D01*
X34785789Y-49012022D01*
X34845368Y-48841755D01*
X34860500Y-48707454D01*
X34860500Y-48596328D01*
X79035214Y-48596328D01*
X82946215Y-48596328D01*
X82946215Y-45617539D01*
X109139500Y-45617539D01*
X109139500Y-48707460D01*
X109154630Y-48841749D01*
X109154631Y-48841754D01*
X109214211Y-49012023D01*
X109256547Y-49079400D01*
X109310184Y-49164762D01*
X109437738Y-49292316D01*
X109590478Y-49388289D01*
X109691500Y-49423638D01*
X109760745Y-49447868D01*
X109760750Y-49447869D01*
X109851246Y-49458065D01*
X109895040Y-49462999D01*
X109895043Y-49463000D01*
X109895046Y-49463000D01*
X112984957Y-49463000D01*
X112984958Y-49462999D01*
X113052104Y-49455434D01*
X113119249Y-49447869D01*
X113119252Y-49447868D01*
X113119255Y-49447868D01*
X113289522Y-49388289D01*
X113442262Y-49292316D01*
X113569816Y-49164762D01*
X113665789Y-49012022D01*
X113725368Y-48841755D01*
X113740500Y-48707454D01*
X113740500Y-47011723D01*
X114219500Y-47011723D01*
X114219500Y-47313276D01*
X114219501Y-47313293D01*
X114258861Y-47612266D01*
X114336913Y-47903560D01*
X114452314Y-48182161D01*
X114452318Y-48182171D01*
X114603099Y-48443331D01*
X114786679Y-48682578D01*
X114786685Y-48682585D01*
X114999914Y-48895814D01*
X114999921Y-48895820D01*
X115239168Y-49079400D01*
X115500328Y-49230181D01*
X115500329Y-49230181D01*
X115500332Y-49230183D01*
X115686072Y-49307119D01*
X115778939Y-49345586D01*
X115778940Y-49345586D01*
X115778942Y-49345587D01*
X116070232Y-49423638D01*
X116369217Y-49463000D01*
X116369224Y-49463000D01*
X116670776Y-49463000D01*
X116670783Y-49463000D01*
X116969768Y-49423638D01*
X117261058Y-49345587D01*
X117539668Y-49230183D01*
X117800832Y-49079400D01*
X118040080Y-48895819D01*
X118253319Y-48682580D01*
X118436900Y-48443332D01*
X118587683Y-48182168D01*
X118703087Y-47903558D01*
X118781138Y-47612268D01*
X118820500Y-47313283D01*
X118820500Y-47011717D01*
X118781138Y-46712732D01*
X118703087Y-46421442D01*
X118587683Y-46142832D01*
X118436900Y-45881668D01*
X118253320Y-45642421D01*
X118253314Y-45642414D01*
X118040085Y-45429185D01*
X118040078Y-45429179D01*
X117800831Y-45245599D01*
X117539671Y-45094818D01*
X117539661Y-45094814D01*
X117261060Y-44979413D01*
X116969766Y-44901361D01*
X116670793Y-44862001D01*
X116670788Y-44862000D01*
X116670783Y-44862000D01*
X116369217Y-44862000D01*
X116369211Y-44862000D01*
X116369206Y-44862001D01*
X116070233Y-44901361D01*
X115778939Y-44979413D01*
X115500338Y-45094814D01*
X115500328Y-45094818D01*
X115239168Y-45245599D01*
X114999921Y-45429179D01*
X114999914Y-45429185D01*
X114786685Y-45642414D01*
X114786679Y-45642421D01*
X114603099Y-45881668D01*
X114452318Y-46142828D01*
X114452314Y-46142838D01*
X114336913Y-46421439D01*
X114258861Y-46712733D01*
X114219501Y-47011706D01*
X114219500Y-47011723D01*
X113740500Y-47011723D01*
X113740500Y-45617546D01*
X113725368Y-45483245D01*
X113665789Y-45312978D01*
X113569816Y-45160238D01*
X113442262Y-45032684D01*
X113357482Y-44979413D01*
X113289523Y-44936711D01*
X113119254Y-44877131D01*
X113119249Y-44877130D01*
X112984960Y-44862000D01*
X112984954Y-44862000D01*
X109895046Y-44862000D01*
X109895039Y-44862000D01*
X109760750Y-44877130D01*
X109760745Y-44877131D01*
X109590476Y-44936711D01*
X109437737Y-45032684D01*
X109310184Y-45160237D01*
X109214211Y-45312976D01*
X109154631Y-45483245D01*
X109154630Y-45483250D01*
X109139500Y-45617539D01*
X82946215Y-45617539D01*
X82946215Y-45182484D01*
X79035214Y-45182484D01*
X79035214Y-48596328D01*
X34860500Y-48596328D01*
X34860500Y-45617546D01*
X34845368Y-45483245D01*
X34785789Y-45312978D01*
X34689816Y-45160238D01*
X34562262Y-45032684D01*
X34477482Y-44979413D01*
X34409523Y-44936711D01*
X34239254Y-44877131D01*
X34239249Y-44877130D01*
X34104960Y-44862000D01*
X34104954Y-44862000D01*
X31015046Y-44862000D01*
X31015039Y-44862000D01*
X30880750Y-44877130D01*
X30880745Y-44877131D01*
X30710476Y-44936711D01*
X30557737Y-45032684D01*
X30430184Y-45160237D01*
X30334211Y-45312976D01*
X30274631Y-45483245D01*
X30274630Y-45483250D01*
X30259500Y-45617539D01*
X29188439Y-45617539D01*
X29000085Y-45429185D01*
X29000078Y-45429179D01*
X28760831Y-45245599D01*
X28499671Y-45094818D01*
X28499661Y-45094814D01*
X28221060Y-44979413D01*
X27929766Y-44901361D01*
X27630793Y-44862001D01*
X27630788Y-44862000D01*
X27630783Y-44862000D01*
X27329217Y-44862000D01*
X27329211Y-44862000D01*
X27329206Y-44862001D01*
X27030233Y-44901361D01*
X26738939Y-44979413D01*
X26460338Y-45094814D01*
X26460328Y-45094818D01*
X26199168Y-45245599D01*
X25959921Y-45429179D01*
X25959914Y-45429185D01*
X25746685Y-45642414D01*
X25746679Y-45642421D01*
X25563099Y-45881668D01*
X25412318Y-46142828D01*
X25412314Y-46142838D01*
X25296913Y-46421439D01*
X25218861Y-46712733D01*
X25179501Y-47011706D01*
X25179500Y-47011723D01*
X20500500Y-47011723D01*
X20500500Y-43073053D01*
X27993071Y-43073053D01*
X31975500Y-43073053D01*
X111953071Y-43073053D01*
X115937225Y-43073053D01*
X115937225Y-39658603D01*
X111953071Y-39658603D01*
X111953071Y-43073053D01*
X31975500Y-43073053D01*
X31975500Y-39657484D01*
X27993071Y-39657484D01*
X27993071Y-43073053D01*
X20500500Y-43073053D01*
X20500500Y-20624500D01*
X20520185Y-20557461D01*
X20572989Y-20511706D01*
X20624500Y-20500500D01*
X123375500Y-20500500D01*
X123442539Y-20520185D01*
G37*
%TD.AperFunction*%
M02*
