%TF.GenerationSoftware,KiCad,Pcbnew,9.0.4*%
%TF.CreationDate,2026-06-11T08:54:31+02:00*%
%TF.ProjectId,buck,6275636b-2e6b-4696-9361-645f70636258,rev?*%
%TF.SameCoordinates,Original*%
%TF.FileFunction,Legend,Top*%
%TF.FilePolarity,Positive*%
%FSLAX46Y46*%
G04 Gerber Fmt 4.6, Leading zero omitted, Abs format (unit mm)*
G04 Created by KiCad (PCBNEW 9.0.4) date 2026-06-11 08:54:31*
%MOMM*%
%LPD*%
G01*
G04 APERTURE LIST*
%ADD10C,0.150000*%
%ADD11C,0.120000*%
G04 APERTURE END LIST*
D10*
X29686666Y-51697319D02*
X29686666Y-52411604D01*
X29686666Y-52411604D02*
X29639047Y-52554461D01*
X29639047Y-52554461D02*
X29543809Y-52649700D01*
X29543809Y-52649700D02*
X29400952Y-52697319D01*
X29400952Y-52697319D02*
X29305714Y-52697319D01*
X30686666Y-52697319D02*
X30115238Y-52697319D01*
X30400952Y-52697319D02*
X30400952Y-51697319D01*
X30400952Y-51697319D02*
X30305714Y-51840176D01*
X30305714Y-51840176D02*
X30210476Y-51935414D01*
X30210476Y-51935414D02*
X30115238Y-51983033D01*
X29686666Y-62322319D02*
X29686666Y-63036604D01*
X29686666Y-63036604D02*
X29639047Y-63179461D01*
X29639047Y-63179461D02*
X29543809Y-63274700D01*
X29543809Y-63274700D02*
X29400952Y-63322319D01*
X29400952Y-63322319D02*
X29305714Y-63322319D01*
X30067619Y-62322319D02*
X30686666Y-62322319D01*
X30686666Y-62322319D02*
X30353333Y-62703271D01*
X30353333Y-62703271D02*
X30496190Y-62703271D01*
X30496190Y-62703271D02*
X30591428Y-62750890D01*
X30591428Y-62750890D02*
X30639047Y-62798509D01*
X30639047Y-62798509D02*
X30686666Y-62893747D01*
X30686666Y-62893747D02*
X30686666Y-63131842D01*
X30686666Y-63131842D02*
X30639047Y-63227080D01*
X30639047Y-63227080D02*
X30591428Y-63274700D01*
X30591428Y-63274700D02*
X30496190Y-63322319D01*
X30496190Y-63322319D02*
X30210476Y-63322319D01*
X30210476Y-63322319D02*
X30115238Y-63274700D01*
X30115238Y-63274700D02*
X30067619Y-63227080D01*
X50238333Y-97422319D02*
X49905000Y-96946128D01*
X49666905Y-97422319D02*
X49666905Y-96422319D01*
X49666905Y-96422319D02*
X50047857Y-96422319D01*
X50047857Y-96422319D02*
X50143095Y-96469938D01*
X50143095Y-96469938D02*
X50190714Y-96517557D01*
X50190714Y-96517557D02*
X50238333Y-96612795D01*
X50238333Y-96612795D02*
X50238333Y-96755652D01*
X50238333Y-96755652D02*
X50190714Y-96850890D01*
X50190714Y-96850890D02*
X50143095Y-96898509D01*
X50143095Y-96898509D02*
X50047857Y-96946128D01*
X50047857Y-96946128D02*
X49666905Y-96946128D01*
X51190714Y-97422319D02*
X50619286Y-97422319D01*
X50905000Y-97422319D02*
X50905000Y-96422319D01*
X50905000Y-96422319D02*
X50809762Y-96565176D01*
X50809762Y-96565176D02*
X50714524Y-96660414D01*
X50714524Y-96660414D02*
X50619286Y-96708033D01*
X65393033Y-85647080D02*
X65345414Y-85694700D01*
X65345414Y-85694700D02*
X65202557Y-85742319D01*
X65202557Y-85742319D02*
X65107319Y-85742319D01*
X65107319Y-85742319D02*
X64964462Y-85694700D01*
X64964462Y-85694700D02*
X64869224Y-85599461D01*
X64869224Y-85599461D02*
X64821605Y-85504223D01*
X64821605Y-85504223D02*
X64773986Y-85313747D01*
X64773986Y-85313747D02*
X64773986Y-85170890D01*
X64773986Y-85170890D02*
X64821605Y-84980414D01*
X64821605Y-84980414D02*
X64869224Y-84885176D01*
X64869224Y-84885176D02*
X64964462Y-84789938D01*
X64964462Y-84789938D02*
X65107319Y-84742319D01*
X65107319Y-84742319D02*
X65202557Y-84742319D01*
X65202557Y-84742319D02*
X65345414Y-84789938D01*
X65345414Y-84789938D02*
X65393033Y-84837557D01*
X66345414Y-85742319D02*
X65773986Y-85742319D01*
X66059700Y-85742319D02*
X66059700Y-84742319D01*
X66059700Y-84742319D02*
X65964462Y-84885176D01*
X65964462Y-84885176D02*
X65869224Y-84980414D01*
X65869224Y-84980414D02*
X65773986Y-85028033D01*
X50043095Y-85122319D02*
X50043095Y-85931842D01*
X50043095Y-85931842D02*
X50090714Y-86027080D01*
X50090714Y-86027080D02*
X50138333Y-86074700D01*
X50138333Y-86074700D02*
X50233571Y-86122319D01*
X50233571Y-86122319D02*
X50424047Y-86122319D01*
X50424047Y-86122319D02*
X50519285Y-86074700D01*
X50519285Y-86074700D02*
X50566904Y-86027080D01*
X50566904Y-86027080D02*
X50614523Y-85931842D01*
X50614523Y-85931842D02*
X50614523Y-85122319D01*
X51614523Y-86122319D02*
X51043095Y-86122319D01*
X51328809Y-86122319D02*
X51328809Y-85122319D01*
X51328809Y-85122319D02*
X51233571Y-85265176D01*
X51233571Y-85265176D02*
X51138333Y-85360414D01*
X51138333Y-85360414D02*
X51043095Y-85408033D01*
X80788333Y-57417319D02*
X80312143Y-57417319D01*
X80312143Y-57417319D02*
X80312143Y-56417319D01*
X81645476Y-57417319D02*
X81074048Y-57417319D01*
X81359762Y-57417319D02*
X81359762Y-56417319D01*
X81359762Y-56417319D02*
X81264524Y-56560176D01*
X81264524Y-56560176D02*
X81169286Y-56655414D01*
X81169286Y-56655414D02*
X81074048Y-56703033D01*
X113646666Y-55012319D02*
X113646666Y-55726604D01*
X113646666Y-55726604D02*
X113599047Y-55869461D01*
X113599047Y-55869461D02*
X113503809Y-55964700D01*
X113503809Y-55964700D02*
X113360952Y-56012319D01*
X113360952Y-56012319D02*
X113265714Y-56012319D01*
X114551428Y-55345652D02*
X114551428Y-56012319D01*
X114313333Y-54964700D02*
X114075238Y-55678985D01*
X114075238Y-55678985D02*
X114694285Y-55678985D01*
X65008333Y-97422319D02*
X64675000Y-96946128D01*
X64436905Y-97422319D02*
X64436905Y-96422319D01*
X64436905Y-96422319D02*
X64817857Y-96422319D01*
X64817857Y-96422319D02*
X64913095Y-96469938D01*
X64913095Y-96469938D02*
X64960714Y-96517557D01*
X64960714Y-96517557D02*
X65008333Y-96612795D01*
X65008333Y-96612795D02*
X65008333Y-96755652D01*
X65008333Y-96755652D02*
X64960714Y-96850890D01*
X64960714Y-96850890D02*
X64913095Y-96898509D01*
X64913095Y-96898509D02*
X64817857Y-96946128D01*
X64817857Y-96946128D02*
X64436905Y-96946128D01*
X65389286Y-96517557D02*
X65436905Y-96469938D01*
X65436905Y-96469938D02*
X65532143Y-96422319D01*
X65532143Y-96422319D02*
X65770238Y-96422319D01*
X65770238Y-96422319D02*
X65865476Y-96469938D01*
X65865476Y-96469938D02*
X65913095Y-96517557D01*
X65913095Y-96517557D02*
X65960714Y-96612795D01*
X65960714Y-96612795D02*
X65960714Y-96708033D01*
X65960714Y-96708033D02*
X65913095Y-96850890D01*
X65913095Y-96850890D02*
X65341667Y-97422319D01*
X65341667Y-97422319D02*
X65960714Y-97422319D01*
X51236905Y-63947319D02*
X51236905Y-62947319D01*
X51236905Y-62947319D02*
X51475000Y-62947319D01*
X51475000Y-62947319D02*
X51617857Y-62994938D01*
X51617857Y-62994938D02*
X51713095Y-63090176D01*
X51713095Y-63090176D02*
X51760714Y-63185414D01*
X51760714Y-63185414D02*
X51808333Y-63375890D01*
X51808333Y-63375890D02*
X51808333Y-63518747D01*
X51808333Y-63518747D02*
X51760714Y-63709223D01*
X51760714Y-63709223D02*
X51713095Y-63804461D01*
X51713095Y-63804461D02*
X51617857Y-63899700D01*
X51617857Y-63899700D02*
X51475000Y-63947319D01*
X51475000Y-63947319D02*
X51236905Y-63947319D01*
X52760714Y-63947319D02*
X52189286Y-63947319D01*
X52475000Y-63947319D02*
X52475000Y-62947319D01*
X52475000Y-62947319D02*
X52379762Y-63090176D01*
X52379762Y-63090176D02*
X52284524Y-63185414D01*
X52284524Y-63185414D02*
X52189286Y-63233033D01*
X46633095Y-64317319D02*
X46633095Y-63317319D01*
X47204523Y-64317319D02*
X46775952Y-63745890D01*
X47204523Y-63317319D02*
X46633095Y-63888747D01*
X113646666Y-41537319D02*
X113646666Y-42251604D01*
X113646666Y-42251604D02*
X113599047Y-42394461D01*
X113599047Y-42394461D02*
X113503809Y-42489700D01*
X113503809Y-42489700D02*
X113360952Y-42537319D01*
X113360952Y-42537319D02*
X113265714Y-42537319D01*
X114075238Y-41632557D02*
X114122857Y-41584938D01*
X114122857Y-41584938D02*
X114218095Y-41537319D01*
X114218095Y-41537319D02*
X114456190Y-41537319D01*
X114456190Y-41537319D02*
X114551428Y-41584938D01*
X114551428Y-41584938D02*
X114599047Y-41632557D01*
X114599047Y-41632557D02*
X114646666Y-41727795D01*
X114646666Y-41727795D02*
X114646666Y-41823033D01*
X114646666Y-41823033D02*
X114599047Y-41965890D01*
X114599047Y-41965890D02*
X114027619Y-42537319D01*
X114027619Y-42537319D02*
X114646666Y-42537319D01*
X79300176Y-87842319D02*
X79300176Y-86842319D01*
X79300176Y-86842319D02*
X79633509Y-87556604D01*
X79633509Y-87556604D02*
X79966842Y-86842319D01*
X79966842Y-86842319D02*
X79966842Y-87842319D01*
X80966842Y-87842319D02*
X80395414Y-87842319D01*
X80681128Y-87842319D02*
X80681128Y-86842319D01*
X80681128Y-86842319D02*
X80585890Y-86985176D01*
X80585890Y-86985176D02*
X80490652Y-87080414D01*
X80490652Y-87080414D02*
X80395414Y-87128033D01*
D11*
%TO.C,J1*%
X24940000Y-43352500D02*
X24940000Y-50972500D01*
X24940000Y-44622500D02*
X35100000Y-44622500D01*
X24940000Y-50972500D02*
X35100000Y-50972500D01*
X35100000Y-43352500D02*
X24940000Y-43352500D01*
X35100000Y-50972500D02*
X35100000Y-43352500D01*
%TO.C,J3*%
X28640000Y-59217500D02*
X28640000Y-56567500D01*
X31400000Y-56567500D02*
X28640000Y-56567500D01*
X31400000Y-59217500D02*
X28640000Y-59217500D01*
X31400000Y-59217500D02*
X31400000Y-56567500D01*
X31400000Y-60487500D02*
X31400000Y-61867500D01*
X31400000Y-61867500D02*
X30020000Y-61867500D01*
%TO.C,R1*%
X47135000Y-97967500D02*
X53675000Y-97967500D01*
X47135000Y-98297500D02*
X47135000Y-97967500D01*
X47135000Y-100377500D02*
X47135000Y-100707500D01*
X47135000Y-100707500D02*
X53675000Y-100707500D01*
X53675000Y-97967500D02*
X53675000Y-98297500D01*
X53675000Y-100707500D02*
X53675000Y-100377500D01*
%TO.C,C1*%
X61150002Y-88222500D02*
X61950002Y-88222500D01*
X61550002Y-87822500D02*
X61550002Y-88622500D01*
X65559700Y-86457500D02*
X65559700Y-94617500D01*
X65599700Y-86457500D02*
X65599700Y-94617500D01*
X65639700Y-86458500D02*
X65639700Y-94616500D01*
X65679700Y-86459500D02*
X65679700Y-94615500D01*
X65719700Y-86460500D02*
X65719700Y-94614500D01*
X65759700Y-86462500D02*
X65759700Y-94612500D01*
X65799700Y-86464500D02*
X65799700Y-94610500D01*
X65839700Y-86467500D02*
X65839700Y-94607500D01*
X65879700Y-86469500D02*
X65879700Y-94605500D01*
X65919700Y-86473500D02*
X65919700Y-94601500D01*
X65959700Y-86476500D02*
X65959700Y-94598500D01*
X65999700Y-86481500D02*
X65999700Y-94593500D01*
X66039700Y-86485500D02*
X66039700Y-94589500D01*
X66079700Y-86490500D02*
X66079700Y-94584500D01*
X66119700Y-86495500D02*
X66119700Y-94579500D01*
X66159700Y-86501500D02*
X66159700Y-94573500D01*
X66199700Y-86507500D02*
X66199700Y-94567500D01*
X66239700Y-86514500D02*
X66239700Y-94560500D01*
X66279700Y-86520500D02*
X66279700Y-89497500D01*
X66279700Y-91577500D02*
X66279700Y-94554500D01*
X66319700Y-86528500D02*
X66319700Y-89497500D01*
X66319700Y-91577500D02*
X66319700Y-94546500D01*
X66359700Y-86535500D02*
X66359700Y-89497500D01*
X66359700Y-91577500D02*
X66359700Y-94539500D01*
X66399700Y-86544500D02*
X66399700Y-89497500D01*
X66399700Y-91577500D02*
X66399700Y-94530500D01*
X66439700Y-86552500D02*
X66439700Y-89497500D01*
X66439700Y-91577500D02*
X66439700Y-94522500D01*
X66479700Y-86561500D02*
X66479700Y-89497500D01*
X66479700Y-91577500D02*
X66479700Y-94513500D01*
X66519700Y-86570500D02*
X66519700Y-89497500D01*
X66519700Y-91577500D02*
X66519700Y-94504500D01*
X66559700Y-86580500D02*
X66559700Y-89497500D01*
X66559700Y-91577500D02*
X66559700Y-94494500D01*
X66599700Y-86590500D02*
X66599700Y-89497500D01*
X66599700Y-91577500D02*
X66599700Y-94484500D01*
X66639700Y-86601500D02*
X66639700Y-89497500D01*
X66639700Y-91577500D02*
X66639700Y-94473500D01*
X66679700Y-86612500D02*
X66679700Y-89497500D01*
X66679700Y-91577500D02*
X66679700Y-94462500D01*
X66719700Y-86624500D02*
X66719700Y-89497500D01*
X66719700Y-91577500D02*
X66719700Y-94450500D01*
X66759700Y-86636500D02*
X66759700Y-89497500D01*
X66759700Y-91577500D02*
X66759700Y-94438500D01*
X66799700Y-86648500D02*
X66799700Y-89497500D01*
X66799700Y-91577500D02*
X66799700Y-94426500D01*
X66839700Y-86661500D02*
X66839700Y-89497500D01*
X66839700Y-91577500D02*
X66839700Y-94413500D01*
X66879700Y-86674500D02*
X66879700Y-89497500D01*
X66879700Y-91577500D02*
X66879700Y-94400500D01*
X66919700Y-86688500D02*
X66919700Y-89497500D01*
X66919700Y-91577500D02*
X66919700Y-94386500D01*
X66959700Y-86702500D02*
X66959700Y-89497500D01*
X66959700Y-91577500D02*
X66959700Y-94372500D01*
X66999700Y-86717500D02*
X66999700Y-89497500D01*
X66999700Y-91577500D02*
X66999700Y-94357500D01*
X67039700Y-86732500D02*
X67039700Y-89497500D01*
X67039700Y-91577500D02*
X67039700Y-94342500D01*
X67079700Y-86748500D02*
X67079700Y-89497500D01*
X67079700Y-91577500D02*
X67079700Y-94326500D01*
X67119700Y-86764500D02*
X67119700Y-89497500D01*
X67119700Y-91577500D02*
X67119700Y-94310500D01*
X67159700Y-86780500D02*
X67159700Y-89497500D01*
X67159700Y-91577500D02*
X67159700Y-94294500D01*
X67199700Y-86797500D02*
X67199700Y-89497500D01*
X67199700Y-91577500D02*
X67199700Y-94277500D01*
X67239700Y-86815500D02*
X67239700Y-89497500D01*
X67239700Y-91577500D02*
X67239700Y-94259500D01*
X67279700Y-86833500D02*
X67279700Y-89497500D01*
X67279700Y-91577500D02*
X67279700Y-94241500D01*
X67319700Y-86852500D02*
X67319700Y-89497500D01*
X67319700Y-91577500D02*
X67319700Y-94222500D01*
X67359700Y-86871500D02*
X67359700Y-89497500D01*
X67359700Y-91577500D02*
X67359700Y-94203500D01*
X67399700Y-86891500D02*
X67399700Y-89497500D01*
X67399700Y-91577500D02*
X67399700Y-94183500D01*
X67439700Y-86911500D02*
X67439700Y-89497500D01*
X67439700Y-91577500D02*
X67439700Y-94163500D01*
X67479700Y-86932500D02*
X67479700Y-89497500D01*
X67479700Y-91577500D02*
X67479700Y-94142500D01*
X67519700Y-86953500D02*
X67519700Y-89497500D01*
X67519700Y-91577500D02*
X67519700Y-94121500D01*
X67559700Y-86975500D02*
X67559700Y-89497500D01*
X67559700Y-91577500D02*
X67559700Y-94099500D01*
X67599700Y-86998500D02*
X67599700Y-89497500D01*
X67599700Y-91577500D02*
X67599700Y-94076500D01*
X67639700Y-87021500D02*
X67639700Y-89497500D01*
X67639700Y-91577500D02*
X67639700Y-94053500D01*
X67679700Y-87044500D02*
X67679700Y-89497500D01*
X67679700Y-91577500D02*
X67679700Y-94030500D01*
X67719700Y-87069500D02*
X67719700Y-89497500D01*
X67719700Y-91577500D02*
X67719700Y-94005500D01*
X67759700Y-87094500D02*
X67759700Y-89497500D01*
X67759700Y-91577500D02*
X67759700Y-93980500D01*
X67799700Y-87119500D02*
X67799700Y-89497500D01*
X67799700Y-91577500D02*
X67799700Y-93955500D01*
X67839700Y-87145500D02*
X67839700Y-89497500D01*
X67839700Y-91577500D02*
X67839700Y-93929500D01*
X67879700Y-87172500D02*
X67879700Y-89497500D01*
X67879700Y-91577500D02*
X67879700Y-93902500D01*
X67919700Y-87200500D02*
X67919700Y-89497500D01*
X67919700Y-91577500D02*
X67919700Y-93874500D01*
X67959700Y-87228500D02*
X67959700Y-89497500D01*
X67959700Y-91577500D02*
X67959700Y-93846500D01*
X67999700Y-87257500D02*
X67999700Y-89497500D01*
X67999700Y-91577500D02*
X67999700Y-93817500D01*
X68039700Y-87287500D02*
X68039700Y-89497500D01*
X68039700Y-91577500D02*
X68039700Y-93787500D01*
X68079700Y-87318500D02*
X68079700Y-89497500D01*
X68079700Y-91577500D02*
X68079700Y-93756500D01*
X68119700Y-87349500D02*
X68119700Y-89497500D01*
X68119700Y-91577500D02*
X68119700Y-93725500D01*
X68159700Y-87381500D02*
X68159700Y-89497500D01*
X68159700Y-91577500D02*
X68159700Y-93693500D01*
X68199700Y-87414500D02*
X68199700Y-89497500D01*
X68199700Y-91577500D02*
X68199700Y-93660500D01*
X68239700Y-87448500D02*
X68239700Y-89497500D01*
X68239700Y-91577500D02*
X68239700Y-93626500D01*
X68279700Y-87482500D02*
X68279700Y-89497500D01*
X68279700Y-91577500D02*
X68279700Y-93592500D01*
X68319700Y-87518500D02*
X68319700Y-89497500D01*
X68319700Y-91577500D02*
X68319700Y-93556500D01*
X68359700Y-87555500D02*
X68359700Y-93519500D01*
X68399700Y-87592500D02*
X68399700Y-93482500D01*
X68439700Y-87631500D02*
X68439700Y-93443500D01*
X68479700Y-87670500D02*
X68479700Y-93404500D01*
X68519700Y-87711500D02*
X68519700Y-93363500D01*
X68559700Y-87753500D02*
X68559700Y-93321500D01*
X68599700Y-87796500D02*
X68599700Y-93278500D01*
X68639700Y-87841500D02*
X68639700Y-93233500D01*
X68679700Y-87886500D02*
X68679700Y-93188500D01*
X68719700Y-87933500D02*
X68719700Y-93141500D01*
X68759700Y-87982500D02*
X68759700Y-93092500D01*
X68799700Y-88032500D02*
X68799700Y-93042500D01*
X68839700Y-88084500D02*
X68839700Y-92990500D01*
X68879700Y-88137500D02*
X68879700Y-92937500D01*
X68919700Y-88193500D02*
X68919700Y-92881500D01*
X68959700Y-88250500D02*
X68959700Y-92824500D01*
X68999700Y-88310500D02*
X68999700Y-92764500D01*
X69039700Y-88372500D02*
X69039700Y-92702500D01*
X69079700Y-88436500D02*
X69079700Y-92638500D01*
X69119700Y-88503500D02*
X69119700Y-92571500D01*
X69159700Y-88573500D02*
X69159700Y-92501500D01*
X69199700Y-88647500D02*
X69199700Y-92427500D01*
X69239700Y-88724500D02*
X69239700Y-92350500D01*
X69279700Y-88806500D02*
X69279700Y-92268500D01*
X69319700Y-88893500D02*
X69319700Y-92181500D01*
X69359700Y-88985500D02*
X69359700Y-92089500D01*
X69399700Y-89084500D02*
X69399700Y-91990500D01*
X69439700Y-89191500D02*
X69439700Y-91883500D01*
X69479700Y-89309500D02*
X69479700Y-91765500D01*
X69519700Y-89440500D02*
X69519700Y-91634500D01*
X69559700Y-89590500D02*
X69559700Y-91484500D01*
X69599700Y-89769500D02*
X69599700Y-91305500D01*
X69639700Y-90004500D02*
X69639700Y-91070500D01*
X69679700Y-90537500D02*
G75*
G02*
X61439700Y-90537500I-4120000J0D01*
G01*
X61439700Y-90537500D02*
G75*
G02*
X69679700Y-90537500I4120000J0D01*
G01*
%TO.C,U1*%
X48555000Y-86667500D02*
X48555000Y-94407500D01*
X48555000Y-94407500D02*
X53055000Y-94407500D01*
X49805000Y-86667500D02*
X48555000Y-86667500D01*
X53055000Y-86667500D02*
X51805000Y-86667500D01*
X53055000Y-94407500D02*
X53055000Y-86667500D01*
X51805000Y-86667500D02*
G75*
G02*
X49805000Y-86667500I-1000000J0D01*
G01*
%TO.C,L1*%
X63585000Y-58342500D02*
X98325000Y-58342500D01*
X98325000Y-73582500D01*
X63585000Y-73582500D01*
X63585000Y-58342500D01*
%TO.C,J4*%
X112600000Y-56557500D02*
X113980000Y-56557500D01*
X112600000Y-57937500D02*
X112600000Y-56557500D01*
X112600000Y-59207500D02*
X112600000Y-61857500D01*
X112600000Y-59207500D02*
X115360000Y-59207500D01*
X112600000Y-61857500D02*
X115360000Y-61857500D01*
X115360000Y-59207500D02*
X115360000Y-61857500D01*
%TO.C,R2*%
X61905000Y-97967500D02*
X68445000Y-97967500D01*
X61905000Y-98297500D02*
X61905000Y-97967500D01*
X61905000Y-100377500D02*
X61905000Y-100707500D01*
X61905000Y-100707500D02*
X68445000Y-100707500D01*
X68445000Y-97967500D02*
X68445000Y-98297500D01*
X68445000Y-100707500D02*
X68445000Y-100377500D01*
%TO.C,D1*%
X48235000Y-65962500D02*
X49255000Y-65962500D01*
X50035000Y-64492500D02*
X50035000Y-67432500D01*
X50155000Y-64492500D02*
X50155000Y-67432500D01*
X50275000Y-64492500D02*
X50275000Y-67432500D01*
X55715000Y-65962500D02*
X54695000Y-65962500D01*
X49255000Y-64492500D02*
X54695000Y-64492500D01*
X54695000Y-67432500D01*
X49255000Y-67432500D01*
X49255000Y-64492500D01*
%TO.C,J2*%
X108900000Y-43352500D02*
X108900000Y-50972500D01*
X108900000Y-50972500D02*
X119060000Y-50972500D01*
X119060000Y-43352500D02*
X108900000Y-43352500D01*
X119060000Y-49702500D02*
X108900000Y-49702500D01*
X119060000Y-50972500D02*
X119060000Y-43352500D01*
%TO.C,M1*%
X74999700Y-88227500D02*
X85219700Y-88227500D01*
X74999700Y-89607500D02*
X85219700Y-89607500D01*
X74999700Y-92847500D02*
X74999700Y-88227500D01*
X78259700Y-88227500D02*
X78259700Y-89607500D01*
X81959700Y-88227500D02*
X81959700Y-89607500D01*
X85219700Y-88227500D02*
X85219700Y-92847500D01*
X85219700Y-92847500D02*
X74999700Y-92847500D01*
%TD*%
M02*
