%TF.GenerationSoftware,KiCad,Pcbnew,9.0.4*%
%TF.CreationDate,2026-06-11T08:54:31+02:00*%
%TF.ProjectId,buck,6275636b-2e6b-4696-9361-645f70636258,rev?*%
%TF.SameCoordinates,Original*%
%TF.FileFunction,AssemblyDrawing,Top*%
%FSLAX46Y46*%
G04 Gerber Fmt 4.6, Leading zero omitted, Abs format (unit mm)*
G04 Created by KiCad (PCBNEW 9.0.4) date 2026-06-11 08:54:31*
%MOMM*%
%LPD*%
G01*
G04 APERTURE LIST*
%ADD10C,0.150000*%
%ADD11C,0.100000*%
G04 APERTURE END LIST*
D10*
X25258095Y-41537319D02*
X25591428Y-42537319D01*
X25591428Y-42537319D02*
X25924761Y-41537319D01*
X26781904Y-42537319D02*
X26210476Y-42537319D01*
X26496190Y-42537319D02*
X26496190Y-41537319D01*
X26496190Y-41537319D02*
X26400952Y-41680176D01*
X26400952Y-41680176D02*
X26305714Y-41775414D01*
X26305714Y-41775414D02*
X26210476Y-41823033D01*
X27972381Y-42537319D02*
X27972381Y-41870652D01*
X27972381Y-41537319D02*
X27924762Y-41584938D01*
X27924762Y-41584938D02*
X27972381Y-41632557D01*
X27972381Y-41632557D02*
X28020000Y-41584938D01*
X28020000Y-41584938D02*
X27972381Y-41537319D01*
X27972381Y-41537319D02*
X27972381Y-41632557D01*
X28448571Y-41870652D02*
X28448571Y-42537319D01*
X28448571Y-41965890D02*
X28496190Y-41918271D01*
X28496190Y-41918271D02*
X28591428Y-41870652D01*
X28591428Y-41870652D02*
X28734285Y-41870652D01*
X28734285Y-41870652D02*
X28829523Y-41918271D01*
X28829523Y-41918271D02*
X28877142Y-42013509D01*
X28877142Y-42013509D02*
X28877142Y-42537319D01*
X29781904Y-42537319D02*
X29781904Y-41537319D01*
X29781904Y-42489700D02*
X29686666Y-42537319D01*
X29686666Y-42537319D02*
X29496190Y-42537319D01*
X29496190Y-42537319D02*
X29400952Y-42489700D01*
X29400952Y-42489700D02*
X29353333Y-42442080D01*
X29353333Y-42442080D02*
X29305714Y-42346842D01*
X29305714Y-42346842D02*
X29305714Y-42061128D01*
X29305714Y-42061128D02*
X29353333Y-41965890D01*
X29353333Y-41965890D02*
X29400952Y-41918271D01*
X29400952Y-41918271D02*
X29496190Y-41870652D01*
X29496190Y-41870652D02*
X29686666Y-41870652D01*
X29686666Y-41870652D02*
X29781904Y-41918271D01*
X31305714Y-42918271D02*
X31258095Y-42870652D01*
X31258095Y-42870652D02*
X31162857Y-42727795D01*
X31162857Y-42727795D02*
X31115238Y-42632557D01*
X31115238Y-42632557D02*
X31067619Y-42489700D01*
X31067619Y-42489700D02*
X31020000Y-42251604D01*
X31020000Y-42251604D02*
X31020000Y-42061128D01*
X31020000Y-42061128D02*
X31067619Y-41823033D01*
X31067619Y-41823033D02*
X31115238Y-41680176D01*
X31115238Y-41680176D02*
X31162857Y-41584938D01*
X31162857Y-41584938D02*
X31258095Y-41442080D01*
X31258095Y-41442080D02*
X31305714Y-41394461D01*
X32210476Y-42537319D02*
X31639048Y-42537319D01*
X31924762Y-42537319D02*
X31924762Y-41537319D01*
X31924762Y-41537319D02*
X31829524Y-41680176D01*
X31829524Y-41680176D02*
X31734286Y-41775414D01*
X31734286Y-41775414D02*
X31639048Y-41823033D01*
X33115238Y-41537319D02*
X32639048Y-41537319D01*
X32639048Y-41537319D02*
X32591429Y-42013509D01*
X32591429Y-42013509D02*
X32639048Y-41965890D01*
X32639048Y-41965890D02*
X32734286Y-41918271D01*
X32734286Y-41918271D02*
X32972381Y-41918271D01*
X32972381Y-41918271D02*
X33067619Y-41965890D01*
X33067619Y-41965890D02*
X33115238Y-42013509D01*
X33115238Y-42013509D02*
X33162857Y-42108747D01*
X33162857Y-42108747D02*
X33162857Y-42346842D01*
X33162857Y-42346842D02*
X33115238Y-42442080D01*
X33115238Y-42442080D02*
X33067619Y-42489700D01*
X33067619Y-42489700D02*
X32972381Y-42537319D01*
X32972381Y-42537319D02*
X32734286Y-42537319D01*
X32734286Y-42537319D02*
X32639048Y-42489700D01*
X32639048Y-42489700D02*
X32591429Y-42442080D01*
X33448572Y-41537319D02*
X33781905Y-42537319D01*
X33781905Y-42537319D02*
X34115238Y-41537319D01*
X34353334Y-42918271D02*
X34400953Y-42870652D01*
X34400953Y-42870652D02*
X34496191Y-42727795D01*
X34496191Y-42727795D02*
X34543810Y-42632557D01*
X34543810Y-42632557D02*
X34591429Y-42489700D01*
X34591429Y-42489700D02*
X34639048Y-42251604D01*
X34639048Y-42251604D02*
X34639048Y-42061128D01*
X34639048Y-42061128D02*
X34591429Y-41823033D01*
X34591429Y-41823033D02*
X34543810Y-41680176D01*
X34543810Y-41680176D02*
X34496191Y-41584938D01*
X34496191Y-41584938D02*
X34400953Y-41442080D01*
X34400953Y-41442080D02*
X34353334Y-41394461D01*
X29686666Y-46617319D02*
X29686666Y-47331604D01*
X29686666Y-47331604D02*
X29639047Y-47474461D01*
X29639047Y-47474461D02*
X29543809Y-47569700D01*
X29543809Y-47569700D02*
X29400952Y-47617319D01*
X29400952Y-47617319D02*
X29305714Y-47617319D01*
X30686666Y-47617319D02*
X30115238Y-47617319D01*
X30400952Y-47617319D02*
X30400952Y-46617319D01*
X30400952Y-46617319D02*
X30305714Y-46760176D01*
X30305714Y-46760176D02*
X30210476Y-46855414D01*
X30210476Y-46855414D02*
X30115238Y-46903033D01*
X24758094Y-56022319D02*
X24758094Y-55022319D01*
X24758094Y-55022319D02*
X25139046Y-55022319D01*
X25139046Y-55022319D02*
X25234284Y-55069938D01*
X25234284Y-55069938D02*
X25281903Y-55117557D01*
X25281903Y-55117557D02*
X25329522Y-55212795D01*
X25329522Y-55212795D02*
X25329522Y-55355652D01*
X25329522Y-55355652D02*
X25281903Y-55450890D01*
X25281903Y-55450890D02*
X25234284Y-55498509D01*
X25234284Y-55498509D02*
X25139046Y-55546128D01*
X25139046Y-55546128D02*
X24758094Y-55546128D01*
X25662856Y-55022319D02*
X25900951Y-56022319D01*
X25900951Y-56022319D02*
X26091427Y-55308033D01*
X26091427Y-55308033D02*
X26281903Y-56022319D01*
X26281903Y-56022319D02*
X26519999Y-55022319D01*
X26900951Y-56022319D02*
X26900951Y-55022319D01*
X26900951Y-55022319D02*
X27234284Y-55736604D01*
X27234284Y-55736604D02*
X27567617Y-55022319D01*
X27567617Y-55022319D02*
X27567617Y-56022319D01*
X29091427Y-56403271D02*
X29043808Y-56355652D01*
X29043808Y-56355652D02*
X28948570Y-56212795D01*
X28948570Y-56212795D02*
X28900951Y-56117557D01*
X28900951Y-56117557D02*
X28853332Y-55974700D01*
X28853332Y-55974700D02*
X28805713Y-55736604D01*
X28805713Y-55736604D02*
X28805713Y-55546128D01*
X28805713Y-55546128D02*
X28853332Y-55308033D01*
X28853332Y-55308033D02*
X28900951Y-55165176D01*
X28900951Y-55165176D02*
X28948570Y-55069938D01*
X28948570Y-55069938D02*
X29043808Y-54927080D01*
X29043808Y-54927080D02*
X29091427Y-54879461D01*
X29472380Y-56022319D02*
X29472380Y-55355652D01*
X29472380Y-55022319D02*
X29424761Y-55069938D01*
X29424761Y-55069938D02*
X29472380Y-55117557D01*
X29472380Y-55117557D02*
X29519999Y-55069938D01*
X29519999Y-55069938D02*
X29472380Y-55022319D01*
X29472380Y-55022319D02*
X29472380Y-55117557D01*
X29900951Y-55974700D02*
X29996189Y-56022319D01*
X29996189Y-56022319D02*
X30186665Y-56022319D01*
X30186665Y-56022319D02*
X30281903Y-55974700D01*
X30281903Y-55974700D02*
X30329522Y-55879461D01*
X30329522Y-55879461D02*
X30329522Y-55831842D01*
X30329522Y-55831842D02*
X30281903Y-55736604D01*
X30281903Y-55736604D02*
X30186665Y-55688985D01*
X30186665Y-55688985D02*
X30043808Y-55688985D01*
X30043808Y-55688985D02*
X29948570Y-55641366D01*
X29948570Y-55641366D02*
X29900951Y-55546128D01*
X29900951Y-55546128D02*
X29900951Y-55498509D01*
X29900951Y-55498509D02*
X29948570Y-55403271D01*
X29948570Y-55403271D02*
X30043808Y-55355652D01*
X30043808Y-55355652D02*
X30186665Y-55355652D01*
X30186665Y-55355652D02*
X30281903Y-55403271D01*
X30900951Y-56022319D02*
X30805713Y-55974700D01*
X30805713Y-55974700D02*
X30758094Y-55927080D01*
X30758094Y-55927080D02*
X30710475Y-55831842D01*
X30710475Y-55831842D02*
X30710475Y-55546128D01*
X30710475Y-55546128D02*
X30758094Y-55450890D01*
X30758094Y-55450890D02*
X30805713Y-55403271D01*
X30805713Y-55403271D02*
X30900951Y-55355652D01*
X30900951Y-55355652D02*
X31043808Y-55355652D01*
X31043808Y-55355652D02*
X31139046Y-55403271D01*
X31139046Y-55403271D02*
X31186665Y-55450890D01*
X31186665Y-55450890D02*
X31234284Y-55546128D01*
X31234284Y-55546128D02*
X31234284Y-55831842D01*
X31234284Y-55831842D02*
X31186665Y-55927080D01*
X31186665Y-55927080D02*
X31139046Y-55974700D01*
X31139046Y-55974700D02*
X31043808Y-56022319D01*
X31043808Y-56022319D02*
X30900951Y-56022319D01*
X31805713Y-56022319D02*
X31710475Y-55974700D01*
X31710475Y-55974700D02*
X31662856Y-55879461D01*
X31662856Y-55879461D02*
X31662856Y-55022319D01*
X32567618Y-55974700D02*
X32472380Y-56022319D01*
X32472380Y-56022319D02*
X32281904Y-56022319D01*
X32281904Y-56022319D02*
X32186666Y-55974700D01*
X32186666Y-55974700D02*
X32139047Y-55879461D01*
X32139047Y-55879461D02*
X32139047Y-55498509D01*
X32139047Y-55498509D02*
X32186666Y-55403271D01*
X32186666Y-55403271D02*
X32281904Y-55355652D01*
X32281904Y-55355652D02*
X32472380Y-55355652D01*
X32472380Y-55355652D02*
X32567618Y-55403271D01*
X32567618Y-55403271D02*
X32615237Y-55498509D01*
X32615237Y-55498509D02*
X32615237Y-55593747D01*
X32615237Y-55593747D02*
X32139047Y-55688985D01*
X33043809Y-56022319D02*
X33043809Y-55355652D01*
X33043809Y-55546128D02*
X33091428Y-55450890D01*
X33091428Y-55450890D02*
X33139047Y-55403271D01*
X33139047Y-55403271D02*
X33234285Y-55355652D01*
X33234285Y-55355652D02*
X33329523Y-55355652D01*
X34043809Y-55974700D02*
X33948571Y-56022319D01*
X33948571Y-56022319D02*
X33758095Y-56022319D01*
X33758095Y-56022319D02*
X33662857Y-55974700D01*
X33662857Y-55974700D02*
X33615238Y-55879461D01*
X33615238Y-55879461D02*
X33615238Y-55498509D01*
X33615238Y-55498509D02*
X33662857Y-55403271D01*
X33662857Y-55403271D02*
X33758095Y-55355652D01*
X33758095Y-55355652D02*
X33948571Y-55355652D01*
X33948571Y-55355652D02*
X34043809Y-55403271D01*
X34043809Y-55403271D02*
X34091428Y-55498509D01*
X34091428Y-55498509D02*
X34091428Y-55593747D01*
X34091428Y-55593747D02*
X33615238Y-55688985D01*
X34377143Y-55355652D02*
X34758095Y-55355652D01*
X34520000Y-55022319D02*
X34520000Y-55879461D01*
X34520000Y-55879461D02*
X34567619Y-55974700D01*
X34567619Y-55974700D02*
X34662857Y-56022319D01*
X34662857Y-56022319D02*
X34758095Y-56022319D01*
X34996191Y-56403271D02*
X35043810Y-56355652D01*
X35043810Y-56355652D02*
X35139048Y-56212795D01*
X35139048Y-56212795D02*
X35186667Y-56117557D01*
X35186667Y-56117557D02*
X35234286Y-55974700D01*
X35234286Y-55974700D02*
X35281905Y-55736604D01*
X35281905Y-55736604D02*
X35281905Y-55546128D01*
X35281905Y-55546128D02*
X35234286Y-55308033D01*
X35234286Y-55308033D02*
X35186667Y-55165176D01*
X35186667Y-55165176D02*
X35139048Y-55069938D01*
X35139048Y-55069938D02*
X35043810Y-54927080D01*
X35043810Y-54927080D02*
X34996191Y-54879461D01*
X29474819Y-59550833D02*
X30189104Y-59550833D01*
X30189104Y-59550833D02*
X30331961Y-59598452D01*
X30331961Y-59598452D02*
X30427200Y-59693690D01*
X30427200Y-59693690D02*
X30474819Y-59836547D01*
X30474819Y-59836547D02*
X30474819Y-59931785D01*
X29474819Y-59169880D02*
X29474819Y-58550833D01*
X29474819Y-58550833D02*
X29855771Y-58884166D01*
X29855771Y-58884166D02*
X29855771Y-58741309D01*
X29855771Y-58741309D02*
X29903390Y-58646071D01*
X29903390Y-58646071D02*
X29951009Y-58598452D01*
X29951009Y-58598452D02*
X30046247Y-58550833D01*
X30046247Y-58550833D02*
X30284342Y-58550833D01*
X30284342Y-58550833D02*
X30379580Y-58598452D01*
X30379580Y-58598452D02*
X30427200Y-58646071D01*
X30427200Y-58646071D02*
X30474819Y-58741309D01*
X30474819Y-58741309D02*
X30474819Y-59027023D01*
X30474819Y-59027023D02*
X30427200Y-59122261D01*
X30427200Y-59122261D02*
X30379580Y-59169880D01*
X49119286Y-101162319D02*
X49738333Y-101162319D01*
X49738333Y-101162319D02*
X49405000Y-101543271D01*
X49405000Y-101543271D02*
X49547857Y-101543271D01*
X49547857Y-101543271D02*
X49643095Y-101590890D01*
X49643095Y-101590890D02*
X49690714Y-101638509D01*
X49690714Y-101638509D02*
X49738333Y-101733747D01*
X49738333Y-101733747D02*
X49738333Y-101971842D01*
X49738333Y-101971842D02*
X49690714Y-102067080D01*
X49690714Y-102067080D02*
X49643095Y-102114700D01*
X49643095Y-102114700D02*
X49547857Y-102162319D01*
X49547857Y-102162319D02*
X49262143Y-102162319D01*
X49262143Y-102162319D02*
X49166905Y-102114700D01*
X49166905Y-102114700D02*
X49119286Y-102067080D01*
X50071667Y-101162319D02*
X50690714Y-101162319D01*
X50690714Y-101162319D02*
X50357381Y-101543271D01*
X50357381Y-101543271D02*
X50500238Y-101543271D01*
X50500238Y-101543271D02*
X50595476Y-101590890D01*
X50595476Y-101590890D02*
X50643095Y-101638509D01*
X50643095Y-101638509D02*
X50690714Y-101733747D01*
X50690714Y-101733747D02*
X50690714Y-101971842D01*
X50690714Y-101971842D02*
X50643095Y-102067080D01*
X50643095Y-102067080D02*
X50595476Y-102114700D01*
X50595476Y-102114700D02*
X50500238Y-102162319D01*
X50500238Y-102162319D02*
X50214524Y-102162319D01*
X50214524Y-102162319D02*
X50119286Y-102114700D01*
X50119286Y-102114700D02*
X50071667Y-102067080D01*
X51309762Y-101162319D02*
X51405000Y-101162319D01*
X51405000Y-101162319D02*
X51500238Y-101209938D01*
X51500238Y-101209938D02*
X51547857Y-101257557D01*
X51547857Y-101257557D02*
X51595476Y-101352795D01*
X51595476Y-101352795D02*
X51643095Y-101543271D01*
X51643095Y-101543271D02*
X51643095Y-101781366D01*
X51643095Y-101781366D02*
X51595476Y-101971842D01*
X51595476Y-101971842D02*
X51547857Y-102067080D01*
X51547857Y-102067080D02*
X51500238Y-102114700D01*
X51500238Y-102114700D02*
X51405000Y-102162319D01*
X51405000Y-102162319D02*
X51309762Y-102162319D01*
X51309762Y-102162319D02*
X51214524Y-102114700D01*
X51214524Y-102114700D02*
X51166905Y-102067080D01*
X51166905Y-102067080D02*
X51119286Y-101971842D01*
X51119286Y-101971842D02*
X51071667Y-101781366D01*
X51071667Y-101781366D02*
X51071667Y-101543271D01*
X51071667Y-101543271D02*
X51119286Y-101352795D01*
X51119286Y-101352795D02*
X51166905Y-101257557D01*
X51166905Y-101257557D02*
X51214524Y-101209938D01*
X51214524Y-101209938D02*
X51309762Y-101162319D01*
X50238333Y-99792319D02*
X49905000Y-99316128D01*
X49666905Y-99792319D02*
X49666905Y-98792319D01*
X49666905Y-98792319D02*
X50047857Y-98792319D01*
X50047857Y-98792319D02*
X50143095Y-98839938D01*
X50143095Y-98839938D02*
X50190714Y-98887557D01*
X50190714Y-98887557D02*
X50238333Y-98982795D01*
X50238333Y-98982795D02*
X50238333Y-99125652D01*
X50238333Y-99125652D02*
X50190714Y-99220890D01*
X50190714Y-99220890D02*
X50143095Y-99268509D01*
X50143095Y-99268509D02*
X50047857Y-99316128D01*
X50047857Y-99316128D02*
X49666905Y-99316128D01*
X51190714Y-99792319D02*
X50619286Y-99792319D01*
X50905000Y-99792319D02*
X50905000Y-98792319D01*
X50905000Y-98792319D02*
X50809762Y-98935176D01*
X50809762Y-98935176D02*
X50714524Y-99030414D01*
X50714524Y-99030414D02*
X50619286Y-99078033D01*
X64821604Y-95575652D02*
X64821604Y-96242319D01*
X64583509Y-95194700D02*
X64345414Y-95908985D01*
X64345414Y-95908985D02*
X64964461Y-95908985D01*
X65250176Y-95242319D02*
X65916842Y-95242319D01*
X65916842Y-95242319D02*
X65488271Y-96242319D01*
X66726366Y-95575652D02*
X66726366Y-96242319D01*
X66297795Y-95575652D02*
X66297795Y-96099461D01*
X66297795Y-96099461D02*
X66345414Y-96194700D01*
X66345414Y-96194700D02*
X66440652Y-96242319D01*
X66440652Y-96242319D02*
X66583509Y-96242319D01*
X66583509Y-96242319D02*
X66678747Y-96194700D01*
X66678747Y-96194700D02*
X66726366Y-96147080D01*
X65393033Y-90897080D02*
X65345414Y-90944700D01*
X65345414Y-90944700D02*
X65202557Y-90992319D01*
X65202557Y-90992319D02*
X65107319Y-90992319D01*
X65107319Y-90992319D02*
X64964462Y-90944700D01*
X64964462Y-90944700D02*
X64869224Y-90849461D01*
X64869224Y-90849461D02*
X64821605Y-90754223D01*
X64821605Y-90754223D02*
X64773986Y-90563747D01*
X64773986Y-90563747D02*
X64773986Y-90420890D01*
X64773986Y-90420890D02*
X64821605Y-90230414D01*
X64821605Y-90230414D02*
X64869224Y-90135176D01*
X64869224Y-90135176D02*
X64964462Y-90039938D01*
X64964462Y-90039938D02*
X65107319Y-89992319D01*
X65107319Y-89992319D02*
X65202557Y-89992319D01*
X65202557Y-89992319D02*
X65345414Y-90039938D01*
X65345414Y-90039938D02*
X65393033Y-90087557D01*
X66345414Y-90992319D02*
X65773986Y-90992319D01*
X66059700Y-90992319D02*
X66059700Y-89992319D01*
X66059700Y-89992319D02*
X65964462Y-90135176D01*
X65964462Y-90135176D02*
X65869224Y-90230414D01*
X65869224Y-90230414D02*
X65773986Y-90278033D01*
X49519285Y-95195652D02*
X49519285Y-95862319D01*
X49281190Y-94814700D02*
X49043095Y-95528985D01*
X49043095Y-95528985D02*
X49662142Y-95528985D01*
X50043095Y-95862319D02*
X50043095Y-94862319D01*
X50043095Y-94862319D02*
X50614523Y-95862319D01*
X50614523Y-95862319D02*
X50614523Y-94862319D01*
X51043095Y-94957557D02*
X51090714Y-94909938D01*
X51090714Y-94909938D02*
X51185952Y-94862319D01*
X51185952Y-94862319D02*
X51424047Y-94862319D01*
X51424047Y-94862319D02*
X51519285Y-94909938D01*
X51519285Y-94909938D02*
X51566904Y-94957557D01*
X51566904Y-94957557D02*
X51614523Y-95052795D01*
X51614523Y-95052795D02*
X51614523Y-95148033D01*
X51614523Y-95148033D02*
X51566904Y-95290890D01*
X51566904Y-95290890D02*
X50995476Y-95862319D01*
X50995476Y-95862319D02*
X51614523Y-95862319D01*
X52519285Y-94862319D02*
X52043095Y-94862319D01*
X52043095Y-94862319D02*
X51995476Y-95338509D01*
X51995476Y-95338509D02*
X52043095Y-95290890D01*
X52043095Y-95290890D02*
X52138333Y-95243271D01*
X52138333Y-95243271D02*
X52376428Y-95243271D01*
X52376428Y-95243271D02*
X52471666Y-95290890D01*
X52471666Y-95290890D02*
X52519285Y-95338509D01*
X52519285Y-95338509D02*
X52566904Y-95433747D01*
X52566904Y-95433747D02*
X52566904Y-95671842D01*
X52566904Y-95671842D02*
X52519285Y-95767080D01*
X52519285Y-95767080D02*
X52471666Y-95814700D01*
X52471666Y-95814700D02*
X52376428Y-95862319D01*
X52376428Y-95862319D02*
X52138333Y-95862319D01*
X52138333Y-95862319D02*
X52043095Y-95814700D01*
X52043095Y-95814700D02*
X51995476Y-95767080D01*
X50259819Y-91299404D02*
X51069342Y-91299404D01*
X51069342Y-91299404D02*
X51164580Y-91251785D01*
X51164580Y-91251785D02*
X51212200Y-91204166D01*
X51212200Y-91204166D02*
X51259819Y-91108928D01*
X51259819Y-91108928D02*
X51259819Y-90918452D01*
X51259819Y-90918452D02*
X51212200Y-90823214D01*
X51212200Y-90823214D02*
X51164580Y-90775595D01*
X51164580Y-90775595D02*
X51069342Y-90727976D01*
X51069342Y-90727976D02*
X50259819Y-90727976D01*
X51259819Y-89727976D02*
X51259819Y-90299404D01*
X51259819Y-90013690D02*
X50259819Y-90013690D01*
X50259819Y-90013690D02*
X50402676Y-90108928D01*
X50402676Y-90108928D02*
X50497914Y-90204166D01*
X50497914Y-90204166D02*
X50545533Y-90299404D01*
X79740714Y-74750652D02*
X79740714Y-75417319D01*
X79502619Y-74369700D02*
X79264524Y-75083985D01*
X79264524Y-75083985D02*
X79883571Y-75083985D01*
X80169286Y-74417319D02*
X80835952Y-74417319D01*
X80835952Y-74417319D02*
X80407381Y-75417319D01*
X81407381Y-74417319D02*
X81502619Y-74417319D01*
X81502619Y-74417319D02*
X81597857Y-74464938D01*
X81597857Y-74464938D02*
X81645476Y-74512557D01*
X81645476Y-74512557D02*
X81693095Y-74607795D01*
X81693095Y-74607795D02*
X81740714Y-74798271D01*
X81740714Y-74798271D02*
X81740714Y-75036366D01*
X81740714Y-75036366D02*
X81693095Y-75226842D01*
X81693095Y-75226842D02*
X81645476Y-75322080D01*
X81645476Y-75322080D02*
X81597857Y-75369700D01*
X81597857Y-75369700D02*
X81502619Y-75417319D01*
X81502619Y-75417319D02*
X81407381Y-75417319D01*
X81407381Y-75417319D02*
X81312143Y-75369700D01*
X81312143Y-75369700D02*
X81264524Y-75322080D01*
X81264524Y-75322080D02*
X81216905Y-75226842D01*
X81216905Y-75226842D02*
X81169286Y-75036366D01*
X81169286Y-75036366D02*
X81169286Y-74798271D01*
X81169286Y-74798271D02*
X81216905Y-74607795D01*
X81216905Y-74607795D02*
X81264524Y-74512557D01*
X81264524Y-74512557D02*
X81312143Y-74464938D01*
X81312143Y-74464938D02*
X81407381Y-74417319D01*
X82597857Y-74750652D02*
X82597857Y-75417319D01*
X82169286Y-74750652D02*
X82169286Y-75274461D01*
X82169286Y-75274461D02*
X82216905Y-75369700D01*
X82216905Y-75369700D02*
X82312143Y-75417319D01*
X82312143Y-75417319D02*
X82455000Y-75417319D01*
X82455000Y-75417319D02*
X82550238Y-75369700D01*
X82550238Y-75369700D02*
X82597857Y-75322080D01*
X80788333Y-66417319D02*
X80312143Y-66417319D01*
X80312143Y-66417319D02*
X80312143Y-65417319D01*
X81645476Y-66417319D02*
X81074048Y-66417319D01*
X81359762Y-66417319D02*
X81359762Y-65417319D01*
X81359762Y-65417319D02*
X81264524Y-65560176D01*
X81264524Y-65560176D02*
X81169286Y-65655414D01*
X81169286Y-65655414D02*
X81074048Y-65703033D01*
X108979999Y-62645652D02*
X108979999Y-63455176D01*
X108979999Y-63455176D02*
X108932380Y-63550414D01*
X108932380Y-63550414D02*
X108884761Y-63598033D01*
X108884761Y-63598033D02*
X108789523Y-63645652D01*
X108789523Y-63645652D02*
X108646666Y-63645652D01*
X108646666Y-63645652D02*
X108551428Y-63598033D01*
X108979999Y-63264700D02*
X108884761Y-63312319D01*
X108884761Y-63312319D02*
X108694285Y-63312319D01*
X108694285Y-63312319D02*
X108599047Y-63264700D01*
X108599047Y-63264700D02*
X108551428Y-63217080D01*
X108551428Y-63217080D02*
X108503809Y-63121842D01*
X108503809Y-63121842D02*
X108503809Y-62836128D01*
X108503809Y-62836128D02*
X108551428Y-62740890D01*
X108551428Y-62740890D02*
X108599047Y-62693271D01*
X108599047Y-62693271D02*
X108694285Y-62645652D01*
X108694285Y-62645652D02*
X108884761Y-62645652D01*
X108884761Y-62645652D02*
X108979999Y-62693271D01*
X109884761Y-63312319D02*
X109884761Y-62788509D01*
X109884761Y-62788509D02*
X109837142Y-62693271D01*
X109837142Y-62693271D02*
X109741904Y-62645652D01*
X109741904Y-62645652D02*
X109551428Y-62645652D01*
X109551428Y-62645652D02*
X109456190Y-62693271D01*
X109884761Y-63264700D02*
X109789523Y-63312319D01*
X109789523Y-63312319D02*
X109551428Y-63312319D01*
X109551428Y-63312319D02*
X109456190Y-63264700D01*
X109456190Y-63264700D02*
X109408571Y-63169461D01*
X109408571Y-63169461D02*
X109408571Y-63074223D01*
X109408571Y-63074223D02*
X109456190Y-62978985D01*
X109456190Y-62978985D02*
X109551428Y-62931366D01*
X109551428Y-62931366D02*
X109789523Y-62931366D01*
X109789523Y-62931366D02*
X109884761Y-62883747D01*
X110218095Y-62645652D02*
X110599047Y-62645652D01*
X110360952Y-62312319D02*
X110360952Y-63169461D01*
X110360952Y-63169461D02*
X110408571Y-63264700D01*
X110408571Y-63264700D02*
X110503809Y-63312319D01*
X110503809Y-63312319D02*
X110599047Y-63312319D01*
X111313333Y-63264700D02*
X111218095Y-63312319D01*
X111218095Y-63312319D02*
X111027619Y-63312319D01*
X111027619Y-63312319D02*
X110932381Y-63264700D01*
X110932381Y-63264700D02*
X110884762Y-63169461D01*
X110884762Y-63169461D02*
X110884762Y-62788509D01*
X110884762Y-62788509D02*
X110932381Y-62693271D01*
X110932381Y-62693271D02*
X111027619Y-62645652D01*
X111027619Y-62645652D02*
X111218095Y-62645652D01*
X111218095Y-62645652D02*
X111313333Y-62693271D01*
X111313333Y-62693271D02*
X111360952Y-62788509D01*
X111360952Y-62788509D02*
X111360952Y-62883747D01*
X111360952Y-62883747D02*
X110884762Y-62978985D01*
X111789524Y-62931366D02*
X112551429Y-62931366D01*
X112884762Y-62645652D02*
X113265714Y-62645652D01*
X113027619Y-63312319D02*
X113027619Y-62455176D01*
X113027619Y-62455176D02*
X113075238Y-62359938D01*
X113075238Y-62359938D02*
X113170476Y-62312319D01*
X113170476Y-62312319D02*
X113265714Y-62312319D01*
X113741905Y-63312319D02*
X113646667Y-63264700D01*
X113646667Y-63264700D02*
X113599048Y-63217080D01*
X113599048Y-63217080D02*
X113551429Y-63121842D01*
X113551429Y-63121842D02*
X113551429Y-62836128D01*
X113551429Y-62836128D02*
X113599048Y-62740890D01*
X113599048Y-62740890D02*
X113646667Y-62693271D01*
X113646667Y-62693271D02*
X113741905Y-62645652D01*
X113741905Y-62645652D02*
X113884762Y-62645652D01*
X113884762Y-62645652D02*
X113980000Y-62693271D01*
X113980000Y-62693271D02*
X114027619Y-62740890D01*
X114027619Y-62740890D02*
X114075238Y-62836128D01*
X114075238Y-62836128D02*
X114075238Y-63121842D01*
X114075238Y-63121842D02*
X114027619Y-63217080D01*
X114027619Y-63217080D02*
X113980000Y-63264700D01*
X113980000Y-63264700D02*
X113884762Y-63312319D01*
X113884762Y-63312319D02*
X113741905Y-63312319D01*
X114503810Y-63312319D02*
X114503810Y-62645652D01*
X114503810Y-62836128D02*
X114551429Y-62740890D01*
X114551429Y-62740890D02*
X114599048Y-62693271D01*
X114599048Y-62693271D02*
X114694286Y-62645652D01*
X114694286Y-62645652D02*
X114789524Y-62645652D01*
X115075239Y-63264700D02*
X115170477Y-63312319D01*
X115170477Y-63312319D02*
X115360953Y-63312319D01*
X115360953Y-63312319D02*
X115456191Y-63264700D01*
X115456191Y-63264700D02*
X115503810Y-63169461D01*
X115503810Y-63169461D02*
X115503810Y-63121842D01*
X115503810Y-63121842D02*
X115456191Y-63026604D01*
X115456191Y-63026604D02*
X115360953Y-62978985D01*
X115360953Y-62978985D02*
X115218096Y-62978985D01*
X115218096Y-62978985D02*
X115122858Y-62931366D01*
X115122858Y-62931366D02*
X115075239Y-62836128D01*
X115075239Y-62836128D02*
X115075239Y-62788509D01*
X115075239Y-62788509D02*
X115122858Y-62693271D01*
X115122858Y-62693271D02*
X115218096Y-62645652D01*
X115218096Y-62645652D02*
X115360953Y-62645652D01*
X115360953Y-62645652D02*
X115456191Y-62693271D01*
X115837144Y-62645652D02*
X116075239Y-63312319D01*
X116313334Y-62645652D02*
X116075239Y-63312319D01*
X116075239Y-63312319D02*
X115980001Y-63550414D01*
X115980001Y-63550414D02*
X115932382Y-63598033D01*
X115932382Y-63598033D02*
X115837144Y-63645652D01*
X116694287Y-62645652D02*
X116694287Y-63312319D01*
X116694287Y-62740890D02*
X116741906Y-62693271D01*
X116741906Y-62693271D02*
X116837144Y-62645652D01*
X116837144Y-62645652D02*
X116980001Y-62645652D01*
X116980001Y-62645652D02*
X117075239Y-62693271D01*
X117075239Y-62693271D02*
X117122858Y-62788509D01*
X117122858Y-62788509D02*
X117122858Y-63312319D01*
X117599049Y-63312319D02*
X117599049Y-62645652D01*
X117599049Y-62312319D02*
X117551430Y-62359938D01*
X117551430Y-62359938D02*
X117599049Y-62407557D01*
X117599049Y-62407557D02*
X117646668Y-62359938D01*
X117646668Y-62359938D02*
X117599049Y-62312319D01*
X117599049Y-62312319D02*
X117599049Y-62407557D01*
X118075239Y-62645652D02*
X118075239Y-63312319D01*
X118075239Y-62740890D02*
X118122858Y-62693271D01*
X118122858Y-62693271D02*
X118218096Y-62645652D01*
X118218096Y-62645652D02*
X118360953Y-62645652D01*
X118360953Y-62645652D02*
X118456191Y-62693271D01*
X118456191Y-62693271D02*
X118503810Y-62788509D01*
X118503810Y-62788509D02*
X118503810Y-63312319D01*
X119408572Y-62645652D02*
X119408572Y-63455176D01*
X119408572Y-63455176D02*
X119360953Y-63550414D01*
X119360953Y-63550414D02*
X119313334Y-63598033D01*
X119313334Y-63598033D02*
X119218096Y-63645652D01*
X119218096Y-63645652D02*
X119075239Y-63645652D01*
X119075239Y-63645652D02*
X118980001Y-63598033D01*
X119408572Y-63264700D02*
X119313334Y-63312319D01*
X119313334Y-63312319D02*
X119122858Y-63312319D01*
X119122858Y-63312319D02*
X119027620Y-63264700D01*
X119027620Y-63264700D02*
X118980001Y-63217080D01*
X118980001Y-63217080D02*
X118932382Y-63121842D01*
X118932382Y-63121842D02*
X118932382Y-62836128D01*
X118932382Y-62836128D02*
X118980001Y-62740890D01*
X118980001Y-62740890D02*
X119027620Y-62693271D01*
X119027620Y-62693271D02*
X119122858Y-62645652D01*
X119122858Y-62645652D02*
X119313334Y-62645652D01*
X119313334Y-62645652D02*
X119408572Y-62693271D01*
X113434819Y-59540833D02*
X114149104Y-59540833D01*
X114149104Y-59540833D02*
X114291961Y-59588452D01*
X114291961Y-59588452D02*
X114387200Y-59683690D01*
X114387200Y-59683690D02*
X114434819Y-59826547D01*
X114434819Y-59826547D02*
X114434819Y-59921785D01*
X113768152Y-58636071D02*
X114434819Y-58636071D01*
X113387200Y-58874166D02*
X114101485Y-59112261D01*
X114101485Y-59112261D02*
X114101485Y-58493214D01*
X64579761Y-102162319D02*
X64008333Y-102162319D01*
X64294047Y-102162319D02*
X64294047Y-101162319D01*
X64294047Y-101162319D02*
X64198809Y-101305176D01*
X64198809Y-101305176D02*
X64103571Y-101400414D01*
X64103571Y-101400414D02*
X64008333Y-101448033D01*
X65198809Y-101162319D02*
X65294047Y-101162319D01*
X65294047Y-101162319D02*
X65389285Y-101209938D01*
X65389285Y-101209938D02*
X65436904Y-101257557D01*
X65436904Y-101257557D02*
X65484523Y-101352795D01*
X65484523Y-101352795D02*
X65532142Y-101543271D01*
X65532142Y-101543271D02*
X65532142Y-101781366D01*
X65532142Y-101781366D02*
X65484523Y-101971842D01*
X65484523Y-101971842D02*
X65436904Y-102067080D01*
X65436904Y-102067080D02*
X65389285Y-102114700D01*
X65389285Y-102114700D02*
X65294047Y-102162319D01*
X65294047Y-102162319D02*
X65198809Y-102162319D01*
X65198809Y-102162319D02*
X65103571Y-102114700D01*
X65103571Y-102114700D02*
X65055952Y-102067080D01*
X65055952Y-102067080D02*
X65008333Y-101971842D01*
X65008333Y-101971842D02*
X64960714Y-101781366D01*
X64960714Y-101781366D02*
X64960714Y-101543271D01*
X64960714Y-101543271D02*
X65008333Y-101352795D01*
X65008333Y-101352795D02*
X65055952Y-101257557D01*
X65055952Y-101257557D02*
X65103571Y-101209938D01*
X65103571Y-101209938D02*
X65198809Y-101162319D01*
X65960714Y-102162319D02*
X65960714Y-101162319D01*
X66055952Y-101781366D02*
X66341666Y-102162319D01*
X66341666Y-101495652D02*
X65960714Y-101876604D01*
X65008333Y-99792319D02*
X64675000Y-99316128D01*
X64436905Y-99792319D02*
X64436905Y-98792319D01*
X64436905Y-98792319D02*
X64817857Y-98792319D01*
X64817857Y-98792319D02*
X64913095Y-98839938D01*
X64913095Y-98839938D02*
X64960714Y-98887557D01*
X64960714Y-98887557D02*
X65008333Y-98982795D01*
X65008333Y-98982795D02*
X65008333Y-99125652D01*
X65008333Y-99125652D02*
X64960714Y-99220890D01*
X64960714Y-99220890D02*
X64913095Y-99268509D01*
X64913095Y-99268509D02*
X64817857Y-99316128D01*
X64817857Y-99316128D02*
X64436905Y-99316128D01*
X65389286Y-98887557D02*
X65436905Y-98839938D01*
X65436905Y-98839938D02*
X65532143Y-98792319D01*
X65532143Y-98792319D02*
X65770238Y-98792319D01*
X65770238Y-98792319D02*
X65865476Y-98839938D01*
X65865476Y-98839938D02*
X65913095Y-98887557D01*
X65913095Y-98887557D02*
X65960714Y-98982795D01*
X65960714Y-98982795D02*
X65960714Y-99078033D01*
X65960714Y-99078033D02*
X65913095Y-99220890D01*
X65913095Y-99220890D02*
X65341667Y-99792319D01*
X65341667Y-99792319D02*
X65960714Y-99792319D01*
X49832142Y-68887319D02*
X49260714Y-68887319D01*
X49546428Y-68887319D02*
X49546428Y-67887319D01*
X49546428Y-67887319D02*
X49451190Y-68030176D01*
X49451190Y-68030176D02*
X49355952Y-68125414D01*
X49355952Y-68125414D02*
X49260714Y-68173033D01*
X50260714Y-68887319D02*
X50260714Y-67887319D01*
X50260714Y-67887319D02*
X50832142Y-68887319D01*
X50832142Y-68887319D02*
X50832142Y-67887319D01*
X51784523Y-67887319D02*
X51308333Y-67887319D01*
X51308333Y-67887319D02*
X51260714Y-68363509D01*
X51260714Y-68363509D02*
X51308333Y-68315890D01*
X51308333Y-68315890D02*
X51403571Y-68268271D01*
X51403571Y-68268271D02*
X51641666Y-68268271D01*
X51641666Y-68268271D02*
X51736904Y-68315890D01*
X51736904Y-68315890D02*
X51784523Y-68363509D01*
X51784523Y-68363509D02*
X51832142Y-68458747D01*
X51832142Y-68458747D02*
X51832142Y-68696842D01*
X51832142Y-68696842D02*
X51784523Y-68792080D01*
X51784523Y-68792080D02*
X51736904Y-68839700D01*
X51736904Y-68839700D02*
X51641666Y-68887319D01*
X51641666Y-68887319D02*
X51403571Y-68887319D01*
X51403571Y-68887319D02*
X51308333Y-68839700D01*
X51308333Y-68839700D02*
X51260714Y-68792080D01*
X52403571Y-68315890D02*
X52308333Y-68268271D01*
X52308333Y-68268271D02*
X52260714Y-68220652D01*
X52260714Y-68220652D02*
X52213095Y-68125414D01*
X52213095Y-68125414D02*
X52213095Y-68077795D01*
X52213095Y-68077795D02*
X52260714Y-67982557D01*
X52260714Y-67982557D02*
X52308333Y-67934938D01*
X52308333Y-67934938D02*
X52403571Y-67887319D01*
X52403571Y-67887319D02*
X52594047Y-67887319D01*
X52594047Y-67887319D02*
X52689285Y-67934938D01*
X52689285Y-67934938D02*
X52736904Y-67982557D01*
X52736904Y-67982557D02*
X52784523Y-68077795D01*
X52784523Y-68077795D02*
X52784523Y-68125414D01*
X52784523Y-68125414D02*
X52736904Y-68220652D01*
X52736904Y-68220652D02*
X52689285Y-68268271D01*
X52689285Y-68268271D02*
X52594047Y-68315890D01*
X52594047Y-68315890D02*
X52403571Y-68315890D01*
X52403571Y-68315890D02*
X52308333Y-68363509D01*
X52308333Y-68363509D02*
X52260714Y-68411128D01*
X52260714Y-68411128D02*
X52213095Y-68506366D01*
X52213095Y-68506366D02*
X52213095Y-68696842D01*
X52213095Y-68696842D02*
X52260714Y-68792080D01*
X52260714Y-68792080D02*
X52308333Y-68839700D01*
X52308333Y-68839700D02*
X52403571Y-68887319D01*
X52403571Y-68887319D02*
X52594047Y-68887319D01*
X52594047Y-68887319D02*
X52689285Y-68839700D01*
X52689285Y-68839700D02*
X52736904Y-68792080D01*
X52736904Y-68792080D02*
X52784523Y-68696842D01*
X52784523Y-68696842D02*
X52784523Y-68506366D01*
X52784523Y-68506366D02*
X52736904Y-68411128D01*
X52736904Y-68411128D02*
X52689285Y-68363509D01*
X52689285Y-68363509D02*
X52594047Y-68315890D01*
X53736904Y-68887319D02*
X53165476Y-68887319D01*
X53451190Y-68887319D02*
X53451190Y-67887319D01*
X53451190Y-67887319D02*
X53355952Y-68030176D01*
X53355952Y-68030176D02*
X53260714Y-68125414D01*
X53260714Y-68125414D02*
X53165476Y-68173033D01*
X54213095Y-68887319D02*
X54403571Y-68887319D01*
X54403571Y-68887319D02*
X54498809Y-68839700D01*
X54498809Y-68839700D02*
X54546428Y-68792080D01*
X54546428Y-68792080D02*
X54641666Y-68649223D01*
X54641666Y-68649223D02*
X54689285Y-68458747D01*
X54689285Y-68458747D02*
X54689285Y-68077795D01*
X54689285Y-68077795D02*
X54641666Y-67982557D01*
X54641666Y-67982557D02*
X54594047Y-67934938D01*
X54594047Y-67934938D02*
X54498809Y-67887319D01*
X54498809Y-67887319D02*
X54308333Y-67887319D01*
X54308333Y-67887319D02*
X54213095Y-67934938D01*
X54213095Y-67934938D02*
X54165476Y-67982557D01*
X54165476Y-67982557D02*
X54117857Y-68077795D01*
X54117857Y-68077795D02*
X54117857Y-68315890D01*
X54117857Y-68315890D02*
X54165476Y-68411128D01*
X54165476Y-68411128D02*
X54213095Y-68458747D01*
X54213095Y-68458747D02*
X54308333Y-68506366D01*
X54308333Y-68506366D02*
X54498809Y-68506366D01*
X54498809Y-68506366D02*
X54594047Y-68458747D01*
X54594047Y-68458747D02*
X54641666Y-68411128D01*
X54641666Y-68411128D02*
X54689285Y-68315890D01*
X51626905Y-66417319D02*
X51626905Y-65417319D01*
X51626905Y-65417319D02*
X51865000Y-65417319D01*
X51865000Y-65417319D02*
X52007857Y-65464938D01*
X52007857Y-65464938D02*
X52103095Y-65560176D01*
X52103095Y-65560176D02*
X52150714Y-65655414D01*
X52150714Y-65655414D02*
X52198333Y-65845890D01*
X52198333Y-65845890D02*
X52198333Y-65988747D01*
X52198333Y-65988747D02*
X52150714Y-66179223D01*
X52150714Y-66179223D02*
X52103095Y-66274461D01*
X52103095Y-66274461D02*
X52007857Y-66369700D01*
X52007857Y-66369700D02*
X51865000Y-66417319D01*
X51865000Y-66417319D02*
X51626905Y-66417319D01*
X53150714Y-66417319D02*
X52579286Y-66417319D01*
X52865000Y-66417319D02*
X52865000Y-65417319D01*
X52865000Y-65417319D02*
X52769762Y-65560176D01*
X52769762Y-65560176D02*
X52674524Y-65655414D01*
X52674524Y-65655414D02*
X52579286Y-65703033D01*
X46633095Y-64317319D02*
X46633095Y-63317319D01*
X47204523Y-64317319D02*
X46775952Y-63745890D01*
X47204523Y-63317319D02*
X46633095Y-63888747D01*
X112503809Y-51697319D02*
X112027619Y-51697319D01*
X112027619Y-51697319D02*
X111980000Y-52173509D01*
X111980000Y-52173509D02*
X112027619Y-52125890D01*
X112027619Y-52125890D02*
X112122857Y-52078271D01*
X112122857Y-52078271D02*
X112360952Y-52078271D01*
X112360952Y-52078271D02*
X112456190Y-52125890D01*
X112456190Y-52125890D02*
X112503809Y-52173509D01*
X112503809Y-52173509D02*
X112551428Y-52268747D01*
X112551428Y-52268747D02*
X112551428Y-52506842D01*
X112551428Y-52506842D02*
X112503809Y-52602080D01*
X112503809Y-52602080D02*
X112456190Y-52649700D01*
X112456190Y-52649700D02*
X112360952Y-52697319D01*
X112360952Y-52697319D02*
X112122857Y-52697319D01*
X112122857Y-52697319D02*
X112027619Y-52649700D01*
X112027619Y-52649700D02*
X111980000Y-52602080D01*
X112837143Y-51697319D02*
X113170476Y-52697319D01*
X113170476Y-52697319D02*
X113503809Y-51697319D01*
X115027619Y-52030652D02*
X115027619Y-52697319D01*
X114599048Y-52030652D02*
X114599048Y-52554461D01*
X114599048Y-52554461D02*
X114646667Y-52649700D01*
X114646667Y-52649700D02*
X114741905Y-52697319D01*
X114741905Y-52697319D02*
X114884762Y-52697319D01*
X114884762Y-52697319D02*
X114980000Y-52649700D01*
X114980000Y-52649700D02*
X115027619Y-52602080D01*
X115932381Y-52697319D02*
X115932381Y-51697319D01*
X115932381Y-52649700D02*
X115837143Y-52697319D01*
X115837143Y-52697319D02*
X115646667Y-52697319D01*
X115646667Y-52697319D02*
X115551429Y-52649700D01*
X115551429Y-52649700D02*
X115503810Y-52602080D01*
X115503810Y-52602080D02*
X115456191Y-52506842D01*
X115456191Y-52506842D02*
X115456191Y-52221128D01*
X115456191Y-52221128D02*
X115503810Y-52125890D01*
X115503810Y-52125890D02*
X115551429Y-52078271D01*
X115551429Y-52078271D02*
X115646667Y-52030652D01*
X115646667Y-52030652D02*
X115837143Y-52030652D01*
X115837143Y-52030652D02*
X115932381Y-52078271D01*
X113646666Y-46617319D02*
X113646666Y-47331604D01*
X113646666Y-47331604D02*
X113599047Y-47474461D01*
X113599047Y-47474461D02*
X113503809Y-47569700D01*
X113503809Y-47569700D02*
X113360952Y-47617319D01*
X113360952Y-47617319D02*
X113265714Y-47617319D01*
X114075238Y-46712557D02*
X114122857Y-46664938D01*
X114122857Y-46664938D02*
X114218095Y-46617319D01*
X114218095Y-46617319D02*
X114456190Y-46617319D01*
X114456190Y-46617319D02*
X114551428Y-46664938D01*
X114551428Y-46664938D02*
X114599047Y-46712557D01*
X114599047Y-46712557D02*
X114646666Y-46807795D01*
X114646666Y-46807795D02*
X114646666Y-46903033D01*
X114646666Y-46903033D02*
X114599047Y-47045890D01*
X114599047Y-47045890D02*
X114027619Y-47617319D01*
X114027619Y-47617319D02*
X114646666Y-47617319D01*
X77228748Y-94142319D02*
X77228748Y-93142319D01*
X78276366Y-94142319D02*
X77943033Y-93666128D01*
X77704938Y-94142319D02*
X77704938Y-93142319D01*
X77704938Y-93142319D02*
X78085890Y-93142319D01*
X78085890Y-93142319D02*
X78181128Y-93189938D01*
X78181128Y-93189938D02*
X78228747Y-93237557D01*
X78228747Y-93237557D02*
X78276366Y-93332795D01*
X78276366Y-93332795D02*
X78276366Y-93475652D01*
X78276366Y-93475652D02*
X78228747Y-93570890D01*
X78228747Y-93570890D02*
X78181128Y-93618509D01*
X78181128Y-93618509D02*
X78085890Y-93666128D01*
X78085890Y-93666128D02*
X77704938Y-93666128D01*
X79038271Y-93618509D02*
X78704938Y-93618509D01*
X78704938Y-94142319D02*
X78704938Y-93142319D01*
X78704938Y-93142319D02*
X79181128Y-93142319D01*
X80038271Y-93142319D02*
X79562081Y-93142319D01*
X79562081Y-93142319D02*
X79514462Y-93618509D01*
X79514462Y-93618509D02*
X79562081Y-93570890D01*
X79562081Y-93570890D02*
X79657319Y-93523271D01*
X79657319Y-93523271D02*
X79895414Y-93523271D01*
X79895414Y-93523271D02*
X79990652Y-93570890D01*
X79990652Y-93570890D02*
X80038271Y-93618509D01*
X80038271Y-93618509D02*
X80085890Y-93713747D01*
X80085890Y-93713747D02*
X80085890Y-93951842D01*
X80085890Y-93951842D02*
X80038271Y-94047080D01*
X80038271Y-94047080D02*
X79990652Y-94094700D01*
X79990652Y-94094700D02*
X79895414Y-94142319D01*
X79895414Y-94142319D02*
X79657319Y-94142319D01*
X79657319Y-94142319D02*
X79562081Y-94094700D01*
X79562081Y-94094700D02*
X79514462Y-94047080D01*
X80419224Y-93142319D02*
X81038271Y-93142319D01*
X81038271Y-93142319D02*
X80704938Y-93523271D01*
X80704938Y-93523271D02*
X80847795Y-93523271D01*
X80847795Y-93523271D02*
X80943033Y-93570890D01*
X80943033Y-93570890D02*
X80990652Y-93618509D01*
X80990652Y-93618509D02*
X81038271Y-93713747D01*
X81038271Y-93713747D02*
X81038271Y-93951842D01*
X81038271Y-93951842D02*
X80990652Y-94047080D01*
X80990652Y-94047080D02*
X80943033Y-94094700D01*
X80943033Y-94094700D02*
X80847795Y-94142319D01*
X80847795Y-94142319D02*
X80562081Y-94142319D01*
X80562081Y-94142319D02*
X80466843Y-94094700D01*
X80466843Y-94094700D02*
X80419224Y-94047080D01*
X81657319Y-93142319D02*
X81752557Y-93142319D01*
X81752557Y-93142319D02*
X81847795Y-93189938D01*
X81847795Y-93189938D02*
X81895414Y-93237557D01*
X81895414Y-93237557D02*
X81943033Y-93332795D01*
X81943033Y-93332795D02*
X81990652Y-93523271D01*
X81990652Y-93523271D02*
X81990652Y-93761366D01*
X81990652Y-93761366D02*
X81943033Y-93951842D01*
X81943033Y-93951842D02*
X81895414Y-94047080D01*
X81895414Y-94047080D02*
X81847795Y-94094700D01*
X81847795Y-94094700D02*
X81752557Y-94142319D01*
X81752557Y-94142319D02*
X81657319Y-94142319D01*
X81657319Y-94142319D02*
X81562081Y-94094700D01*
X81562081Y-94094700D02*
X81514462Y-94047080D01*
X81514462Y-94047080D02*
X81466843Y-93951842D01*
X81466843Y-93951842D02*
X81419224Y-93761366D01*
X81419224Y-93761366D02*
X81419224Y-93523271D01*
X81419224Y-93523271D02*
X81466843Y-93332795D01*
X81466843Y-93332795D02*
X81514462Y-93237557D01*
X81514462Y-93237557D02*
X81562081Y-93189938D01*
X81562081Y-93189938D02*
X81657319Y-93142319D01*
X82419224Y-94142319D02*
X82419224Y-93142319D01*
X82419224Y-93142319D02*
X82990652Y-94142319D01*
X82990652Y-94142319D02*
X82990652Y-93142319D01*
X79300176Y-90992319D02*
X79300176Y-89992319D01*
X79300176Y-89992319D02*
X79633509Y-90706604D01*
X79633509Y-90706604D02*
X79966842Y-89992319D01*
X79966842Y-89992319D02*
X79966842Y-90992319D01*
X80966842Y-90992319D02*
X80395414Y-90992319D01*
X80681128Y-90992319D02*
X80681128Y-89992319D01*
X80681128Y-89992319D02*
X80585890Y-90135176D01*
X80585890Y-90135176D02*
X80490652Y-90230414D01*
X80490652Y-90230414D02*
X80395414Y-90278033D01*
D11*
%TO.C,J1*%
X25020000Y-43412500D02*
X25020000Y-50912500D01*
X25020000Y-50912500D02*
X35020000Y-50912500D01*
X34970000Y-44612500D02*
X25070000Y-44612500D01*
X35020000Y-43412500D02*
X25020000Y-43412500D01*
X35020000Y-50912500D02*
X35020000Y-43412500D01*
%TO.C,J3*%
X28750000Y-56677500D02*
X31290000Y-56677500D01*
X28750000Y-61757500D02*
X28750000Y-56677500D01*
X30655000Y-61757500D02*
X28750000Y-61757500D01*
X31290000Y-56677500D02*
X31290000Y-61122500D01*
X31290000Y-61122500D02*
X30655000Y-61757500D01*
%TO.C,R1*%
X46595000Y-99337500D02*
X47255000Y-99337500D01*
X54215000Y-99337500D02*
X53555000Y-99337500D01*
X47255000Y-98087500D02*
X53555000Y-98087500D01*
X53555000Y-100587500D01*
X47255000Y-100587500D01*
X47255000Y-98087500D01*
%TO.C,C1*%
X62132941Y-88790000D02*
X62932941Y-88790000D01*
X62532941Y-88390000D02*
X62532941Y-89190000D01*
X69559700Y-90537500D02*
G75*
G02*
X61559700Y-90537500I-4000000J0D01*
G01*
X61559700Y-90537500D02*
G75*
G02*
X69559700Y-90537500I4000000J0D01*
G01*
%TO.C,U1*%
X47630000Y-87727500D02*
X48630000Y-86727500D01*
X47630000Y-94347500D02*
X47630000Y-87727500D01*
X48630000Y-86727500D02*
X53980000Y-86727500D01*
X53980000Y-86727500D02*
X53980000Y-94347500D01*
X53980000Y-94347500D02*
X47630000Y-94347500D01*
%TO.C,L1*%
X63705000Y-58462500D02*
X98205000Y-58462500D01*
X98205000Y-73462500D01*
X63705000Y-73462500D01*
X63705000Y-58462500D01*
X98205000Y-65962500D02*
G75*
G02*
X63705000Y-65962500I-17250000J0D01*
G01*
X63705000Y-65962500D02*
G75*
G02*
X98205000Y-65962500I17250000J0D01*
G01*
%TO.C,J4*%
X112710000Y-57302500D02*
X113345000Y-56667500D01*
X112710000Y-61747500D02*
X112710000Y-57302500D01*
X113345000Y-56667500D02*
X115250000Y-56667500D01*
X115250000Y-56667500D02*
X115250000Y-61747500D01*
X115250000Y-61747500D02*
X112710000Y-61747500D01*
%TO.C,R2*%
X61365000Y-99337500D02*
X62025000Y-99337500D01*
X68985000Y-99337500D02*
X68325000Y-99337500D01*
X62025000Y-98087500D02*
X68325000Y-98087500D01*
X68325000Y-100587500D01*
X62025000Y-100587500D01*
X62025000Y-98087500D01*
%TO.C,D1*%
X46895000Y-65962500D02*
X49375000Y-65962500D01*
X50055000Y-64612500D02*
X50055000Y-67312500D01*
X50155000Y-64612500D02*
X50155000Y-67312500D01*
X50255000Y-64612500D02*
X50255000Y-67312500D01*
X57055000Y-65962500D02*
X54575000Y-65962500D01*
X49375000Y-64612500D02*
X54575000Y-64612500D01*
X54575000Y-67312500D01*
X49375000Y-67312500D01*
X49375000Y-64612500D01*
%TO.C,J2*%
X108980000Y-43412500D02*
X108980000Y-50912500D01*
X108980000Y-50912500D02*
X118980000Y-50912500D01*
X109030000Y-49712500D02*
X118930000Y-49712500D01*
X118980000Y-43412500D02*
X108980000Y-43412500D01*
X118980000Y-50912500D02*
X118980000Y-43412500D01*
%TO.C,M1*%
X75109700Y-89607500D02*
X85109700Y-89607500D01*
X78259700Y-88337500D02*
X78259700Y-89607500D01*
X81959700Y-88337500D02*
X81959700Y-89607500D01*
X75109700Y-88337500D02*
X85109700Y-88337500D01*
X85109700Y-92737500D01*
X75109700Y-92737500D01*
X75109700Y-88337500D01*
%TD*%
M02*
