%TF.FileFunction,Copper,L1,Top*%
%TF.FilePolarity,Positive*%
%FSLAX46Y46*%
G04 Gerber Fmt 4.6, Leading zero omitted, Abs format (unit mm)*
%MOMM*%
%LPD*%
G01*
%ADD10C,0.100*%
D10*
G36*
X6800000Y5000000D02*
X6692820Y5400000D01*
X6400000Y5692820D01*
X6000000Y5800000D01*
X5600000Y5692820D01*
X5307180Y5400000D01*
X5200000Y5000000D01*
X5307180Y4600000D01*
X5600000Y4307180D01*
X6000000Y4200000D01*
X6400000Y4307180D01*
X6692820Y4600000D01*
X6800000Y5000000D01*
G37*
G36*
X18800000Y5000000D02*
X18692820Y5400000D01*
X18400000Y5692820D01*
X18000000Y5800000D01*
X17600000Y5692820D01*
X17307180Y5400000D01*
X17200000Y5000000D01*
X17307180Y4600000D01*
X17600000Y4307180D01*
X18000000Y4200000D01*
X18400000Y4307180D01*
X18692820Y4600000D01*
X18800000Y5000000D01*
G37*
G36*
X6800000Y13000000D02*
X6692820Y13400000D01*
X6400000Y13692820D01*
X6000000Y13800000D01*
X5600000Y13692820D01*
X5307180Y13400000D01*
X5200000Y13000000D01*
X5307180Y12600000D01*
X5600000Y12307180D01*
X6000000Y12200000D01*
X6400000Y12307180D01*
X6692820Y12600000D01*
X6800000Y13000000D01*
G37*
G36*
X18800000Y13000000D02*
X18692820Y13400000D01*
X18400000Y13692820D01*
X18000000Y13800000D01*
X17600000Y13692820D01*
X17307180Y13400000D01*
X17200000Y13000000D01*
X17307180Y12600000D01*
X17600000Y12307180D01*
X18000000Y12200000D01*
X18400000Y12307180D01*
X18692820Y12600000D01*
X18800000Y13000000D01*
G37*
G36*
X3000000Y14500000D02*
X6000000Y14500000D01*
X6000000Y16000000D01*
X3000000Y16000000D01*
X3000000Y14500000D01*
G37*
M02*
