%TF.FileFunction,Copper,L2,Bot*%
%TF.FilePolarity,Positive*%
%FSLAX46Y46*%
G04 Gerber Fmt 4.6, Leading zero omitted, Abs format (unit mm)*
%MOMM*%
%LPD*%
G01*
%ADD10C,0.100*%
D10*
G36*
X1500000Y20000000D02*
X4500000Y20000000D01*
X4500000Y22000000D01*
X1500000Y22000000D01*
X1500000Y20000000D01*
G37*
G36*
X21500000Y20000000D02*
X24500000Y20000000D01*
X24500000Y22000000D01*
X21500000Y22000000D01*
X21500000Y20000000D01*
G37*
G36*
X4500000Y20250000D02*
X21500000Y20250000D01*
X21500000Y21750000D01*
X4500000Y21750000D01*
X4500000Y20250000D01*
G37*
G36*
X1500000Y17500000D02*
X4500000Y17500000D01*
X4500000Y19500000D01*
X1500000Y19500000D01*
X1500000Y17500000D01*
G37*
G36*
X21500000Y17500000D02*
X24500000Y17500000D01*
X24500000Y19500000D01*
X21500000Y19500000D01*
X21500000Y17500000D01*
G37*
G36*
X4500000Y17875000D02*
X21500000Y17875000D01*
X21500000Y19125000D01*
X4500000Y19125000D01*
X4500000Y17875000D01*
G37*
G36*
X1500000Y15000000D02*
X4500000Y15000000D01*
X4500000Y17000000D01*
X1500000Y17000000D01*
X1500000Y15000000D01*
G37*
G36*
X21500000Y15000000D02*
X24500000Y15000000D01*
X24500000Y17000000D01*
X21500000Y17000000D01*
X21500000Y15000000D01*
G37*
G36*
X4500000Y15500000D02*
X21500000Y15500000D01*
X21500000Y16500000D01*
X4500000Y16500000D01*
X4500000Y15500000D01*
G37*
G36*
X1500000Y12500000D02*
X4500000Y12500000D01*
X4500000Y14500000D01*
X1500000Y14500000D01*
X1500000Y12500000D01*
G37*
G36*
X21500000Y12500000D02*
X24500000Y12500000D01*
X24500000Y14500000D01*
X21500000Y14500000D01*
X21500000Y12500000D01*
G37*
G36*
X4500000Y13100000D02*
X21500000Y13100000D01*
X21500000Y13900000D01*
X4500000Y13900000D01*
X4500000Y13100000D01*
G37*
G36*
X1500000Y10000000D02*
X4500000Y10000000D01*
X4500000Y12000000D01*
X1500000Y12000000D01*
X1500000Y10000000D01*
G37*
G36*
X21500000Y10000000D02*
X24500000Y10000000D01*
X24500000Y12000000D01*
X21500000Y12000000D01*
X21500000Y10000000D01*
G37*
G36*
X4500000Y10700000D02*
X21500000Y10700000D01*
X21500000Y11300000D01*
X4500000Y11300000D01*
X4500000Y10700000D01*
G37*
G36*
X1500000Y7500000D02*
X4500000Y7500000D01*
X4500000Y9500000D01*
X1500000Y9500000D01*
X1500000Y7500000D01*
G37*
G36*
X21500000Y7500000D02*
X24500000Y7500000D01*
X24500000Y9500000D01*
X21500000Y9500000D01*
X21500000Y7500000D01*
G37*
G36*
X4500000Y8275000D02*
X21500000Y8275000D01*
X21500000Y8725000D01*
X4500000Y8725000D01*
X4500000Y8275000D01*
G37*
G36*
X1500000Y5000000D02*
X4500000Y5000000D01*
X4500000Y7000000D01*
X1500000Y7000000D01*
X1500000Y5000000D01*
G37*
G36*
X21500000Y5000000D02*
X24500000Y5000000D01*
X24500000Y7000000D01*
X21500000Y7000000D01*
X21500000Y5000000D01*
G37*
G36*
X4500000Y5850000D02*
X21500000Y5850000D01*
X21500000Y6150000D01*
X4500000Y6150000D01*
X4500000Y5850000D01*
G37*
G36*
X1500000Y2500000D02*
X4500000Y2500000D01*
X4500000Y4500000D01*
X1500000Y4500000D01*
X1500000Y2500000D01*
G37*
G36*
X21500000Y2500000D02*
X24500000Y2500000D01*
X24500000Y4500000D01*
X21500000Y4500000D01*
X21500000Y2500000D01*
G37*
G36*
X4500000Y3400000D02*
X21500000Y3400000D01*
X21500000Y3600000D01*
X4500000Y3600000D01*
X4500000Y3400000D01*
G37*
M02*
