%TF.FileFunction,Copper,L2,Bot*%
%TF.FilePolarity,Positive*%
%FSLAX46Y46*%
G04 Gerber Fmt 4.6, Leading zero omitted, Abs format (unit mm)*
%MOMM*%
%LPD*%
G01*
%ADD10C,0.100*%
D10*
G36*
X2600000Y14000000D02*
X3600000Y14000000D01*
X3600000Y26000000D01*
X2600000Y26000000D01*
X2600000Y14000000D01*
G37*
G36*
X4400000Y14000000D02*
X5400000Y14000000D01*
X5400000Y26000000D01*
X4400000Y26000000D01*
X4400000Y14000000D01*
G37*
G36*
X10600000Y14000000D02*
X11600000Y14000000D01*
X11600000Y26000000D01*
X10600000Y26000000D01*
X10600000Y14000000D01*
G37*
G36*
X12400000Y14000000D02*
X13400000Y14000000D01*
X13400000Y26000000D01*
X12400000Y26000000D01*
X12400000Y14000000D01*
G37*
G36*
X18600000Y14000000D02*
X19600000Y14000000D01*
X19600000Y26000000D01*
X18600000Y26000000D01*
X18600000Y14000000D01*
G37*
G36*
X20400000Y14000000D02*
X21400000Y14000000D01*
X21400000Y26000000D01*
X20400000Y26000000D01*
X20400000Y14000000D01*
G37*
G36*
X10800000Y6000000D02*
X10692820Y6400000D01*
X10400000Y6692820D01*
X10000000Y6800000D01*
X9600000Y6692820D01*
X9307180Y6400000D01*
X9200000Y6000000D01*
X9307180Y5600000D01*
X9600000Y5307180D01*
X10000000Y5200000D01*
X10400000Y5307180D01*
X10692820Y5600000D01*
X10800000Y6000000D01*
G37*
G36*
X14800000Y6000000D02*
X14692820Y6400000D01*
X14400000Y6692820D01*
X14000000Y6800000D01*
X13600000Y6692820D01*
X13307180Y6400000D01*
X13200000Y6000000D01*
X13307180Y5600000D01*
X13600000Y5307180D01*
X14000000Y5200000D01*
X14400000Y5307180D01*
X14692820Y5600000D01*
X14800000Y6000000D01*
G37*
G36*
X10800000Y10000000D02*
X10692820Y10400000D01*
X10400000Y10692820D01*
X10000000Y10800000D01*
X9600000Y10692820D01*
X9307180Y10400000D01*
X9200000Y10000000D01*
X9307180Y9600000D01*
X9600000Y9307180D01*
X10000000Y9200000D01*
X10400000Y9307180D01*
X10692820Y9600000D01*
X10800000Y10000000D01*
G37*
G36*
X20800000Y10000000D02*
X20692820Y10400000D01*
X20400000Y10692820D01*
X20000000Y10800000D01*
X19600000Y10692820D01*
X19307180Y10400000D01*
X19200000Y10000000D01*
X19307180Y9600000D01*
X19600000Y9307180D01*
X20000000Y9200000D01*
X20400000Y9307180D01*
X20692820Y9600000D01*
X20800000Y10000000D01*
G37*
G36*
X30800000Y10000000D02*
X30692820Y10400000D01*
X30400000Y10692820D01*
X30000000Y10800000D01*
X29600000Y10692820D01*
X29307180Y10400000D01*
X29200000Y10000000D01*
X29307180Y9600000D01*
X29600000Y9307180D01*
X30000000Y9200000D01*
X30400000Y9307180D01*
X30692820Y9600000D01*
X30800000Y10000000D01*
G37*
G36*
X10800000Y20000000D02*
X10692820Y20400000D01*
X10400000Y20692820D01*
X10000000Y20800000D01*
X9600000Y20692820D01*
X9307180Y20400000D01*
X9200000Y20000000D01*
X9307180Y19600000D01*
X9600000Y19307180D01*
X10000000Y19200000D01*
X10400000Y19307180D01*
X10692820Y19600000D01*
X10800000Y20000000D01*
G37*
G36*
X20800000Y20000000D02*
X20692820Y20400000D01*
X20400000Y20692820D01*
X20000000Y20800000D01*
X19600000Y20692820D01*
X19307180Y20400000D01*
X19200000Y20000000D01*
X19307180Y19600000D01*
X19600000Y19307180D01*
X20000000Y19200000D01*
X20400000Y19307180D01*
X20692820Y19600000D01*
X20800000Y20000000D01*
G37*
G36*
X30800000Y20000000D02*
X30692820Y20400000D01*
X30400000Y20692820D01*
X30000000Y20800000D01*
X29600000Y20692820D01*
X29307180Y20400000D01*
X29200000Y20000000D01*
X29307180Y19600000D01*
X29600000Y19307180D01*
X30000000Y19200000D01*
X30400000Y19307180D01*
X30692820Y19600000D01*
X30800000Y20000000D01*
G37*
G36*
X36000000Y22000000D02*
X35897777Y22776457D01*
X35598076Y23500000D01*
X35121320Y24121320D01*
X34500000Y24598076D01*
X33776457Y24897777D01*
X33000000Y25000000D01*
X32223543Y24897777D01*
X31500000Y24598076D01*
X30878680Y24121320D01*
X30401924Y23500000D01*
X30102223Y22776457D01*
X30000000Y22000000D01*
X30102223Y21223543D01*
X30401924Y20500000D01*
X30878680Y19878680D01*
X31500000Y19401924D01*
X32223543Y19102223D01*
X33000000Y19000000D01*
X33776457Y19102223D01*
X34500000Y19401924D01*
X35121320Y19878680D01*
X35598076Y20500000D01*
X35897777Y21223543D01*
X36000000Y22000000D01*
G37*
M02*
