%TF.FileFunction,Copper,L1,Top*%
%TF.FilePolarity,Positive*%
%FSLAX46Y46*%
G04 Gerber Fmt 4.6, Leading zero omitted, Abs format (unit mm)*
%MOMM*%
%LPD*%
G01*
%ADD10C,0.100*%
D10*
G36*
X10800000Y6000000D02*
X10692820Y6400000D01*
X10400000Y6692820D01*
X10000000Y6800000D01*
X9600000Y6692820D01*
X9307180Y6400000D01*
X9200000Y6000000D01*
X9307180Y5600000D01*
X9600000Y5307180D01*
X10000000Y5200000D01*
X10400000Y5307180D01*
X10692820Y5600000D01*
X10800000Y6000000D01*
G37*
G36*
X14800000Y6000000D02*
X14692820Y6400000D01*
X14400000Y6692820D01*
X14000000Y6800000D01*
X13600000Y6692820D01*
X13307180Y6400000D01*
X13200000Y6000000D01*
X13307180Y5600000D01*
X13600000Y5307180D01*
X14000000Y5200000D01*
X14400000Y5307180D01*
X14692820Y5600000D01*
X14800000Y6000000D01*
G37*
G36*
X10800000Y10000000D02*
X10692820Y10400000D01*
X10400000Y10692820D01*
X10000000Y10800000D01*
X9600000Y10692820D01*
X9307180Y10400000D01*
X9200000Y10000000D01*
X9307180Y9600000D01*
X9600000Y9307180D01*
X10000000Y9200000D01*
X10400000Y9307180D01*
X10692820Y9600000D01*
X10800000Y10000000D01*
G37*
G36*
X20800000Y10000000D02*
X20692820Y10400000D01*
X20400000Y10692820D01*
X20000000Y10800000D01*
X19600000Y10692820D01*
X19307180Y10400000D01*
X19200000Y10000000D01*
X19307180Y9600000D01*
X19600000Y9307180D01*
X20000000Y9200000D01*
X20400000Y9307180D01*
X20692820Y9600000D01*
X20800000Y10000000D01*
G37*
G36*
X30800000Y10000000D02*
X30692820Y10400000D01*
X30400000Y10692820D01*
X30000000Y10800000D01*
X29600000Y10692820D01*
X29307180Y10400000D01*
X29200000Y10000000D01*
X29307180Y9600000D01*
X29600000Y9307180D01*
X30000000Y9200000D01*
X30400000Y9307180D01*
X30692820Y9600000D01*
X30800000Y10000000D01*
G37*
G36*
X10800000Y20000000D02*
X10692820Y20400000D01*
X10400000Y20692820D01*
X10000000Y20800000D01*
X9600000Y20692820D01*
X9307180Y20400000D01*
X9200000Y20000000D01*
X9307180Y19600000D01*
X9600000Y19307180D01*
X10000000Y19200000D01*
X10400000Y19307180D01*
X10692820Y19600000D01*
X10800000Y20000000D01*
G37*
G36*
X20800000Y20000000D02*
X20692820Y20400000D01*
X20400000Y20692820D01*
X20000000Y20800000D01*
X19600000Y20692820D01*
X19307180Y20400000D01*
X19200000Y20000000D01*
X19307180Y19600000D01*
X19600000Y19307180D01*
X20000000Y19200000D01*
X20400000Y19307180D01*
X20692820Y19600000D01*
X20800000Y20000000D01*
G37*
G36*
X30800000Y20000000D02*
X30692820Y20400000D01*
X30400000Y20692820D01*
X30000000Y20800000D01*
X29600000Y20692820D01*
X29307180Y20400000D01*
X29200000Y20000000D01*
X29307180Y19600000D01*
X29600000Y19307180D01*
X30000000Y19200000D01*
X30400000Y19307180D01*
X30692820Y19600000D01*
X30800000Y20000000D01*
G37*
G36*
X4000000Y25000000D02*
X8000000Y25000000D01*
X8000000Y27000000D01*
X4000000Y27000000D01*
X4000000Y25000000D01*
G37*
M02*
