%TF.GenerationSoftware,KiCad,Pcbnew,10.0.4*%
%TF.CreationDate,2026-06-26T22:16:51+02:00*%
%TF.ProjectId,boost_v2,626f6f73-745f-4763-922e-6b696361645f,rev?*%
%TF.SameCoordinates,Original*%
%TF.FileFunction,Legend,Top*%
%TF.FilePolarity,Positive*%
%FSLAX46Y46*%
G04 Gerber Fmt 4.6, Leading zero omitted, Abs format (unit mm)*
G04 Created by KiCad (PCBNEW 10.0.4) date 2026-06-26 22:16:51*
%MOMM*%
%LPD*%
G01*
G04 APERTURE LIST*
%ADD10C,0.150000*%
%ADD11C,0.120000*%
G04 APERTURE END LIST*
D10*
X79583333Y-85109580D02*
X79535714Y-85157200D01*
X79535714Y-85157200D02*
X79392857Y-85204819D01*
X79392857Y-85204819D02*
X79297619Y-85204819D01*
X79297619Y-85204819D02*
X79154762Y-85157200D01*
X79154762Y-85157200D02*
X79059524Y-85061961D01*
X79059524Y-85061961D02*
X79011905Y-84966723D01*
X79011905Y-84966723D02*
X78964286Y-84776247D01*
X78964286Y-84776247D02*
X78964286Y-84633390D01*
X78964286Y-84633390D02*
X79011905Y-84442914D01*
X79011905Y-84442914D02*
X79059524Y-84347676D01*
X79059524Y-84347676D02*
X79154762Y-84252438D01*
X79154762Y-84252438D02*
X79297619Y-84204819D01*
X79297619Y-84204819D02*
X79392857Y-84204819D01*
X79392857Y-84204819D02*
X79535714Y-84252438D01*
X79535714Y-84252438D02*
X79583333Y-84300057D01*
X79964286Y-84300057D02*
X80011905Y-84252438D01*
X80011905Y-84252438D02*
X80107143Y-84204819D01*
X80107143Y-84204819D02*
X80345238Y-84204819D01*
X80345238Y-84204819D02*
X80440476Y-84252438D01*
X80440476Y-84252438D02*
X80488095Y-84300057D01*
X80488095Y-84300057D02*
X80535714Y-84395295D01*
X80535714Y-84395295D02*
X80535714Y-84490533D01*
X80535714Y-84490533D02*
X80488095Y-84633390D01*
X80488095Y-84633390D02*
X79916667Y-85204819D01*
X79916667Y-85204819D02*
X80535714Y-85204819D01*
X48650476Y-104054819D02*
X48650476Y-103054819D01*
X48650476Y-103054819D02*
X48983809Y-103769104D01*
X48983809Y-103769104D02*
X49317142Y-103054819D01*
X49317142Y-103054819D02*
X49317142Y-104054819D01*
X50317142Y-104054819D02*
X49745714Y-104054819D01*
X50031428Y-104054819D02*
X50031428Y-103054819D01*
X50031428Y-103054819D02*
X49936190Y-103197676D01*
X49936190Y-103197676D02*
X49840952Y-103292914D01*
X49840952Y-103292914D02*
X49745714Y-103340533D01*
X94378333Y-103584819D02*
X94045000Y-103108628D01*
X93806905Y-103584819D02*
X93806905Y-102584819D01*
X93806905Y-102584819D02*
X94187857Y-102584819D01*
X94187857Y-102584819D02*
X94283095Y-102632438D01*
X94283095Y-102632438D02*
X94330714Y-102680057D01*
X94330714Y-102680057D02*
X94378333Y-102775295D01*
X94378333Y-102775295D02*
X94378333Y-102918152D01*
X94378333Y-102918152D02*
X94330714Y-103013390D01*
X94330714Y-103013390D02*
X94283095Y-103061009D01*
X94283095Y-103061009D02*
X94187857Y-103108628D01*
X94187857Y-103108628D02*
X93806905Y-103108628D01*
X94711667Y-102584819D02*
X95330714Y-102584819D01*
X95330714Y-102584819D02*
X94997381Y-102965771D01*
X94997381Y-102965771D02*
X95140238Y-102965771D01*
X95140238Y-102965771D02*
X95235476Y-103013390D01*
X95235476Y-103013390D02*
X95283095Y-103061009D01*
X95283095Y-103061009D02*
X95330714Y-103156247D01*
X95330714Y-103156247D02*
X95330714Y-103394342D01*
X95330714Y-103394342D02*
X95283095Y-103489580D01*
X95283095Y-103489580D02*
X95235476Y-103537200D01*
X95235476Y-103537200D02*
X95140238Y-103584819D01*
X95140238Y-103584819D02*
X94854524Y-103584819D01*
X94854524Y-103584819D02*
X94759286Y-103537200D01*
X94759286Y-103537200D02*
X94711667Y-103489580D01*
X57537319Y-117333333D02*
X58251604Y-117333333D01*
X58251604Y-117333333D02*
X58394461Y-117380952D01*
X58394461Y-117380952D02*
X58489700Y-117476190D01*
X58489700Y-117476190D02*
X58537319Y-117619047D01*
X58537319Y-117619047D02*
X58537319Y-117714285D01*
X57537319Y-116952380D02*
X57537319Y-116333333D01*
X57537319Y-116333333D02*
X57918271Y-116666666D01*
X57918271Y-116666666D02*
X57918271Y-116523809D01*
X57918271Y-116523809D02*
X57965890Y-116428571D01*
X57965890Y-116428571D02*
X58013509Y-116380952D01*
X58013509Y-116380952D02*
X58108747Y-116333333D01*
X58108747Y-116333333D02*
X58346842Y-116333333D01*
X58346842Y-116333333D02*
X58442080Y-116380952D01*
X58442080Y-116380952D02*
X58489700Y-116428571D01*
X58489700Y-116428571D02*
X58537319Y-116523809D01*
X58537319Y-116523809D02*
X58537319Y-116809523D01*
X58537319Y-116809523D02*
X58489700Y-116904761D01*
X58489700Y-116904761D02*
X58442080Y-116952380D01*
X93761905Y-96984819D02*
X93761905Y-95984819D01*
X93761905Y-95984819D02*
X94000000Y-95984819D01*
X94000000Y-95984819D02*
X94142857Y-96032438D01*
X94142857Y-96032438D02*
X94238095Y-96127676D01*
X94238095Y-96127676D02*
X94285714Y-96222914D01*
X94285714Y-96222914D02*
X94333333Y-96413390D01*
X94333333Y-96413390D02*
X94333333Y-96556247D01*
X94333333Y-96556247D02*
X94285714Y-96746723D01*
X94285714Y-96746723D02*
X94238095Y-96841961D01*
X94238095Y-96841961D02*
X94142857Y-96937200D01*
X94142857Y-96937200D02*
X94000000Y-96984819D01*
X94000000Y-96984819D02*
X93761905Y-96984819D01*
X94714286Y-96080057D02*
X94761905Y-96032438D01*
X94761905Y-96032438D02*
X94857143Y-95984819D01*
X94857143Y-95984819D02*
X95095238Y-95984819D01*
X95095238Y-95984819D02*
X95190476Y-96032438D01*
X95190476Y-96032438D02*
X95238095Y-96080057D01*
X95238095Y-96080057D02*
X95285714Y-96175295D01*
X95285714Y-96175295D02*
X95285714Y-96270533D01*
X95285714Y-96270533D02*
X95238095Y-96413390D01*
X95238095Y-96413390D02*
X94666667Y-96984819D01*
X94666667Y-96984819D02*
X95285714Y-96984819D01*
X89158095Y-97354819D02*
X89158095Y-96354819D01*
X89729523Y-97354819D02*
X89300952Y-96783390D01*
X89729523Y-96354819D02*
X89158095Y-96926247D01*
X79500033Y-96359580D02*
X79452414Y-96407200D01*
X79452414Y-96407200D02*
X79309557Y-96454819D01*
X79309557Y-96454819D02*
X79214319Y-96454819D01*
X79214319Y-96454819D02*
X79071462Y-96407200D01*
X79071462Y-96407200D02*
X78976224Y-96311961D01*
X78976224Y-96311961D02*
X78928605Y-96216723D01*
X78928605Y-96216723D02*
X78880986Y-96026247D01*
X78880986Y-96026247D02*
X78880986Y-95883390D01*
X78880986Y-95883390D02*
X78928605Y-95692914D01*
X78928605Y-95692914D02*
X78976224Y-95597676D01*
X78976224Y-95597676D02*
X79071462Y-95502438D01*
X79071462Y-95502438D02*
X79214319Y-95454819D01*
X79214319Y-95454819D02*
X79309557Y-95454819D01*
X79309557Y-95454819D02*
X79452414Y-95502438D01*
X79452414Y-95502438D02*
X79500033Y-95550057D01*
X79833367Y-95454819D02*
X80452414Y-95454819D01*
X80452414Y-95454819D02*
X80119081Y-95835771D01*
X80119081Y-95835771D02*
X80261938Y-95835771D01*
X80261938Y-95835771D02*
X80357176Y-95883390D01*
X80357176Y-95883390D02*
X80404795Y-95931009D01*
X80404795Y-95931009D02*
X80452414Y-96026247D01*
X80452414Y-96026247D02*
X80452414Y-96264342D01*
X80452414Y-96264342D02*
X80404795Y-96359580D01*
X80404795Y-96359580D02*
X80357176Y-96407200D01*
X80357176Y-96407200D02*
X80261938Y-96454819D01*
X80261938Y-96454819D02*
X79976224Y-96454819D01*
X79976224Y-96454819D02*
X79880986Y-96407200D01*
X79880986Y-96407200D02*
X79833367Y-96359580D01*
X79440033Y-103584819D02*
X79106700Y-103108628D01*
X78868605Y-103584819D02*
X78868605Y-102584819D01*
X78868605Y-102584819D02*
X79249557Y-102584819D01*
X79249557Y-102584819D02*
X79344795Y-102632438D01*
X79344795Y-102632438D02*
X79392414Y-102680057D01*
X79392414Y-102680057D02*
X79440033Y-102775295D01*
X79440033Y-102775295D02*
X79440033Y-102918152D01*
X79440033Y-102918152D02*
X79392414Y-103013390D01*
X79392414Y-103013390D02*
X79344795Y-103061009D01*
X79344795Y-103061009D02*
X79249557Y-103108628D01*
X79249557Y-103108628D02*
X78868605Y-103108628D01*
X79820986Y-102680057D02*
X79868605Y-102632438D01*
X79868605Y-102632438D02*
X79963843Y-102584819D01*
X79963843Y-102584819D02*
X80201938Y-102584819D01*
X80201938Y-102584819D02*
X80297176Y-102632438D01*
X80297176Y-102632438D02*
X80344795Y-102680057D01*
X80344795Y-102680057D02*
X80392414Y-102775295D01*
X80392414Y-102775295D02*
X80392414Y-102870533D01*
X80392414Y-102870533D02*
X80344795Y-103013390D01*
X80344795Y-103013390D02*
X79773367Y-103584819D01*
X79773367Y-103584819D02*
X80392414Y-103584819D01*
X88184166Y-111374819D02*
X88184166Y-112089104D01*
X88184166Y-112089104D02*
X88136547Y-112231961D01*
X88136547Y-112231961D02*
X88041309Y-112327200D01*
X88041309Y-112327200D02*
X87898452Y-112374819D01*
X87898452Y-112374819D02*
X87803214Y-112374819D01*
X89088928Y-111708152D02*
X89088928Y-112374819D01*
X88850833Y-111327200D02*
X88612738Y-112041485D01*
X88612738Y-112041485D02*
X89231785Y-112041485D01*
X112109580Y-103763966D02*
X112157200Y-103811585D01*
X112157200Y-103811585D02*
X112204819Y-103954442D01*
X112204819Y-103954442D02*
X112204819Y-104049680D01*
X112204819Y-104049680D02*
X112157200Y-104192537D01*
X112157200Y-104192537D02*
X112061961Y-104287775D01*
X112061961Y-104287775D02*
X111966723Y-104335394D01*
X111966723Y-104335394D02*
X111776247Y-104383013D01*
X111776247Y-104383013D02*
X111633390Y-104383013D01*
X111633390Y-104383013D02*
X111442914Y-104335394D01*
X111442914Y-104335394D02*
X111347676Y-104287775D01*
X111347676Y-104287775D02*
X111252438Y-104192537D01*
X111252438Y-104192537D02*
X111204819Y-104049680D01*
X111204819Y-104049680D02*
X111204819Y-103954442D01*
X111204819Y-103954442D02*
X111252438Y-103811585D01*
X111252438Y-103811585D02*
X111300057Y-103763966D01*
X112204819Y-102811585D02*
X112204819Y-103383013D01*
X112204819Y-103097299D02*
X111204819Y-103097299D01*
X111204819Y-103097299D02*
X111347676Y-103192537D01*
X111347676Y-103192537D02*
X111442914Y-103287775D01*
X111442914Y-103287775D02*
X111490533Y-103383013D01*
X64095205Y-101924819D02*
X64095205Y-100924819D01*
X64095205Y-100924819D02*
X64333300Y-100924819D01*
X64333300Y-100924819D02*
X64476157Y-100972438D01*
X64476157Y-100972438D02*
X64571395Y-101067676D01*
X64571395Y-101067676D02*
X64619014Y-101162914D01*
X64619014Y-101162914D02*
X64666633Y-101353390D01*
X64666633Y-101353390D02*
X64666633Y-101496247D01*
X64666633Y-101496247D02*
X64619014Y-101686723D01*
X64619014Y-101686723D02*
X64571395Y-101781961D01*
X64571395Y-101781961D02*
X64476157Y-101877200D01*
X64476157Y-101877200D02*
X64333300Y-101924819D01*
X64333300Y-101924819D02*
X64095205Y-101924819D01*
X65619014Y-101924819D02*
X65047586Y-101924819D01*
X65333300Y-101924819D02*
X65333300Y-100924819D01*
X65333300Y-100924819D02*
X65238062Y-101067676D01*
X65238062Y-101067676D02*
X65142824Y-101162914D01*
X65142824Y-101162914D02*
X65047586Y-101210533D01*
X69651395Y-101554819D02*
X69651395Y-100554819D01*
X70222823Y-101554819D02*
X69794252Y-100983390D01*
X70222823Y-100554819D02*
X69651395Y-101126247D01*
X87084819Y-88951904D02*
X87894342Y-88951904D01*
X87894342Y-88951904D02*
X87989580Y-88904285D01*
X87989580Y-88904285D02*
X88037200Y-88856666D01*
X88037200Y-88856666D02*
X88084819Y-88761428D01*
X88084819Y-88761428D02*
X88084819Y-88570952D01*
X88084819Y-88570952D02*
X88037200Y-88475714D01*
X88037200Y-88475714D02*
X87989580Y-88428095D01*
X87989580Y-88428095D02*
X87894342Y-88380476D01*
X87894342Y-88380476D02*
X87084819Y-88380476D01*
X87180057Y-87951904D02*
X87132438Y-87904285D01*
X87132438Y-87904285D02*
X87084819Y-87809047D01*
X87084819Y-87809047D02*
X87084819Y-87570952D01*
X87084819Y-87570952D02*
X87132438Y-87475714D01*
X87132438Y-87475714D02*
X87180057Y-87428095D01*
X87180057Y-87428095D02*
X87275295Y-87380476D01*
X87275295Y-87380476D02*
X87370533Y-87380476D01*
X87370533Y-87380476D02*
X87513390Y-87428095D01*
X87513390Y-87428095D02*
X88084819Y-87999523D01*
X88084819Y-87999523D02*
X88084819Y-87380476D01*
X99126666Y-121534819D02*
X99126666Y-122249104D01*
X99126666Y-122249104D02*
X99079047Y-122391961D01*
X99079047Y-122391961D02*
X98983809Y-122487200D01*
X98983809Y-122487200D02*
X98840952Y-122534819D01*
X98840952Y-122534819D02*
X98745714Y-122534819D01*
X99555238Y-121630057D02*
X99602857Y-121582438D01*
X99602857Y-121582438D02*
X99698095Y-121534819D01*
X99698095Y-121534819D02*
X99936190Y-121534819D01*
X99936190Y-121534819D02*
X100031428Y-121582438D01*
X100031428Y-121582438D02*
X100079047Y-121630057D01*
X100079047Y-121630057D02*
X100126666Y-121725295D01*
X100126666Y-121725295D02*
X100126666Y-121820533D01*
X100126666Y-121820533D02*
X100079047Y-121963390D01*
X100079047Y-121963390D02*
X99507619Y-122534819D01*
X99507619Y-122534819D02*
X100126666Y-122534819D01*
X49523333Y-108824819D02*
X49190000Y-108348628D01*
X48951905Y-108824819D02*
X48951905Y-107824819D01*
X48951905Y-107824819D02*
X49332857Y-107824819D01*
X49332857Y-107824819D02*
X49428095Y-107872438D01*
X49428095Y-107872438D02*
X49475714Y-107920057D01*
X49475714Y-107920057D02*
X49523333Y-108015295D01*
X49523333Y-108015295D02*
X49523333Y-108158152D01*
X49523333Y-108158152D02*
X49475714Y-108253390D01*
X49475714Y-108253390D02*
X49428095Y-108301009D01*
X49428095Y-108301009D02*
X49332857Y-108348628D01*
X49332857Y-108348628D02*
X48951905Y-108348628D01*
X50380476Y-108158152D02*
X50380476Y-108824819D01*
X50142381Y-107777200D02*
X49904286Y-108491485D01*
X49904286Y-108491485D02*
X50523333Y-108491485D01*
X64501633Y-103584819D02*
X64168300Y-103108628D01*
X63930205Y-103584819D02*
X63930205Y-102584819D01*
X63930205Y-102584819D02*
X64311157Y-102584819D01*
X64311157Y-102584819D02*
X64406395Y-102632438D01*
X64406395Y-102632438D02*
X64454014Y-102680057D01*
X64454014Y-102680057D02*
X64501633Y-102775295D01*
X64501633Y-102775295D02*
X64501633Y-102918152D01*
X64501633Y-102918152D02*
X64454014Y-103013390D01*
X64454014Y-103013390D02*
X64406395Y-103061009D01*
X64406395Y-103061009D02*
X64311157Y-103108628D01*
X64311157Y-103108628D02*
X63930205Y-103108628D01*
X65454014Y-103584819D02*
X64882586Y-103584819D01*
X65168300Y-103584819D02*
X65168300Y-102584819D01*
X65168300Y-102584819D02*
X65073062Y-102727676D01*
X65073062Y-102727676D02*
X64977824Y-102822914D01*
X64977824Y-102822914D02*
X64882586Y-102870533D01*
X73263095Y-111584819D02*
X73263095Y-112394342D01*
X73263095Y-112394342D02*
X73310714Y-112489580D01*
X73310714Y-112489580D02*
X73358333Y-112537200D01*
X73358333Y-112537200D02*
X73453571Y-112584819D01*
X73453571Y-112584819D02*
X73644047Y-112584819D01*
X73644047Y-112584819D02*
X73739285Y-112537200D01*
X73739285Y-112537200D02*
X73786904Y-112489580D01*
X73786904Y-112489580D02*
X73834523Y-112394342D01*
X73834523Y-112394342D02*
X73834523Y-111584819D01*
X74834523Y-112584819D02*
X74263095Y-112584819D01*
X74548809Y-112584819D02*
X74548809Y-111584819D01*
X74548809Y-111584819D02*
X74453571Y-111727676D01*
X74453571Y-111727676D02*
X74358333Y-111822914D01*
X74358333Y-111822914D02*
X74263095Y-111870533D01*
X56733333Y-66954819D02*
X56257143Y-66954819D01*
X56257143Y-66954819D02*
X56257143Y-65954819D01*
X57590476Y-66954819D02*
X57019048Y-66954819D01*
X57304762Y-66954819D02*
X57304762Y-65954819D01*
X57304762Y-65954819D02*
X57209524Y-66097676D01*
X57209524Y-66097676D02*
X57114286Y-66192914D01*
X57114286Y-66192914D02*
X57019048Y-66240533D01*
X49126666Y-111374819D02*
X49126666Y-112089104D01*
X49126666Y-112089104D02*
X49079047Y-112231961D01*
X49079047Y-112231961D02*
X48983809Y-112327200D01*
X48983809Y-112327200D02*
X48840952Y-112374819D01*
X48840952Y-112374819D02*
X48745714Y-112374819D01*
X50126666Y-112374819D02*
X49555238Y-112374819D01*
X49840952Y-112374819D02*
X49840952Y-111374819D01*
X49840952Y-111374819D02*
X49745714Y-111517676D01*
X49745714Y-111517676D02*
X49650476Y-111612914D01*
X49650476Y-111612914D02*
X49555238Y-111660533D01*
%TO.C,C2*%
D11*
X75340302Y-87685000D02*
X76140302Y-87685000D01*
X75740302Y-87285000D02*
X75740302Y-88085000D01*
X79750000Y-85920000D02*
X79750000Y-94080000D01*
X79790000Y-85920000D02*
X79790000Y-94080000D01*
X79830000Y-85921000D02*
X79830000Y-94079000D01*
X79870000Y-85922000D02*
X79870000Y-94078000D01*
X79910000Y-85923000D02*
X79910000Y-94077000D01*
X79950000Y-85925000D02*
X79950000Y-94075000D01*
X79990000Y-85927000D02*
X79990000Y-94073000D01*
X80030000Y-85930000D02*
X80030000Y-94070000D01*
X80070000Y-85932000D02*
X80070000Y-94068000D01*
X80110000Y-85936000D02*
X80110000Y-94064000D01*
X80150000Y-85939000D02*
X80150000Y-94061000D01*
X80190000Y-85944000D02*
X80190000Y-94056000D01*
X80230000Y-85948000D02*
X80230000Y-94052000D01*
X80270000Y-85953000D02*
X80270000Y-94047000D01*
X80310000Y-85958000D02*
X80310000Y-94042000D01*
X80350000Y-85964000D02*
X80350000Y-94036000D01*
X80390000Y-85970000D02*
X80390000Y-94030000D01*
X80430000Y-85977000D02*
X80430000Y-94023000D01*
X80470000Y-85983000D02*
X80470000Y-88960000D01*
X80470000Y-91040000D02*
X80470000Y-94017000D01*
X80510000Y-85991000D02*
X80510000Y-88960000D01*
X80510000Y-91040000D02*
X80510000Y-94009000D01*
X80550000Y-85998000D02*
X80550000Y-88960000D01*
X80550000Y-91040000D02*
X80550000Y-94002000D01*
X80590000Y-86007000D02*
X80590000Y-88960000D01*
X80590000Y-91040000D02*
X80590000Y-93993000D01*
X80630000Y-86015000D02*
X80630000Y-88960000D01*
X80630000Y-91040000D02*
X80630000Y-93985000D01*
X80670000Y-86024000D02*
X80670000Y-88960000D01*
X80670000Y-91040000D02*
X80670000Y-93976000D01*
X80710000Y-86033000D02*
X80710000Y-88960000D01*
X80710000Y-91040000D02*
X80710000Y-93967000D01*
X80750000Y-86043000D02*
X80750000Y-88960000D01*
X80750000Y-91040000D02*
X80750000Y-93957000D01*
X80790000Y-86053000D02*
X80790000Y-88960000D01*
X80790000Y-91040000D02*
X80790000Y-93947000D01*
X80830000Y-86064000D02*
X80830000Y-88960000D01*
X80830000Y-91040000D02*
X80830000Y-93936000D01*
X80870000Y-86075000D02*
X80870000Y-88960000D01*
X80870000Y-91040000D02*
X80870000Y-93925000D01*
X80910000Y-86087000D02*
X80910000Y-88960000D01*
X80910000Y-91040000D02*
X80910000Y-93913000D01*
X80950000Y-86099000D02*
X80950000Y-88960000D01*
X80950000Y-91040000D02*
X80950000Y-93901000D01*
X80990000Y-86111000D02*
X80990000Y-88960000D01*
X80990000Y-91040000D02*
X80990000Y-93889000D01*
X81030000Y-86124000D02*
X81030000Y-88960000D01*
X81030000Y-91040000D02*
X81030000Y-93876000D01*
X81070000Y-86137000D02*
X81070000Y-88960000D01*
X81070000Y-91040000D02*
X81070000Y-93863000D01*
X81110000Y-86151000D02*
X81110000Y-88960000D01*
X81110000Y-91040000D02*
X81110000Y-93849000D01*
X81150000Y-86165000D02*
X81150000Y-88960000D01*
X81150000Y-91040000D02*
X81150000Y-93835000D01*
X81190000Y-86180000D02*
X81190000Y-88960000D01*
X81190000Y-91040000D02*
X81190000Y-93820000D01*
X81230000Y-86195000D02*
X81230000Y-88960000D01*
X81230000Y-91040000D02*
X81230000Y-93805000D01*
X81270000Y-86211000D02*
X81270000Y-88960000D01*
X81270000Y-91040000D02*
X81270000Y-93789000D01*
X81310000Y-86227000D02*
X81310000Y-88960000D01*
X81310000Y-91040000D02*
X81310000Y-93773000D01*
X81350000Y-86243000D02*
X81350000Y-88960000D01*
X81350000Y-91040000D02*
X81350000Y-93757000D01*
X81390000Y-86260000D02*
X81390000Y-88960000D01*
X81390000Y-91040000D02*
X81390000Y-93740000D01*
X81430000Y-86278000D02*
X81430000Y-88960000D01*
X81430000Y-91040000D02*
X81430000Y-93722000D01*
X81470000Y-86296000D02*
X81470000Y-88960000D01*
X81470000Y-91040000D02*
X81470000Y-93704000D01*
X81510000Y-86315000D02*
X81510000Y-88960000D01*
X81510000Y-91040000D02*
X81510000Y-93685000D01*
X81550000Y-86334000D02*
X81550000Y-88960000D01*
X81550000Y-91040000D02*
X81550000Y-93666000D01*
X81590000Y-86354000D02*
X81590000Y-88960000D01*
X81590000Y-91040000D02*
X81590000Y-93646000D01*
X81630000Y-86374000D02*
X81630000Y-88960000D01*
X81630000Y-91040000D02*
X81630000Y-93626000D01*
X81670000Y-86395000D02*
X81670000Y-88960000D01*
X81670000Y-91040000D02*
X81670000Y-93605000D01*
X81710000Y-86416000D02*
X81710000Y-88960000D01*
X81710000Y-91040000D02*
X81710000Y-93584000D01*
X81750000Y-86438000D02*
X81750000Y-88960000D01*
X81750000Y-91040000D02*
X81750000Y-93562000D01*
X81790000Y-86461000D02*
X81790000Y-88960000D01*
X81790000Y-91040000D02*
X81790000Y-93539000D01*
X81830000Y-86484000D02*
X81830000Y-88960000D01*
X81830000Y-91040000D02*
X81830000Y-93516000D01*
X81870000Y-86507000D02*
X81870000Y-88960000D01*
X81870000Y-91040000D02*
X81870000Y-93493000D01*
X81910000Y-86532000D02*
X81910000Y-88960000D01*
X81910000Y-91040000D02*
X81910000Y-93468000D01*
X81950000Y-86557000D02*
X81950000Y-88960000D01*
X81950000Y-91040000D02*
X81950000Y-93443000D01*
X81990000Y-86582000D02*
X81990000Y-88960000D01*
X81990000Y-91040000D02*
X81990000Y-93418000D01*
X82030000Y-86608000D02*
X82030000Y-88960000D01*
X82030000Y-91040000D02*
X82030000Y-93392000D01*
X82070000Y-86635000D02*
X82070000Y-88960000D01*
X82070000Y-91040000D02*
X82070000Y-93365000D01*
X82110000Y-86663000D02*
X82110000Y-88960000D01*
X82110000Y-91040000D02*
X82110000Y-93337000D01*
X82150000Y-86691000D02*
X82150000Y-88960000D01*
X82150000Y-91040000D02*
X82150000Y-93309000D01*
X82190000Y-86720000D02*
X82190000Y-88960000D01*
X82190000Y-91040000D02*
X82190000Y-93280000D01*
X82230000Y-86750000D02*
X82230000Y-88960000D01*
X82230000Y-91040000D02*
X82230000Y-93250000D01*
X82270000Y-86781000D02*
X82270000Y-88960000D01*
X82270000Y-91040000D02*
X82270000Y-93219000D01*
X82310000Y-86812000D02*
X82310000Y-88960000D01*
X82310000Y-91040000D02*
X82310000Y-93188000D01*
X82350000Y-86844000D02*
X82350000Y-88960000D01*
X82350000Y-91040000D02*
X82350000Y-93156000D01*
X82390000Y-86877000D02*
X82390000Y-88960000D01*
X82390000Y-91040000D02*
X82390000Y-93123000D01*
X82430000Y-86911000D02*
X82430000Y-88960000D01*
X82430000Y-91040000D02*
X82430000Y-93089000D01*
X82470000Y-86945000D02*
X82470000Y-88960000D01*
X82470000Y-91040000D02*
X82470000Y-93055000D01*
X82510000Y-86981000D02*
X82510000Y-88960000D01*
X82510000Y-91040000D02*
X82510000Y-93019000D01*
X82550000Y-87018000D02*
X82550000Y-92982000D01*
X82590000Y-87055000D02*
X82590000Y-92945000D01*
X82630000Y-87094000D02*
X82630000Y-92906000D01*
X82670000Y-87133000D02*
X82670000Y-92867000D01*
X82710000Y-87174000D02*
X82710000Y-92826000D01*
X82750000Y-87216000D02*
X82750000Y-92784000D01*
X82790000Y-87259000D02*
X82790000Y-92741000D01*
X82830000Y-87304000D02*
X82830000Y-92696000D01*
X82870000Y-87349000D02*
X82870000Y-92651000D01*
X82910000Y-87396000D02*
X82910000Y-92604000D01*
X82950000Y-87445000D02*
X82950000Y-92555000D01*
X82990000Y-87495000D02*
X82990000Y-92505000D01*
X83030000Y-87547000D02*
X83030000Y-92453000D01*
X83070000Y-87600000D02*
X83070000Y-92400000D01*
X83110000Y-87656000D02*
X83110000Y-92344000D01*
X83150000Y-87713000D02*
X83150000Y-92287000D01*
X83190000Y-87773000D02*
X83190000Y-92227000D01*
X83230000Y-87835000D02*
X83230000Y-92165000D01*
X83270000Y-87899000D02*
X83270000Y-92101000D01*
X83310000Y-87966000D02*
X83310000Y-92034000D01*
X83350000Y-88036000D02*
X83350000Y-91964000D01*
X83390000Y-88110000D02*
X83390000Y-91890000D01*
X83430000Y-88187000D02*
X83430000Y-91813000D01*
X83470000Y-88269000D02*
X83470000Y-91731000D01*
X83510000Y-88356000D02*
X83510000Y-91644000D01*
X83550000Y-88448000D02*
X83550000Y-91552000D01*
X83590000Y-88547000D02*
X83590000Y-91453000D01*
X83630000Y-88654000D02*
X83630000Y-91346000D01*
X83670000Y-88772000D02*
X83670000Y-91228000D01*
X83710000Y-88903000D02*
X83710000Y-91097000D01*
X83750000Y-89053000D02*
X83750000Y-90947000D01*
X83790000Y-89232000D02*
X83790000Y-90768000D01*
X83830000Y-89467000D02*
X83830000Y-90533000D01*
X83870000Y-90000000D02*
G75*
G02*
X75630000Y-90000000I-4120000J0D01*
G01*
X75630000Y-90000000D02*
G75*
G02*
X83870000Y-90000000I4120000J0D01*
G01*
%TO.C,M1*%
X44350000Y-98140000D02*
X54570000Y-98140000D01*
X44350000Y-102760000D02*
X44350000Y-98140000D01*
X47610000Y-102760000D02*
X47610000Y-101380000D01*
X51310000Y-102760000D02*
X51310000Y-101380000D01*
X54570000Y-98140000D02*
X54570000Y-102760000D01*
X54570000Y-101380000D02*
X44350000Y-101380000D01*
X54570000Y-102760000D02*
X44350000Y-102760000D01*
%TO.C,R3*%
X91275000Y-104130000D02*
X97815000Y-104130000D01*
X91275000Y-104460000D02*
X91275000Y-104130000D01*
X91275000Y-106540000D02*
X91275000Y-106870000D01*
X91275000Y-106870000D02*
X97815000Y-106870000D01*
X97815000Y-104130000D02*
X97815000Y-104460000D01*
X97815000Y-106870000D02*
X97815000Y-106540000D01*
%TO.C,J3*%
X59082500Y-118380000D02*
X59082500Y-117000000D01*
X60462500Y-118380000D02*
X59082500Y-118380000D01*
X61732500Y-115620000D02*
X64382500Y-115620000D01*
X61732500Y-118380000D02*
X61732500Y-115620000D01*
X61732500Y-118380000D02*
X64382500Y-118380000D01*
X64382500Y-118380000D02*
X64382500Y-115620000D01*
%TO.C,D2*%
X90760000Y-99000000D02*
X91780000Y-99000000D01*
X92560000Y-97530000D02*
X92560000Y-100470000D01*
X92680000Y-97530000D02*
X92680000Y-100470000D01*
X92800000Y-97530000D02*
X92800000Y-100470000D01*
X98240000Y-99000000D02*
X97220000Y-99000000D01*
X91780000Y-97530000D02*
X97220000Y-97530000D01*
X97220000Y-100470000D01*
X91780000Y-100470000D01*
X91780000Y-97530000D01*
%TO.C,C3*%
X77046700Y-97130000D02*
X82286700Y-97130000D01*
X77046700Y-97467000D02*
X77046700Y-97130000D01*
X77046700Y-99870000D02*
X77046700Y-99533000D01*
X82286700Y-97130000D02*
X82286700Y-97467000D01*
X82286700Y-99533000D02*
X82286700Y-99870000D01*
X82286700Y-99870000D02*
X77046700Y-99870000D01*
%TO.C,R2*%
X76336700Y-104130000D02*
X82876700Y-104130000D01*
X76336700Y-104460000D02*
X76336700Y-104130000D01*
X76336700Y-106540000D02*
X76336700Y-106870000D01*
X76336700Y-106870000D02*
X82876700Y-106870000D01*
X82876700Y-104130000D02*
X82876700Y-104460000D01*
X82876700Y-106870000D02*
X82876700Y-106540000D01*
%TO.C,J4*%
X83437500Y-113190000D02*
X83437500Y-120810000D01*
X83437500Y-120810000D02*
X93597500Y-120810000D01*
X93597500Y-113190000D02*
X83437500Y-113190000D01*
X93597500Y-119540000D02*
X83437500Y-119540000D01*
X93597500Y-120810000D02*
X93597500Y-113190000D01*
%TO.C,C1*%
X105460000Y-104317300D02*
X102483000Y-104317300D01*
X105460000Y-104357300D02*
X102491000Y-104357300D01*
X105460000Y-104397300D02*
X102498000Y-104397300D01*
X105460000Y-104437300D02*
X102507000Y-104437300D01*
X105460000Y-104477300D02*
X102515000Y-104477300D01*
X105460000Y-104517300D02*
X102524000Y-104517300D01*
X105460000Y-104557300D02*
X102533000Y-104557300D01*
X105460000Y-104597300D02*
X102543000Y-104597300D01*
X105460000Y-104637300D02*
X102553000Y-104637300D01*
X105460000Y-104677300D02*
X102564000Y-104677300D01*
X105460000Y-104717300D02*
X102575000Y-104717300D01*
X105460000Y-104757300D02*
X102587000Y-104757300D01*
X105460000Y-104797300D02*
X102599000Y-104797300D01*
X105460000Y-104837300D02*
X102611000Y-104837300D01*
X105460000Y-104877300D02*
X102624000Y-104877300D01*
X105460000Y-104917300D02*
X102637000Y-104917300D01*
X105460000Y-104957300D02*
X102651000Y-104957300D01*
X105460000Y-104997300D02*
X102665000Y-104997300D01*
X105460000Y-105037300D02*
X102680000Y-105037300D01*
X105460000Y-105077300D02*
X102695000Y-105077300D01*
X105460000Y-105117300D02*
X102711000Y-105117300D01*
X105460000Y-105157300D02*
X102727000Y-105157300D01*
X105460000Y-105197300D02*
X102743000Y-105197300D01*
X105460000Y-105237300D02*
X102760000Y-105237300D01*
X105460000Y-105277300D02*
X102778000Y-105277300D01*
X105460000Y-105317300D02*
X102796000Y-105317300D01*
X105460000Y-105357300D02*
X102815000Y-105357300D01*
X105460000Y-105397300D02*
X102834000Y-105397300D01*
X105460000Y-105437300D02*
X102854000Y-105437300D01*
X105460000Y-105477300D02*
X102874000Y-105477300D01*
X105460000Y-105517300D02*
X102895000Y-105517300D01*
X105460000Y-105557300D02*
X102916000Y-105557300D01*
X105460000Y-105597300D02*
X102938000Y-105597300D01*
X105460000Y-105637300D02*
X102961000Y-105637300D01*
X105460000Y-105677300D02*
X102984000Y-105677300D01*
X105460000Y-105717300D02*
X103007000Y-105717300D01*
X105460000Y-105757300D02*
X103032000Y-105757300D01*
X105460000Y-105797300D02*
X103057000Y-105797300D01*
X105460000Y-105837300D02*
X103082000Y-105837300D01*
X105460000Y-105877300D02*
X103108000Y-105877300D01*
X105460000Y-105917300D02*
X103135000Y-105917300D01*
X105460000Y-105957300D02*
X103163000Y-105957300D01*
X105460000Y-105997300D02*
X103191000Y-105997300D01*
X105460000Y-106037300D02*
X103220000Y-106037300D01*
X105460000Y-106077300D02*
X103250000Y-106077300D01*
X105460000Y-106117300D02*
X103281000Y-106117300D01*
X105460000Y-106157300D02*
X103312000Y-106157300D01*
X105460000Y-106197300D02*
X103344000Y-106197300D01*
X105460000Y-106237300D02*
X103377000Y-106237300D01*
X105460000Y-106277300D02*
X103411000Y-106277300D01*
X105460000Y-106317300D02*
X103445000Y-106317300D01*
X105460000Y-106357300D02*
X103481000Y-106357300D01*
X107033000Y-107677300D02*
X105967000Y-107677300D01*
X107268000Y-107637300D02*
X105732000Y-107637300D01*
X107447000Y-107597300D02*
X105553000Y-107597300D01*
X107597000Y-107557300D02*
X105403000Y-107557300D01*
X107728000Y-107517300D02*
X105272000Y-107517300D01*
X107846000Y-107477300D02*
X105154000Y-107477300D01*
X107953000Y-107437300D02*
X105047000Y-107437300D01*
X108052000Y-107397300D02*
X104948000Y-107397300D01*
X108144000Y-107357300D02*
X104856000Y-107357300D01*
X108231000Y-107317300D02*
X104769000Y-107317300D01*
X108313000Y-107277300D02*
X104687000Y-107277300D01*
X108390000Y-107237300D02*
X104610000Y-107237300D01*
X108464000Y-107197300D02*
X104536000Y-107197300D01*
X108534000Y-107157300D02*
X104466000Y-107157300D01*
X108601000Y-107117300D02*
X104399000Y-107117300D01*
X108665000Y-107077300D02*
X104335000Y-107077300D01*
X108727000Y-107037300D02*
X104273000Y-107037300D01*
X108787000Y-106997300D02*
X104213000Y-106997300D01*
X108815000Y-99187602D02*
X108815000Y-99987602D01*
X108844000Y-106957300D02*
X104156000Y-106957300D01*
X108900000Y-106917300D02*
X104100000Y-106917300D01*
X108953000Y-106877300D02*
X104047000Y-106877300D01*
X109005000Y-106837300D02*
X103995000Y-106837300D01*
X109055000Y-106797300D02*
X103945000Y-106797300D01*
X109104000Y-106757300D02*
X103896000Y-106757300D01*
X109151000Y-106717300D02*
X103849000Y-106717300D01*
X109196000Y-106677300D02*
X103804000Y-106677300D01*
X109215000Y-99587602D02*
X108415000Y-99587602D01*
X109241000Y-106637300D02*
X103759000Y-106637300D01*
X109284000Y-106597300D02*
X103716000Y-106597300D01*
X109326000Y-106557300D02*
X103674000Y-106557300D01*
X109367000Y-106517300D02*
X103633000Y-106517300D01*
X109406000Y-106477300D02*
X103594000Y-106477300D01*
X109445000Y-106437300D02*
X103555000Y-106437300D01*
X109482000Y-106397300D02*
X103518000Y-106397300D01*
X109519000Y-106357300D02*
X107540000Y-106357300D01*
X109555000Y-106317300D02*
X107540000Y-106317300D01*
X109589000Y-106277300D02*
X107540000Y-106277300D01*
X109623000Y-106237300D02*
X107540000Y-106237300D01*
X109656000Y-106197300D02*
X107540000Y-106197300D01*
X109688000Y-106157300D02*
X107540000Y-106157300D01*
X109719000Y-106117300D02*
X107540000Y-106117300D01*
X109750000Y-106077300D02*
X107540000Y-106077300D01*
X109780000Y-106037300D02*
X107540000Y-106037300D01*
X109809000Y-105997300D02*
X107540000Y-105997300D01*
X109837000Y-105957300D02*
X107540000Y-105957300D01*
X109865000Y-105917300D02*
X107540000Y-105917300D01*
X109892000Y-105877300D02*
X107540000Y-105877300D01*
X109918000Y-105837300D02*
X107540000Y-105837300D01*
X109943000Y-105797300D02*
X107540000Y-105797300D01*
X109968000Y-105757300D02*
X107540000Y-105757300D01*
X109993000Y-105717300D02*
X107540000Y-105717300D01*
X110016000Y-105677300D02*
X107540000Y-105677300D01*
X110039000Y-105637300D02*
X107540000Y-105637300D01*
X110062000Y-105597300D02*
X107540000Y-105597300D01*
X110084000Y-105557300D02*
X107540000Y-105557300D01*
X110105000Y-105517300D02*
X107540000Y-105517300D01*
X110126000Y-105477300D02*
X107540000Y-105477300D01*
X110146000Y-105437300D02*
X107540000Y-105437300D01*
X110166000Y-105397300D02*
X107540000Y-105397300D01*
X110185000Y-105357300D02*
X107540000Y-105357300D01*
X110204000Y-105317300D02*
X107540000Y-105317300D01*
X110222000Y-105277300D02*
X107540000Y-105277300D01*
X110240000Y-105237300D02*
X107540000Y-105237300D01*
X110257000Y-105197300D02*
X107540000Y-105197300D01*
X110273000Y-105157300D02*
X107540000Y-105157300D01*
X110289000Y-105117300D02*
X107540000Y-105117300D01*
X110305000Y-105077300D02*
X107540000Y-105077300D01*
X110320000Y-105037300D02*
X107540000Y-105037300D01*
X110335000Y-104997300D02*
X107540000Y-104997300D01*
X110349000Y-104957300D02*
X107540000Y-104957300D01*
X110363000Y-104917300D02*
X107540000Y-104917300D01*
X110376000Y-104877300D02*
X107540000Y-104877300D01*
X110389000Y-104837300D02*
X107540000Y-104837300D01*
X110401000Y-104797300D02*
X107540000Y-104797300D01*
X110413000Y-104757300D02*
X107540000Y-104757300D01*
X110425000Y-104717300D02*
X107540000Y-104717300D01*
X110436000Y-104677300D02*
X107540000Y-104677300D01*
X110447000Y-104637300D02*
X107540000Y-104637300D01*
X110457000Y-104597300D02*
X107540000Y-104597300D01*
X110467000Y-104557300D02*
X107540000Y-104557300D01*
X110476000Y-104517300D02*
X107540000Y-104517300D01*
X110485000Y-104477300D02*
X107540000Y-104477300D01*
X110493000Y-104437300D02*
X107540000Y-104437300D01*
X110502000Y-104397300D02*
X107540000Y-104397300D01*
X110509000Y-104357300D02*
X107540000Y-104357300D01*
X110517000Y-104317300D02*
X107540000Y-104317300D01*
X110523000Y-104277300D02*
X102477000Y-104277300D01*
X110530000Y-104237300D02*
X102470000Y-104237300D01*
X110536000Y-104197300D02*
X102464000Y-104197300D01*
X110542000Y-104157300D02*
X102458000Y-104157300D01*
X110547000Y-104117300D02*
X102453000Y-104117300D01*
X110552000Y-104077300D02*
X102448000Y-104077300D01*
X110556000Y-104037300D02*
X102444000Y-104037300D01*
X110561000Y-103997300D02*
X102439000Y-103997300D01*
X110564000Y-103957300D02*
X102436000Y-103957300D01*
X110568000Y-103917300D02*
X102432000Y-103917300D01*
X110570000Y-103877300D02*
X102430000Y-103877300D01*
X110573000Y-103837300D02*
X102427000Y-103837300D01*
X110575000Y-103797300D02*
X102425000Y-103797300D01*
X110577000Y-103757300D02*
X102423000Y-103757300D01*
X110578000Y-103717300D02*
X102422000Y-103717300D01*
X110579000Y-103677300D02*
X102421000Y-103677300D01*
X110580000Y-103597300D02*
X102420000Y-103597300D01*
X110580000Y-103637300D02*
X102420000Y-103637300D01*
X110620000Y-103597300D02*
G75*
G02*
X102380000Y-103597300I-4120000J0D01*
G01*
X102380000Y-103597300D02*
G75*
G02*
X110620000Y-103597300I4120000J0D01*
G01*
%TO.C,D1*%
X61093300Y-99000000D02*
X62113300Y-99000000D01*
X66533300Y-100470000D02*
X66533300Y-97530000D01*
X66653300Y-100470000D02*
X66653300Y-97530000D01*
X66773300Y-100470000D02*
X66773300Y-97530000D01*
X68573300Y-99000000D02*
X67553300Y-99000000D01*
X62113300Y-97530000D02*
X67553300Y-97530000D01*
X67553300Y-100470000D01*
X62113300Y-100470000D01*
X62113300Y-97530000D01*
%TO.C,U2*%
X88630000Y-85940000D02*
X88630000Y-87190000D01*
X88630000Y-89190000D02*
X88630000Y-90440000D01*
X88630000Y-90440000D02*
X106530000Y-90440000D01*
X106530000Y-85940000D02*
X88630000Y-85940000D01*
X106530000Y-90440000D02*
X106530000Y-85940000D01*
X88630000Y-87190000D02*
G75*
G02*
X88630000Y-89190000I0J-1000000D01*
G01*
%TO.C,J2*%
X94380000Y-113190000D02*
X94380000Y-120810000D01*
X94380000Y-114460000D02*
X104540000Y-114460000D01*
X94380000Y-120810000D02*
X104540000Y-120810000D01*
X104540000Y-113190000D02*
X94380000Y-113190000D01*
X104540000Y-120810000D02*
X104540000Y-113190000D01*
%TO.C,R4*%
X46420000Y-104630000D02*
X46420000Y-104960000D01*
X46420000Y-107370000D02*
X46420000Y-107040000D01*
X52960000Y-104630000D02*
X46420000Y-104630000D01*
X52960000Y-104960000D02*
X52960000Y-104630000D01*
X52960000Y-107040000D02*
X52960000Y-107370000D01*
X52960000Y-107370000D02*
X46420000Y-107370000D01*
%TO.C,R1*%
X61398300Y-104130000D02*
X67938300Y-104130000D01*
X61398300Y-104460000D02*
X61398300Y-104130000D01*
X61398300Y-106540000D02*
X61398300Y-106870000D01*
X61398300Y-106870000D02*
X67938300Y-106870000D01*
X67938300Y-104130000D02*
X67938300Y-104460000D01*
X67938300Y-106870000D02*
X67938300Y-106540000D01*
%TO.C,U1*%
X71775000Y-113130000D02*
X71775000Y-120870000D01*
X71775000Y-120870000D02*
X76275000Y-120870000D01*
X73025000Y-113130000D02*
X71775000Y-113130000D01*
X76275000Y-113130000D02*
X75025000Y-113130000D01*
X76275000Y-120870000D02*
X76275000Y-113130000D01*
X75025000Y-113130000D02*
G75*
G02*
X73025000Y-113130000I-1000000J0D01*
G01*
%TO.C,L1*%
X39530000Y-67880000D02*
X74270000Y-67880000D01*
X74270000Y-83120000D01*
X39530000Y-83120000D01*
X39530000Y-67880000D01*
%TO.C,J1*%
X44380000Y-113190000D02*
X44380000Y-120810000D01*
X44380000Y-120810000D02*
X54540000Y-120810000D01*
X54540000Y-113190000D02*
X44380000Y-113190000D01*
X54540000Y-119540000D02*
X44380000Y-119540000D01*
X54540000Y-120810000D02*
X54540000Y-113190000D01*
%TD*%
M02*
