M48
; DRILL file KiCad 10.0.4 date 2026-06-26T22:16:56
; FORMAT={-:-/ absolute / metric / decimal}
; #@! TF.CreationDate,2026-06-26T22:16:56+02:00
; #@! TF.GenerationSoftware,Kicad,Pcbnew,10.0.4
; #@! TF.FileFunction,Plated,1,2,PTH
FMAT,2
METRIC
; #@! TA.AperFunction,Plated,PTH,ComponentDrill
T1C0.800
; #@! TA.AperFunction,Plated,PTH,ComponentDrill
T2C1.000
; #@! TA.AperFunction,Plated,PTH,ComponentDrill
T3C1.100
; #@! TA.AperFunction,Plated,PTH,ComponentDrill
T4C1.520
; #@! TA.AperFunction,Plated,PTH,ComponentDrill
T5C2.000
%
G90
G05
T1
X45.88Y-106.0
X53.5Y-106.0
X60.858Y-105.5
X68.478Y-105.5
X70.215Y-114.46
X70.215Y-117.0
X70.215Y-119.54
X75.797Y-105.5
X77.167Y-98.5
X77.835Y-114.46
X77.835Y-117.0
X77.835Y-119.54
X78.0Y-90.0
X81.5Y-90.0
X82.167Y-98.5
X83.417Y-105.5
X89.96Y-84.38
X89.96Y-92.0
X90.735Y-105.5
X92.5Y-84.38
X92.5Y-92.0
X95.04Y-84.38
X95.04Y-92.0
X97.58Y-84.38
X97.58Y-92.0
X98.355Y-105.5
X100.12Y-84.38
X100.12Y-92.0
X102.66Y-84.38
X102.66Y-92.0
X105.2Y-84.38
X105.2Y-92.0
X106.5Y-101.847
X106.5Y-105.347
T2
X60.462Y-117.0
X63.002Y-117.0
T3
X46.92Y-99.5
X49.46Y-99.5
X52.0Y-99.5
X59.753Y-99.0
X69.913Y-99.0
X89.42Y-99.0
X99.58Y-99.0
T4
X46.92Y-117.0
X52.0Y-117.0
X85.977Y-117.0
X91.057Y-117.0
X96.92Y-117.0
X102.0Y-117.0
T5
X42.8Y-75.5
X71.0Y-75.5
M30
