%TF.GenerationSoftware,KiCad,Pcbnew,10.0.4*%
%TF.CreationDate,2026-06-26T22:16:51+02:00*%
%TF.ProjectId,boost_v2,626f6f73-745f-4763-922e-6b696361645f,rev?*%
%TF.SameCoordinates,Original*%
%TF.FileFunction,Soldermask,Bot*%
%TF.FilePolarity,Negative*%
%FSLAX46Y46*%
G04 Gerber Fmt 4.6, Leading zero omitted, Abs format (unit mm)*
G04 Created by KiCad (PCBNEW 10.0.4) date 2026-06-26 22:16:51*
%MOMM*%
%LPD*%
G01*
G04 APERTURE LIST*
G04 Aperture macros list*
%AMRoundRect*
0 Rectangle with rounded corners*
0 $1 Rounding radius*
0 $2 $3 $4 $5 $6 $7 $8 $9 X,Y pos of 4 corners*
0 Add a 4 corners polygon primitive as box body*
4,1,4,$2,$3,$4,$5,$6,$7,$8,$9,$2,$3,0*
0 Add four circle primitives for the rounded corners*
1,1,$1+$1,$2,$3*
1,1,$1+$1,$4,$5*
1,1,$1+$1,$6,$7*
1,1,$1+$1,$8,$9*
0 Add four rect primitives between the rounded corners*
20,1,$1+$1,$2,$3,$4,$5,0*
20,1,$1+$1,$4,$5,$6,$7,0*
20,1,$1+$1,$6,$7,$8,$9,0*
20,1,$1+$1,$8,$9,$2,$3,0*%
G04 Aperture macros list end*
%ADD10RoundRect,0.250000X-0.550000X-0.550000X0.550000X-0.550000X0.550000X0.550000X-0.550000X0.550000X0*%
%ADD11C,1.600000*%
%ADD12R,1.700000X2.000000*%
%ADD13O,1.700000X2.000000*%
%ADD14R,1.700000X1.700000*%
%ADD15C,1.700000*%
%ADD16RoundRect,0.249999X-0.850001X-0.850001X0.850001X-0.850001X0.850001X0.850001X-0.850001X0.850001X0*%
%ADD17C,2.200000*%
%ADD18R,3.000000X3.000000*%
%ADD19C,3.000000*%
%ADD20RoundRect,0.250000X-0.550000X0.550000X-0.550000X-0.550000X0.550000X-0.550000X0.550000X0.550000X0*%
%ADD21RoundRect,0.249999X0.850001X0.850001X-0.850001X0.850001X-0.850001X-0.850001X0.850001X-0.850001X0*%
%ADD22RoundRect,0.250000X0.550000X-0.950000X0.550000X0.950000X-0.550000X0.950000X-0.550000X-0.950000X0*%
%ADD23O,1.600000X2.400000*%
%ADD24RoundRect,0.250000X-0.950000X-0.550000X0.950000X-0.550000X0.950000X0.550000X-0.950000X0.550000X0*%
%ADD25O,2.400000X1.600000*%
%ADD26C,4.000000*%
G04 APERTURE END LIST*
D10*
%TO.C,C2*%
X78000000Y-90000000D03*
D11*
X81500000Y-90000000D03*
%TD*%
D12*
%TO.C,M1*%
X52000000Y-99500000D03*
D13*
X49460000Y-99500000D03*
X46920000Y-99500000D03*
%TD*%
D11*
%TO.C,R3*%
X90735000Y-105500000D03*
X98355000Y-105500000D03*
%TD*%
D14*
%TO.C,J3*%
X60462500Y-117000000D03*
D15*
X63002500Y-117000000D03*
%TD*%
D16*
%TO.C,D2*%
X89420000Y-99000000D03*
D17*
X99580000Y-99000000D03*
%TD*%
D11*
%TO.C,C3*%
X77166700Y-98500000D03*
X82166700Y-98500000D03*
%TD*%
%TO.C,R2*%
X75796700Y-105500000D03*
X83416700Y-105500000D03*
%TD*%
D18*
%TO.C,J4*%
X85977500Y-117000000D03*
D19*
X91057500Y-117000000D03*
%TD*%
D20*
%TO.C,C1*%
X106500000Y-101847300D03*
D11*
X106500000Y-105347300D03*
%TD*%
D21*
%TO.C,D1*%
X69913300Y-99000000D03*
D17*
X59753300Y-99000000D03*
%TD*%
D22*
%TO.C,U2*%
X89960000Y-92000000D03*
D23*
X92500000Y-92000000D03*
X95040000Y-92000000D03*
X97580000Y-92000000D03*
X100120000Y-92000000D03*
X102660000Y-92000000D03*
X105200000Y-92000000D03*
X105200000Y-84380000D03*
X102660000Y-84380000D03*
X100120000Y-84380000D03*
X97580000Y-84380000D03*
X95040000Y-84380000D03*
X92500000Y-84380000D03*
X89960000Y-84380000D03*
%TD*%
D18*
%TO.C,J2*%
X102000000Y-117000000D03*
D19*
X96920000Y-117000000D03*
%TD*%
D11*
%TO.C,R4*%
X53500000Y-106000000D03*
X45880000Y-106000000D03*
%TD*%
%TO.C,R1*%
X60858300Y-105500000D03*
X68478300Y-105500000D03*
%TD*%
D24*
%TO.C,U1*%
X70215000Y-114460000D03*
D25*
X70215000Y-117000000D03*
X70215000Y-119540000D03*
X77835000Y-119540000D03*
X77835000Y-117000000D03*
X77835000Y-114460000D03*
%TD*%
D26*
%TO.C,L1*%
X42800000Y-75500000D03*
X71000000Y-75500000D03*
%TD*%
D18*
%TO.C,J1*%
X46920000Y-117000000D03*
D19*
X52000000Y-117000000D03*
%TD*%
M02*
