%TF.GenerationSoftware,KiCad,Pcbnew,10.0.4*%
%TF.CreationDate,2026-06-26T22:16:51+02:00*%
%TF.ProjectId,boost_v2,626f6f73-745f-4763-922e-6b696361645f,rev?*%
%TF.SameCoordinates,Original*%
%TF.FileFunction,Copper,L2,Bot*%
%TF.FilePolarity,Positive*%
%FSLAX46Y46*%
G04 Gerber Fmt 4.6, Leading zero omitted, Abs format (unit mm)*
G04 Created by KiCad (PCBNEW 10.0.4) date 2026-06-26 22:16:51*
%MOMM*%
%LPD*%
G01*
G04 APERTURE LIST*
G04 Aperture macros list*
%AMRoundRect*
0 Rectangle with rounded corners*
0 $1 Rounding radius*
0 $2 $3 $4 $5 $6 $7 $8 $9 X,Y pos of 4 corners*
0 Add a 4 corners polygon primitive as box body*
4,1,4,$2,$3,$4,$5,$6,$7,$8,$9,$2,$3,0*
0 Add four circle primitives for the rounded corners*
1,1,$1+$1,$2,$3*
1,1,$1+$1,$4,$5*
1,1,$1+$1,$6,$7*
1,1,$1+$1,$8,$9*
0 Add four rect primitives between the rounded corners*
20,1,$1+$1,$2,$3,$4,$5,0*
20,1,$1+$1,$4,$5,$6,$7,0*
20,1,$1+$1,$6,$7,$8,$9,0*
20,1,$1+$1,$8,$9,$2,$3,0*%
G04 Aperture macros list end*
%TA.AperFunction,ComponentPad*%
%ADD10RoundRect,0.250000X-0.550000X-0.550000X0.550000X-0.550000X0.550000X0.550000X-0.550000X0.550000X0*%
%TD*%
%TA.AperFunction,ComponentPad*%
%ADD11C,1.600000*%
%TD*%
%TA.AperFunction,ComponentPad*%
%ADD12R,1.700000X2.000000*%
%TD*%
%TA.AperFunction,ComponentPad*%
%ADD13O,1.700000X2.000000*%
%TD*%
%TA.AperFunction,ComponentPad*%
%ADD14R,1.700000X1.700000*%
%TD*%
%TA.AperFunction,ComponentPad*%
%ADD15C,1.700000*%
%TD*%
%TA.AperFunction,ComponentPad*%
%ADD16RoundRect,0.249999X-0.850001X-0.850001X0.850001X-0.850001X0.850001X0.850001X-0.850001X0.850001X0*%
%TD*%
%TA.AperFunction,ComponentPad*%
%ADD17C,2.200000*%
%TD*%
%TA.AperFunction,ComponentPad*%
%ADD18R,3.000000X3.000000*%
%TD*%
%TA.AperFunction,ComponentPad*%
%ADD19C,3.000000*%
%TD*%
%TA.AperFunction,ComponentPad*%
%ADD20RoundRect,0.250000X-0.550000X0.550000X-0.550000X-0.550000X0.550000X-0.550000X0.550000X0.550000X0*%
%TD*%
%TA.AperFunction,ComponentPad*%
%ADD21RoundRect,0.249999X0.850001X0.850001X-0.850001X0.850001X-0.850001X-0.850001X0.850001X-0.850001X0*%
%TD*%
%TA.AperFunction,ComponentPad*%
%ADD22RoundRect,0.250000X0.550000X-0.950000X0.550000X0.950000X-0.550000X0.950000X-0.550000X-0.950000X0*%
%TD*%
%TA.AperFunction,ComponentPad*%
%ADD23O,1.600000X2.400000*%
%TD*%
%TA.AperFunction,ComponentPad*%
%ADD24RoundRect,0.250000X-0.950000X-0.550000X0.950000X-0.550000X0.950000X0.550000X-0.950000X0.550000X0*%
%TD*%
%TA.AperFunction,ComponentPad*%
%ADD25O,2.400000X1.600000*%
%TD*%
%TA.AperFunction,ComponentPad*%
%ADD26C,4.000000*%
%TD*%
%TA.AperFunction,Conductor*%
%ADD27C,1.000000*%
%TD*%
G04 APERTURE END LIST*
D10*
%TO.P,C2,1*%
%TO.N,+15V*%
X78000000Y-90000000D03*
D11*
%TO.P,C2,2*%
%TO.N,GND*%
X81500000Y-90000000D03*
%TD*%
D12*
%TO.P,M1,1*%
%TO.N,GATE*%
X52000000Y-99500000D03*
D13*
%TO.P,M1,2*%
%TO.N,/SW*%
X49460000Y-99500000D03*
%TO.P,M1,3*%
%TO.N,GND*%
X46920000Y-99500000D03*
%TD*%
D11*
%TO.P,R3,1*%
%TO.N,/LO*%
X90735000Y-105500000D03*
%TO.P,R3,2*%
%TO.N,GATE*%
X98355000Y-105500000D03*
%TD*%
D14*
%TO.P,J3,1*%
%TO.N,PWM*%
X60462500Y-117000000D03*
D15*
%TO.P,J3,2*%
%TO.N,GND_MCU*%
X63002500Y-117000000D03*
%TD*%
D16*
%TO.P,D2,1*%
%TO.N,/LO*%
X89420000Y-99000000D03*
D17*
%TO.P,D2,2*%
%TO.N,GATE*%
X99580000Y-99000000D03*
%TD*%
D11*
%TO.P,C3,1*%
%TO.N,+15V*%
X77166700Y-98500000D03*
%TO.P,C3,2*%
%TO.N,GND*%
X82166700Y-98500000D03*
%TD*%
%TO.P,R2,1*%
%TO.N,/LIN*%
X75796700Y-105500000D03*
%TO.P,R2,2*%
%TO.N,GND*%
X83416700Y-105500000D03*
%TD*%
D18*
%TO.P,J4,1*%
%TO.N,+15V*%
X85977500Y-117000000D03*
D19*
%TO.P,J4,2*%
%TO.N,GND*%
X91057500Y-117000000D03*
%TD*%
D20*
%TO.P,C1,1*%
%TO.N,VOUT_V2*%
X106500000Y-101847300D03*
D11*
%TO.P,C1,2*%
%TO.N,GND*%
X106500000Y-105347300D03*
%TD*%
D21*
%TO.P,D1,1*%
%TO.N,VOUT_V2*%
X69913300Y-99000000D03*
D17*
%TO.P,D1,2*%
%TO.N,/SW*%
X59753300Y-99000000D03*
%TD*%
D22*
%TO.P,U2,1*%
%TO.N,/LO*%
X89960000Y-92000000D03*
D23*
%TO.P,U2,2*%
%TO.N,GND*%
X92500000Y-92000000D03*
%TO.P,U2,3*%
%TO.N,+15V*%
X95040000Y-92000000D03*
%TO.P,U2,4*%
%TO.N,N/C*%
X97580000Y-92000000D03*
%TO.P,U2,5*%
%TO.N,GND*%
X100120000Y-92000000D03*
%TO.P,U2,6*%
%TO.N,N/C*%
X102660000Y-92000000D03*
%TO.P,U2,7*%
X105200000Y-92000000D03*
%TO.P,U2,8*%
X105200000Y-84380000D03*
%TO.P,U2,9*%
%TO.N,+15V*%
X102660000Y-84380000D03*
%TO.P,U2,10*%
%TO.N,GND*%
X100120000Y-84380000D03*
%TO.P,U2,11*%
X97580000Y-84380000D03*
%TO.P,U2,12*%
%TO.N,/LIN*%
X95040000Y-84380000D03*
%TO.P,U2,13*%
%TO.N,GND*%
X92500000Y-84380000D03*
%TO.P,U2,14*%
%TO.N,N/C*%
X89960000Y-84380000D03*
%TD*%
D18*
%TO.P,J2,1*%
%TO.N,VOUT_V2*%
X102000000Y-117000000D03*
D19*
%TO.P,J2,2*%
%TO.N,GND*%
X96920000Y-117000000D03*
%TD*%
D11*
%TO.P,R4,1*%
%TO.N,GATE*%
X53500000Y-106000000D03*
%TO.P,R4,2*%
%TO.N,GND*%
X45880000Y-106000000D03*
%TD*%
%TO.P,R1,1*%
%TO.N,PWM*%
X60858300Y-105500000D03*
%TO.P,R1,2*%
%TO.N,/OPTO_A*%
X68478300Y-105500000D03*
%TD*%
D24*
%TO.P,U1,1*%
%TO.N,/OPTO_A*%
X70215000Y-114460000D03*
D25*
%TO.P,U1,2*%
%TO.N,GND_MCU*%
X70215000Y-117000000D03*
%TO.P,U1,3*%
%TO.N,N/C*%
X70215000Y-119540000D03*
%TO.P,U1,4*%
%TO.N,/LIN*%
X77835000Y-119540000D03*
%TO.P,U1,5*%
%TO.N,+15V*%
X77835000Y-117000000D03*
%TO.P,U1,6*%
%TO.N,N/C*%
X77835000Y-114460000D03*
%TD*%
D26*
%TO.P,L1,1*%
%TO.N,VIN_5V*%
X42800000Y-75500000D03*
%TO.P,L1,2*%
%TO.N,/SW*%
X71000000Y-75500000D03*
%TD*%
D18*
%TO.P,J1,1*%
%TO.N,VIN_5V*%
X46920000Y-117000000D03*
D19*
%TO.P,J1,2*%
%TO.N,GND*%
X52000000Y-117000000D03*
%TD*%
%TO.N,+15V*%
D27*
X80346700Y-117000000D02*
X85977500Y-117000000D01*
X102660000Y-84380000D02*
X102660000Y-86881700D01*
X77166700Y-98500000D02*
X78000000Y-98500000D01*
X78000000Y-90527800D02*
X80634400Y-87893400D01*
X95040000Y-92000000D02*
X95040000Y-89498300D01*
X78000000Y-98500000D02*
X78000000Y-90901500D01*
X80346700Y-100846700D02*
X78000000Y-98500000D01*
X100043400Y-89498300D02*
X95040000Y-89498300D01*
X80634400Y-87893400D02*
X91867600Y-87893400D01*
X77835000Y-117000000D02*
X80346700Y-117000000D01*
X91867600Y-87893400D02*
X93472500Y-89498300D01*
X78000000Y-90901500D02*
X78000000Y-90527800D01*
X102660000Y-86881700D02*
X100043400Y-89498300D01*
X93472500Y-89498300D02*
X95040000Y-89498300D01*
X80346700Y-117000000D02*
X80346700Y-100846700D01*
X78000000Y-90901500D02*
X78000000Y-90000000D01*
%TO.N,/LIN*%
X75333300Y-119540000D02*
X75333300Y-105963400D01*
X75333300Y-105963400D02*
X75796700Y-105500000D01*
X75026600Y-104729900D02*
X75796700Y-105500000D01*
X82787800Y-81878300D02*
X75026600Y-89639500D01*
X95040000Y-84380000D02*
X95040000Y-81878300D01*
X75026600Y-89639500D02*
X75026600Y-104729900D01*
X95040000Y-81878300D02*
X82787800Y-81878300D01*
X77835000Y-119540000D02*
X75333300Y-119540000D01*
%TO.N,/LO*%
X89420000Y-104185000D02*
X89420000Y-99000000D01*
X89960000Y-98460000D02*
X89960000Y-92000000D01*
X90735000Y-105500000D02*
X89420000Y-104185000D01*
X89420000Y-99000000D02*
X89960000Y-98460000D01*
%TO.N,/OPTO_A*%
X70215000Y-107236700D02*
X70215000Y-114460000D01*
X68478300Y-105500000D02*
X70215000Y-107236700D01*
%TO.N,/SW*%
X57952300Y-97199000D02*
X59753300Y-99000000D01*
X49460000Y-97588000D02*
X49849000Y-97199000D01*
X59753300Y-97648300D02*
X59753300Y-99000000D01*
X49849000Y-97199000D02*
X57952300Y-97199000D01*
X49460000Y-99500000D02*
X49460000Y-97588000D01*
X59753300Y-86746700D02*
X71000000Y-75500000D01*
X59753300Y-97648300D02*
X59753300Y-86746700D01*
%TO.N,GATE*%
X52000000Y-103000000D02*
X52000000Y-104500000D01*
X52000000Y-103000000D02*
X72500000Y-103000000D01*
X52000000Y-99500000D02*
X52000000Y-103000000D01*
X110500000Y-93253700D02*
X104753700Y-99000000D01*
X52000000Y-104500000D02*
X53500000Y-106000000D01*
X108077300Y-80077300D02*
X110500000Y-82500000D01*
X99580000Y-104275000D02*
X99580000Y-99000000D01*
X79422700Y-80077300D02*
X108077300Y-80077300D01*
X104753700Y-99000000D02*
X99580000Y-99000000D01*
X110500000Y-82500000D02*
X110500000Y-93253700D01*
X72500000Y-103000000D02*
X73225600Y-102274400D01*
X73225600Y-102274400D02*
X73225600Y-86274400D01*
X73225600Y-86274400D02*
X79422700Y-80077300D01*
X98355000Y-105500000D02*
X99580000Y-104275000D01*
%TO.N,GND*%
X46920000Y-104960000D02*
X45880000Y-106000000D01*
X106069563Y-81878300D02*
X107301000Y-83109737D01*
X81500000Y-97833300D02*
X82166700Y-98500000D01*
X97580000Y-84380000D02*
X97580000Y-81878300D01*
X86392200Y-121665300D02*
X56665300Y-121665300D01*
X97580000Y-84380000D02*
X97580000Y-86881700D01*
X52000000Y-112120000D02*
X52000000Y-117000000D01*
X106500000Y-105347300D02*
X106500000Y-117349800D01*
X91057500Y-117000000D02*
X86392200Y-121665300D01*
X97580000Y-86881700D02*
X94136500Y-86881700D01*
X92852100Y-101104900D02*
X92852100Y-101311900D01*
X99740400Y-119820400D02*
X96920000Y-117000000D01*
X107301000Y-83109737D02*
X107301000Y-93270263D01*
X91057500Y-113140800D02*
X91057500Y-117000000D01*
X92852100Y-101311900D02*
X92852100Y-117000000D01*
X97580000Y-81878300D02*
X100120000Y-81878300D01*
X106500000Y-117349800D02*
X104029400Y-119820400D01*
X45880000Y-106000000D02*
X52000000Y-112120000D01*
X56665300Y-121665300D02*
X52000000Y-117000000D01*
X107301000Y-93270263D02*
X106069563Y-94501700D01*
X93204200Y-94501700D02*
X92852100Y-94853800D01*
X92500000Y-92000000D02*
X92500000Y-94501700D01*
X94136500Y-86881700D02*
X92500000Y-85245200D01*
X83416700Y-105500000D02*
X91057500Y-113140800D01*
X100120000Y-81878300D02*
X106069563Y-81878300D01*
X82166700Y-104250000D02*
X83416700Y-105500000D01*
X100120000Y-92000000D02*
X100120000Y-94501700D01*
X46920000Y-99500000D02*
X46920000Y-104960000D01*
X92500000Y-94501700D02*
X92852100Y-94853800D01*
X92852100Y-117000000D02*
X96920000Y-117000000D01*
X91057500Y-117000000D02*
X92852100Y-117000000D01*
X82166700Y-98500000D02*
X82166700Y-104250000D01*
X92852100Y-94853800D02*
X92852100Y-101104900D01*
X104029400Y-119820400D02*
X99740400Y-119820400D01*
X92500000Y-85245200D02*
X92500000Y-84380000D01*
X106069563Y-94501700D02*
X100120000Y-94501700D01*
X100120000Y-94501700D02*
X93204200Y-94501700D01*
X100120000Y-84380000D02*
X100120000Y-81878300D01*
X81500000Y-90000000D02*
X81500000Y-97833300D01*
%TO.N,GND_MCU*%
X63002500Y-117000000D02*
X70215000Y-117000000D01*
%TO.N,PWM*%
X60462500Y-105895800D02*
X60858300Y-105500000D01*
X60462500Y-117000000D02*
X60462500Y-105895800D01*
%TO.N,VIN_5V*%
X46920000Y-117000000D02*
X46920000Y-114198300D01*
X42800000Y-110078300D02*
X46920000Y-114198300D01*
X42800000Y-75500000D02*
X42800000Y-110078300D01*
%TO.N,VOUT_V2*%
X102000000Y-106347300D02*
X106500000Y-101847300D01*
X113000000Y-76500000D02*
X76500000Y-76500000D01*
X69913300Y-83086700D02*
X69913300Y-99000000D01*
X113000000Y-95347300D02*
X113000000Y-76500000D01*
X76500000Y-76500000D02*
X69913300Y-83086700D01*
X102000000Y-117000000D02*
X102000000Y-106347300D01*
X106500000Y-101847300D02*
X113000000Y-95347300D01*
%TD*%
%TA.AperFunction,NonConductor*%
G36*
X115942539Y-56520185D02*
G01*
X115988294Y-56572989D01*
X115999500Y-56624500D01*
X115999500Y-124875500D01*
X115979815Y-124942539D01*
X115927011Y-124988294D01*
X115875500Y-124999500D01*
X34124500Y-124999500D01*
X34057461Y-124979815D01*
X34011706Y-124927011D01*
X34000500Y-124875500D01*
X34000500Y-75342722D01*
X39999500Y-75342722D01*
X39999500Y-75657277D01*
X40034716Y-75969827D01*
X40034718Y-75969843D01*
X40104710Y-76276499D01*
X40104711Y-76276501D01*
X40208598Y-76573395D01*
X40345072Y-76856786D01*
X40345074Y-76856789D01*
X40512423Y-77123123D01*
X40708539Y-77369044D01*
X40930956Y-77591461D01*
X41176877Y-77787577D01*
X41441472Y-77953833D01*
X41487763Y-78006168D01*
X41499500Y-78058827D01*
X41499500Y-110180651D01*
X41531522Y-110382834D01*
X41594781Y-110577523D01*
X41641246Y-110668714D01*
X41687713Y-110759911D01*
X41808034Y-110925519D01*
X41808035Y-110925520D01*
X41808036Y-110925521D01*
X45378985Y-114496469D01*
X45412470Y-114557792D01*
X45407486Y-114627484D01*
X45365614Y-114683417D01*
X45305188Y-114707370D01*
X45240749Y-114714630D01*
X45240745Y-114714631D01*
X45070476Y-114774211D01*
X44917737Y-114870184D01*
X44790184Y-114997737D01*
X44694211Y-115150476D01*
X44634631Y-115320745D01*
X44634630Y-115320750D01*
X44619500Y-115455039D01*
X44619500Y-118544960D01*
X44634630Y-118679249D01*
X44634631Y-118679254D01*
X44694211Y-118849523D01*
X44736547Y-118916900D01*
X44790184Y-119002262D01*
X44917738Y-119129816D01*
X45070478Y-119225789D01*
X45171500Y-119261138D01*
X45240745Y-119285368D01*
X45240750Y-119285369D01*
X45331246Y-119295565D01*
X45375040Y-119300499D01*
X45375043Y-119300500D01*
X45375046Y-119300500D01*
X48464957Y-119300500D01*
X48464958Y-119300499D01*
X48532104Y-119292934D01*
X48599249Y-119285369D01*
X48599252Y-119285368D01*
X48599255Y-119285368D01*
X48769522Y-119225789D01*
X48922262Y-119129816D01*
X49049816Y-119002262D01*
X49145789Y-118849522D01*
X49205368Y-118679255D01*
X49220500Y-118544954D01*
X49220500Y-115455046D01*
X49205368Y-115320745D01*
X49145789Y-115150478D01*
X49049816Y-114997738D01*
X48922262Y-114870184D01*
X48837482Y-114816913D01*
X48769523Y-114774211D01*
X48599254Y-114714631D01*
X48599249Y-114714630D01*
X48464960Y-114699500D01*
X48464954Y-114699500D01*
X48344500Y-114699500D01*
X48277461Y-114679815D01*
X48231706Y-114627011D01*
X48220500Y-114575500D01*
X48220500Y-114095948D01*
X48188477Y-113893769D01*
X48188477Y-113893768D01*
X48188477Y-113893766D01*
X48168018Y-113830801D01*
X48156848Y-113796423D01*
X48156848Y-113796422D01*
X48125222Y-113699086D01*
X48125220Y-113699080D01*
X48049745Y-113550954D01*
X48046360Y-113544310D01*
X48032287Y-113516689D01*
X47960108Y-113417344D01*
X47958774Y-113415507D01*
X47958762Y-113415490D01*
X47911969Y-113351085D01*
X47911968Y-113351084D01*
X47911966Y-113351081D01*
X47767219Y-113206334D01*
X47767218Y-113206333D01*
X47764107Y-113203222D01*
X47764092Y-113203208D01*
X44136819Y-109575934D01*
X44103334Y-109514611D01*
X44100500Y-109488253D01*
X44100500Y-106485494D01*
X44120185Y-106418455D01*
X44172989Y-106372700D01*
X44242147Y-106362756D01*
X44305703Y-106391781D01*
X44342431Y-106447175D01*
X44396760Y-106614383D01*
X44475413Y-106768747D01*
X44508152Y-106833001D01*
X44511132Y-106838848D01*
X44659201Y-107042649D01*
X44659205Y-107042654D01*
X44837345Y-107220794D01*
X44837350Y-107220798D01*
X45015117Y-107349952D01*
X45041155Y-107368870D01*
X45184184Y-107441747D01*
X45265616Y-107483239D01*
X45265618Y-107483239D01*
X45265621Y-107483241D01*
X45394049Y-107524970D01*
X45505214Y-107561090D01*
X45544439Y-107567302D01*
X45580306Y-107572983D01*
X45643441Y-107602912D01*
X45648590Y-107607775D01*
X50663181Y-112622366D01*
X50696666Y-112683689D01*
X50699500Y-112710047D01*
X50699500Y-115037040D01*
X50679815Y-115104079D01*
X50650987Y-115135416D01*
X50479914Y-115266685D01*
X50266685Y-115479914D01*
X50266679Y-115479921D01*
X50083099Y-115719168D01*
X49932318Y-115980328D01*
X49932314Y-115980338D01*
X49816913Y-116258939D01*
X49738861Y-116550233D01*
X49699501Y-116849206D01*
X49699500Y-116849223D01*
X49699500Y-117150776D01*
X49699501Y-117150793D01*
X49738861Y-117449766D01*
X49816913Y-117741060D01*
X49932314Y-118019661D01*
X49932318Y-118019671D01*
X50083099Y-118280831D01*
X50266679Y-118520078D01*
X50266685Y-118520085D01*
X50479914Y-118733314D01*
X50479921Y-118733320D01*
X50719168Y-118916900D01*
X50980328Y-119067681D01*
X50980329Y-119067681D01*
X50980332Y-119067683D01*
X51166072Y-119144619D01*
X51258939Y-119183086D01*
X51258940Y-119183086D01*
X51258942Y-119183087D01*
X51550232Y-119261138D01*
X51849217Y-119300500D01*
X51849224Y-119300500D01*
X52150776Y-119300500D01*
X52150783Y-119300500D01*
X52364564Y-119272354D01*
X52433596Y-119283119D01*
X52468428Y-119307612D01*
X55670208Y-122509392D01*
X55670222Y-122509407D01*
X55673333Y-122512518D01*
X55673334Y-122512519D01*
X55818081Y-122657266D01*
X55818084Y-122657268D01*
X55818088Y-122657272D01*
X55968268Y-122766382D01*
X55983690Y-122777587D01*
X56070535Y-122821837D01*
X56166081Y-122870521D01*
X56166084Y-122870522D01*
X56268071Y-122903659D01*
X56360766Y-122933777D01*
X56562949Y-122965801D01*
X56562950Y-122965801D01*
X56772763Y-122965801D01*
X56772787Y-122965800D01*
X86494551Y-122965800D01*
X86494552Y-122965800D01*
X86696735Y-122933777D01*
X86794076Y-122902148D01*
X86891419Y-122870520D01*
X86982614Y-122824053D01*
X87073811Y-122777587D01*
X87239419Y-122657266D01*
X90589072Y-119307610D01*
X90650393Y-119274127D01*
X90692932Y-119272354D01*
X90893908Y-119298813D01*
X90906701Y-119300498D01*
X90906717Y-119300500D01*
X90906724Y-119300500D01*
X91208276Y-119300500D01*
X91208283Y-119300500D01*
X91507268Y-119261138D01*
X91798558Y-119183087D01*
X92077168Y-119067683D01*
X92338332Y-118916900D01*
X92577580Y-118733319D01*
X92790819Y-118520080D01*
X92922082Y-118349013D01*
X92978510Y-118307811D01*
X93020458Y-118300500D01*
X94957042Y-118300500D01*
X95024081Y-118320185D01*
X95055418Y-118349014D01*
X95186679Y-118520078D01*
X95186685Y-118520085D01*
X95399914Y-118733314D01*
X95399921Y-118733320D01*
X95639168Y-118916900D01*
X95900328Y-119067681D01*
X95900329Y-119067681D01*
X95900332Y-119067683D01*
X96086072Y-119144619D01*
X96178939Y-119183086D01*
X96178940Y-119183086D01*
X96178942Y-119183087D01*
X96470232Y-119261138D01*
X96769217Y-119300500D01*
X96769224Y-119300500D01*
X97070776Y-119300500D01*
X97070783Y-119300500D01*
X97284563Y-119272354D01*
X97353595Y-119283119D01*
X97388427Y-119307612D01*
X98893181Y-120812366D01*
X99058789Y-120932687D01*
X99149985Y-120979153D01*
X99241181Y-121025620D01*
X99338523Y-121057248D01*
X99435865Y-121088877D01*
X99638048Y-121120900D01*
X99638049Y-121120900D01*
X104131751Y-121120900D01*
X104131752Y-121120900D01*
X104333935Y-121088877D01*
X104431276Y-121057248D01*
X104528619Y-121025620D01*
X104619814Y-120979153D01*
X104711011Y-120932687D01*
X104876619Y-120812366D01*
X107491966Y-118197019D01*
X107612287Y-118031411D01*
X107697051Y-117865051D01*
X107705220Y-117849019D01*
X107759614Y-117681611D01*
X107768477Y-117654335D01*
X107800500Y-117452152D01*
X107800500Y-117247448D01*
X107800500Y-106320537D01*
X107820185Y-106253498D01*
X107824168Y-106247670D01*
X107868870Y-106186145D01*
X107983241Y-105961679D01*
X108061090Y-105722085D01*
X108100500Y-105473262D01*
X108100500Y-105221338D01*
X108061090Y-104972515D01*
X107983241Y-104732921D01*
X107983239Y-104732918D01*
X107983239Y-104732916D01*
X107916712Y-104602351D01*
X107868870Y-104508455D01*
X107817227Y-104437374D01*
X107720798Y-104304650D01*
X107720794Y-104304645D01*
X107542654Y-104126505D01*
X107542649Y-104126501D01*
X107338848Y-103978432D01*
X107338847Y-103978431D01*
X107338845Y-103978430D01*
X107261281Y-103938909D01*
X107114383Y-103864060D01*
X106874785Y-103786210D01*
X106789070Y-103772634D01*
X106705519Y-103759400D01*
X106694141Y-103754007D01*
X106681584Y-103753109D01*
X106663171Y-103739325D01*
X106642385Y-103729472D01*
X106635729Y-103718783D01*
X106625650Y-103711238D01*
X106617611Y-103689685D01*
X106605454Y-103670160D01*
X106605633Y-103657570D01*
X106601234Y-103645773D01*
X106606123Y-103623296D01*
X106606452Y-103600298D01*
X106613764Y-103588171D01*
X106616086Y-103577500D01*
X106637231Y-103549253D01*
X106702368Y-103484116D01*
X106763690Y-103450634D01*
X106790047Y-103447800D01*
X107101605Y-103447800D01*
X107101608Y-103447800D01*
X107255934Y-103432600D01*
X107453954Y-103372532D01*
X107636450Y-103274985D01*
X107796410Y-103143710D01*
X107927685Y-102983750D01*
X108025232Y-102801254D01*
X108085300Y-102603234D01*
X108100500Y-102448908D01*
X108100500Y-102137347D01*
X108120185Y-102070308D01*
X108136819Y-102049666D01*
X111062797Y-99123688D01*
X113991966Y-96194519D01*
X114112287Y-96028911D01*
X114178734Y-95898500D01*
X114205220Y-95846519D01*
X114236848Y-95749176D01*
X114268477Y-95651835D01*
X114300500Y-95449652D01*
X114300500Y-95244949D01*
X114300500Y-76397648D01*
X114268477Y-76195466D01*
X114205220Y-76000781D01*
X114205218Y-76000778D01*
X114205218Y-76000776D01*
X114171503Y-75934607D01*
X114112287Y-75818390D01*
X114104556Y-75807749D01*
X113991971Y-75652786D01*
X113847213Y-75508028D01*
X113681613Y-75387715D01*
X113681612Y-75387714D01*
X113681610Y-75387713D01*
X113624653Y-75358691D01*
X113499223Y-75294781D01*
X113304534Y-75231522D01*
X113129995Y-75203878D01*
X113102352Y-75199500D01*
X76397648Y-75199500D01*
X76373329Y-75203351D01*
X76195465Y-75231522D01*
X76000776Y-75294781D01*
X75862280Y-75365349D01*
X75818390Y-75387713D01*
X75818389Y-75387714D01*
X75810491Y-75393452D01*
X75810490Y-75393451D01*
X75810490Y-75393452D01*
X75652786Y-75508028D01*
X68921336Y-82239478D01*
X68921331Y-82239484D01*
X68801016Y-82405084D01*
X68801006Y-82405101D01*
X68789276Y-82428124D01*
X68789275Y-82428127D01*
X68708081Y-82587476D01*
X68644822Y-82782165D01*
X68612800Y-82984348D01*
X68612800Y-97125324D01*
X68593115Y-97192363D01*
X68547255Y-97234681D01*
X68476847Y-97272315D01*
X68316889Y-97403589D01*
X68185617Y-97563545D01*
X68088069Y-97746042D01*
X68027999Y-97944066D01*
X68019133Y-98034094D01*
X68013522Y-98091066D01*
X68012800Y-98098394D01*
X68012800Y-99901604D01*
X68027999Y-100055932D01*
X68028000Y-100055935D01*
X68088068Y-100253955D01*
X68183203Y-100431939D01*
X68185617Y-100436454D01*
X68316889Y-100596410D01*
X68456335Y-100710850D01*
X68476849Y-100727685D01*
X68659345Y-100825232D01*
X68857365Y-100885300D01*
X68857364Y-100885300D01*
X68868268Y-100886373D01*
X69011691Y-100900500D01*
X70814908Y-100900499D01*
X70969235Y-100885300D01*
X71167255Y-100825232D01*
X71349751Y-100727685D01*
X71509710Y-100596410D01*
X71640985Y-100436451D01*
X71691743Y-100341489D01*
X71740705Y-100291647D01*
X71808842Y-100276187D01*
X71874522Y-100300019D01*
X71916891Y-100355577D01*
X71925100Y-100399945D01*
X71925100Y-101575500D01*
X71905415Y-101642539D01*
X71852611Y-101688294D01*
X71801100Y-101699500D01*
X53424500Y-101699500D01*
X53357461Y-101679815D01*
X53311706Y-101627011D01*
X53300500Y-101575500D01*
X53300500Y-101230809D01*
X53320185Y-101163770D01*
X53347191Y-101133859D01*
X53352252Y-101129821D01*
X53352262Y-101129816D01*
X53479816Y-101002262D01*
X53575789Y-100849522D01*
X53635368Y-100679255D01*
X53650500Y-100544954D01*
X53650500Y-98623500D01*
X53670185Y-98556461D01*
X53722989Y-98510706D01*
X53774500Y-98499500D01*
X57362253Y-98499500D01*
X57429292Y-98519185D01*
X57449934Y-98535819D01*
X57816481Y-98902365D01*
X57849966Y-98963688D01*
X57852800Y-98990046D01*
X57852800Y-99124558D01*
X57852801Y-99124575D01*
X57885317Y-99371561D01*
X57949798Y-99612207D01*
X58045130Y-99842361D01*
X58045137Y-99842376D01*
X58169700Y-100058126D01*
X58321360Y-100255774D01*
X58321366Y-100255781D01*
X58497518Y-100431933D01*
X58497525Y-100431939D01*
X58695173Y-100583599D01*
X58910923Y-100708162D01*
X58910938Y-100708169D01*
X58999036Y-100744660D01*
X59141093Y-100803502D01*
X59381735Y-100867982D01*
X59628735Y-100900500D01*
X59628742Y-100900500D01*
X59877858Y-100900500D01*
X59877865Y-100900500D01*
X60124865Y-100867982D01*
X60365507Y-100803502D01*
X60595673Y-100708164D01*
X60811427Y-100583599D01*
X61009076Y-100431938D01*
X61185238Y-100255776D01*
X61336899Y-100058127D01*
X61461464Y-99842373D01*
X61556802Y-99612207D01*
X61621282Y-99371565D01*
X61653800Y-99124565D01*
X61653800Y-98875435D01*
X61621282Y-98628435D01*
X61556802Y-98387793D01*
X61461464Y-98157627D01*
X61450035Y-98137832D01*
X61336899Y-97941873D01*
X61185239Y-97744225D01*
X61185233Y-97744218D01*
X61090119Y-97649104D01*
X61056634Y-97587781D01*
X61053800Y-97561423D01*
X61053800Y-87336745D01*
X61073485Y-87269706D01*
X61090114Y-87249069D01*
X70110229Y-78228953D01*
X70171550Y-78195470D01*
X70225497Y-78195744D01*
X70530160Y-78265282D01*
X70842723Y-78300499D01*
X70842724Y-78300500D01*
X70842727Y-78300500D01*
X71157276Y-78300500D01*
X71157276Y-78300499D01*
X71469840Y-78265282D01*
X71776500Y-78195289D01*
X72073394Y-78091402D01*
X72356789Y-77954926D01*
X72623123Y-77787577D01*
X72869044Y-77591461D01*
X73091461Y-77369044D01*
X73287577Y-77123123D01*
X73454926Y-76856789D01*
X73591402Y-76573394D01*
X73695289Y-76276500D01*
X73765282Y-75969840D01*
X73800500Y-75657273D01*
X73800500Y-75342727D01*
X73765282Y-75030160D01*
X73695289Y-74723500D01*
X73591402Y-74426606D01*
X73454926Y-74143211D01*
X73287577Y-73876877D01*
X73091461Y-73630956D01*
X72869044Y-73408539D01*
X72623123Y-73212423D01*
X72356789Y-73045074D01*
X72356786Y-73045072D01*
X72073395Y-72908598D01*
X71776501Y-72804711D01*
X71776499Y-72804710D01*
X71469843Y-72734718D01*
X71469827Y-72734716D01*
X71157277Y-72699500D01*
X71157273Y-72699500D01*
X70842727Y-72699500D01*
X70842722Y-72699500D01*
X70530172Y-72734716D01*
X70530156Y-72734718D01*
X70223500Y-72804710D01*
X70223498Y-72804711D01*
X69926604Y-72908598D01*
X69643213Y-73045072D01*
X69376878Y-73212422D01*
X69130956Y-73408538D01*
X68908538Y-73630956D01*
X68712422Y-73876878D01*
X68545072Y-74143213D01*
X68408598Y-74426604D01*
X68304711Y-74723498D01*
X68304710Y-74723500D01*
X68234718Y-75030156D01*
X68234716Y-75030172D01*
X68199500Y-75342722D01*
X68199500Y-75657277D01*
X68234716Y-75969827D01*
X68234718Y-75969843D01*
X68304253Y-76274498D01*
X68299980Y-76344237D01*
X68271043Y-76389771D01*
X58761336Y-85899478D01*
X58641016Y-86065084D01*
X58641011Y-86065092D01*
X58627087Y-86092418D01*
X58627088Y-86092419D01*
X58548079Y-86247480D01*
X58548078Y-86247483D01*
X58517665Y-86341089D01*
X58484822Y-86442168D01*
X58463441Y-86577165D01*
X58452800Y-86644348D01*
X58452800Y-95823524D01*
X58433115Y-95890563D01*
X58380311Y-95936318D01*
X58311153Y-95946262D01*
X58290482Y-95941455D01*
X58256837Y-95930523D01*
X58122046Y-95909174D01*
X58054652Y-95898500D01*
X49951352Y-95898500D01*
X49746648Y-95898500D01*
X49679253Y-95909174D01*
X49544463Y-95930523D01*
X49447123Y-95962150D01*
X49447123Y-95962151D01*
X49349781Y-95993780D01*
X49349779Y-95993780D01*
X49349779Y-95993781D01*
X49280834Y-96028909D01*
X49280835Y-96028910D01*
X49167387Y-96086714D01*
X49167384Y-96086716D01*
X49001778Y-96207036D01*
X48468036Y-96740778D01*
X48347713Y-96906388D01*
X48307108Y-96986081D01*
X48254781Y-97088776D01*
X48246358Y-97114700D01*
X48235187Y-97149081D01*
X48223283Y-97185718D01*
X48191523Y-97283464D01*
X48183506Y-97334082D01*
X48159500Y-97485648D01*
X48159500Y-97967055D01*
X48139815Y-98034094D01*
X48087011Y-98079849D01*
X48017853Y-98089793D01*
X47962615Y-98067373D01*
X47785054Y-97938368D01*
X47785053Y-97938367D01*
X47785051Y-97938366D01*
X47681524Y-97885616D01*
X47553576Y-97820422D01*
X47306493Y-97740140D01*
X47049902Y-97699500D01*
X47049897Y-97699500D01*
X46790103Y-97699500D01*
X46790098Y-97699500D01*
X46533506Y-97740140D01*
X46286423Y-97820422D01*
X46054945Y-97938368D01*
X45844774Y-98091066D01*
X45844768Y-98091071D01*
X45661071Y-98274768D01*
X45661066Y-98274774D01*
X45508368Y-98484945D01*
X45390422Y-98716423D01*
X45310140Y-98963506D01*
X45269500Y-99220097D01*
X45269500Y-99779902D01*
X45310140Y-100036493D01*
X45390422Y-100283576D01*
X45469400Y-100438576D01*
X45508366Y-100515051D01*
X45595819Y-100635419D01*
X45619298Y-100701223D01*
X45619500Y-100708303D01*
X45619500Y-104314902D01*
X45599815Y-104381941D01*
X45547011Y-104427696D01*
X45514907Y-104437374D01*
X45505218Y-104438909D01*
X45265618Y-104516760D01*
X45041151Y-104631132D01*
X44837350Y-104779201D01*
X44837345Y-104779205D01*
X44659205Y-104957345D01*
X44659201Y-104957350D01*
X44511132Y-105161151D01*
X44396760Y-105385616D01*
X44342431Y-105552824D01*
X44302993Y-105610499D01*
X44238634Y-105637697D01*
X44169788Y-105625782D01*
X44118312Y-105578538D01*
X44100500Y-105514505D01*
X44100500Y-78058827D01*
X44120185Y-77991788D01*
X44158528Y-77953833D01*
X44423123Y-77787577D01*
X44669044Y-77591461D01*
X44891461Y-77369044D01*
X45087577Y-77123123D01*
X45254926Y-76856789D01*
X45391402Y-76573394D01*
X45495289Y-76276500D01*
X45565282Y-75969840D01*
X45600500Y-75657273D01*
X45600500Y-75342727D01*
X45565282Y-75030160D01*
X45495289Y-74723500D01*
X45391402Y-74426606D01*
X45254926Y-74143211D01*
X45087577Y-73876877D01*
X44891461Y-73630956D01*
X44669044Y-73408539D01*
X44423123Y-73212423D01*
X44156789Y-73045074D01*
X44156786Y-73045072D01*
X43873395Y-72908598D01*
X43576501Y-72804711D01*
X43576499Y-72804710D01*
X43269843Y-72734718D01*
X43269827Y-72734716D01*
X42957277Y-72699500D01*
X42957273Y-72699500D01*
X42642727Y-72699500D01*
X42642722Y-72699500D01*
X42330172Y-72734716D01*
X42330156Y-72734718D01*
X42023500Y-72804710D01*
X42023498Y-72804711D01*
X41726604Y-72908598D01*
X41443213Y-73045072D01*
X41176878Y-73212422D01*
X40930956Y-73408538D01*
X40708538Y-73630956D01*
X40512422Y-73876878D01*
X40345072Y-74143213D01*
X40208598Y-74426604D01*
X40104711Y-74723498D01*
X40104710Y-74723500D01*
X40034718Y-75030156D01*
X40034716Y-75030172D01*
X39999500Y-75342722D01*
X34000500Y-75342722D01*
X34000500Y-56624500D01*
X34020185Y-56557461D01*
X34072989Y-56511706D01*
X34124500Y-56500500D01*
X115875500Y-56500500D01*
X115942539Y-56520185D01*
G37*
%TD.AperFunction*%
%TA.AperFunction,NonConductor*%
G36*
X91273334Y-85832629D02*
G01*
X91317681Y-85861130D01*
X91392371Y-85935820D01*
X91405008Y-85950616D01*
X91508031Y-86092415D01*
X91508034Y-86092419D01*
X91796834Y-86381219D01*
X91830319Y-86442542D01*
X91825335Y-86512234D01*
X91783463Y-86568167D01*
X91717999Y-86592584D01*
X91709153Y-86592900D01*
X90320487Y-86592900D01*
X90253448Y-86573215D01*
X90207693Y-86520411D01*
X90197749Y-86451253D01*
X90226774Y-86387697D01*
X90285552Y-86349923D01*
X90301089Y-86346427D01*
X90302264Y-86346240D01*
X90334785Y-86341090D01*
X90574379Y-86263241D01*
X90798845Y-86148870D01*
X91002656Y-86000793D01*
X91142319Y-85861130D01*
X91203642Y-85827645D01*
X91273334Y-85832629D01*
G37*
%TD.AperFunction*%
%TA.AperFunction,NonConductor*%
G36*
X88372238Y-83179575D02*
G01*
X88374909Y-83178914D01*
X88405568Y-83189361D01*
X88436638Y-83198485D01*
X88438438Y-83200563D01*
X88441044Y-83201451D01*
X88461194Y-83226825D01*
X88482393Y-83251289D01*
X88482784Y-83254010D01*
X88484496Y-83256166D01*
X88487729Y-83288400D01*
X88492337Y-83320447D01*
X88491278Y-83323786D01*
X88491469Y-83325687D01*
X88480084Y-83359095D01*
X88476760Y-83365616D01*
X88398910Y-83605214D01*
X88359500Y-83854038D01*
X88359500Y-84905961D01*
X88398910Y-85154785D01*
X88476760Y-85394383D01*
X88493472Y-85427181D01*
X88591129Y-85618844D01*
X88591132Y-85618848D01*
X88739201Y-85822649D01*
X88739205Y-85822654D01*
X88917345Y-86000794D01*
X88917350Y-86000798D01*
X89095117Y-86129952D01*
X89121155Y-86148870D01*
X89264184Y-86221747D01*
X89345616Y-86263239D01*
X89345618Y-86263239D01*
X89345621Y-86263241D01*
X89585215Y-86341090D01*
X89617523Y-86346207D01*
X89618911Y-86346427D01*
X89682045Y-86376356D01*
X89718977Y-86435667D01*
X89717979Y-86505530D01*
X89679369Y-86563763D01*
X89615406Y-86591877D01*
X89599513Y-86592900D01*
X80736751Y-86592900D01*
X80532048Y-86592900D01*
X80486230Y-86600157D01*
X80329868Y-86624922D01*
X80329867Y-86624922D01*
X80270081Y-86644348D01*
X80155230Y-86681665D01*
X80085389Y-86683660D01*
X80025556Y-86647579D01*
X79994728Y-86584878D01*
X80002693Y-86515464D01*
X80029228Y-86476056D01*
X83290166Y-83215119D01*
X83351489Y-83181634D01*
X83377847Y-83178800D01*
X88369599Y-83178800D01*
X88372238Y-83179575D01*
G37*
%TD.AperFunction*%
%TA.AperFunction,NonConductor*%
G36*
X81216792Y-81397485D02*
G01*
X81262547Y-81450289D01*
X81272491Y-81519447D01*
X81243466Y-81583003D01*
X81237434Y-81589481D01*
X74737781Y-88089134D01*
X74676458Y-88122619D01*
X74606766Y-88117635D01*
X74550833Y-88075763D01*
X74526416Y-88010299D01*
X74526100Y-88001453D01*
X74526100Y-86864446D01*
X74545785Y-86797407D01*
X74562419Y-86776765D01*
X79925065Y-81414119D01*
X79986388Y-81380634D01*
X80012746Y-81377800D01*
X81149753Y-81377800D01*
X81216792Y-81397485D01*
G37*
%TD.AperFunction*%
%TA.AperFunction,NonConductor*%
G36*
X101296475Y-85993168D02*
G01*
X101345170Y-86043274D01*
X101359500Y-86101141D01*
X101359500Y-86291653D01*
X101339815Y-86358692D01*
X101323181Y-86379334D01*
X99541034Y-88161481D01*
X99479711Y-88194966D01*
X99453353Y-88197800D01*
X98362719Y-88197800D01*
X98295680Y-88178115D01*
X98249925Y-88125311D01*
X98239981Y-88056153D01*
X98269006Y-87992597D01*
X98289834Y-87973482D01*
X98427213Y-87873671D01*
X98427215Y-87873668D01*
X98427219Y-87873666D01*
X98571966Y-87728919D01*
X98571968Y-87728915D01*
X98571971Y-87728913D01*
X98692283Y-87563315D01*
X98692287Y-87563310D01*
X98785220Y-87380919D01*
X98848477Y-87186234D01*
X98880500Y-86984052D01*
X98880500Y-86101141D01*
X98900185Y-86034102D01*
X98952989Y-85988347D01*
X99022147Y-85978403D01*
X99077385Y-86000823D01*
X99135814Y-86043274D01*
X99281155Y-86148870D01*
X99424184Y-86221747D01*
X99505616Y-86263239D01*
X99505618Y-86263239D01*
X99505621Y-86263241D01*
X99745215Y-86341090D01*
X99994038Y-86380500D01*
X99994039Y-86380500D01*
X100245961Y-86380500D01*
X100245962Y-86380500D01*
X100494785Y-86341090D01*
X100734379Y-86263241D01*
X100958845Y-86148870D01*
X101162615Y-86000823D01*
X101228421Y-85977343D01*
X101296475Y-85993168D01*
G37*
%TD.AperFunction*%
%TA.AperFunction,NonConductor*%
G36*
X104157385Y-86000823D02*
G01*
X104215814Y-86043274D01*
X104361155Y-86148870D01*
X104504184Y-86221747D01*
X104585616Y-86263239D01*
X104585618Y-86263239D01*
X104585621Y-86263241D01*
X104825215Y-86341090D01*
X105074038Y-86380500D01*
X105074039Y-86380500D01*
X105325961Y-86380500D01*
X105325962Y-86380500D01*
X105574785Y-86341090D01*
X105814379Y-86263241D01*
X105820200Y-86260274D01*
X105888868Y-86247375D01*
X105953610Y-86273648D01*
X105993870Y-86330753D01*
X106000500Y-86370757D01*
X106000500Y-90009242D01*
X105980815Y-90076281D01*
X105928011Y-90122036D01*
X105858853Y-90131980D01*
X105820208Y-90119728D01*
X105814386Y-90116762D01*
X105814382Y-90116761D01*
X105814379Y-90116759D01*
X105574785Y-90038910D01*
X105325962Y-89999500D01*
X105074038Y-89999500D01*
X105012530Y-90009242D01*
X104825214Y-90038910D01*
X104585616Y-90116760D01*
X104361151Y-90231132D01*
X104157350Y-90379201D01*
X104157345Y-90379205D01*
X104017681Y-90518870D01*
X103956358Y-90552355D01*
X103886666Y-90547371D01*
X103842319Y-90518870D01*
X103702654Y-90379205D01*
X103702649Y-90379201D01*
X103498848Y-90231132D01*
X103498847Y-90231131D01*
X103498845Y-90231130D01*
X103428747Y-90195413D01*
X103274383Y-90116760D01*
X103034785Y-90038910D01*
X102992729Y-90032249D01*
X102785962Y-89999500D01*
X102534038Y-89999500D01*
X102472530Y-90009242D01*
X102285214Y-90038910D01*
X102045616Y-90116760D01*
X101821151Y-90231132D01*
X101617350Y-90379201D01*
X101617345Y-90379205D01*
X101477681Y-90518870D01*
X101469735Y-90523208D01*
X101464310Y-90530456D01*
X101439550Y-90539690D01*
X101416358Y-90552355D01*
X101407328Y-90551709D01*
X101398846Y-90554873D01*
X101373025Y-90549256D01*
X101346666Y-90547371D01*
X101337612Y-90541552D01*
X101330573Y-90540021D01*
X101302319Y-90518870D01*
X101169847Y-90386398D01*
X101136362Y-90325075D01*
X101141346Y-90255383D01*
X101169845Y-90211038D01*
X103651966Y-87728919D01*
X103772287Y-87563311D01*
X103818753Y-87472114D01*
X103865220Y-87380919D01*
X103902441Y-87266366D01*
X103928477Y-87186235D01*
X103960500Y-86984052D01*
X103960500Y-86779349D01*
X103960500Y-86779348D01*
X103960500Y-86101141D01*
X103980185Y-86034102D01*
X104032989Y-85988347D01*
X104102147Y-85978403D01*
X104157385Y-86000823D01*
G37*
%TD.AperFunction*%
%TA.AperFunction,NonConductor*%
G36*
X108704426Y-82556484D02*
G01*
X108743837Y-82583022D01*
X109163181Y-83002366D01*
X109196666Y-83063689D01*
X109199500Y-83090047D01*
X109199500Y-92663653D01*
X109179815Y-92730692D01*
X109163181Y-92751334D01*
X108813181Y-93101334D01*
X108751858Y-93134819D01*
X108682166Y-93129835D01*
X108626233Y-93087963D01*
X108601816Y-93022499D01*
X108601500Y-93013653D01*
X108601500Y-83007385D01*
X108569477Y-82805205D01*
X108569477Y-82805203D01*
X108561991Y-82782165D01*
X108538224Y-82709020D01*
X108536230Y-82639180D01*
X108572311Y-82579347D01*
X108635012Y-82548519D01*
X108704426Y-82556484D01*
G37*
%TD.AperFunction*%
%TA.AperFunction,NonConductor*%
G36*
X76463656Y-91050713D02*
G01*
X76468747Y-91049982D01*
X76496172Y-91062506D01*
X76524507Y-91072783D01*
X76529577Y-91077762D01*
X76532303Y-91079007D01*
X76537599Y-91085639D01*
X76549689Y-91097512D01*
X76555746Y-91105452D01*
X76572315Y-91136450D01*
X76672762Y-91258846D01*
X76674089Y-91260585D01*
X76685841Y-91291241D01*
X76698666Y-91321438D01*
X76698280Y-91323689D01*
X76699099Y-91325825D01*
X76699500Y-91335793D01*
X76699500Y-96878846D01*
X76679815Y-96945885D01*
X76627011Y-96991640D01*
X76613821Y-96996775D01*
X76552321Y-97016759D01*
X76552318Y-97016760D01*
X76552316Y-97016761D01*
X76507393Y-97039650D01*
X76438724Y-97052545D01*
X76373984Y-97026268D01*
X76333728Y-96969161D01*
X76327100Y-96929164D01*
X76327100Y-91172720D01*
X76335591Y-91143800D01*
X76341733Y-91114283D01*
X76345336Y-91110613D01*
X76346785Y-91105681D01*
X76369562Y-91085944D01*
X76390688Y-91064432D01*
X76395702Y-91063293D01*
X76399589Y-91059926D01*
X76429427Y-91055635D01*
X76458823Y-91048961D01*
X76463656Y-91050713D01*
G37*
%TD.AperFunction*%
%TA.AperFunction,NonConductor*%
G36*
X111642539Y-77820185D02*
G01*
X111688294Y-77872989D01*
X111699500Y-77924500D01*
X111699500Y-81560953D01*
X111679815Y-81627992D01*
X111627011Y-81673747D01*
X111557853Y-81683691D01*
X111494297Y-81654666D01*
X111487819Y-81648634D01*
X108924521Y-79085336D01*
X108924519Y-79085334D01*
X108758911Y-78965013D01*
X108667714Y-78918546D01*
X108667712Y-78918545D01*
X108576523Y-78872081D01*
X108529815Y-78856904D01*
X108479176Y-78840451D01*
X108455303Y-78832694D01*
X108381835Y-78808822D01*
X108207295Y-78781178D01*
X108179652Y-78776800D01*
X79320348Y-78776800D01*
X79320344Y-78776800D01*
X79239475Y-78789608D01*
X79219257Y-78792811D01*
X79118164Y-78808822D01*
X79020823Y-78840450D01*
X79020823Y-78840451D01*
X78968052Y-78857597D01*
X78923474Y-78872082D01*
X78832284Y-78918545D01*
X78832285Y-78918546D01*
X78741085Y-78965015D01*
X78658285Y-79025172D01*
X78658285Y-79025173D01*
X78575481Y-79085334D01*
X78575479Y-79085336D01*
X78575478Y-79085336D01*
X72233636Y-85427178D01*
X72113316Y-85592784D01*
X72113311Y-85592793D01*
X72100036Y-85618844D01*
X72100037Y-85618845D01*
X72020381Y-85775176D01*
X71988751Y-85872524D01*
X71957122Y-85969864D01*
X71946949Y-86034102D01*
X71946889Y-86034481D01*
X71937713Y-86092418D01*
X71925100Y-86172049D01*
X71925100Y-97600054D01*
X71905415Y-97667093D01*
X71852611Y-97712848D01*
X71783453Y-97722792D01*
X71719897Y-97693767D01*
X71691742Y-97658508D01*
X71640985Y-97563549D01*
X71640982Y-97563545D01*
X71509710Y-97403589D01*
X71349752Y-97272315D01*
X71279345Y-97234681D01*
X71229502Y-97185718D01*
X71213800Y-97125324D01*
X71213800Y-83676747D01*
X71233485Y-83609708D01*
X71250119Y-83589066D01*
X77002366Y-77836819D01*
X77063689Y-77803334D01*
X77090047Y-77800500D01*
X111575500Y-77800500D01*
X111642539Y-77820185D01*
G37*
%TD.AperFunction*%
%TA.AperFunction,NonConductor*%
G36*
X91465703Y-95296137D02*
G01*
X91484818Y-95316965D01*
X91508034Y-95348919D01*
X91516627Y-95357512D01*
X91517937Y-95358905D01*
X91532899Y-95388431D01*
X91548765Y-95417483D01*
X91549072Y-95420346D01*
X91549520Y-95421229D01*
X91549348Y-95422905D01*
X91551600Y-95443847D01*
X91551600Y-97923305D01*
X91531915Y-97990344D01*
X91479111Y-98036099D01*
X91409953Y-98046043D01*
X91346397Y-98017018D01*
X91308623Y-97958240D01*
X91305983Y-97947499D01*
X91305300Y-97944074D01*
X91305300Y-97944065D01*
X91265839Y-97813976D01*
X91260500Y-97777982D01*
X91260500Y-95389850D01*
X91280185Y-95322811D01*
X91332989Y-95277056D01*
X91402147Y-95267112D01*
X91465703Y-95296137D01*
G37*
%TD.AperFunction*%
%TA.AperFunction,NonConductor*%
G36*
X79939911Y-90529586D02*
G01*
X79995844Y-90571458D01*
X80014508Y-90607450D01*
X80016760Y-90614381D01*
X80131130Y-90838846D01*
X80151193Y-90866459D01*
X80175817Y-90900352D01*
X80199298Y-90966156D01*
X80199500Y-90973237D01*
X80199500Y-97730948D01*
X80199500Y-97935652D01*
X80203078Y-97958240D01*
X80231522Y-98137831D01*
X80231522Y-98137832D01*
X80231523Y-98137835D01*
X80257857Y-98218882D01*
X80294780Y-98332519D01*
X80341246Y-98423714D01*
X80387713Y-98514911D01*
X80508034Y-98680519D01*
X80508036Y-98680521D01*
X80558923Y-98731408D01*
X80567198Y-98746059D01*
X80578324Y-98756564D01*
X80587236Y-98781535D01*
X80591602Y-98789265D01*
X80592883Y-98794438D01*
X80605610Y-98874785D01*
X80635867Y-98967907D01*
X80636931Y-98972200D01*
X80635620Y-99002865D01*
X80636497Y-99033548D01*
X80634142Y-99037452D01*
X80633948Y-99042006D01*
X80616267Y-99067094D01*
X80600416Y-99093380D01*
X80596325Y-99095391D01*
X80593699Y-99099118D01*
X80565260Y-99110664D01*
X80537715Y-99124208D01*
X80533185Y-99123688D01*
X80528962Y-99125403D01*
X80498799Y-99119742D01*
X80468301Y-99116243D01*
X80463722Y-99113159D01*
X80460291Y-99112516D01*
X80454137Y-99106705D01*
X80428890Y-99089705D01*
X79336819Y-97997634D01*
X79303334Y-97936311D01*
X79300500Y-97909953D01*
X79300500Y-91335793D01*
X79320185Y-91268754D01*
X79328642Y-91257133D01*
X79427685Y-91136450D01*
X79525232Y-90953954D01*
X79565071Y-90822617D01*
X79596048Y-90770935D01*
X79808898Y-90558085D01*
X79870219Y-90524602D01*
X79939911Y-90529586D01*
G37*
%TD.AperFunction*%
%TA.AperFunction,NonConductor*%
G36*
X111618834Y-94076565D02*
G01*
X111674767Y-94118437D01*
X111699184Y-94183901D01*
X111699500Y-94192747D01*
X111699500Y-94757253D01*
X111679815Y-94824292D01*
X111663181Y-94844934D01*
X106297634Y-100210481D01*
X106236311Y-100243966D01*
X106209953Y-100246800D01*
X105898392Y-100246800D01*
X105860298Y-100250551D01*
X105744067Y-100261999D01*
X105564596Y-100316441D01*
X105494729Y-100317064D01*
X105435616Y-100279815D01*
X105406025Y-100216521D01*
X105415352Y-100147277D01*
X105455716Y-100097462D01*
X105499675Y-100065524D01*
X105600919Y-99991966D01*
X111487819Y-94105066D01*
X111549142Y-94071581D01*
X111618834Y-94076565D01*
G37*
%TD.AperFunction*%
%TA.AperFunction,NonConductor*%
G36*
X91468853Y-99959758D02*
G01*
X91525525Y-100000625D01*
X91551106Y-100065643D01*
X91551600Y-100076695D01*
X91551600Y-103917445D01*
X91531915Y-103984484D01*
X91479111Y-104030239D01*
X91409953Y-104040183D01*
X91371308Y-104027931D01*
X91349385Y-104016761D01*
X91109783Y-103938909D01*
X91034689Y-103927015D01*
X90971555Y-103897085D01*
X90966408Y-103892223D01*
X90756819Y-103682634D01*
X90723334Y-103621311D01*
X90720500Y-103594953D01*
X90720500Y-100874674D01*
X90740185Y-100807635D01*
X90786045Y-100765317D01*
X90856451Y-100727685D01*
X91016410Y-100596410D01*
X91147685Y-100436451D01*
X91245232Y-100253955D01*
X91305300Y-100055935D01*
X91305300Y-100055932D01*
X91305301Y-100055930D01*
X91305983Y-100052503D01*
X91306834Y-100050874D01*
X91307068Y-100050106D01*
X91307213Y-100050150D01*
X91338368Y-99990592D01*
X91399084Y-99956018D01*
X91468853Y-99959758D01*
G37*
%TD.AperFunction*%
%TA.AperFunction,NonConductor*%
G36*
X91344592Y-89213585D02*
G01*
X91365234Y-89230219D01*
X92018897Y-89883882D01*
X92052382Y-89945205D01*
X92047398Y-90014897D01*
X92005526Y-90070830D01*
X91969536Y-90089492D01*
X91937893Y-90099774D01*
X91885616Y-90116760D01*
X91661155Y-90231129D01*
X91464918Y-90373703D01*
X91399111Y-90397182D01*
X91331057Y-90381356D01*
X91296180Y-90352049D01*
X91256410Y-90303590D01*
X91168119Y-90231132D01*
X91096450Y-90172315D01*
X90913954Y-90074768D01*
X90715934Y-90014700D01*
X90715932Y-90014699D01*
X90715934Y-90014699D01*
X90596805Y-90002966D01*
X90561608Y-89999500D01*
X89358392Y-89999500D01*
X89320298Y-90003251D01*
X89204067Y-90014699D01*
X89006043Y-90074769D01*
X88899011Y-90131980D01*
X88823550Y-90172315D01*
X88823548Y-90172316D01*
X88823547Y-90172317D01*
X88663589Y-90303589D01*
X88532317Y-90463547D01*
X88434769Y-90646043D01*
X88374699Y-90844067D01*
X88369156Y-90900350D01*
X88359500Y-90998392D01*
X88359500Y-93001608D01*
X88361558Y-93022499D01*
X88374699Y-93155932D01*
X88374700Y-93155934D01*
X88434768Y-93353954D01*
X88532315Y-93536450D01*
X88631353Y-93657129D01*
X88658666Y-93721438D01*
X88659500Y-93735793D01*
X88659500Y-96975500D01*
X88639815Y-97042539D01*
X88587011Y-97088294D01*
X88535506Y-97099500D01*
X88518396Y-97099500D01*
X88364067Y-97114699D01*
X88166042Y-97174769D01*
X87983545Y-97272317D01*
X87823589Y-97403589D01*
X87692317Y-97563545D01*
X87594769Y-97746042D01*
X87534699Y-97944066D01*
X87525833Y-98034094D01*
X87520222Y-98091066D01*
X87519500Y-98098394D01*
X87519500Y-99901604D01*
X87534699Y-100055932D01*
X87534700Y-100055935D01*
X87594768Y-100253955D01*
X87689903Y-100431939D01*
X87692317Y-100436454D01*
X87823589Y-100596410D01*
X87983546Y-100727683D01*
X87983547Y-100727683D01*
X87983549Y-100727685D01*
X88053954Y-100765317D01*
X88103797Y-100814277D01*
X88119500Y-100874674D01*
X88119500Y-104287357D01*
X88146424Y-104457344D01*
X88151521Y-104489526D01*
X88151522Y-104489531D01*
X88151523Y-104489534D01*
X88180766Y-104579534D01*
X88214781Y-104684223D01*
X88220233Y-104694922D01*
X88220234Y-104694923D01*
X88307713Y-104866611D01*
X88428034Y-105032219D01*
X88428036Y-105032221D01*
X89127223Y-105731408D01*
X89160708Y-105792731D01*
X89162015Y-105799689D01*
X89173909Y-105874783D01*
X89189431Y-105922555D01*
X89251759Y-106114379D01*
X89336273Y-106280248D01*
X89366132Y-106338848D01*
X89514201Y-106542649D01*
X89514205Y-106542654D01*
X89692345Y-106720794D01*
X89692350Y-106720798D01*
X89869723Y-106849666D01*
X89896155Y-106868870D01*
X90030549Y-106937347D01*
X90120616Y-106983239D01*
X90120618Y-106983239D01*
X90120621Y-106983241D01*
X90360215Y-107061090D01*
X90609038Y-107100500D01*
X90609039Y-107100500D01*
X90860961Y-107100500D01*
X90860962Y-107100500D01*
X91109785Y-107061090D01*
X91349379Y-106983241D01*
X91349385Y-106983238D01*
X91371304Y-106972070D01*
X91439973Y-106959173D01*
X91504714Y-106985449D01*
X91544971Y-107042555D01*
X91551600Y-107082554D01*
X91551600Y-111496353D01*
X91531915Y-111563392D01*
X91479111Y-111609147D01*
X91409953Y-111619091D01*
X91346397Y-111590066D01*
X91339919Y-111584034D01*
X85024475Y-105268590D01*
X84990990Y-105207267D01*
X84989683Y-105200306D01*
X84977790Y-105125214D01*
X84923247Y-104957350D01*
X84899941Y-104885621D01*
X84899939Y-104885618D01*
X84899939Y-104885616D01*
X84843177Y-104774215D01*
X84785570Y-104661155D01*
X84742847Y-104602352D01*
X84637498Y-104457350D01*
X84637493Y-104457344D01*
X84459354Y-104279205D01*
X84459349Y-104279201D01*
X84255548Y-104131132D01*
X84255547Y-104131131D01*
X84255545Y-104131130D01*
X84031079Y-104016759D01*
X83911282Y-103977834D01*
X83791483Y-103938909D01*
X83716389Y-103927015D01*
X83697157Y-103917897D01*
X83676362Y-103913374D01*
X83656930Y-103898827D01*
X83653255Y-103897085D01*
X83648108Y-103892223D01*
X83503519Y-103747634D01*
X83470034Y-103686311D01*
X83467200Y-103659953D01*
X83467200Y-99473237D01*
X83486885Y-99406198D01*
X83490868Y-99400370D01*
X83535570Y-99338845D01*
X83649941Y-99114379D01*
X83727790Y-98874785D01*
X83767200Y-98625962D01*
X83767200Y-98374038D01*
X83727790Y-98125215D01*
X83649941Y-97885621D01*
X83649939Y-97885618D01*
X83649939Y-97885616D01*
X83595096Y-97777982D01*
X83535570Y-97661155D01*
X83467932Y-97568059D01*
X83387498Y-97457350D01*
X83387494Y-97457345D01*
X83209354Y-97279205D01*
X83209349Y-97279201D01*
X83005548Y-97131132D01*
X83005547Y-97131131D01*
X83005545Y-97131130D01*
X82921475Y-97088294D01*
X82868205Y-97061151D01*
X82817409Y-97013176D01*
X82800500Y-96950666D01*
X82800500Y-90973237D01*
X82820185Y-90906198D01*
X82824168Y-90900370D01*
X82868870Y-90838845D01*
X82983241Y-90614379D01*
X83061090Y-90374785D01*
X83100500Y-90125962D01*
X83100500Y-89874038D01*
X83061090Y-89625215D01*
X82983241Y-89385621D01*
X82977419Y-89374196D01*
X82964523Y-89305528D01*
X82990798Y-89240787D01*
X83047904Y-89200529D01*
X83087904Y-89193900D01*
X91277553Y-89193900D01*
X91344592Y-89213585D01*
G37*
%TD.AperFunction*%
%TA.AperFunction,NonConductor*%
G36*
X76472088Y-99949156D02*
G01*
X76473988Y-99948966D01*
X76507395Y-99960350D01*
X76552316Y-99983239D01*
X76552318Y-99983239D01*
X76552321Y-99983241D01*
X76791915Y-100061090D01*
X77040738Y-100100500D01*
X77040739Y-100100500D01*
X77292661Y-100100500D01*
X77292662Y-100100500D01*
X77541485Y-100061090D01*
X77605392Y-100040324D01*
X77675232Y-100038330D01*
X77731390Y-100070575D01*
X79009881Y-101349066D01*
X79043366Y-101410389D01*
X79046200Y-101436747D01*
X79046200Y-112874694D01*
X79026515Y-112941733D01*
X78973711Y-112987488D01*
X78904553Y-112997432D01*
X78865906Y-112985179D01*
X78849386Y-112976761D01*
X78609785Y-112898910D01*
X78456892Y-112874694D01*
X78360962Y-112859500D01*
X77309038Y-112859500D01*
X77245282Y-112869598D01*
X77060213Y-112898910D01*
X77060210Y-112898910D01*
X76820621Y-112976758D01*
X76814087Y-112980087D01*
X76745416Y-112992978D01*
X76680678Y-112966697D01*
X76640425Y-112909588D01*
X76633800Y-112869598D01*
X76633800Y-106933319D01*
X76653485Y-106866280D01*
X76684915Y-106833001D01*
X76816379Y-106737487D01*
X76839356Y-106720793D01*
X77017493Y-106542656D01*
X77165570Y-106338845D01*
X77279941Y-106114379D01*
X77357790Y-105874785D01*
X77397200Y-105625962D01*
X77397200Y-105374038D01*
X77357790Y-105125215D01*
X77279941Y-104885621D01*
X77279939Y-104885618D01*
X77279939Y-104885616D01*
X77223177Y-104774215D01*
X77165570Y-104661155D01*
X77122847Y-104602352D01*
X77017498Y-104457350D01*
X77017493Y-104457344D01*
X76839354Y-104279205D01*
X76839349Y-104279201D01*
X76635548Y-104131132D01*
X76635547Y-104131131D01*
X76635545Y-104131130D01*
X76540394Y-104082648D01*
X76411077Y-104016757D01*
X76406586Y-104014898D01*
X76407172Y-104013482D01*
X76355090Y-103977855D01*
X76327905Y-103913491D01*
X76327100Y-103899381D01*
X76327100Y-100070835D01*
X76327875Y-100068194D01*
X76327214Y-100065524D01*
X76337661Y-100034868D01*
X76346785Y-100003796D01*
X76348864Y-100001994D01*
X76349752Y-99999389D01*
X76375121Y-99979242D01*
X76399589Y-99958041D01*
X76402311Y-99957649D01*
X76404467Y-99955938D01*
X76436687Y-99952706D01*
X76468747Y-99948097D01*
X76472088Y-99949156D01*
G37*
%TD.AperFunction*%
%TA.AperFunction,NonConductor*%
G36*
X67195136Y-104320185D02*
G01*
X67240891Y-104372989D01*
X67250835Y-104442147D01*
X67228415Y-104497385D01*
X67109432Y-104661151D01*
X66995060Y-104885616D01*
X66917210Y-105125214D01*
X66900753Y-105229119D01*
X66877800Y-105374038D01*
X66877800Y-105625962D01*
X66880279Y-105641611D01*
X66917210Y-105874785D01*
X66995060Y-106114383D01*
X67109432Y-106338848D01*
X67257501Y-106542649D01*
X67257505Y-106542654D01*
X67435645Y-106720794D01*
X67435650Y-106720798D01*
X67613023Y-106849666D01*
X67639455Y-106868870D01*
X67773849Y-106937347D01*
X67863916Y-106983239D01*
X67863918Y-106983239D01*
X67863921Y-106983241D01*
X67992349Y-107024970D01*
X68103514Y-107061090D01*
X68142739Y-107067302D01*
X68178606Y-107072983D01*
X68241741Y-107102912D01*
X68246890Y-107107775D01*
X68878181Y-107739065D01*
X68911666Y-107800388D01*
X68914500Y-107826746D01*
X68914500Y-112831873D01*
X68894815Y-112898912D01*
X68848954Y-112941231D01*
X68782489Y-112976758D01*
X68678550Y-113032315D01*
X68678548Y-113032316D01*
X68678547Y-113032317D01*
X68518589Y-113163589D01*
X68387317Y-113323547D01*
X68289769Y-113506043D01*
X68229699Y-113704067D01*
X68214500Y-113858395D01*
X68214500Y-115061604D01*
X68229699Y-115215932D01*
X68289769Y-115413958D01*
X68344872Y-115517047D01*
X68359114Y-115585449D01*
X68334114Y-115650693D01*
X68277809Y-115692064D01*
X68235514Y-115699500D01*
X64060804Y-115699500D01*
X63993765Y-115679815D01*
X63987919Y-115675818D01*
X63867554Y-115588368D01*
X63867553Y-115588367D01*
X63867551Y-115588366D01*
X63795264Y-115551534D01*
X63636076Y-115470422D01*
X63388993Y-115390140D01*
X63132402Y-115349500D01*
X63132397Y-115349500D01*
X62872603Y-115349500D01*
X62872598Y-115349500D01*
X62616006Y-115390140D01*
X62368923Y-115470422D01*
X62137446Y-115588367D01*
X62075719Y-115633214D01*
X62044128Y-115644485D01*
X62012828Y-115656492D01*
X62011342Y-115656183D01*
X62009913Y-115656693D01*
X61977254Y-115649098D01*
X61944421Y-115642274D01*
X61942826Y-115641092D01*
X61941859Y-115640867D01*
X61915971Y-115621386D01*
X61915590Y-115621012D01*
X61814762Y-115520184D01*
X61809513Y-115516886D01*
X61800136Y-115507681D01*
X61786096Y-115482526D01*
X61769546Y-115458946D01*
X61768127Y-115450332D01*
X61766084Y-115446671D01*
X61766479Y-115440319D01*
X61763000Y-115419190D01*
X61763000Y-106884204D01*
X61782685Y-106817165D01*
X61814114Y-106783886D01*
X61900956Y-106720793D01*
X62079093Y-106542656D01*
X62227170Y-106338845D01*
X62341541Y-106114379D01*
X62419390Y-105874785D01*
X62458800Y-105625962D01*
X62458800Y-105374038D01*
X62419390Y-105125215D01*
X62341541Y-104885621D01*
X62341539Y-104885618D01*
X62341539Y-104885616D01*
X62284777Y-104774215D01*
X62227170Y-104661155D01*
X62184447Y-104602352D01*
X62108185Y-104497385D01*
X62084705Y-104431579D01*
X62100531Y-104363525D01*
X62150636Y-104314830D01*
X62208503Y-104300500D01*
X67128097Y-104300500D01*
X67195136Y-104320185D01*
G37*
%TD.AperFunction*%
%TA.AperFunction,NonConductor*%
G36*
X104832962Y-105456036D02*
G01*
X104888895Y-105497908D01*
X104912100Y-105552819D01*
X104926164Y-105641610D01*
X104938910Y-105722085D01*
X105016760Y-105961683D01*
X105131130Y-106186146D01*
X105151193Y-106213759D01*
X105175817Y-106247652D01*
X105199298Y-106313456D01*
X105199500Y-106320537D01*
X105199500Y-116759753D01*
X105179815Y-116826792D01*
X105163181Y-116847434D01*
X104512181Y-117498434D01*
X104450858Y-117531919D01*
X104381166Y-117526935D01*
X104325233Y-117485063D01*
X104300816Y-117419599D01*
X104300500Y-117410753D01*
X104300500Y-115455043D01*
X104300499Y-115455039D01*
X104285369Y-115320750D01*
X104285368Y-115320745D01*
X104225789Y-115150478D01*
X104129816Y-114997738D01*
X104002262Y-114870184D01*
X103917482Y-114816913D01*
X103849523Y-114774211D01*
X103679254Y-114714631D01*
X103679249Y-114714630D01*
X103544960Y-114699500D01*
X103544954Y-114699500D01*
X103424500Y-114699500D01*
X103357461Y-114679815D01*
X103311706Y-114627011D01*
X103300500Y-114575500D01*
X103300500Y-106937347D01*
X103320185Y-106870308D01*
X103336819Y-106849666D01*
X104000340Y-106186145D01*
X104701949Y-105484535D01*
X104763270Y-105451052D01*
X104832962Y-105456036D01*
G37*
%TD.AperFunction*%
%TA.AperFunction,NonConductor*%
G36*
X81852403Y-105922555D02*
G01*
X81889129Y-105977948D01*
X81933459Y-106114379D01*
X82017973Y-106280248D01*
X82047832Y-106338848D01*
X82195901Y-106542649D01*
X82195905Y-106542654D01*
X82374045Y-106720794D01*
X82374050Y-106720798D01*
X82551423Y-106849666D01*
X82577855Y-106868870D01*
X82712249Y-106937347D01*
X82802316Y-106983239D01*
X82802318Y-106983239D01*
X82802321Y-106983241D01*
X82930749Y-107024970D01*
X83041914Y-107061090D01*
X83081139Y-107067302D01*
X83117006Y-107072983D01*
X83180141Y-107102912D01*
X83185290Y-107107775D01*
X89720681Y-113643166D01*
X89754166Y-113704489D01*
X89757000Y-113730847D01*
X89757000Y-115037040D01*
X89737315Y-115104079D01*
X89708487Y-115135416D01*
X89537414Y-115266685D01*
X89324185Y-115479914D01*
X89324179Y-115479921D01*
X89140599Y-115719168D01*
X88989818Y-115980328D01*
X88989814Y-115980338D01*
X88874413Y-116258939D01*
X88796361Y-116550233D01*
X88757001Y-116849206D01*
X88757000Y-116849223D01*
X88757000Y-117150776D01*
X88757001Y-117150793D01*
X88785144Y-117364562D01*
X88774378Y-117433597D01*
X88749886Y-117468428D01*
X88489681Y-117728634D01*
X88428358Y-117762119D01*
X88358667Y-117757135D01*
X88302733Y-117715264D01*
X88278316Y-117649799D01*
X88278000Y-117640953D01*
X88278000Y-115455043D01*
X88277999Y-115455039D01*
X88262869Y-115320750D01*
X88262868Y-115320745D01*
X88203289Y-115150478D01*
X88107316Y-114997738D01*
X87979762Y-114870184D01*
X87894982Y-114816913D01*
X87827023Y-114774211D01*
X87656754Y-114714631D01*
X87656749Y-114714630D01*
X87522460Y-114699500D01*
X87522454Y-114699500D01*
X84432546Y-114699500D01*
X84432539Y-114699500D01*
X84298250Y-114714630D01*
X84298245Y-114714631D01*
X84127976Y-114774211D01*
X83975237Y-114870184D01*
X83847684Y-114997737D01*
X83751711Y-115150476D01*
X83692131Y-115320745D01*
X83692130Y-115320750D01*
X83677000Y-115455039D01*
X83677000Y-115575500D01*
X83657315Y-115642539D01*
X83604511Y-115688294D01*
X83553000Y-115699500D01*
X81771200Y-115699500D01*
X81704161Y-115679815D01*
X81658406Y-115627011D01*
X81647200Y-115575500D01*
X81647200Y-106016268D01*
X81666885Y-105949229D01*
X81719689Y-105903474D01*
X81788847Y-105893530D01*
X81852403Y-105922555D01*
G37*
%TD.AperFunction*%
%TA.AperFunction,NonConductor*%
G36*
X105879992Y-95821885D02*
G01*
X105925747Y-95874689D01*
X105935691Y-95943847D01*
X105906666Y-96007403D01*
X105900634Y-96013881D01*
X104251334Y-97663181D01*
X104190011Y-97696666D01*
X104163653Y-97699500D01*
X101018576Y-97699500D01*
X100951537Y-97679815D01*
X100930899Y-97663185D01*
X100835776Y-97568062D01*
X100835775Y-97568061D01*
X100835773Y-97568059D01*
X100638126Y-97416400D01*
X100422376Y-97291837D01*
X100422361Y-97291830D01*
X100192207Y-97196498D01*
X100111110Y-97174768D01*
X99951565Y-97132018D01*
X99951564Y-97132017D01*
X99951561Y-97132017D01*
X99704575Y-97099501D01*
X99704570Y-97099500D01*
X99704565Y-97099500D01*
X99455435Y-97099500D01*
X99455429Y-97099500D01*
X99455424Y-97099501D01*
X99208438Y-97132017D01*
X98967792Y-97196498D01*
X98737638Y-97291830D01*
X98737623Y-97291837D01*
X98521873Y-97416400D01*
X98324225Y-97568060D01*
X98324218Y-97568066D01*
X98148066Y-97744218D01*
X98148060Y-97744225D01*
X97996400Y-97941873D01*
X97871837Y-98157623D01*
X97871830Y-98157638D01*
X97776498Y-98387792D01*
X97712017Y-98628438D01*
X97679501Y-98875424D01*
X97679500Y-98875441D01*
X97679500Y-99124558D01*
X97679501Y-99124575D01*
X97712017Y-99371561D01*
X97776498Y-99612207D01*
X97871830Y-99842361D01*
X97871837Y-99842376D01*
X97996400Y-100058126D01*
X98148059Y-100255773D01*
X98148060Y-100255774D01*
X98148062Y-100255776D01*
X98243182Y-100350896D01*
X98276666Y-100412217D01*
X98279500Y-100438576D01*
X98279500Y-103684952D01*
X98270855Y-103714392D01*
X98264332Y-103744379D01*
X98260577Y-103749394D01*
X98259815Y-103751991D01*
X98243181Y-103772634D01*
X98123590Y-103892224D01*
X98062267Y-103925708D01*
X98055309Y-103927015D01*
X97980217Y-103938909D01*
X97740618Y-104016760D01*
X97516151Y-104131132D01*
X97312350Y-104279201D01*
X97312345Y-104279205D01*
X97134207Y-104457344D01*
X97134201Y-104457350D01*
X96986132Y-104661151D01*
X96871760Y-104885616D01*
X96793910Y-105125214D01*
X96777453Y-105229119D01*
X96754500Y-105374038D01*
X96754500Y-105625962D01*
X96756979Y-105641611D01*
X96793910Y-105874785D01*
X96871760Y-106114383D01*
X96986132Y-106338848D01*
X97134201Y-106542649D01*
X97134205Y-106542654D01*
X97312345Y-106720794D01*
X97312350Y-106720798D01*
X97489723Y-106849666D01*
X97516155Y-106868870D01*
X97650549Y-106937347D01*
X97740616Y-106983239D01*
X97740618Y-106983239D01*
X97740621Y-106983241D01*
X97980215Y-107061090D01*
X98229038Y-107100500D01*
X98229039Y-107100500D01*
X98480961Y-107100500D01*
X98480962Y-107100500D01*
X98729785Y-107061090D01*
X98969379Y-106983241D01*
X99193845Y-106868870D01*
X99397656Y-106720793D01*
X99575793Y-106542656D01*
X99723870Y-106338845D01*
X99838241Y-106114379D01*
X99916090Y-105874785D01*
X99927984Y-105799687D01*
X99957911Y-105736557D01*
X99962758Y-105731425D01*
X100420150Y-105274032D01*
X100420157Y-105274027D01*
X100427217Y-105266967D01*
X100427219Y-105266966D01*
X100571966Y-105122219D01*
X100571968Y-105122215D01*
X100571971Y-105122213D01*
X100680731Y-104972515D01*
X100692287Y-104956610D01*
X100738144Y-104866611D01*
X100785221Y-104774218D01*
X100848477Y-104579534D01*
X100850743Y-104565227D01*
X100880500Y-104377352D01*
X100880500Y-100438576D01*
X100889144Y-100409135D01*
X100895668Y-100379149D01*
X100899422Y-100374133D01*
X100900185Y-100371537D01*
X100916819Y-100350895D01*
X100930895Y-100336819D01*
X100992218Y-100303334D01*
X101018576Y-100300500D01*
X104856051Y-100300500D01*
X104856052Y-100300500D01*
X105058235Y-100268477D01*
X105155576Y-100236848D01*
X105243636Y-100208235D01*
X105313477Y-100206241D01*
X105373310Y-100242322D01*
X105404137Y-100305024D01*
X105396172Y-100374438D01*
X105360618Y-100422020D01*
X105203590Y-100550889D01*
X105074521Y-100708162D01*
X105072315Y-100710850D01*
X105054243Y-100744660D01*
X104974769Y-100893343D01*
X104974768Y-100893345D01*
X104974768Y-100893346D01*
X104972598Y-100900499D01*
X104914699Y-101091367D01*
X104899500Y-101245695D01*
X104899500Y-101557253D01*
X104879815Y-101624292D01*
X104863181Y-101644934D01*
X101008036Y-105500078D01*
X101008031Y-105500084D01*
X100887713Y-105665687D01*
X100887710Y-105665693D01*
X100873667Y-105693254D01*
X100873652Y-105693284D01*
X100872542Y-105695465D01*
X100794780Y-105848081D01*
X100778675Y-105897648D01*
X100776431Y-105904551D01*
X100776428Y-105904560D01*
X100731522Y-106042767D01*
X100712128Y-106165220D01*
X100699500Y-106244948D01*
X100699500Y-114575500D01*
X100679815Y-114642539D01*
X100627011Y-114688294D01*
X100575500Y-114699500D01*
X100455039Y-114699500D01*
X100320750Y-114714630D01*
X100320745Y-114714631D01*
X100150476Y-114774211D01*
X99997737Y-114870184D01*
X99870184Y-114997737D01*
X99774211Y-115150476D01*
X99714631Y-115320745D01*
X99714630Y-115320750D01*
X99699500Y-115455039D01*
X99699500Y-117640953D01*
X99679815Y-117707992D01*
X99627011Y-117753747D01*
X99557853Y-117763691D01*
X99494297Y-117734666D01*
X99487819Y-117728634D01*
X99227612Y-117468427D01*
X99194127Y-117407104D01*
X99192354Y-117364565D01*
X99220500Y-117150783D01*
X99220500Y-116849217D01*
X99181138Y-116550232D01*
X99103087Y-116258942D01*
X98987683Y-115980332D01*
X98836900Y-115719168D01*
X98766186Y-115627011D01*
X98653320Y-115479921D01*
X98653314Y-115479914D01*
X98440085Y-115266685D01*
X98440078Y-115266679D01*
X98200831Y-115083099D01*
X97939671Y-114932318D01*
X97939661Y-114932314D01*
X97661060Y-114816913D01*
X97369766Y-114738861D01*
X97070793Y-114699501D01*
X97070788Y-114699500D01*
X97070783Y-114699500D01*
X96769217Y-114699500D01*
X96769211Y-114699500D01*
X96769206Y-114699501D01*
X96470233Y-114738861D01*
X96178939Y-114816913D01*
X95900338Y-114932314D01*
X95900328Y-114932318D01*
X95639168Y-115083099D01*
X95399921Y-115266679D01*
X95399914Y-115266685D01*
X95186685Y-115479914D01*
X95186679Y-115479921D01*
X95055418Y-115650986D01*
X94998990Y-115692189D01*
X94957042Y-115699500D01*
X94276600Y-115699500D01*
X94209561Y-115679815D01*
X94163806Y-115627011D01*
X94152600Y-115575500D01*
X94152600Y-95926200D01*
X94172285Y-95859161D01*
X94225089Y-95813406D01*
X94276600Y-95802200D01*
X100017648Y-95802200D01*
X105812953Y-95802200D01*
X105879992Y-95821885D01*
G37*
%TD.AperFunction*%
%TA.AperFunction,NonConductor*%
G36*
X83561685Y-118303050D02*
G01*
X83570647Y-118301762D01*
X83594687Y-118312740D01*
X83620039Y-118320185D01*
X83625966Y-118327025D01*
X83634203Y-118330787D01*
X83648492Y-118353021D01*
X83665794Y-118372989D01*
X83668081Y-118383503D01*
X83671977Y-118389565D01*
X83677000Y-118424500D01*
X83677000Y-118544960D01*
X83692130Y-118679249D01*
X83692131Y-118679254D01*
X83751711Y-118849523D01*
X83794047Y-118916900D01*
X83847684Y-119002262D01*
X83975238Y-119129816D01*
X84127978Y-119225789D01*
X84229000Y-119261138D01*
X84298245Y-119285368D01*
X84298250Y-119285369D01*
X84388746Y-119295565D01*
X84432540Y-119300499D01*
X84432543Y-119300500D01*
X84432546Y-119300500D01*
X86618453Y-119300500D01*
X86685492Y-119320185D01*
X86731247Y-119372989D01*
X86741191Y-119442147D01*
X86712166Y-119505703D01*
X86706134Y-119512181D01*
X85889834Y-120328481D01*
X85828511Y-120361966D01*
X85802153Y-120364800D01*
X79813376Y-120364800D01*
X79746337Y-120345115D01*
X79700582Y-120292311D01*
X79690638Y-120223153D01*
X79702891Y-120184505D01*
X79718239Y-120154383D01*
X79718239Y-120154382D01*
X79718241Y-120154379D01*
X79796090Y-119914785D01*
X79835500Y-119665962D01*
X79835500Y-119414038D01*
X79796090Y-119165215D01*
X79718241Y-118925621D01*
X79718239Y-118925618D01*
X79718239Y-118925616D01*
X79676747Y-118844184D01*
X79603870Y-118701155D01*
X79567067Y-118650500D01*
X79455824Y-118497385D01*
X79432344Y-118431579D01*
X79448170Y-118363525D01*
X79498276Y-118314830D01*
X79556142Y-118300500D01*
X80244348Y-118300500D01*
X80449052Y-118300500D01*
X83553000Y-118300500D01*
X83561685Y-118303050D01*
G37*
%TD.AperFunction*%
%TA.AperFunction,NonConductor*%
G36*
X73645434Y-103796265D02*
G01*
X73701367Y-103838137D01*
X73725784Y-103903601D01*
X73726100Y-103912447D01*
X73726100Y-104832251D01*
X73758122Y-105034431D01*
X73758122Y-105034432D01*
X73772546Y-105078824D01*
X73821378Y-105229116D01*
X73821380Y-105229119D01*
X73866865Y-105318389D01*
X73914313Y-105411511D01*
X74034634Y-105577119D01*
X74034636Y-105577121D01*
X74037498Y-105581060D01*
X74036407Y-105581852D01*
X74062468Y-105640028D01*
X74062079Y-105676185D01*
X74032800Y-105861048D01*
X74032800Y-119642351D01*
X74064822Y-119844534D01*
X74128081Y-120039223D01*
X74202107Y-120184505D01*
X74215003Y-120253174D01*
X74188727Y-120317915D01*
X74131620Y-120358172D01*
X74091622Y-120364800D01*
X72193376Y-120364800D01*
X72126337Y-120345115D01*
X72080582Y-120292311D01*
X72070638Y-120223153D01*
X72082891Y-120184505D01*
X72098239Y-120154383D01*
X72098239Y-120154382D01*
X72098241Y-120154379D01*
X72176090Y-119914785D01*
X72215500Y-119665962D01*
X72215500Y-119414038D01*
X72176090Y-119165215D01*
X72098241Y-118925621D01*
X72098239Y-118925618D01*
X72098239Y-118925616D01*
X72056747Y-118844184D01*
X71983870Y-118701155D01*
X71936073Y-118635368D01*
X71835798Y-118497350D01*
X71835794Y-118497345D01*
X71696130Y-118357681D01*
X71662645Y-118296358D01*
X71667629Y-118226666D01*
X71696130Y-118182319D01*
X71835793Y-118042656D01*
X71983870Y-117838845D01*
X72098241Y-117614379D01*
X72176090Y-117374785D01*
X72215500Y-117125962D01*
X72215500Y-116874038D01*
X72176090Y-116625215D01*
X72098241Y-116385621D01*
X72098239Y-116385618D01*
X72098239Y-116385616D01*
X72033693Y-116258939D01*
X71983870Y-116161155D01*
X71845533Y-115970750D01*
X71841296Y-115964918D01*
X71817816Y-115899112D01*
X71833641Y-115831058D01*
X71862948Y-115796181D01*
X71911410Y-115756410D01*
X72042685Y-115596450D01*
X72140232Y-115413954D01*
X72200300Y-115215934D01*
X72215500Y-115061608D01*
X72215500Y-113858392D01*
X72200300Y-113704066D01*
X72140232Y-113506046D01*
X72042685Y-113323550D01*
X71946489Y-113206334D01*
X71911410Y-113163589D01*
X71751452Y-113032317D01*
X71751453Y-113032317D01*
X71751450Y-113032315D01*
X71628688Y-112966697D01*
X71581046Y-112941231D01*
X71531202Y-112892268D01*
X71515500Y-112831873D01*
X71515500Y-107134348D01*
X71510139Y-107100500D01*
X71483477Y-106932166D01*
X71455876Y-106847218D01*
X71455876Y-106847217D01*
X71420223Y-106737487D01*
X71420221Y-106737481D01*
X71327286Y-106555089D01*
X71318253Y-106542656D01*
X71281425Y-106491966D01*
X71228017Y-106418455D01*
X71206971Y-106389487D01*
X71206968Y-106389484D01*
X71206966Y-106389481D01*
X71062219Y-106244734D01*
X71062218Y-106244733D01*
X71059107Y-106241622D01*
X71059092Y-106241608D01*
X70086075Y-105268590D01*
X70052590Y-105207267D01*
X70051283Y-105200306D01*
X70039390Y-105125214D01*
X69984847Y-104957350D01*
X69961541Y-104885621D01*
X69961539Y-104885618D01*
X69961539Y-104885616D01*
X69904777Y-104774215D01*
X69847170Y-104661155D01*
X69804447Y-104602352D01*
X69728185Y-104497385D01*
X69704705Y-104431579D01*
X69720531Y-104363525D01*
X69770636Y-104314830D01*
X69828503Y-104300500D01*
X72602351Y-104300500D01*
X72602352Y-104300500D01*
X72804535Y-104268477D01*
X72920855Y-104230682D01*
X72999219Y-104205220D01*
X73153702Y-104126507D01*
X73181611Y-104112287D01*
X73347219Y-103991966D01*
X73514419Y-103824766D01*
X73575742Y-103791281D01*
X73645434Y-103796265D01*
G37*
%TD.AperFunction*%
%TA.AperFunction,NonConductor*%
G36*
X48417382Y-100932624D02*
G01*
X48594949Y-101061634D01*
X48653303Y-101091367D01*
X48826423Y-101179577D01*
X48826425Y-101179577D01*
X48826428Y-101179579D01*
X49073507Y-101259860D01*
X49205706Y-101280797D01*
X49330098Y-101300500D01*
X49330103Y-101300500D01*
X49589902Y-101300500D01*
X49703298Y-101282539D01*
X49846493Y-101259860D01*
X50093572Y-101179579D01*
X50325051Y-101061634D01*
X50386779Y-101016785D01*
X50418363Y-101005515D01*
X50449670Y-100993507D01*
X50451155Y-100993815D01*
X50452584Y-100993306D01*
X50485248Y-101000901D01*
X50518078Y-101007725D01*
X50519671Y-101008906D01*
X50520638Y-101009131D01*
X50546527Y-101028613D01*
X50546961Y-101029039D01*
X50647738Y-101129816D01*
X50652986Y-101133113D01*
X50662363Y-101142318D01*
X50676399Y-101167465D01*
X50692952Y-101191046D01*
X50694371Y-101199663D01*
X50696416Y-101203327D01*
X50696020Y-101209681D01*
X50699500Y-101230809D01*
X50699500Y-104602351D01*
X50731522Y-104804530D01*
X50731524Y-104804542D01*
X50739490Y-104829059D01*
X50739492Y-104829061D01*
X50794778Y-104999216D01*
X50794780Y-104999219D01*
X50835340Y-105078823D01*
X50887713Y-105181611D01*
X50949728Y-105266968D01*
X51008035Y-105347220D01*
X51892223Y-106231408D01*
X51925708Y-106292731D01*
X51927015Y-106299689D01*
X51938909Y-106374783D01*
X51938910Y-106374785D01*
X52016759Y-106614379D01*
X52128152Y-106833001D01*
X52131132Y-106838848D01*
X52279201Y-107042649D01*
X52279205Y-107042654D01*
X52457345Y-107220794D01*
X52457350Y-107220798D01*
X52635117Y-107349952D01*
X52661155Y-107368870D01*
X52804184Y-107441747D01*
X52885616Y-107483239D01*
X52885618Y-107483239D01*
X52885621Y-107483241D01*
X53125215Y-107561090D01*
X53374038Y-107600500D01*
X53374039Y-107600500D01*
X53625961Y-107600500D01*
X53625962Y-107600500D01*
X53874785Y-107561090D01*
X54114379Y-107483241D01*
X54338845Y-107368870D01*
X54542656Y-107220793D01*
X54720793Y-107042656D01*
X54868870Y-106838845D01*
X54983241Y-106614379D01*
X55061090Y-106374785D01*
X55100500Y-106125962D01*
X55100500Y-105874038D01*
X55061090Y-105625215D01*
X54983241Y-105385621D01*
X54983239Y-105385618D01*
X54983239Y-105385616D01*
X54941747Y-105304184D01*
X54868870Y-105161155D01*
X54809053Y-105078824D01*
X54720798Y-104957350D01*
X54720794Y-104957345D01*
X54542654Y-104779205D01*
X54542649Y-104779201D01*
X54338848Y-104631132D01*
X54338847Y-104631131D01*
X54338845Y-104631130D01*
X54150150Y-104534985D01*
X54099354Y-104487010D01*
X54082559Y-104419189D01*
X54105096Y-104353054D01*
X54159812Y-104309603D01*
X54206445Y-104300500D01*
X59508097Y-104300500D01*
X59575136Y-104320185D01*
X59620891Y-104372989D01*
X59630835Y-104442147D01*
X59608415Y-104497385D01*
X59489432Y-104661151D01*
X59375060Y-104885616D01*
X59297210Y-105125214D01*
X59257800Y-105374038D01*
X59257800Y-105375340D01*
X59257596Y-105376627D01*
X59257494Y-105377912D01*
X59257749Y-105378880D01*
X59251731Y-105413658D01*
X59235315Y-105464182D01*
X59194022Y-105591267D01*
X59194022Y-105591268D01*
X59186049Y-105641610D01*
X59162000Y-105793448D01*
X59162000Y-115419190D01*
X59142315Y-115486229D01*
X59115315Y-115516135D01*
X59110238Y-115520183D01*
X58982684Y-115647737D01*
X58886711Y-115800476D01*
X58827131Y-115970745D01*
X58827130Y-115970750D01*
X58812000Y-116105039D01*
X58812000Y-117894960D01*
X58827130Y-118029249D01*
X58827131Y-118029254D01*
X58886711Y-118199523D01*
X58969190Y-118330787D01*
X58982684Y-118352262D01*
X59110238Y-118479816D01*
X59262978Y-118575789D01*
X59433245Y-118635368D01*
X59433250Y-118635369D01*
X59523746Y-118645565D01*
X59567540Y-118650499D01*
X59567543Y-118650500D01*
X59567546Y-118650500D01*
X61357457Y-118650500D01*
X61357458Y-118650499D01*
X61424604Y-118642934D01*
X61491749Y-118635369D01*
X61491752Y-118635368D01*
X61491755Y-118635368D01*
X61662022Y-118575789D01*
X61814762Y-118479816D01*
X61915155Y-118379423D01*
X61976478Y-118345938D01*
X62046170Y-118350922D01*
X62075718Y-118366783D01*
X62137449Y-118411634D01*
X62197334Y-118442147D01*
X62368923Y-118529577D01*
X62368925Y-118529577D01*
X62368928Y-118529579D01*
X62616007Y-118609860D01*
X62748206Y-118630797D01*
X62872598Y-118650500D01*
X62872603Y-118650500D01*
X63132402Y-118650500D01*
X63245798Y-118632539D01*
X63388993Y-118609860D01*
X63636072Y-118529579D01*
X63867551Y-118411634D01*
X63957974Y-118345938D01*
X63987919Y-118324182D01*
X64053725Y-118300702D01*
X64060804Y-118300500D01*
X68493858Y-118300500D01*
X68560897Y-118320185D01*
X68606652Y-118372989D01*
X68616596Y-118442147D01*
X68594176Y-118497385D01*
X68446132Y-118701151D01*
X68331760Y-118925616D01*
X68253910Y-119165214D01*
X68214500Y-119414038D01*
X68214500Y-119665961D01*
X68253910Y-119914785D01*
X68331760Y-120154383D01*
X68347109Y-120184505D01*
X68360005Y-120253174D01*
X68333729Y-120317914D01*
X68276623Y-120358172D01*
X68236624Y-120364800D01*
X57255346Y-120364800D01*
X57188307Y-120345115D01*
X57167665Y-120328481D01*
X54307612Y-117468428D01*
X54274127Y-117407105D01*
X54272354Y-117364566D01*
X54300500Y-117150783D01*
X54300500Y-116849217D01*
X54261138Y-116550232D01*
X54183087Y-116258942D01*
X54067683Y-115980332D01*
X53916900Y-115719168D01*
X53846186Y-115627011D01*
X53733320Y-115479921D01*
X53733314Y-115479914D01*
X53520085Y-115266685D01*
X53349013Y-115135416D01*
X53307811Y-115078988D01*
X53300500Y-115037040D01*
X53300500Y-112017648D01*
X53268477Y-111815468D01*
X53268477Y-111815465D01*
X53205220Y-111620782D01*
X53205220Y-111620781D01*
X53158753Y-111529585D01*
X53112287Y-111438389D01*
X52991966Y-111272781D01*
X47806866Y-106087681D01*
X47773381Y-106026358D01*
X47778365Y-105956666D01*
X47806866Y-105912319D01*
X47858137Y-105861048D01*
X47911966Y-105807219D01*
X48032287Y-105641611D01*
X48095026Y-105518477D01*
X48125220Y-105459219D01*
X48161611Y-105347219D01*
X48188477Y-105264535D01*
X48220500Y-105062352D01*
X48220500Y-104857648D01*
X48220500Y-101032944D01*
X48240185Y-100965905D01*
X48292989Y-100920150D01*
X48362147Y-100910206D01*
X48417382Y-100932624D01*
G37*
%TD.AperFunction*%
M02*
