%TF.GenerationSoftware,KiCad,Pcbnew,10.0.4*%
%TF.CreationDate,2026-06-26T22:16:51+02:00*%
%TF.ProjectId,boost_v2,626f6f73-745f-4763-922e-6b696361645f,rev?*%
%TF.SameCoordinates,Original*%
%TF.FileFunction,Copper,L1,Top*%
%TF.FilePolarity,Positive*%
%FSLAX46Y46*%
G04 Gerber Fmt 4.6, Leading zero omitted, Abs format (unit mm)*
G04 Created by KiCad (PCBNEW 10.0.4) date 2026-06-26 22:16:51*
%MOMM*%
%LPD*%
G01*
G04 APERTURE LIST*
G04 Aperture macros list*
%AMRoundRect*
0 Rectangle with rounded corners*
0 $1 Rounding radius*
0 $2 $3 $4 $5 $6 $7 $8 $9 X,Y pos of 4 corners*
0 Add a 4 corners polygon primitive as box body*
4,1,4,$2,$3,$4,$5,$6,$7,$8,$9,$2,$3,0*
0 Add four circle primitives for the rounded corners*
1,1,$1+$1,$2,$3*
1,1,$1+$1,$4,$5*
1,1,$1+$1,$6,$7*
1,1,$1+$1,$8,$9*
0 Add four rect primitives between the rounded corners*
20,1,$1+$1,$2,$3,$4,$5,0*
20,1,$1+$1,$4,$5,$6,$7,0*
20,1,$1+$1,$6,$7,$8,$9,0*
20,1,$1+$1,$8,$9,$2,$3,0*%
G04 Aperture macros list end*
%TA.AperFunction,ComponentPad*%
%ADD10RoundRect,0.250000X-0.550000X-0.550000X0.550000X-0.550000X0.550000X0.550000X-0.550000X0.550000X0*%
%TD*%
%TA.AperFunction,ComponentPad*%
%ADD11C,1.600000*%
%TD*%
%TA.AperFunction,ComponentPad*%
%ADD12R,1.700000X2.000000*%
%TD*%
%TA.AperFunction,ComponentPad*%
%ADD13O,1.700000X2.000000*%
%TD*%
%TA.AperFunction,ComponentPad*%
%ADD14R,1.700000X1.700000*%
%TD*%
%TA.AperFunction,ComponentPad*%
%ADD15C,1.700000*%
%TD*%
%TA.AperFunction,ComponentPad*%
%ADD16RoundRect,0.249999X-0.850001X-0.850001X0.850001X-0.850001X0.850001X0.850001X-0.850001X0.850001X0*%
%TD*%
%TA.AperFunction,ComponentPad*%
%ADD17C,2.200000*%
%TD*%
%TA.AperFunction,ComponentPad*%
%ADD18R,3.000000X3.000000*%
%TD*%
%TA.AperFunction,ComponentPad*%
%ADD19C,3.000000*%
%TD*%
%TA.AperFunction,ComponentPad*%
%ADD20RoundRect,0.250000X-0.550000X0.550000X-0.550000X-0.550000X0.550000X-0.550000X0.550000X0.550000X0*%
%TD*%
%TA.AperFunction,ComponentPad*%
%ADD21RoundRect,0.249999X0.850001X0.850001X-0.850001X0.850001X-0.850001X-0.850001X0.850001X-0.850001X0*%
%TD*%
%TA.AperFunction,ComponentPad*%
%ADD22RoundRect,0.250000X0.550000X-0.950000X0.550000X0.950000X-0.550000X0.950000X-0.550000X-0.950000X0*%
%TD*%
%TA.AperFunction,ComponentPad*%
%ADD23O,1.600000X2.400000*%
%TD*%
%TA.AperFunction,ComponentPad*%
%ADD24RoundRect,0.250000X-0.950000X-0.550000X0.950000X-0.550000X0.950000X0.550000X-0.950000X0.550000X0*%
%TD*%
%TA.AperFunction,ComponentPad*%
%ADD25O,2.400000X1.600000*%
%TD*%
%TA.AperFunction,ComponentPad*%
%ADD26C,4.000000*%
%TD*%
G04 APERTURE END LIST*
D10*
%TO.P,C2,1*%
%TO.N,+15V*%
X78000000Y-90000000D03*
D11*
%TO.P,C2,2*%
%TO.N,GND*%
X81500000Y-90000000D03*
%TD*%
D12*
%TO.P,M1,1*%
%TO.N,GATE*%
X52000000Y-99500000D03*
D13*
%TO.P,M1,2*%
%TO.N,/SW*%
X49460000Y-99500000D03*
%TO.P,M1,3*%
%TO.N,GND*%
X46920000Y-99500000D03*
%TD*%
D11*
%TO.P,R3,1*%
%TO.N,/LO*%
X90735000Y-105500000D03*
%TO.P,R3,2*%
%TO.N,GATE*%
X98355000Y-105500000D03*
%TD*%
D14*
%TO.P,J3,1*%
%TO.N,PWM*%
X60462500Y-117000000D03*
D15*
%TO.P,J3,2*%
%TO.N,GND_MCU*%
X63002500Y-117000000D03*
%TD*%
D16*
%TO.P,D2,1*%
%TO.N,/LO*%
X89420000Y-99000000D03*
D17*
%TO.P,D2,2*%
%TO.N,GATE*%
X99580000Y-99000000D03*
%TD*%
D11*
%TO.P,C3,1*%
%TO.N,+15V*%
X77166700Y-98500000D03*
%TO.P,C3,2*%
%TO.N,GND*%
X82166700Y-98500000D03*
%TD*%
%TO.P,R2,1*%
%TO.N,/LIN*%
X75796700Y-105500000D03*
%TO.P,R2,2*%
%TO.N,GND*%
X83416700Y-105500000D03*
%TD*%
D18*
%TO.P,J4,1*%
%TO.N,+15V*%
X85977500Y-117000000D03*
D19*
%TO.P,J4,2*%
%TO.N,GND*%
X91057500Y-117000000D03*
%TD*%
D20*
%TO.P,C1,1*%
%TO.N,VOUT_V2*%
X106500000Y-101847300D03*
D11*
%TO.P,C1,2*%
%TO.N,GND*%
X106500000Y-105347300D03*
%TD*%
D21*
%TO.P,D1,1*%
%TO.N,VOUT_V2*%
X69913300Y-99000000D03*
D17*
%TO.P,D1,2*%
%TO.N,/SW*%
X59753300Y-99000000D03*
%TD*%
D22*
%TO.P,U2,1*%
%TO.N,/LO*%
X89960000Y-92000000D03*
D23*
%TO.P,U2,2*%
%TO.N,GND*%
X92500000Y-92000000D03*
%TO.P,U2,3*%
%TO.N,+15V*%
X95040000Y-92000000D03*
%TO.P,U2,4*%
%TO.N,N/C*%
X97580000Y-92000000D03*
%TO.P,U2,5*%
%TO.N,GND*%
X100120000Y-92000000D03*
%TO.P,U2,6*%
%TO.N,N/C*%
X102660000Y-92000000D03*
%TO.P,U2,7*%
X105200000Y-92000000D03*
%TO.P,U2,8*%
X105200000Y-84380000D03*
%TO.P,U2,9*%
%TO.N,+15V*%
X102660000Y-84380000D03*
%TO.P,U2,10*%
%TO.N,GND*%
X100120000Y-84380000D03*
%TO.P,U2,11*%
X97580000Y-84380000D03*
%TO.P,U2,12*%
%TO.N,/LIN*%
X95040000Y-84380000D03*
%TO.P,U2,13*%
%TO.N,GND*%
X92500000Y-84380000D03*
%TO.P,U2,14*%
%TO.N,N/C*%
X89960000Y-84380000D03*
%TD*%
D18*
%TO.P,J2,1*%
%TO.N,VOUT_V2*%
X102000000Y-117000000D03*
D19*
%TO.P,J2,2*%
%TO.N,GND*%
X96920000Y-117000000D03*
%TD*%
D11*
%TO.P,R4,1*%
%TO.N,GATE*%
X53500000Y-106000000D03*
%TO.P,R4,2*%
%TO.N,GND*%
X45880000Y-106000000D03*
%TD*%
%TO.P,R1,1*%
%TO.N,PWM*%
X60858300Y-105500000D03*
%TO.P,R1,2*%
%TO.N,/OPTO_A*%
X68478300Y-105500000D03*
%TD*%
D24*
%TO.P,U1,1*%
%TO.N,/OPTO_A*%
X70215000Y-114460000D03*
D25*
%TO.P,U1,2*%
%TO.N,GND_MCU*%
X70215000Y-117000000D03*
%TO.P,U1,3*%
%TO.N,N/C*%
X70215000Y-119540000D03*
%TO.P,U1,4*%
%TO.N,/LIN*%
X77835000Y-119540000D03*
%TO.P,U1,5*%
%TO.N,+15V*%
X77835000Y-117000000D03*
%TO.P,U1,6*%
%TO.N,N/C*%
X77835000Y-114460000D03*
%TD*%
D26*
%TO.P,L1,1*%
%TO.N,VIN_5V*%
X42800000Y-75500000D03*
%TO.P,L1,2*%
%TO.N,/SW*%
X71000000Y-75500000D03*
%TD*%
D18*
%TO.P,J1,1*%
%TO.N,VIN_5V*%
X46920000Y-117000000D03*
D19*
%TO.P,J1,2*%
%TO.N,GND*%
X52000000Y-117000000D03*
%TD*%
M02*
